<svg width="32" height="32" viewBox="0 0 32 32" fill="none" xmlns="http://www.w3.org/2000/svg">
<g clip-path="url(#clip0_280_16740)">
<path d="M9.04358 30.4124C11.1471 31.4295 13.5069 32 16.0001 32C18.4933 32 20.8531 31.4295 22.9566 30.4124L24.3479 16L22.9566 1.58763C20.8531 0.5705 18.4933 0 16.0001 0C13.5069 0 11.1471 0.5705 9.04358 1.58763L7.65227 16L9.04358 30.4124Z" fill="#FFDA44"/>
<path d="M22.9564 30.4118C28.3084 27.8239 31.9999 22.3433 31.9999 16C31.9999 9.65669 28.3084 4.17607 22.9564 1.5882V30.4118Z" fill="#D80027"/>
<path d="M9.0435 30.4118V1.5882C3.69156 4.17607 0 9.65663 0 16C0 22.3434 3.69156 27.8239 9.0435 30.4118Z" fill="#0052B4"/>
<path d="M16 21.5652C16 19.012 16 16 16 16H20.1739V18.0869C20.1739 18.4495 19.4783 19.778 17.7612 20.8696C17.1109 21.2831 16.4378 21.4161 16 21.5652Z" fill="#D80027"/>
<path d="M15.9999 11.826H11.826V15.9999H15.9999V11.826Z" fill="#D80027"/>
<path d="M18.0869 10.4348C18.0869 9.66639 17.4639 9.04352 16.6956 9.04352C16.4418 9.04352 16.2047 9.11252 15.9999 9.23114C15.7951 9.11252 15.5581 9.04352 15.3043 9.04352C14.5359 9.04352 13.913 9.66639 13.913 10.4348H10.4347V17.3913C10.4347 19.981 12.4914 21.4787 14.1042 22.2551C13.9835 22.4612 13.913 22.7004 13.913 22.9566C13.913 23.725 14.5359 24.3479 15.3043 24.3479C15.5581 24.3479 15.7952 24.2789 15.9999 24.1603C16.2047 24.2789 16.4418 24.3479 16.6956 24.3479C17.4639 24.3479 18.0869 23.725 18.0869 22.9566C18.0869 22.7004 18.0164 22.4612 17.8956 22.2551C19.5084 21.4787 21.5651 19.9811 21.5651 17.3913V10.4348H18.0869ZM19.4782 17.3913C19.4782 17.7538 19.4782 18.857 17.7612 19.9486C17.1108 20.3621 16.4377 20.6303 15.9999 20.7793C15.5622 20.6303 14.8891 20.3621 14.2387 19.9486C12.5217 18.857 12.5217 17.7538 12.5217 17.3913V12.5218H19.4782V17.3913Z" fill="#FF9811"/>
</g>
<defs>
<clipPath id="clip0_280_16740">
<rect width="32" height="32" fill="white"/>
</clipPath>
</defs>
</svg>
