<svg width="32" height="32" viewBox="0 0 32 32" fill="none" xmlns="http://www.w3.org/2000/svg">
<g clip-path="url(#clip0_280_16632)">
<path d="M16 32C24.8366 32 32 24.8366 32 16C32 7.16344 24.8366 0 16 0C7.16344 0 0 7.16344 0 16C0 24.8366 7.16344 32 16 32Z" fill="#F0F0F0"/>
<path d="M9.04366 21.5652L10.435 31.0049C12.1682 31.6481 14.043 32 16.0002 32C22.8795 32 28.7443 27.658 31.0049 21.5652H9.04366Z" fill="black"/>
<path d="M9.04366 10.4348L10.435 0.995062C12.1682 0.351875 14.043 0 16.0002 0C22.8795 0 28.7443 4.342 31.0049 10.4348H9.04366Z" fill="#6DA544"/>
<path d="M0 16.0001C0 22.8795 4.34206 28.7442 10.4348 31.0049V0.995239C4.34206 3.25593 0 9.12061 0 16.0001Z" fill="#A2001D"/>
</g>
<defs>
<clipPath id="clip0_280_16632">
<rect width="32" height="32" fill="white"/>
</clipPath>
</defs>
</svg>
