<svg width="32" height="32" viewBox="0 0 32 32" fill="none" xmlns="http://www.w3.org/2000/svg">
<g clip-path="url(#clip0_280_16711)">
<path d="M22.9564 1.58763C20.8529 0.5705 18.493 0 15.9999 0C13.5068 0 11.1469 0.5705 9.04341 1.58763L7.6521 16L9.04341 30.4124C11.1469 31.4295 13.5068 32 15.9999 32C18.493 32 20.8529 31.4295 22.9564 30.4124L24.3477 16L22.9564 1.58763Z" fill="#D80027"/>
<path d="M9.0435 1.5882C3.69163 4.17613 0 9.65669 0 16C0 22.3433 3.69163 27.8239 9.0435 30.4118V1.5882Z" fill="black"/>
<path d="M22.9565 1.5882V30.4118C28.3084 27.8239 32 22.3433 32 16C32 9.65669 28.3084 4.17613 22.9565 1.5882Z" fill="#496E2D"/>
<path d="M15.9999 10.4348C12.9263 10.4348 10.4348 12.9264 10.4348 16C10.4348 19.0736 12.9264 21.5652 15.9999 21.5652C19.0735 21.5652 21.5651 19.0736 21.5651 16C21.5651 12.9264 19.0736 10.4348 15.9999 10.4348ZM15.9999 19.4783C14.0789 19.4783 12.5217 17.9209 12.5217 16C12.5217 14.0791 14.079 12.5218 15.9999 12.5218C17.9209 12.5218 19.4782 14.0791 19.4782 16C19.4782 17.9209 17.9209 19.4783 15.9999 19.4783Z" fill="#FFDA44"/>
<path d="M16.0001 13.913C15.2317 13.913 14.6088 14.5359 14.6088 15.3043V17.3913H17.3914V15.3043C17.3914 14.5359 16.7685 13.913 16.0001 13.913Z" fill="#FFDA44"/>
</g>
<defs>
<clipPath id="clip0_280_16711">
<rect width="32" height="32" fill="white"/>
</clipPath>
</defs>
</svg>
