<svg width="32" height="32" viewBox="0 0 32 32" fill="none" xmlns="http://www.w3.org/2000/svg">
<g clip-path="url(#clip0_280_16623)">
<path d="M32 16C32 24.8365 24.8365 32 16 32C7.1635 32 0 24.8365 0 16C0 16.0038 16 0.00175 16 0C24.8365 0 32 7.1635 32 16Z" fill="#0052B4"/>
<path d="M15.9573 15.9998H16.0005C16.0005 15.9855 16.0005 15.9716 16.0005 15.9572C15.9861 15.9715 15.9717 15.9856 15.9573 15.9998Z" fill="#F0F0F0"/>
<path d="M16 8.34781C16 5.5325 16 3.68781 16 0H15.9973C7.16194 0.0015 0 7.16431 0 16H8.34781V11.2993L13.0485 16H15.9572C15.9715 15.9858 15.9858 15.9715 16.0001 15.9572C16.0001 14.8793 16.0001 13.9174 16.0001 13.0486L11.2992 8.34781H16Z" fill="#F0F0F0"/>
<path d="M8.0949 2.08698C5.59246 3.51191 3.51203 5.59229 2.08715 8.09473V16H6.26109V6.26104V6.26091H16.0002C16.0002 4.94448 16.0002 3.69035 16.0002 2.08698H8.0949Z" fill="#D80027"/>
<path d="M16.0002 14.0325L10.3155 8.34796H8.34805V8.34809L16.0001 16.0001H16.0002C16.0002 16.0001 16.0002 14.6434 16.0002 14.0325Z" fill="#D80027"/>
<path d="M27.0589 18.3422C27.5189 17.7092 27.8263 16.9362 27.8263 16V9.04352C27.2449 9.48027 26.5224 9.73915 25.7393 9.73915C24.6014 9.73915 23.5913 9.19271 22.9567 8.34796C22.3221 9.19271 21.3119 9.73915 20.1741 9.73915C19.3909 9.73915 18.6684 9.48021 18.0871 9.04365V16C18.0871 16.9362 18.3944 17.7092 18.8545 18.3422H27.0589Z" fill="#F3F3F3"/>
<path d="M25.6116 14.7095C25.8331 14.1691 26.0053 13.3793 26.0053 12.9862C26.0053 12.3547 25.182 11.8427 25.182 11.8427C25.182 11.8427 24.3586 12.3547 24.3586 12.9862C24.3586 13.3793 24.5309 14.1692 24.7523 14.7095L24.277 15.7827C24.5563 15.8963 24.8617 15.9594 25.182 15.9594C25.5023 15.9594 25.8077 15.8962 26.0871 15.7827L25.6116 14.7095Z" fill="#FF9811"/>
<path d="M22.3934 11.2345C21.8149 11.3129 21.0447 11.5588 20.7043 11.7553C20.1574 12.0711 20.1256 13.0401 20.1256 13.0401C20.1256 13.0401 20.9808 13.4971 21.5276 13.1814C21.8681 12.9848 22.4659 12.4408 22.823 11.9788L23.9902 11.8538C23.9489 11.5552 23.8506 11.2591 23.6907 10.9818C23.5305 10.7045 23.3233 10.4715 23.0851 10.2863L22.3934 11.2345Z" fill="#FF9811"/>
<path d="M20.9932 15.7592C21.3502 16.2209 21.9482 16.7648 22.2887 16.9615C22.8356 17.2772 23.6907 16.8203 23.6907 16.8203C23.6907 16.8203 23.6588 15.8512 23.112 15.5354C22.7714 15.3388 22.0014 15.0932 21.4227 15.0149L20.731 14.0666C20.493 14.2517 20.2857 14.4848 20.1255 14.7619C19.9655 15.0393 19.8675 15.3353 19.826 15.6341L20.9932 15.7592Z" fill="#FF9811"/>
<path d="M18.6824 18.0871C19.9816 20.1718 22.9567 20.8696 22.9567 20.8696C22.9567 20.8696 25.9317 20.1718 27.231 18.0871H18.6824Z" fill="#338AF3"/>
</g>
<defs>
<clipPath id="clip0_280_16623">
<rect width="32" height="32" fill="white"/>
</clipPath>
</defs>
</svg>
