<svg width="32" height="32" viewBox="0 0 32 32" fill="none" xmlns="http://www.w3.org/2000/svg">
<g clip-path="url(#clip0_280_16626)">
<path d="M16 32C24.8366 32 32 24.8366 32 16C32 7.16344 24.8366 0 16 0C7.16344 0 0 7.16344 0 16C0 24.8366 7.16344 32 16 32Z" fill="#D80027"/>
<path d="M25.0435 11.8755H19.2482C19.6059 11.5009 19.8261 10.9937 19.8261 10.4348C19.8261 9.28221 18.8917 8.34784 17.7392 8.34784C17.013 8.34784 16.3739 8.71884 16 9.2814C15.6262 8.71884 14.987 8.34784 14.2609 8.34784C13.1084 8.34784 12.174 9.28221 12.174 10.4348C12.174 10.9937 12.3942 11.501 12.7519 11.8755H6.9566C6.9566 13.4123 8.29517 14.6581 9.83185 14.6581H9.7391C9.7391 16.195 10.9849 17.4408 12.5218 17.4408C12.5218 17.9385 12.653 18.4052 12.882 18.8092L10.5739 21.1173L12.3447 22.8881L14.8567 20.3762C14.9551 20.4122 15.0569 20.4412 15.162 20.4608L13.6441 23.888L16 26.4348L18.356 23.8879L16.838 20.4607C16.9432 20.441 17.045 20.4122 17.1434 20.376L19.6554 22.888L21.4262 21.1172L19.118 18.809C19.3471 18.405 19.4783 17.9383 19.4783 17.4406C21.0151 17.4406 22.2609 16.1948 22.2609 14.6579H22.1682C23.7049 14.658 25.0435 13.4123 25.0435 11.8755Z" fill="black"/>
</g>
<defs>
<clipPath id="clip0_280_16626">
<rect width="32" height="32" fill="white"/>
</clipPath>
</defs>
</svg>
