<svg width="32" height="32" viewBox="0 0 32 32" fill="none" xmlns="http://www.w3.org/2000/svg">
<g clip-path="url(#clip0_280_16522)">
<path d="M32 16C32 14.0429 31.648 12.1681 31.0048 10.4348L16 9.73914L0.995188 10.4348C0.352063 12.1681 0 14.0429 0 16C0 17.9571 0.352063 19.8319 0.995188 21.5652L16 22.2609L31.0048 21.5653C31.648 19.8319 32 17.9571 32 16Z" fill="#0052B4"/>
<path d="M16.0002 32C22.8796 32 28.7443 27.658 31.005 21.5652H0.995342C3.25603 27.658 9.12072 32 16.0002 32Z" fill="#FF9811"/>
<path d="M0.995342 10.4348H31.005C28.7443 4.342 22.8796 0 16.0002 0C9.12072 0 3.25603 4.342 0.995342 10.4348Z" fill="#D80027"/>
</g>
<defs>
<clipPath id="clip0_280_16522">
<rect width="32" height="32" fill="white"/>
</clipPath>
</defs>
</svg>
