<svg width="32" height="32" viewBox="0 0 32 32" fill="none" xmlns="http://www.w3.org/2000/svg">
<g clip-path="url(#clip0_533_480)">
<path d="M16 32C24.8366 32 32 24.8366 32 16C32 7.16344 24.8366 0 16 0C7.16344 0 0 7.16344 0 16C0 24.8366 7.16344 32 16 32Z" fill="#009EDB"/>
<path d="M15.4691 6.40038C15.4518 6.39749 15.4339 6.41215 15.4149 6.44853C15.3246 6.62762 15.2879 6.77032 15.2624 6.87946C15.2383 6.98545 15.0765 6.98582 15.0088 7.00821C14.9411 7.0306 14.929 7.24256 14.8622 7.15654C14.6506 6.88509 14.5124 6.8739 14.332 6.89629C14.2248 6.94946 14.4984 7.08938 14.4222 7.25448C13.8808 7.25448 13.7906 7.43357 13.7003 7.97086C13.5312 7.80856 13.3732 8.20033 12.8882 8.32905C12.8967 8.44379 12.9446 8.74047 12.8882 8.86638C12.8819 8.89784 12.9915 8.96391 12.9564 9.09574C12.9214 9.22758 12.66 9.26565 12.6165 9.42572C12.5729 9.58574 12.7275 9.54592 12.6957 9.66198C12.6638 9.77809 12.5217 9.7842 12.5978 10.1788C12.5809 10.2515 12.437 10.3887 12.437 10.3887C12.437 10.3887 12.3329 10.5045 12.4881 10.6661C12.2326 10.863 12.2496 11.2996 12.2566 11.4633C11.9972 11.3961 11.8054 11.5528 11.8054 11.5528L11.8956 11.9111C11.1737 12.1797 10.9171 11.9809 10.81 12.1068C10.7042 12.265 10.4336 12.3329 9.90306 12.3598C9.80903 12.3703 9.7525 12.5379 9.45925 12.5379C9.18853 12.4483 9.00804 12.0901 8.64712 11.8215L7.83499 11.5528C7.56427 11.3737 7.47404 11.1946 7.11312 11.0155L6.4815 10.7468C6.0303 10.4782 5.71737 9.55192 5.48894 9.76182C5.48894 10.3887 5.66939 11.2841 6.03031 11.7319C6.30103 11.911 6.39129 12.0006 6.66201 12.0901C6.84245 12.3588 6.8424 12.3588 7.11312 12.5379C6.66196 12.7169 6.66198 12.6274 6.4815 13.0751C6.76068 13.1731 6.58301 13.3053 6.72966 13.4207C6.87626 13.5361 6.96089 13.492 7.07651 13.576C7.15825 13.548 7.11312 13.4333 7.11312 13.4333C7.11312 13.4333 7.21746 13.2458 7.29363 13.3438C7.44874 13.7187 7.65457 13.6124 7.65457 13.6124C7.67714 13.702 7.61222 13.9062 7.66439 13.9399C7.82653 14.0434 7.67708 14.2925 7.70526 14.3261C7.87448 14.3933 7.8942 14.049 7.94638 14.063C7.99856 14.0771 8.01552 14.0602 8.10576 14.0602C8.10576 14.4184 8.10575 14.4184 8.28619 14.7766C8.28619 14.7766 8.08321 14.7794 8.01411 14.8045C8.1227 15.0873 7.56151 15.3838 7.56996 15.5013C7.55024 15.5601 7.66024 16.4332 7.74482 16.5675C7.79842 16.6515 7.20337 16.5675 7.20337 16.5675C7.20337 17.2839 7.38388 17.463 8.10576 17.5525C8.10576 17.5525 7.97602 17.3063 8.01551 17.2839C8.21005 17.1076 8.19602 17.6421 8.19602 17.6421C8.96861 17.9667 8.10578 17.8744 8.4667 18.3585L8.82764 18.269C8.91788 19.2541 9.09833 18.7167 8.91789 19.7913H9.369V20.3286C10.2714 20.0599 10.0007 20.5077 10.5421 20.6868L11.1737 20.8658L11.8956 21.2241V21.045C11.8956 21.045 13.0066 21.1093 13.1166 21.1457C13.3592 21.1569 13.2209 20.8799 13.5819 20.8799C13.6058 20.8799 13.9936 21.1394 14.099 20.8002C14.0724 21.1491 14.7775 20.9862 14.9297 20.9834C15.0962 20.9834 16.0521 21.6158 16.5935 21.4367C16.8586 21.3415 16.8586 20.9947 17.039 21.045C17.0982 21.045 17.4 21.8509 17.4 21.8509C17.5015 22.1 17.5008 22.1689 17.3793 22.4512C17.3113 22.6467 17.534 22.7448 17.1465 23.0049C16.8492 23.181 16.999 23.2504 16.9257 23.433C16.8299 23.5595 16.5335 23.5586 16.5794 23.7454C16.6358 23.9245 17.2139 23.849 17.3097 24.2688C17.4268 24.329 17.4155 24.1274 17.6302 24.1214C17.7375 24.1185 17.7485 24.3077 17.8692 24.2768C18.0583 24.2276 18.026 24.1708 18.2121 24.2688C18.3502 23.7483 18.4913 24.6717 19.3796 24.361C19.5523 24.3317 19.7537 24.5419 19.8045 24.5331C19.8553 24.5243 19.9952 24.1929 20.067 24.1831C20.1387 24.1732 20.1651 24.2863 20.2483 24.2762C20.3317 24.2661 20.5763 23.9426 20.6618 23.9329C20.7473 23.9234 20.7379 24.1882 20.7734 24.1847C20.8088 24.1812 20.8289 24.1792 20.8289 24.1792L21.2801 24.0896C21.2801 24.0896 21.2012 24.3135 21.1955 24.3752C21.2202 24.3842 21.4042 24.1722 21.5408 24.087C21.6775 24.0018 21.7893 23.7802 21.867 23.9997C22.0426 23.7693 22.1518 23.7967 22.3833 23.7209C22.5942 23.3677 22.8141 23.3957 22.9044 23.3733C23.0848 23.3733 23.1497 23.3788 23.2653 23.4628C23.3019 23.3705 23.0848 23.2837 23.0848 23.2837C23.0848 23.2837 23.2709 22.7688 23.6939 22.6877C23.7164 22.5758 23.3442 22.3406 23.4457 22.1195C23.8348 22.1083 24.334 21.8257 24.3481 21.7614C24.3227 21.5991 24.1591 21.5571 24.1676 21.4032C24.2691 21.4143 24.6188 21.4032 24.6188 21.4032C24.3481 20.9554 24.5286 20.8659 24.6188 20.4182L24.8895 20.5077C25.07 20.2391 25.07 20.239 25.4309 20.1495C25.524 19.6318 25.2786 19.587 25.2504 19.0749C25.7298 19.1616 25.4422 18.3445 26.1528 18.3585C26.0626 17.2839 26.3332 17.5526 26.4235 16.8362C26.0907 16.8362 25.8539 16.4752 25.8765 16.4472C26.2374 15.9994 25.7072 15.8904 26.2486 15.5321C25.9779 14.9053 25.8821 14.9557 26.1528 14.3288C25.07 14.5975 25.7016 14.0602 24.3481 13.7915C24.5286 13.5228 24.8895 13.0752 24.5285 12.8065C24.6188 12.6274 24.7626 12.535 24.7626 12.356C24.7626 12.2216 24.4672 11.6906 24.5187 11.3751C24.3248 11.068 24.303 10.9259 24.2579 10.7468C24.1676 10.2095 24.2579 9.85133 24.2579 9.76182C24.1676 9.58271 23.9872 9.40361 23.8067 9.31406C23.6262 9.2245 23.567 9.32244 23.3865 9.412C23.2991 9.4036 23.4071 9.27435 23.259 9.17565C23.0799 9.20565 22.9942 9.12341 22.9058 8.96286C22.7157 8.87785 22.4665 8.84046 21.9772 8.67456C21.7952 8.64299 21.7313 8.62291 21.5734 8.60052C21.5072 8.59634 21.4387 8.77335 21.3644 8.84222C21.2899 8.91114 21.2096 8.87191 21.2096 8.87191C21.2096 8.63966 20.8796 8.28148 20.9192 7.97086C20.7711 7.92469 20.8191 8.03943 20.6495 8.06777C20.5452 8.07694 20.3833 7.70785 20.2509 7.70785C20.1719 7.69385 19.1343 8.2507 18.8325 7.42516C18.7817 7.3608 18.5471 7.56015 18.4038 7.3412C18.3023 6.93544 18.1219 7.07812 17.9301 6.88783C17.6707 6.91582 17.4902 7.05582 17.2195 6.98586C16.8585 6.88792 15.9985 6.80388 15.6178 6.78989C15.567 6.57582 15.5211 6.40904 15.4691 6.40038ZM5.47764 10.5034C5.40151 10.5062 5.30844 10.4923 5.33947 10.6126C5.38462 10.5202 5.47483 10.509 5.47764 10.5034ZM5.42547 10.7825C5.38806 10.7835 5.3162 10.7965 5.33947 10.8868C5.38462 10.7944 5.44379 10.7888 5.4466 10.7832C5.4466 10.7832 5.43794 10.7822 5.42547 10.7825ZM5.99761 12.1069C6.00046 12.1125 6.03986 12.1265 6.085 12.2189C6.11603 12.0985 5.99761 12.1069 5.99761 12.1069ZM26.6378 17.3846C26.6115 17.4435 26.6161 17.5023 26.6434 17.5443C26.6923 17.4715 26.651 17.4378 26.6378 17.3846Z" fill="white"/>
</g>
<defs>
<clipPath id="clip0_533_480">
<rect width="32" height="32" fill="white"/>
</clipPath>
</defs>
</svg>
