<svg width="32" height="32" viewBox="0 0 32 32" fill="none" xmlns="http://www.w3.org/2000/svg">
<g clip-path="url(#clip0_280_16743)">
<path d="M16 32C24.8366 32 32 24.8366 32 16C32 7.16344 24.8366 0 16 0C7.16344 0 0 7.16344 0 16C0 24.8366 7.16344 32 16 32Z" fill="#F0F0F0"/>
<path d="M16.0001 0C9.6567 0 4.1757 3.69156 1.5877 9.0435H30.4124C27.8244 3.69156 22.3434 0 16.0001 0Z" fill="#338AF3"/>
<path d="M16.0001 32C22.3434 32 27.8244 28.3085 30.4124 22.9565H1.5877C4.1757 28.3085 9.6567 32 16.0001 32Z" fill="#338AF3"/>
<path d="M20.7822 16L18.8282 16.9192L19.8687 18.8116L17.7469 18.4057L17.478 20.5492L16.0001 18.9727L14.5221 20.5492L14.2532 18.4057L12.1314 18.8116L13.1719 16.9191L11.2179 16L13.1719 15.0808L12.1314 13.1884L14.2532 13.5943L14.5221 11.4508L16.0001 13.0273L17.4781 11.4508L17.7469 13.5943L19.8688 13.1884L18.8282 15.0809L20.7822 16Z" fill="#FFDA44"/>
</g>
<defs>
<clipPath id="clip0_280_16743">
<rect width="32" height="32" fill="white"/>
</clipPath>
</defs>
</svg>
