<svg width="32" height="32" viewBox="0 0 32 32" fill="none" xmlns="http://www.w3.org/2000/svg">
<g clip-path="url(#clip0_280_16727)">
<path d="M16 32C24.8366 32 32 24.8366 32 16C32 7.16344 24.8366 0 16 0C7.16344 0 0 7.16344 0 16C0 24.8366 7.16344 32 16 32Z" fill="#FFDA44"/>
<path d="M16 32C20.8495 32 25.1947 29.8423 28.1288 26.4348H3.87122C6.8054 29.8423 11.1506 32 16 32Z" fill="#338AF3"/>
<path d="M32 16C32 7.1635 24.8365 0 16 0C7.1635 0 0 7.1635 0 16C0 17.4442 0.1925 18.8431 0.551188 20.1739H31.4489C31.8075 18.8431 32 17.4442 32 16Z" fill="#338AF3"/>
<path d="M1.27174 22.2609C1.58018 22.9857 1.94074 23.6827 2.34831 24.3479H29.6516C30.0591 23.6826 30.4197 22.9856 30.7282 22.2609H1.27174Z" fill="#338AF3"/>
<path d="M7.33212 10.0915L4.20612 8.71186L7.33212 7.33224L8.71168 4.2063L10.0912 7.33224L13.2172 8.71186L10.0912 10.0915L8.71168 13.2174L7.33212 10.0915Z" fill="#F0F0F0"/>
<path d="M8.71175 5.92914L9.56369 7.8597L11.4943 8.71176L9.56369 9.56376L8.71175 11.4943L7.85969 9.56376L5.92912 8.71176L7.85969 7.8597L8.71175 5.92914Z" fill="#D80027"/>
</g>
<defs>
<clipPath id="clip0_280_16727">
<rect width="32" height="32" fill="white"/>
</clipPath>
</defs>
</svg>
