<svg width="32" height="32" viewBox="0 0 32 32" fill="none" xmlns="http://www.w3.org/2000/svg">
<g clip-path="url(#clip0_280_16730)">
<path d="M31.4488 20.1737C31.8075 18.8428 32 17.4439 32 15.9997C32 14.5555 31.8075 13.1567 31.4488 11.8258L14.6087 0.0606079C11.4824 0.329983 8.61344 1.49811 6.26088 3.30567L0.551188 11.8258C0.1925 13.1567 0 14.5555 0 15.9997C0 17.4355 0.190188 18.8267 0.544875 20.1505L6.26081 28.6938C8.61337 30.5014 11.4823 31.6695 14.6086 31.9389L31.4488 20.1737Z" fill="#FFDA44"/>
<path d="M0.5513 20.174C1.47705 23.6089 3.51736 26.586 6.26099 28.6941V20.174H0.5513Z" fill="#0052B4"/>
<path d="M14.6088 31.9391C15.0675 31.9786 15.5313 32 16.0001 32C23.3926 32 29.6129 26.9862 31.4489 20.174H14.6088V31.9391Z" fill="#0052B4"/>
<path d="M31.4489 11.8261C29.6129 5.01381 23.3926 0 16.0001 0C15.5313 0 15.0675 0.021375 14.6088 0.060875V11.8261H31.4489Z" fill="#0052B4"/>
<path d="M6.26099 3.30591C3.51736 5.41403 1.47705 8.3911 0.5513 11.826H6.26099V3.30591Z" fill="#0052B4"/>
<path d="M31.8646 13.9131H12.5218H12.5218V0.38031C11.0431 0.708185 9.64131 1.23962 8.34781 1.94544V13.913H0.135438C0.046375 14.5962 0 15.2927 0 16C0 16.7073 0.046375 17.4038 0.135438 18.0869H8.34775H8.34781V30.0545C9.64131 30.7602 11.0431 31.2918 12.5218 31.6196V18.0871V18.087H31.8646C31.9535 17.4038 32 16.7073 32 16C32 15.2927 31.9535 14.5962 31.8646 13.9131Z" fill="#D80027"/>
</g>
<defs>
<clipPath id="clip0_280_16730">
<rect width="32" height="32" fill="white"/>
</clipPath>
</defs>
</svg>
