<svg width="32" height="32" viewBox="0 0 32 32" fill="none" xmlns="http://www.w3.org/2000/svg">
<g clip-path="url(#clip0_280_16648)">
<path d="M16 32C24.8366 32 32 24.8366 32 16C32 7.16344 24.8366 0 16 0C7.16344 0 0 7.16344 0 16C0 24.8366 7.16344 32 16 32Z" fill="#F0F0F0"/>
<path d="M16.0001 0C10.3269 0 5.34382 2.95269 2.50282 7.40494L24.2003 29.7406C28.8717 26.9467 32.0001 21.8389 32.0001 16C32.0001 7.1635 24.8366 0 16.0001 0Z" fill="#FFDA44"/>
<path d="M31.9999 16C31.9999 11.8486 30.4188 8.06689 27.826 5.22327V26.7768C30.4188 23.9331 31.9999 20.1514 31.9999 16Z" fill="#0052B4"/>
<path d="M19.9868 30.1171L21.6628 30.116L22.1798 28.5217L22.6986 30.1154L23.5393 30.1149C24.0547 29.839 24.5533 29.5357 25.033 29.2069L2.79306 6.96698C2.42656 7.50173 2.09231 8.0601 1.79175 8.63885L1.98938 9.24586L3.66531 9.24479L2.31006 10.2307L2.82894 11.8244L1.47244 10.8402L0.663375 11.4287C0.232063 12.8772 0 14.4115 0 16C0 24.8365 7.1635 32 16 32C17.8683 32 19.6614 31.6793 21.3281 31.0905L19.9868 30.1171ZM3.56869 15.3044L4.08556 13.7102L2.72919 12.7258L4.40513 12.7247L4.92206 11.1304L5.44094 12.7241L7.11688 12.723L5.76156 13.709L6.28044 15.3027L4.92394 14.3184L3.56869 15.3044ZM7.02025 18.7827L7.53713 17.1884L6.18075 16.204L7.85669 16.203L8.37363 14.6087L8.8925 16.2024L10.5684 16.2013L9.21319 17.1872L9.73206 18.7809L8.37556 17.7967L7.02025 18.7827ZM10.4718 22.2609L10.9886 20.6667L9.63225 19.6823L11.3082 19.6812L11.8251 18.0869L12.344 19.6806L14.0199 19.6795L12.6647 20.6655L13.1836 22.2592L11.8271 21.2748L10.4718 22.2609ZM15.2786 24.7532L13.9233 25.7392L14.4401 24.1449L13.0838 23.1605L14.7597 23.1595L15.2767 21.5652L15.7956 23.1589L17.4715 23.1578L16.1163 24.1437L16.6351 25.7374L15.2786 24.7532ZM17.3748 29.2174L17.8917 27.6232L16.5353 26.6388L18.2113 26.6377L18.7282 25.0434L19.2471 26.6371L20.923 26.636L19.5678 27.622L20.0866 29.2157L18.7301 28.2313L17.3748 29.2174Z" fill="#0052B4"/>
</g>
<defs>
<clipPath id="clip0_280_16648">
<rect width="32" height="32" fill="white"/>
</clipPath>
</defs>
</svg>
