<svg width="32" height="32" viewBox="0 0 32 32" fill="none" xmlns="http://www.w3.org/2000/svg">
<g clip-path="url(#clip0_280_16606)">
<path d="M22.9564 1.58763C20.8529 0.5705 18.493 0 15.9999 0C13.5068 0 11.1469 0.5705 9.04341 1.58763L7.6521 16L9.04341 30.4124C11.1469 31.4295 13.5068 32 15.9999 32C18.493 32 20.8529 31.4295 22.9564 30.4124L24.3477 16L22.9564 1.58763Z" fill="#FFDA44"/>
<path d="M9.0435 1.5882C3.69163 4.17607 0 9.65663 0 16C0 22.3434 3.69163 27.8239 9.0435 30.4118V1.5882Z" fill="#0052B4"/>
<path d="M22.9565 1.5882V30.4118C28.3084 27.8239 32 22.3433 32 16C32 9.6567 28.3084 4.17607 22.9565 1.5882Z" fill="#0052B4"/>
<path d="M20.8695 9.73915L21.8028 10.2058L20.8695 9.73915L19.9361 9.27253C19.8799 9.38509 18.6612 11.8647 18.4621 15.6522H17.0435V9.73915L16 8.34784L14.9565 9.73915V15.6522H13.5378C13.3386 11.8647 12.12 9.38509 12.0637 9.27253L10.1971 10.2058C10.21 10.2315 11.4783 12.813 11.4783 16.6957V17.7392H14.9565V23.6523H17.0435V17.7392H20.5217V16.6957C20.5217 14.6883 20.869 13.033 21.1605 11.9979C21.4781 10.8692 21.8008 10.21 21.804 10.2034L20.8695 9.73915Z" fill="black"/>
</g>
<defs>
<clipPath id="clip0_280_16606">
<rect width="32" height="32" fill="white"/>
</clipPath>
</defs>
</svg>
