<svg width="32" height="32" viewBox="0 0 32 32" fill="none" xmlns="http://www.w3.org/2000/svg">
<g clip-path="url(#clip0_280_16714)">
<path d="M21.5653 0.995188C19.832 0.352063 17.9573 0 16.0002 0C14.043 0 12.1683 0.352063 10.435 0.995188L9.04366 16L10.435 31.0048C12.1683 31.648 14.043 32 16.0002 32C17.9573 32 19.832 31.648 21.5653 31.0048L22.9567 16L21.5653 0.995188Z" fill="#FFDA44"/>
<path d="M32.0001 16C32.0001 9.12062 27.6581 3.25586 21.5653 0.995239V31.0049C27.6581 28.7441 32.0001 22.8795 32.0001 16Z" fill="#D80027"/>
<path d="M0 16C0 22.8795 4.342 28.7441 10.4348 31.0049V0.995239C4.342 3.25586 0 9.12062 0 16Z" fill="black"/>
</g>
<defs>
<clipPath id="clip0_280_16714">
<rect width="32" height="32" fill="white"/>
</clipPath>
</defs>
</svg>
