<svg width="32" height="32" viewBox="0 0 32 32" fill="none" xmlns="http://www.w3.org/2000/svg">
<g clip-path="url(#clip0_280_16732)">
<path d="M32 16C32 24.8365 24.8365 32 16 32C7.1635 32 0 24.8365 0 16C0 16.0038 16 0.00175 16 0C24.8365 0 32 7.1635 32 16Z" fill="#D80027"/>
<path d="M15.9997 7.65216V13.0486L10.4345 7.65216H15.9997Z" fill="#0052B4"/>
<path d="M8.34766 16H13.0483L8.34766 9.73907L7.65203 14.6086L8.34766 16Z" fill="#0052B4"/>
<path d="M15.9573 15.9998H16C16 15.9855 16 15.9715 16 15.9572C15.9858 15.9714 15.9716 15.9856 15.9573 15.9998Z" fill="#F0F0F0"/>
<path d="M16 8.34781C16 5.5325 16 3.68781 16 0H15.9973C7.16194 0.0015 0 7.16431 0 16H8.34781V11.2993L13.0485 16H15.9572C15.9715 15.9858 15.9858 15.9715 16.0001 15.9572C16.0001 14.8793 16.0001 13.9174 16.0001 13.0486L11.2992 8.34781H16Z" fill="#F0F0F0"/>
<path d="M8.09476 2.08691C5.59232 3.51185 3.51188 5.59222 2.08701 8.09466V16.6956H6.26094V6.26097V6.26085H16.6957C16.6957 4.94441 16.6957 3.69029 16.6957 2.08691H8.09476Z" fill="#D80027"/>
<path d="M16.6361 14.6683L10.3154 8.34778H8.34787V8.3479L16.6359 16.636H16.6361C16.6361 16.636 16.6361 15.2793 16.6361 14.6683Z" fill="#D80027"/>
<path d="M18.087 8.34784V16C18.087 19.7275 27.8261 19.7275 27.8261 16V8.34784H18.087Z" fill="#F3F3F3"/>
<path d="M18.087 16V15.9999C18.087 19.7274 22.9566 20.8696 22.9566 20.8696C22.9566 20.8696 27.8261 19.7274 27.8261 15.9999V16H18.087Z" fill="#6DA544"/>
<path d="M22.9565 12.9391L20.6956 13.9131V16L22.9565 17.3913L25.2174 16V13.9131L22.9565 12.9391Z" fill="#A2001D"/>
<path d="M25.2174 11.826H20.6956V13.9129H25.2174V11.826Z" fill="#338AF3"/>
</g>
<defs>
<clipPath id="clip0_280_16732">
<rect width="32" height="32" fill="white"/>
</clipPath>
</defs>
</svg>
