<svg width="32" height="32" viewBox="0 0 32 32" fill="none" xmlns="http://www.w3.org/2000/svg">
<g clip-path="url(#clip0_280_16634)">
<path d="M16.0003 31.9979C24.8355 31.9979 31.9979 24.8355 31.9979 16.0003C31.9979 7.16502 24.8355 0.00262451 16.0003 0.00262451C7.16502 0.00262451 0.00262451 7.16502 0.00262451 16.0003C0.00262451 24.8355 7.16502 31.9979 16.0003 31.9979Z" fill="#F0F0F0"/>
<path d="M2.14576 8.00116C1.42368 9.25169 0.891041 10.5591 0.536346 11.8908L27.2905 27.3375C28.2665 26.3644 29.1325 25.2493 29.8544 23.9988L2.14576 8.00116Z" fill="black"/>
<path d="M23.9989 2.14567C17.5977 -1.54998 9.70508 -0.318261 4.70953 4.6626L31.4637 20.1091C33.2796 13.2926 30.3999 5.84137 23.9989 2.14567Z" fill="#FFDA44"/>
<path d="M8.0012 29.8545C14.4022 33.5501 22.2951 32.3184 27.2905 27.3376L0.536224 11.8909C-1.2795 18.7076 1.60006 26.1589 8.0012 29.8545Z" fill="#FFDA44"/>
<path d="M20.5212 14.2611C20.5212 16.758 18.497 18.7822 16.0001 18.7822C13.5032 18.7822 11.479 16.758 11.479 14.2611C11.479 13.4826 11.6758 12.75 12.0225 12.1104C11.0414 13.1137 10.4357 14.4858 10.4357 15.9999C10.4357 19.0731 12.9269 21.5644 16.0001 21.5644C19.0733 21.5644 21.5645 19.0731 21.5645 15.9999C21.5645 14.4858 20.9589 13.1137 19.9777 12.1104C20.3244 12.7501 20.5212 13.4826 20.5212 14.2611Z" fill="#D80027"/>
<path d="M17.0436 9.04456H14.9569V19.4778H17.0436V9.04456Z" fill="#D80027"/>
<path d="M19.478 11.1312H12.5225C12.5225 11.6114 12.9408 12.0006 13.4209 12.0006H13.3919C13.3919 12.4808 13.7813 12.8701 14.2614 12.8701C14.2614 13.3503 14.6507 13.7395 15.1309 13.7395H16.8697C17.3499 13.7395 17.7392 13.3503 17.7392 12.8701C18.2194 12.8701 18.6086 12.4808 18.6086 12.0006H18.5797C19.0597 12.0006 19.478 11.6114 19.478 11.1312Z" fill="#D80027"/>
<path d="M20.8691 20.1734H11.1314V22.2601H20.8691V20.1734Z" fill="#D80027"/>
<path d="M22.2602 20.8689H18.0869V22.9556H22.2602V20.8689Z" fill="#D80027"/>
<path d="M13.9136 20.8689H9.7403V22.9556H13.9136V20.8689Z" fill="#D80027"/>
</g>
<defs>
<clipPath id="clip0_280_16634">
<rect width="32" height="32" fill="white"/>
</clipPath>
</defs>
</svg>
