<svg width="32" height="32" viewBox="0 0 32 32" fill="none" xmlns="http://www.w3.org/2000/svg">
<g clip-path="url(#clip0_280_16744)">
<path d="M32 16C32 14.0429 31.648 12.1681 31.0048 10.4348L16 9.73914L0.995188 10.4348C0.352 12.1681 0 14.0429 0 16C0 17.9571 0.352 19.8319 0.995188 21.5652L16 22.2609L31.0048 21.5653C31.648 19.8319 32 17.9571 32 16Z" fill="#FFDA44"/>
<path d="M15.9999 32C22.8793 32 28.744 27.658 31.0047 21.5652H0.99504C3.25573 27.658 9.12042 32 15.9999 32Z" fill="#6DA544"/>
<path d="M0.99504 10.4348H31.0047C28.744 4.342 22.8793 0 15.9999 0C9.12041 0 3.25573 4.342 0.99504 10.4348Z" fill="#D80027"/>
</g>
<defs>
<clipPath id="clip0_280_16744">
<rect width="32" height="32" fill="white"/>
</clipPath>
</defs>
</svg>
