<svg width="32" height="32" viewBox="0 0 32 32" fill="none" xmlns="http://www.w3.org/2000/svg">
<g clip-path="url(#clip0_280_16645)">
<path d="M16 32C24.8366 32 32 24.8366 32 16C32 7.16344 24.8366 0 16 0C7.16344 0 0 7.16344 0 16C0 24.8366 7.16344 32 16 32Z" fill="#6DA544"/>
<path d="M16.0001 6.26086L29.2174 16L16.0001 25.7391L2.78268 16L16.0001 6.26086Z" fill="#FFDA44"/>
<path d="M15.9999 21.5652C19.0734 21.5652 21.5651 19.0736 21.5651 16C21.5651 12.9264 19.0734 10.4348 15.9999 10.4348C12.9263 10.4348 10.4347 12.9264 10.4347 16C10.4347 19.0736 12.9263 21.5652 15.9999 21.5652Z" fill="#F0F0F0"/>
<path d="M13.2174 15.6522C12.2497 15.6522 11.3157 15.7993 10.4366 16.0725C10.4755 19.1125 12.9508 21.5652 16 21.5652C17.8855 21.5652 19.5508 20.6267 20.5575 19.1922C18.8352 17.0362 16.1851 15.6522 13.2174 15.6522Z" fill="#0052B4"/>
<path d="M21.4621 17.0662C21.5291 16.721 21.5653 16.3648 21.5653 16C21.5653 12.9264 19.0737 10.4348 16.0001 10.4348C13.7068 10.4348 11.738 11.8224 10.886 13.8035C11.6391 13.6474 12.4189 13.5652 13.2176 13.5652C16.4499 13.5652 19.374 14.9088 21.4621 17.0662Z" fill="#0052B4"/>
</g>
<defs>
<clipPath id="clip0_280_16645">
<rect width="32" height="32" fill="white"/>
</clipPath>
</defs>
</svg>
