<svg width="32" height="32" viewBox="0 0 32 32" fill="none" xmlns="http://www.w3.org/2000/svg">
<g clip-path="url(#clip0_280_16703)">
<path d="M16 32C24.8366 32 32 24.8366 32 16C32 7.16344 24.8366 0 16 0C7.16344 0 0 7.16344 0 16C0 24.8366 7.16344 32 16 32Z" fill="#FFDA44"/>
<path d="M9.73926 10.4348H31.0049C28.7443 4.342 22.8795 0 16.0001 0C11.5818 0 7.5822 1.79119 4.68695 4.68681L9.73926 10.4348Z" fill="#338AF3"/>
<path d="M9.73926 21.5652H31.0049C28.7443 27.658 22.8795 32 16.0001 32C11.5818 32 7.5822 30.2088 4.68695 27.3132L9.73926 21.5652Z" fill="#338AF3"/>
<path d="M4.6861 4.68628C-1.56228 10.9347 -1.56228 21.0653 4.6861 27.3138C7.26816 24.7317 9.75147 22.2484 15.9998 16L4.6861 4.68628Z" fill="black"/>
</g>
<defs>
<clipPath id="clip0_280_16703">
<rect width="32" height="32" fill="white"/>
</clipPath>
</defs>
</svg>
