<svg width="32" height="32" viewBox="0 0 32 32" fill="none" xmlns="http://www.w3.org/2000/svg">
<g clip-path="url(#clip0_280_16709)">
<path d="M0.755622 11.1304C0.265497 12.6659 5.95814e-05 14.3018 0.000122081 15.9999C5.95814e-05 17.698 0.265497 19.3339 0.755684 20.8695L16.0001 21.5653L31.2445 20.8695C31.7346 19.3339 32.0001 17.6979 32.0001 16C32.0001 14.3019 31.7346 12.6659 31.2445 11.1304L16.0001 10.4348L0.755622 11.1304Z" fill="#F0F0F0"/>
<path d="M32 16C32 15.0508 31.9169 14.1211 31.7583 13.2173H0.24175C0.083125 14.1211 0 15.0507 0 16C0 16.9492 0.0831875 17.8788 0.24175 18.7826H31.7583C31.9168 17.8788 32 16.9492 32 16Z" fill="black"/>
<path d="M16.0001 32C23.1386 32 29.1842 27.3248 31.2445 20.8695H0.755646C2.81596 27.3248 8.86165 31.9999 16.0001 32Z" fill="#338AF3"/>
<path d="M16 0.000122073C8.86159 0.000122073 2.81596 4.67531 0.755524 11.1304L31.2443 11.1305C29.1841 4.67531 23.1384 -2.92721e-06 16 0.000122073Z" fill="#338AF3"/>
</g>
<defs>
<clipPath id="clip0_280_16709">
<rect width="32" height="32" fill="white"/>
</clipPath>
</defs>
</svg>
