<svg width="32" height="32" viewBox="0 0 32 32" fill="none" xmlns="http://www.w3.org/2000/svg">
<g clip-path="url(#clip0_280_16698)">
<path d="M16 32C24.8366 32 32 24.8366 32 16C32 7.16344 24.8366 0 16 0C7.16344 0 0 7.16344 0 16C0 24.8366 7.16344 32 16 32Z" fill="#FCFCFC"/>
<path d="M6.60848 14.8406L4.86935 11.6854L6.60848 8.57971L8.3476 11.6854L6.60848 14.8406Z" fill="#A2001D"/>
<path d="M3.1303 14.8406L1.39117 11.6854L3.1303 8.57971L4.86942 11.6854L3.1303 14.8406Z" fill="#A2001D"/>
<path d="M6.60848 23.4203L4.86935 20.2651L6.60848 17.1594L8.3476 20.2651L6.60848 23.4203Z" fill="#A2001D"/>
<path d="M3.1303 23.4203L1.39117 20.2651L3.1303 17.1594L4.86942 20.2651L3.1303 23.4203Z" fill="#A2001D"/>
<path d="M8.34755 3.10575L7.85518 2.2265C6.97205 2.74975 6.14374 3.35556 5.38055 4.03331L6.60843 6.26088L8.34755 3.10575Z" fill="#A2001D"/>
<path d="M6.60867 25.7391L5.3678 27.9551C6.1303 28.6338 6.95805 29.2405 7.8408 29.7648L8.34786 28.8449L6.60867 25.7391Z" fill="#A2001D"/>
<path d="M9.7392 20.174V30.7279C11.6623 31.5465 13.7781 32 16.0001 32C22.8795 32 28.7442 27.658 31.0049 21.5652L9.7392 20.174Z" fill="#6DA544"/>
<path d="M31.0049 21.5652C31.6481 19.8319 32.0001 17.9571 32.0001 16C32.0001 7.1635 24.8366 0 16.0001 0C13.7783 0 11.6623 0.453312 9.7392 1.27175V21.5653H31.0049V21.5652Z" fill="#A2001D"/>
</g>
<defs>
<clipPath id="clip0_280_16698">
<rect width="32" height="32" fill="white"/>
</clipPath>
</defs>
</svg>
