<svg width="32" height="32" viewBox="0 0 32 32" fill="none" xmlns="http://www.w3.org/2000/svg">
<g clip-path="url(#clip0_280_16665)">
<path d="M32 16C32 10.5087 29.2332 5.6641 25.0179 2.7826L16 2.08691L6.98206 2.78254C2.76687 5.6641 0 10.5087 0 16C0 21.4914 2.76687 26.3358 6.98206 29.2173L16 29.913L25.0179 29.2174C29.2332 26.3358 32 21.4914 32 16Z" fill="#0052B4"/>
<path d="M25.018 2.78262C22.4502 1.02725 19.3453 0 16.0001 0C12.6549 0 9.54996 1.02725 6.98215 2.78262H25.018Z" fill="#A2001D"/>
<path d="M6.98215 29.2173C9.5499 30.9727 12.6549 32 16.0001 32C19.3453 32 22.4502 30.9727 25.018 29.2173H6.98215Z" fill="#A2001D"/>
<path d="M16 23.6522C20.2262 23.6522 23.6522 20.2262 23.6522 16C23.6522 11.7738 20.2262 8.34784 16 8.34784C11.7738 8.34784 8.34782 11.7738 8.34782 16C8.34782 20.2262 11.7738 23.6522 16 23.6522Z" fill="#F0F0F0"/>
<path d="M16.0001 22.2609C19.4579 22.2609 22.2609 19.4578 22.2609 16C22.2609 12.5422 19.4579 9.73914 16.0001 9.73914C12.5423 9.73914 9.7392 12.5422 9.7392 16C9.7392 19.4578 12.5423 22.2609 16.0001 22.2609Z" fill="#6DA544"/>
<path d="M15.9999 20.1739C18.3051 20.1739 20.1739 18.3051 20.1739 15.9999C20.1739 13.6947 18.3051 11.826 15.9999 11.826C13.6947 11.826 11.826 13.6947 11.826 15.9999C11.826 18.3051 13.6947 20.1739 15.9999 20.1739Z" fill="#F0F0F0"/>
<path d="M16.0001 14.9565L13.7392 16V17.7391L16.0001 19.1304L18.2609 17.7391V16L16.0001 14.9565Z" fill="#0052B4"/>
<path d="M18.2609 13.9131H13.7392V16H18.2609V13.9131Z" fill="#FFDA44"/>
</g>
<defs>
<clipPath id="clip0_280_16665">
<rect width="32" height="32" fill="white"/>
</clipPath>
</defs>
</svg>
