<svg width="32" height="32" viewBox="0 0 32 32" fill="none" xmlns="http://www.w3.org/2000/svg">
<g clip-path="url(#clip0_280_16677)">
<path d="M16 32C24.8366 32 32 24.8366 32 16C32 7.16344 24.8366 0 16 0C7.16344 0 0 7.16344 0 16C0 24.8366 7.16344 32 16 32Z" fill="#F0F0F0"/>
<path d="M31.9998 16C31.9998 9.65665 28.3083 4.17565 22.9563 1.58765V30.4123C28.3083 27.8244 31.9998 22.3434 31.9998 16Z" fill="#D80027"/>
<path d="M0 16C0 22.3434 3.69156 27.8244 9.0435 30.4124V1.58765C3.69156 4.17565 0 9.65665 0 16Z" fill="#D80027"/>
<path d="M18.7825 18.087L21.5651 16.6957L20.1738 16.0001V14.6087L17.3912 16.0001L18.7825 13.2174H17.3912L15.9999 11.1305L14.6086 13.2174H13.2173L14.6086 16.0001L11.8259 14.6087V16.0001L10.4347 16.6957L13.2173 18.087L12.5216 19.4783H15.3043V21.5652H16.6955V19.4783H19.4781L18.7825 18.087Z" fill="#D80027"/>
</g>
<defs>
<clipPath id="clip0_280_16677">
<rect width="32" height="32" fill="white"/>
</clipPath>
</defs>
</svg>
