<svg width="32" height="32" viewBox="0 0 32 32" fill="none" xmlns="http://www.w3.org/2000/svg">
<g clip-path="url(#clip0_280_16702)">
<path d="M16 32C24.8366 32 32 24.8366 32 16C32 7.16344 24.8366 0 16 0C7.16344 0 0 7.16344 0 16C0 24.8366 7.16344 32 16 32Z" fill="#6DA544"/>
<path d="M24.5613 22.9565L25.0003 23.8746L25.9918 23.6455L25.5478 24.5612L26.3452 25.1934L25.3524 25.4172L25.3552 26.4349L24.5613 25.7982L23.7674 26.4349L23.7702 25.4172L22.7775 25.1934L23.5748 24.5612L23.1308 23.6455L24.1222 23.8746L24.5613 22.9565Z" fill="#FFDA44"/>
<path d="M20.4769 13.2173L20.9161 14.1354L21.9076 13.9062L21.4635 14.822L22.2608 15.4542L21.2681 15.678L21.2709 16.6956L20.4769 16.059L19.6831 16.6956L19.6858 15.678L18.6931 15.4542L19.4904 14.822L19.0464 13.9062L20.0379 14.1354L20.4769 13.2173Z" fill="#FFDA44"/>
<path d="M24.5612 7.65222L25.0003 8.57028L25.9918 8.34103L25.5478 9.25679L26.3451 9.8891L25.3523 10.1128L25.355 11.1305L24.5612 10.4938L23.7673 11.1305L23.7701 10.1128L22.7775 9.8891L23.5747 9.25679L23.1307 8.34103L24.1222 8.57028L24.5612 7.65222Z" fill="#FFDA44"/>
<path d="M28.129 11.826L28.5681 12.7441L29.5596 12.5149L29.1156 13.4307L29.9129 14.0629L28.9202 14.2867L28.9229 15.3044L28.129 14.6677L27.3351 15.3044L27.3378 14.2867L26.3452 14.0629L27.1425 13.4307L26.6984 12.5149L27.6899 12.7441L28.129 11.826Z" fill="#FFDA44"/>
<path d="M25.578 16.6957L25.9234 17.7586H27.041L26.1368 18.4155L26.4822 19.4783L25.578 18.8215L24.6739 19.4783L25.0192 18.4155L24.1151 17.7586H25.2326L25.578 16.6957Z" fill="#FFDA44"/>
<path d="M17.7391 20.5217C15.2417 20.5217 13.2172 18.4972 13.2172 15.9999C13.2172 13.5027 15.2417 11.4782 17.7391 11.4782C18.5177 11.4782 19.2504 11.6751 19.89 12.0217C18.8866 11.0403 17.5144 10.4347 15.9998 10.4347C12.9263 10.4347 10.4347 12.9263 10.4347 15.9999C10.4347 19.0734 12.9263 21.5651 15.9998 21.5651C17.5143 21.5651 18.8866 20.9594 19.8899 19.9781C19.2504 20.3248 18.5177 20.5217 17.7391 20.5217Z" fill="#FFDA44"/>
<path d="M10.0616 6.26088C9.58033 5.42938 8.6819 4.86957 7.65215 4.86957C6.62239 4.86957 5.72396 5.42938 5.24271 6.26088H10.0616Z" fill="#FFDA44"/>
<path d="M10.0707 6.27692L7.65202 8.6956L5.23334 6.27692C5.00215 6.6826 4.86946 7.15179 4.86946 7.65217C4.86946 9.18898 6.11527 10.4348 7.65209 10.4348C9.1889 10.4348 10.4347 9.18904 10.4347 7.65217C10.4346 7.15179 10.3019 6.6826 10.0707 6.27692Z" fill="#FFDA44"/>
<path d="M6.95641 8V10.3471C7.17872 10.4043 7.41184 10.4347 7.65203 10.4347C7.89222 10.4347 8.12534 10.4042 8.34765 10.3471V8H6.95641Z" fill="#A2001D"/>
</g>
<defs>
<clipPath id="clip0_280_16702">
<rect width="32" height="32" fill="white"/>
</clipPath>
</defs>
</svg>
