<svg width="32" height="32" viewBox="0 0 32 32" fill="none" xmlns="http://www.w3.org/2000/svg">
<g clip-path="url(#clip0_280_16680)">
<path d="M30.2232 8.66349C29.4839 7.23105 28.5148 5.88655 27.3141 4.6858C26.1133 3.48498 24.7687 2.51592 23.3363 1.77667L12.0645 12.0645L1.77658 23.3364C2.51589 24.7688 3.48496 26.1134 4.68571 27.3141C5.88646 28.5149 7.23102 29.4839 8.66339 30.2232L19.9352 19.9353L30.2232 8.66349Z" fill="#FFDA44"/>
<path d="M4.68577 27.3142C5.35696 27.9853 6.07315 28.584 6.82434 29.111L29.1108 6.82441C28.5839 6.07322 27.9853 5.35704 27.3141 4.68585C26.6428 4.01466 25.9267 3.4161 25.1755 2.8891L2.88902 25.1756C3.41596 25.9267 4.01452 26.643 4.68577 27.3142Z" fill="#D80027"/>
<path d="M4.68576 4.68581C-0.362177 9.73374 -1.33124 17.3149 1.77664 23.3364L23.3364 1.77674C17.3148 -1.33107 9.73363 -0.361881 4.68576 4.68581Z" fill="#338AF3"/>
<path d="M27.3141 27.3143C32.362 22.2664 33.331 14.6853 30.2233 8.6637L8.66356 30.2234C14.6851 33.3312 22.2663 32.3622 27.3141 27.3143Z" fill="#338AF3"/>
<path d="M8.52655 4.86902L9.38992 7.52633H12.1839L9.92355 9.16858L10.7869 11.8258L8.52655 10.1835L6.26605 11.8258L7.12955 9.16858L4.86905 7.52633H7.66305L8.52655 4.86902Z" fill="#FFDA44"/>
</g>
<defs>
<clipPath id="clip0_280_16680">
<rect width="32" height="32" fill="white"/>
</clipPath>
</defs>
</svg>
