<svg width="32" height="32" viewBox="0 0 32 32" fill="none" xmlns="http://www.w3.org/2000/svg">
<g clip-path="url(#clip0_280_16669)">
<path d="M16 32C24.8366 32 32 24.8366 32 16C32 7.16344 24.8366 0 16 0C7.16344 0 0 7.16344 0 16C0 24.8366 7.16344 32 16 32Z" fill="#F0F0F0"/>
<path d="M30.0544 8.34779C27.9869 4.55848 24.4317 1.69792 20.1738 0.550293L19.4782 8.34779H30.0544Z" fill="#0052B4"/>
<path d="M1.9453 8.34779H12.5216L11.8259 0.550293C7.56799 1.69792 4.01287 4.55854 1.9453 8.34779Z" fill="#0052B4"/>
<path d="M19.4783 16V23.6522H30.0545C31.2948 21.379 32 18.7719 32 16H19.4783Z" fill="#6DA544"/>
<path d="M12.5217 16H0C0 18.7719 0.705187 21.379 1.94544 23.6522H12.5217V16H12.5217Z" fill="#6DA544"/>
<path d="M1.9453 23.6522C4.01287 27.4415 7.56799 30.302 11.8259 31.4497L12.5216 24.6303L1.9453 23.6522Z" fill="#FFDA44"/>
<path d="M20.1738 31.4497C24.4317 30.302 27.9869 27.4415 30.0544 23.6522L19.4782 24.6302L20.1738 31.4497Z" fill="#FFDA44"/>
<path d="M19.4781 24.6302L30.0544 23.6522H19.4781V24.6302Z" fill="#FFDA44"/>
<path d="M12.5216 23.6522H1.9453L12.5216 24.6302V23.6522Z" fill="#FFDA44"/>
<path d="M16.0001 0C14.5559 0 13.157 0.1925 11.8262 0.551188V31.4489C13.157 31.8075 14.5559 32 16.0001 32C17.4443 32 18.8432 31.8075 20.174 31.4488V0.551188C18.8432 0.1925 17.4443 0 16.0001 0Z" fill="#D80027"/>
<path d="M8.60606 3.47827L9.03768 4.80683H10.4347L9.30462 5.62796L9.73631 6.95652L8.60606 6.13546L7.47587 6.95652L7.90768 5.62796L6.77756 4.80683H8.1745L8.60606 3.47827Z" fill="#FFDA44"/>
</g>
<defs>
<clipPath id="clip0_280_16669">
<rect width="32" height="32" fill="white"/>
</clipPath>
</defs>
</svg>
