<svg width="32" height="32" viewBox="0 0 32 32" fill="none" xmlns="http://www.w3.org/2000/svg">
<g clip-path="url(#clip0_280_16706)">
<path d="M16.0001 32C17.9572 32 19.832 31.648 21.5653 31.0048L22.2609 16L21.5653 0.995188C19.832 0.352063 17.9572 0 16.0001 0C14.0429 0 12.1681 0.352063 10.4349 0.995188L9.7392 16L10.4348 31.0048C12.1681 31.648 14.0429 32 16.0001 32Z" fill="#F0F0F0"/>
<path d="M0 16C0 22.8794 4.342 28.7441 10.4348 31.0048V0.995178C4.342 3.25587 0 9.12055 0 16Z" fill="#FF9811"/>
<path d="M21.5652 0.995178V31.0049C27.658 28.7441 32 22.8794 32 16C32 9.12055 27.658 3.25587 21.5652 0.995178Z" fill="#6DA544"/>
</g>
<defs>
<clipPath id="clip0_280_16706">
<rect width="32" height="32" fill="white"/>
</clipPath>
</defs>
</svg>
