<svg width="32" height="32" viewBox="0 0 32 32" fill="none" xmlns="http://www.w3.org/2000/svg">
<g clip-path="url(#clip0_280_16731)">
<path d="M22.9565 1.58763C20.853 0.5705 18.4931 0 16 0C13.5069 0 11.147 0.5705 9.0435 1.58763L7.65219 16L9.0435 30.4124C11.147 31.4295 13.5069 32 16 32C18.4931 32 20.853 31.4295 22.9565 30.4124L24.3478 16L22.9565 1.58763Z" fill="#D80027"/>
<path d="M16 10.4348L17.3812 14.686H21.8517L18.2352 17.3138L19.6166 21.5652L16 18.9376L12.3834 21.5652L13.765 17.3138L10.1485 14.686H14.6187L16 10.4348Z" fill="#FFDA44"/>
<path d="M9.0435 1.58813C3.69163 4.17601 0 9.65657 0 15.9999C0 22.3433 3.69163 27.8239 9.0435 30.4118V1.58813Z" fill="#496E2D"/>
<path d="M22.9565 1.58813V30.4118C28.3084 27.8239 32 22.3433 32 15.9999C32 9.65663 28.3084 4.17601 22.9565 1.58813Z" fill="#FFDA44"/>
</g>
<defs>
<clipPath id="clip0_280_16731">
<rect width="32" height="32" fill="white"/>
</clipPath>
</defs>
</svg>
