<svg width="32" height="32" viewBox="0 0 32 32" fill="none" xmlns="http://www.w3.org/2000/svg">
<g clip-path="url(#clip0_280_16621)">
<path d="M16 32C24.8366 32 32 24.8366 32 16C32 7.16344 24.8366 0 16 0C7.16344 0 0 7.16344 0 16C0 24.8366 7.16344 32 16 32Z" fill="#D80027"/>
<path d="M8.75625 9.73755L10.1375 13.9875H14.6062L10.9937 16.6188L12.375 20.8688L8.75625 18.2438L5.1375 20.8688L6.525 16.6188L2.90625 13.9875H7.375L8.75625 9.73755Z" fill="#FFDA44"/>
<path d="M18.9688 24.7813L17.9126 23.4813L16.3501 24.0875L17.2563 22.6813L16.2001 21.375L17.8188 21.8063L18.7313 20.4L18.8188 22.075L20.4438 22.5063L18.8751 23.1063L18.9688 24.7813Z" fill="#FFDA44"/>
<path d="M21.0689 20.9688L21.5689 19.3688L20.2001 18.4L21.8751 18.375L22.3689 16.775L22.9126 18.3625L24.5876 18.3438L23.2439 19.3438L23.7814 20.9313L22.4126 19.9625L21.0689 20.9688Z" fill="#FFDA44"/>
<path d="M23.8999 11.7438L23.1624 13.25L24.3624 14.4188L22.7061 14.1813L21.9686 15.6813L21.6811 14.0313L20.0186 13.7938L21.5061 13.0125L21.2186 11.3563L22.4186 12.525L23.8999 11.7438Z" fill="#FFDA44"/>
<path d="M19.0126 7.18127L18.8876 8.85002L20.4438 9.48128L18.8126 9.88127L18.6938 11.5563L17.8126 10.1313L16.1813 10.5313L17.2626 9.25002L16.3751 7.83127L17.9313 8.46252L19.0126 7.18127Z" fill="#FFDA44"/>
</g>
<defs>
<clipPath id="clip0_280_16621">
<rect width="32" height="32" fill="white"/>
</clipPath>
</defs>
</svg>
