<svg width="32" height="32" viewBox="0 0 32 32" fill="none" xmlns="http://www.w3.org/2000/svg">
<g clip-path="url(#clip0_280_16650)">
<path d="M5.92417e-05 2.78265H0V29.2174H5.92417e-05V16.0001V2.78265Z" fill="#FF9811"/>
<path d="M15.9999 32.0009C24.8365 32.0009 31.9999 24.8374 31.9999 16.0009C31.9999 7.16439 24.8365 0.000976562 15.9999 0.000976562C7.16342 0.000976562 0 7.16439 0 16.0009C0 24.8374 7.16342 32.0009 15.9999 32.0009Z" fill="#F0F0F0"/>
<path d="M16.0002 0.00012207C10.7657 0.00012207 6.11856 2.51406 3.19949 6.40012H28.8008C25.8818 2.514 21.2346 0.00012207 16.0002 0.00012207Z" fill="#0052B4"/>
<path d="M16.0002 32C21.2347 32 25.8818 29.4861 28.8009 25.6H3.19949C6.11849 29.4862 10.7657 32 16.0002 32Z" fill="#0052B4"/>
<path d="M0.00012207 16.0001C0.00012207 17.096 0.110622 18.1661 0.320559 19.2001H31.6797C31.8897 18.1661 32.0001 17.096 32.0001 16.0001C32.0001 14.9041 31.8896 13.834 31.6797 12.8H0.320559C0.110622 13.834 0.00012207 14.9041 0.00012207 16.0001Z" fill="#0052B4"/>
<path d="M4.68636 4.68646C-1.56196 10.9348 -1.56196 21.0655 4.68636 27.3139C7.26842 24.7318 9.75167 22.2485 16 16.0002L4.68636 4.68646Z" fill="#D80027"/>
<path d="M6.47563 11.8262L7.51151 15.0147H10.8644L8.15207 16.9854L9.18795 20.1739L6.47563 18.2033L3.7632 20.1739L4.79932 16.9854L2.08694 15.0147H5.43957L6.47563 11.8262Z" fill="#F0F0F0"/>
</g>
<defs>
<clipPath id="clip0_280_16650">
<rect width="32" height="32" fill="white"/>
</clipPath>
</defs>
</svg>
