<svg width="32" height="32" viewBox="0 0 32 32" fill="none" xmlns="http://www.w3.org/2000/svg">
<g clip-path="url(#clip0_280_16670)">
<path d="M16 32C24.8366 32 32 24.8366 32 16C32 7.16344 24.8366 0 16 0C7.16344 0 0 7.16344 0 16C0 24.8366 7.16344 32 16 32Z" fill="#F0F0F0"/>
<path d="M16 32C20.8494 32 25.1946 29.8423 28.1288 26.4348H3.87114C6.80533 29.8423 11.1505 32 16 32Z" fill="#0052B4"/>
<path d="M32 16C32 7.1635 24.8365 0 16 0C7.1635 0 0 7.1635 0 16C0 17.4442 0.1925 18.8431 0.551188 20.1739H31.4489C31.8075 18.8431 32 17.4442 32 16Z" fill="#0052B4"/>
<path d="M1.27176 22.2609C1.5802 22.9856 1.94076 23.6826 2.34845 24.3478H29.6517C30.0593 23.6825 30.4198 22.9856 30.7284 22.2609H1.27176Z" fill="#D80027"/>
<path d="M11.4367 17.0435L11.6957 17.8406H12.5339L11.8559 18.3333L12.1149 19.1305L11.4367 18.6378L10.7586 19.1305L11.0177 18.3333L10.3396 17.8406H11.1778L11.4367 17.0435Z" fill="#FFDA44"/>
<path d="M11.4367 27.4783L11.6957 28.2755H12.5339L11.8559 28.7681L12.1149 29.5652L11.4367 29.0726L10.7586 29.5652L11.0177 28.7681L10.3396 28.2755H11.1778L11.4367 27.4783Z" fill="#FFDA44"/>
<path d="M6.57955 23.9493L6.83855 24.7463H7.67673L6.99867 25.239L7.25767 26.0362L6.57955 25.5435L5.90142 26.0362L6.16055 25.239L5.48242 24.7463H6.32055L6.57955 23.9493Z" fill="#FFDA44"/>
<path d="M8.43486 18.0869L8.69386 18.8841H9.53199L8.85399 19.3767L9.11299 20.1739L8.43486 19.6812L7.75674 20.1739L8.01586 19.3767L7.33768 18.8841H8.17586L8.43486 18.0869Z" fill="#FFDA44"/>
<path d="M5.48242 21.3698L6.32042 21.3698L6.57948 20.5725L6.83855 21.3698L7.67673 21.3697L6.99861 21.8624L7.25767 22.6596L6.57948 22.1669L5.90142 22.6594L6.16042 21.8623L5.48242 21.3698Z" fill="#FFDA44"/>
<path d="M7.75676 28.3694L8.01576 27.5724L7.33757 27.0798H8.17576L8.43482 26.2826L8.69388 27.0797H9.53201L8.85388 27.5723L9.11288 28.3696L8.43476 27.8768L7.75676 28.3694Z" fill="#FFDA44"/>
<path d="M16.2922 23.9493L16.0333 24.7463H15.1951L15.8731 25.239L15.6141 26.0362L16.2922 25.5435L16.9703 26.0362L16.7113 25.239L17.3894 24.7463H16.5512L16.2922 23.9493Z" fill="#FFDA44"/>
<path d="M14.4367 18.0869L14.1778 18.8841H13.3396L14.0176 19.3767L13.7586 20.1739L14.4367 19.6812L15.1148 20.1739L14.8558 19.3767L15.5339 18.8841H14.6957L14.4367 18.0869Z" fill="#FFDA44"/>
<path d="M17.3894 21.3698L16.5513 21.3698L16.2923 20.5725L16.0333 21.3698L15.1951 21.3697L15.8731 21.8624L15.6141 22.6596L16.2923 22.1669L16.9703 22.6594L16.7113 21.8623L17.3894 21.3698Z" fill="#FFDA44"/>
<path d="M15.1149 28.3694L14.8559 27.5724L15.5341 27.0798H14.6959L14.4368 26.2826L14.1778 27.0797H13.3396L14.0178 27.5723L13.7588 28.3696L14.4369 27.8768L15.1149 28.3694Z" fill="#FFDA44"/>
</g>
<defs>
<clipPath id="clip0_280_16670">
<rect width="32" height="32" fill="white"/>
</clipPath>
</defs>
</svg>
