<svg width="32" height="32" viewBox="0 0 32 32" fill="none" xmlns="http://www.w3.org/2000/svg">
<g clip-path="url(#clip0_280_16617)">
<path d="M27.3138 27.3137C21.0654 33.562 10.9347 33.562 4.68631 27.3137C-1.56211 21.0653 -1.56205 10.9346 4.68631 4.68622C5.17819 5.17803 17.4757 14.5242 17.4757 14.5242L27.3138 27.3137Z" fill="#0052B4"/>
<path d="M4.68629 4.68633C10.9347 -1.56203 21.0653 -1.56203 27.3137 4.68633C33.5622 10.9347 33.5621 21.0654 27.3137 27.3138" fill="#6DA544"/>
<path d="M16 20.1739C18.3052 20.1739 20.174 18.3052 20.174 16C20.174 13.6948 18.3052 11.826 16 11.826C13.6948 11.826 11.8261 13.6948 11.8261 16C11.8261 18.3052 13.6948 20.1739 16 20.1739Z" fill="#FFDA44"/>
<path d="M5.95776 22.9564L6.39682 23.8745L7.38826 23.6453L6.94426 24.561L7.74163 25.1933L6.74888 25.417L6.75163 26.4347L5.95776 25.798L5.16389 26.4347L5.16664 25.417L4.17389 25.1933L4.97126 24.561L4.5272 23.6453L5.5187 23.8745L5.95776 22.9564Z" fill="#F0F0F0"/>
<path d="M3.08583 15.3043L3.52489 16.2223L4.51632 15.9931L4.07239 16.9088L4.86964 17.5411L3.87695 17.7648L3.8797 18.7825L3.08583 18.1459L2.29202 18.7825L2.2947 17.7648L1.30202 17.5411L2.09933 16.9088L1.65533 15.9931L2.64676 16.2223L3.08583 15.3043Z" fill="#F0F0F0"/>
<path d="M5.95782 9.0434L6.39688 9.96146L7.38832 9.73221L6.94438 10.648L7.74169 11.2803L6.74895 11.504L6.7517 12.5216L5.95782 11.885L5.16395 12.5216L5.1667 11.504L4.17401 11.2803L4.97126 10.648L4.52726 9.73221L5.51876 9.96146L5.95782 9.0434Z" fill="#F0F0F0"/>
<path d="M9.52565 13.913L9.96471 14.831L10.9562 14.6018L10.5121 15.5176L11.3095 16.1498L10.3168 16.3736L10.3195 17.3912L9.52565 16.7546L8.73177 17.3912L8.73452 16.3736L7.74184 16.1498L8.53909 15.5176L8.09515 14.6018L9.08658 14.831L9.52565 13.913Z" fill="#F0F0F0"/>
<path d="M6.97458 18.0868L7.31995 19.1497H8.43745L7.53332 19.8065L7.8787 20.8693L6.97458 20.2125L6.07045 20.8693L6.41583 19.8065L5.5117 19.1497H6.6292L6.97458 18.0868Z" fill="#F0F0F0"/>
<path d="M15.9998 18.7826H17.3911C17.3911 18.7826 17.994 17.716 17.3911 16.6956L18.7825 15.3043L18.0868 13.913H17.3912C17.3912 13.913 17.0434 14.9565 15.6521 14.9565C14.2608 14.9565 13.913 13.913 13.913 13.913H13.2173L13.913 15.3043L13.2173 16.6956L13.913 17.3913C13.913 17.3913 14.6086 16 15.9999 16.6956C15.9998 16.6956 16.5911 17.5652 15.9998 18.7826Z" fill="#6DA544"/>
<path d="M26.3844 8.76386C26.4172 8.59293 26.4347 8.41661 26.4347 8.23611C26.4347 6.99862 25.6267 5.95043 24.5097 5.58881C24.851 6.28255 25.0434 7.0628 25.0434 7.8883C25.0434 8.16668 25.021 8.4398 24.9789 8.70636C24.8108 8.43555 24.5949 8.18811 24.331 7.97818C23.3372 7.18743 21.9792 7.16649 20.9751 7.83243C21.7503 8.00168 22.4998 8.34574 23.1627 8.87318C23.6817 9.28617 24.1011 9.8448 24.4222 10.384L20.1738 11.7144C24.3477 12.41 27.826 9.62742 27.826 9.62742C27.4405 8.85667 26.842 8.72668 26.3844 8.76386Z" fill="#FFDA44"/>
</g>
<defs>
<clipPath id="clip0_280_16617">
<rect width="32" height="32" fill="white"/>
</clipPath>
</defs>
</svg>
