<svg width="32" height="32" viewBox="0 0 32 32" fill="none" xmlns="http://www.w3.org/2000/svg">
<g clip-path="url(#clip0_280_16646)">
<path d="M16 32C24.8366 32 32 24.8366 32 16C32 7.16344 24.8366 0 16 0C7.16344 0 0 7.16344 0 16C0 24.8366 7.16344 32 16 32Z" fill="#FCFCFC"/>
<path d="M25.0436 13.913C24.5567 13.913 23.9537 13.913 22.9567 13.913C22.9567 17.755 19.842 20.8695 16.0002 20.8695C12.1581 20.8695 9.04366 17.755 9.04366 13.913C8.37116 13.913 7.6291 13.913 6.95673 13.913C6.95673 18.0515 9.73648 21.5406 13.5308 22.6152C13.1149 23.4055 13.1782 24.4004 13.7725 25.142C14.553 24.5164 15.361 23.8688 16.0465 23.3196C16.732 23.8689 17.5402 24.5165 18.3206 25.142C18.9207 24.393 18.9798 23.3855 18.55 22.5914C22.3028 21.4905 25.0436 18.022 25.0436 13.913Z" fill="#6DA544"/>
<path d="M10.4348 13.2173C10.4348 13.2173 10.4348 16.6956 13.9131 16.6956L14.6087 17.3912H16C16 17.3912 16.6956 15.3043 18.0869 15.3043C18.0869 15.3043 18.0869 13.913 19.4783 13.913C20.8696 13.913 21.5652 13.913 21.5652 13.913C21.5652 13.913 20.8696 11.1303 24.3478 9.0434L22.9565 8.34778C22.9565 8.34778 18.0869 11.826 14.6087 11.1304V12.5217H13.2174L12.5218 11.8261L10.4348 13.2173Z" fill="#FFDA44"/>
</g>
<defs>
<clipPath id="clip0_280_16646">
<rect width="32" height="32" fill="white"/>
</clipPath>
</defs>
</svg>
