<svg width="32" height="32" viewBox="0 0 32 32" fill="none" xmlns="http://www.w3.org/2000/svg">
<g clip-path="url(#clip0_280_16641)">
<path d="M16 32C24.8366 32 32 24.8366 32 16C32 7.16344 24.8366 0 16 0C7.16344 0 0 7.16344 0 16C0 24.8366 7.16344 32 16 32Z" fill="#F0F0F0"/>
<path d="M14.6087 16C14.6087 16 4.69561 27.3159 4.68623 27.3137C7.58161 30.2091 11.5817 32 16 32C24.8365 32 32 24.8365 32 16H14.6087Z" fill="#D80027"/>
<path d="M4.68618 4.68628C-1.5622 10.9347 -1.5622 21.0653 4.68618 27.3138C7.26824 24.7317 9.75155 22.2484 15.9999 16L4.68618 4.68628Z" fill="#0052B4"/>
</g>
<defs>
<clipPath id="clip0_280_16641">
<rect width="32" height="32" fill="white"/>
</clipPath>
</defs>
</svg>
