<svg width="32" height="32" viewBox="0 0 32 32" fill="none" xmlns="http://www.w3.org/2000/svg">
<g clip-path="url(#clip0_280_16653)">
<path d="M14.6087 17.3913C14.6087 17.3913 4.69559 4.68406 4.68622 4.68631C7.58159 1.79088 11.5817 0 16 0C24.8365 0 32 7.1635 32 16L14.6087 17.3913Z" fill="#338AF3"/>
<path d="M14.6087 16C14.6087 16 4.69559 27.3159 4.68622 27.3137C7.58159 30.2091 11.5817 32 16 32C24.8365 32 32 24.8365 32 16H14.6087Z" fill="#6DA544"/>
<path d="M4.6861 4.68628C-1.56228 10.9347 -1.56228 21.0653 4.6861 27.3138C7.26816 24.7317 9.75147 22.2484 15.9998 16L4.6861 4.68628Z" fill="#F0F0F0"/>
<path d="M6.47569 11.826L7.51163 15.0145H10.8645L8.15213 16.9853L9.18801 20.1739L6.47569 18.2032L3.76326 20.1739L4.79938 16.9853L2.08701 15.0145H5.43963L6.47569 11.826Z" fill="#D80027"/>
</g>
<defs>
<clipPath id="clip0_280_16653">
<rect width="32" height="32" fill="white"/>
</clipPath>
</defs>
</svg>
