<svg width="32" height="32" viewBox="0 0 32 32" fill="none" xmlns="http://www.w3.org/2000/svg">
<g clip-path="url(#clip0_280_16679)">
<path d="M16 32C24.8366 32 32 24.8366 32 16C32 7.16344 24.8366 0 16 0C7.16344 0 0 7.16344 0 16C0 24.8366 7.16344 32 16 32Z" fill="#F0F0F0"/>
<path d="M0.551092 20.174C2.02847 25.6554 6.34453 29.9715 11.826 31.4489V20.174H0.551092Z" fill="#D80027"/>
<path d="M11.826 0.55127C6.34453 2.02858 2.0284 6.34471 0.551092 11.8261H11.826V0.55127H11.826Z" fill="#0052B4"/>
<path d="M31.4489 11.8261C29.9715 6.34471 25.6554 2.02858 20.174 0.55127V11.8262H31.4489V11.8261Z" fill="#D80027"/>
<path d="M20.174 31.4488C25.6554 29.9714 29.9715 25.6553 31.4489 20.1738H20.174V31.4488Z" fill="#0052B4"/>
<path d="M20.1739 16C20.1739 18.3052 18.3052 20.1739 15.9999 20.1739C13.6948 20.1739 11.826 18.3052 11.826 16C11.826 13.6947 15.9999 11.826 15.9999 11.826C15.9999 11.826 20.1739 13.6947 20.1739 16Z" fill="#496E2D"/>
<path d="M11.826 16C11.826 13.6947 13.6948 11.826 15.9999 11.826C18.3052 11.826 20.1739 13.6947 20.1739 16" fill="#0052B4"/>
<path d="M13.6522 13.913V16.5217C13.6522 17.8184 14.7034 18.8695 16.0001 18.8695C17.2968 18.8695 18.3479 17.8184 18.3479 16.5217V13.913H13.6522Z" fill="#D80027"/>
</g>
<defs>
<clipPath id="clip0_280_16679">
<rect width="32" height="32" fill="white"/>
</clipPath>
</defs>
</svg>
