<svg width="32" height="32" viewBox="0 0 32 32" fill="none" xmlns="http://www.w3.org/2000/svg">
<g clip-path="url(#clip0_280_16564)">
<path d="M15.9999 0C24.8364 0 31.9999 7.1635 31.9999 16C31.9999 24.8365 24.8364 32 15.9999 32C15.9999 31.3044 13.9129 16 13.9129 16L15.9999 0Z" fill="#F0F0F0"/>
<path d="M16 32C7.1635 32 0 24.8365 0 16C0 7.1635 7.1635 0 16 0" fill="#496E2D"/>
<path d="M19.4377 12.9309L18.125 14.74L15.9989 14.0505L17.3138 15.858L16.0012 17.667L18.1264 16.9751L19.4413 18.7825L19.4399 16.5475L21.5652 15.8555L19.4392 15.1661L19.4377 12.9309Z" fill="#D80027"/>
<path d="M17.3273 20.5217C14.83 20.5217 12.8055 18.4972 12.8055 15.9999C12.8055 13.5027 14.83 11.4782 17.3273 11.4782C18.1059 11.4782 18.8386 11.6751 19.4782 12.0217C18.4747 11.0404 17.1025 10.4347 15.5882 10.4347C12.5145 10.4347 10.023 12.9263 10.023 15.9999C10.023 19.0734 12.5146 21.5651 15.5882 21.5651C17.1025 21.5651 18.4748 20.9594 19.4782 19.9781C18.8386 20.3248 18.1059 20.5217 17.3273 20.5217Z" fill="#D80027"/>
</g>
<defs>
<clipPath id="clip0_280_16564">
<rect width="32" height="32" fill="white"/>
</clipPath>
</defs>
</svg>
