<svg width="32" height="32" viewBox="0 0 32 32" fill="none" xmlns="http://www.w3.org/2000/svg">
<g clip-path="url(#clip0_280_16584)">
<path d="M0 16C0 7.1635 7.1635 0 16 0C24.8365 0 32 7.1635 32 16L16 17.3913L0 16Z" fill="#FFDA44"/>
<path d="M2.14111 24C4.90767 28.7822 10.0779 32 16.0001 32C21.9223 32 27.0925 28.7822 29.8591 24L16.0001 22.9565L2.14111 24Z" fill="#D80027"/>
<path d="M29.859 24C31.2204 21.6466 32 18.9144 32 16H0C0 18.9144 0.779625 21.6466 2.141 24H29.859Z" fill="#0052B4"/>
<path d="M15.9999 21.5652C19.0735 21.5652 21.5651 19.0736 21.5651 16.0001C21.5651 12.9265 19.0735 10.4349 15.9999 10.4349C12.9264 10.4349 10.4348 12.9265 10.4348 16.0001C10.4348 19.0736 12.9264 21.5652 15.9999 21.5652Z" fill="#FFDA44"/>
<path d="M15.9999 19.4783C14.082 19.4783 12.5217 17.9179 12.5217 16.0001V13.9131C12.5217 11.9952 14.082 10.4349 15.9999 10.4349C17.9178 10.4349 19.4782 11.9952 19.4782 13.9131V16.0001C19.4782 17.918 17.9178 19.4783 15.9999 19.4783Z" fill="#338AF3"/>
<path d="M21.5651 7.65218H17.3912C17.3912 6.8838 16.7682 6.26086 15.9998 6.26086C15.2315 6.26086 14.6085 6.8838 14.6085 7.65218H10.4346C10.4346 8.42061 11.1039 9.04349 11.8722 9.04349H11.8259C11.8259 9.81193 12.4488 10.4348 13.2172 10.4348C13.2172 11.2032 13.8401 11.8261 14.6085 11.8261H17.3912C18.1596 11.8261 18.7825 11.2032 18.7825 10.4348C19.5509 10.4348 20.1738 9.81193 20.1738 9.04349H20.1275C20.8958 9.04349 21.5651 8.42055 21.5651 7.65218Z" fill="black"/>
</g>
<defs>
<clipPath id="clip0_280_16584">
<rect width="32" height="32" fill="white"/>
</clipPath>
</defs>
</svg>
