<svg width="32" height="32" viewBox="0 0 32 32" fill="none" xmlns="http://www.w3.org/2000/svg">
<g clip-path="url(#clip0_280_16683)">
<path d="M16 32C24.8366 32 32 24.8366 32 16C32 7.16344 24.8366 0 16 0C7.16344 0 0 7.16344 0 16C0 24.8366 7.16344 32 16 32Z" fill="#F0F0F0"/>
<path d="M16.0001 0C9.12067 0 3.25598 4.342 0.995293 10.4348H31.005C28.7442 4.342 22.8795 0 16.0001 0Z" fill="#D80027"/>
<path d="M16.0001 32.0001C22.8795 32.0001 28.7442 27.6581 31.0049 21.5652H0.995293C3.25598 27.6581 9.12067 32.0001 16.0001 32.0001Z" fill="black"/>
<path d="M21.5652 14.2609H17.3913C17.3913 13.4926 16.7683 12.8696 16 12.8696C15.2316 12.8696 14.6087 13.4926 14.6087 14.2609H10.4347C10.4347 15.0294 11.104 15.6523 11.8724 15.6523H11.826C11.826 16.4207 12.4489 17.0436 13.2173 17.0436C13.2173 17.812 13.8402 18.4349 14.6087 18.4349H17.3913C18.1597 18.4349 18.7826 17.812 18.7826 17.0436C19.551 17.0436 20.1739 16.4207 20.1739 15.6523H20.1276C20.896 15.6523 21.5652 15.0294 21.5652 14.2609Z" fill="#FF9811"/>
</g>
<defs>
<clipPath id="clip0_280_16683">
<rect width="32" height="32" fill="white"/>
</clipPath>
</defs>
</svg>
