<svg width="32" height="32" viewBox="0 0 32 32" fill="none" xmlns="http://www.w3.org/2000/svg">
<g clip-path="url(#clip0_280_16699)">
<path d="M14.6087 14.6087C14.6087 14.6087 4.69565 27.316 4.68628 27.3137C7.58165 30.2092 11.5817 32 16 32C24.8365 32 32 24.8365 32 16L14.6087 14.6087Z" fill="#338AF3"/>
<path d="M14.6087 16C14.6087 16 4.69565 4.68406 4.68628 4.68631C7.58165 1.79088 11.5817 0 16 0C24.8365 0 32 7.1635 32 16H14.6087Z" fill="#6DA544"/>
<path d="M4.68617 4.68628C-1.5622 10.9347 -1.5622 21.0653 4.68617 27.3138C4.68574 27.3163 31.9999 16 31.9999 16L4.68617 4.68628Z" fill="#D80027"/>
<path d="M8.34781 9.39136C5.27912 9.39136 2.78262 11.8879 2.78262 14.9565V17.0435C2.78262 20.1122 5.27919 22.6087 8.34781 22.6087C11.4164 22.6087 13.913 20.1121 13.913 17.0435V14.9565C13.9131 11.8879 11.4165 9.39136 8.34781 9.39136ZM11.8261 17.0435C11.8261 18.598 10.8009 19.9174 9.39125 20.3617V18.087L10.8677 16.6105L9.39206 15.1349L9.39125 14.6097V13.9132H7.30437V16L5.82887 17.4755L7.30437 18.9509V20.3617C5.89469 19.9174 4.86956 18.5981 4.86956 17.0436V14.9567C4.86956 13.0387 6.42993 11.4784 8.34781 11.4784C10.2657 11.4784 11.8261 13.0388 11.8261 14.9567V17.0435Z" fill="#FFDA44"/>
</g>
<defs>
<clipPath id="clip0_280_16699">
<rect width="32" height="32" fill="white"/>
</clipPath>
</defs>
</svg>
