<svg width="32" height="32" viewBox="0 0 32 32" fill="none" xmlns="http://www.w3.org/2000/svg">
<g clip-path="url(#clip0_280_16573)">
<path d="M0 16C0 17.9571 0.352063 19.8318 0.995188 21.5652L16 22.9565L31.0048 21.5652C31.6479 19.8318 32 17.9571 32 16C32 14.0428 31.6479 12.1681 31.0048 10.4348L16 9.04346L0.995188 10.4348C0.352063 12.1681 0 14.0428 0 16Z" fill="#FFDA44"/>
<path d="M31.0048 10.4348C28.7441 4.34206 22.8794 0 16 0C9.12052 0 3.25584 4.34206 0.995148 10.4348H31.0048Z" fill="#D80027"/>
<path d="M0.995148 21.5652C3.25584 27.6579 9.12052 32 16 32C22.8794 32 28.7441 27.6579 31.0048 21.5652H0.995148Z" fill="#D80027"/>
</g>
<defs>
<clipPath id="clip0_280_16573">
<rect width="32" height="32" fill="white"/>
</clipPath>
</defs>
</svg>
