<svg width="32" height="32" viewBox="0 0 32 32" fill="none" xmlns="http://www.w3.org/2000/svg">
<g clip-path="url(#clip0_280_16675)">
<path d="M16 32C24.8366 32 32 24.8366 32 16C32 7.16344 24.8366 0 16 0C7.16344 0 0 7.16344 0 16C0 24.8366 7.16344 32 16 32Z" fill="#0052B4"/>
<path d="M16.0003 6.26086L16.5183 7.85518H18.1946L16.8384 8.84049L17.3565 10.4348L16.0003 9.44943L14.644 10.4348L15.1621 8.84049L13.8059 7.85518H15.4822L16.0003 6.26086Z" fill="#FFDA44"/>
<path d="M9.11364 9.1134L10.6074 9.8744L11.7927 8.68915L11.5304 10.3448L13.0241 11.1058L11.3684 11.3681L11.1061 13.0238L10.3451 11.5301L8.68945 11.7925L9.87477 10.6071L9.11364 9.1134Z" fill="#FFDA44"/>
<path d="M6.26102 16L7.85533 15.482V13.8057L8.84058 15.1619L10.435 14.6439L9.44952 16L10.435 17.3562L8.84058 16.8382L7.85533 18.1944V16.5181L6.26102 16Z" fill="#FFDA44"/>
<path d="M9.11364 22.8866L9.8747 21.3929L8.68945 20.2076L10.3451 20.4699L11.1061 18.9763L11.3684 20.6319L13.024 20.8942L11.5305 21.6553L11.7927 23.3109L10.6074 22.1256L9.11364 22.8866Z" fill="#FFDA44"/>
<path d="M16.0003 25.7391L15.4822 24.1448H13.8059L15.1622 23.1595L14.644 21.5653L16.0003 22.5506L17.3565 21.5653L16.8384 23.1595L18.1946 24.1448H16.5183L16.0003 25.7391Z" fill="#FFDA44"/>
<path d="M22.8868 22.8866L21.3931 22.1256L20.2077 23.3109L20.47 21.6552L18.9765 20.8942L20.6321 20.6319L20.8943 18.9763L21.6553 20.4699L23.311 20.2076L22.1257 21.393L22.8868 22.8866Z" fill="#FFDA44"/>
<path d="M25.7393 16L24.145 16.5181V18.1944L23.1596 16.8382L21.5655 17.3562L22.5508 16L21.5655 14.6439L23.1597 15.1619L24.145 13.8057V15.482L25.7393 16Z" fill="#FFDA44"/>
<path d="M22.8868 9.1134L22.1257 10.6071L23.311 11.7925L21.6553 11.5301L20.8943 13.0238L20.6321 11.3681L18.9765 11.1058L20.47 10.3448L20.2077 8.68921L21.3932 9.87446L22.8868 9.1134Z" fill="#FFDA44"/>
</g>
<defs>
<clipPath id="clip0_280_16675">
<rect width="32" height="32" fill="white"/>
</clipPath>
</defs>
</svg>
