<svg width="32" height="32" viewBox="0 0 32 32" fill="none" xmlns="http://www.w3.org/2000/svg">
<g clip-path="url(#clip0_280_16728)">
<path d="M32 16C32 24.8365 24.8365 32 16 32C7.1635 32 0 24.8365 0 16C0 16.0038 16 0.00175 16 0C24.8365 0 32 7.1635 32 16Z" fill="#338AF3"/>
<path d="M15.9999 7.65222V13.0487L10.4348 7.65222H15.9999Z" fill="#0052B4"/>
<path d="M8.34773 16.0001H13.0485L8.34773 9.7392L7.6521 14.6088L8.34773 16.0001Z" fill="#0052B4"/>
<path d="M15.9573 15.9998H16.0006C16.0006 15.9855 16.0006 15.9715 16.0006 15.9572C15.9862 15.9714 15.9717 15.9856 15.9573 15.9998Z" fill="#F0F0F0"/>
<path d="M16 8.34781C16 5.5325 16 3.68781 16 0H15.9973C7.162 0.0015 0 7.16431 0 16H8.34781V11.2993L13.0486 16H15.9573C15.9716 15.9858 15.9858 15.9715 16.0001 15.9572C16.0001 14.8793 16.0001 13.9174 16.0001 13.0486L11.2992 8.34781H16Z" fill="#F0F0F0"/>
<path d="M8.09463 2.08698C5.5922 3.51191 3.51182 5.59229 2.08688 8.09473V16H6.26082V6.26104V6.26091H15.9999C15.9999 4.94448 15.9999 3.69035 15.9999 2.08698H8.09463Z" fill="#D80027"/>
<path d="M15.9998 14.0325L10.3153 8.3479H8.34772V8.34803L15.9997 16H15.9998C15.9998 16 15.9998 14.6433 15.9998 14.0325Z" fill="#D80027"/>
<path d="M18.0869 10.4348V16C18.0869 19.7275 22.9564 20.8696 22.9564 20.8696C22.9564 20.8696 27.826 19.7275 27.826 16V10.4348L22.9564 9.04352L18.0869 10.4348Z" fill="#F3F3F3"/>
<path d="M27.826 10.4348V8.3479H18.0869V10.4348H22.2607V14.6088H18.0869V16C18.0869 16.0001 18.0869 16.0002 18.0869 16.0002L22.2607 16.0002V20.6563C22.6806 20.8048 22.9564 20.8696 22.9564 20.8696C22.9564 20.8696 23.2322 20.8049 23.652 20.6563V16.0002H27.826V16V14.6088H23.652V10.4348H27.826V10.4348Z" fill="#D80027"/>
</g>
<defs>
<clipPath id="clip0_280_16728">
<rect width="32" height="32" fill="white"/>
</clipPath>
</defs>
</svg>
