<svg width="32" height="32" viewBox="0 0 32 32" fill="none" xmlns="http://www.w3.org/2000/svg">
<g clip-path="url(#clip0_280_16629)">
<path d="M32 16C32 24.8365 24.8365 32 16 32C7.1635 32 0 24.8365 0 16C0 16.0038 16 0.00175 16 0C24.8365 0 32 7.1635 32 16Z" fill="#0052B4"/>
<path d="M15.9571 16.0004H15.9997C15.9997 15.9859 15.9997 15.9718 15.9997 15.9572C15.9856 15.9716 15.9714 15.986 15.9571 16.0004Z" fill="#F0F0F0"/>
<path d="M16 8.34781C16 5.5325 16 3.68781 16 0H15.9973C7.162 0.0015 0 7.16431 0 16H8.34781V11.2993L13.0486 16H15.9572C15.9715 15.9858 15.9858 15.9715 16.0001 15.9572C16.0001 14.8793 16.0001 13.9174 16.0001 13.0486L11.2992 8.34781H16Z" fill="#F0F0F0"/>
<path d="M8.09477 2.08704C5.59233 3.51197 3.51196 5.59235 2.08702 8.09479V16.0001H6.26096V6.2611V6.26097H16.0001C16.0001 4.94454 16.0001 3.69041 16.0001 2.08704H8.09477Z" fill="#D80027"/>
<path d="M16.0001 14.0325L10.3155 8.3479H8.34795V8.34803L15.9999 16H16.0001C16.0001 16 16.0001 14.6433 16.0001 14.0325Z" fill="#D80027"/>
<path d="M25.7392 18.7827V19.4783H20.174V18.7827H18.087V21.5653H19.4783V22.261H26.4349V21.5653H27.8262V18.7827H25.7392Z" fill="#FFDA44"/>
<path d="M18.087 8.34778V16C18.087 19.7274 22.9566 20.8695 22.9566 20.8695C22.9566 20.8695 27.8262 19.7274 27.8262 16V8.34778H18.087Z" fill="#338AF3"/>
<path d="M22.9563 14.0555C21.739 14.0555 21.739 15.1686 20.5217 15.1686C19.3044 15.1686 19.3044 14.0555 18.0871 14.0555V16.0034C19.3044 16.0034 19.3044 17.1164 20.5217 17.1164C21.739 17.1164 21.739 16.0034 22.9563 16.0034C24.1738 16.0034 24.1738 17.1164 25.3913 17.1164C26.6088 17.1164 26.6087 16.0034 27.8262 16.0034V14.0555C26.6088 14.0555 26.6088 15.1686 25.3913 15.1686C24.1738 15.1686 24.1738 14.0555 22.9563 14.0555Z" fill="#F3F3F3"/>
<path d="M22.9563 10.1565C21.739 10.1565 21.739 11.2696 20.5217 11.2696C19.3044 11.2696 19.3044 10.1565 18.0871 10.1565V12.1043C19.3044 12.1043 19.3044 13.2174 20.5217 13.2174C21.739 13.2174 21.739 12.1043 22.9563 12.1043C24.1738 12.1043 24.1738 13.2174 25.3913 13.2174C26.6088 13.2174 26.6087 12.1043 27.8262 12.1043V10.1565C26.6088 10.1565 26.6088 11.2696 25.3913 11.2696C24.1738 11.2696 24.1738 10.1565 22.9563 10.1565Z" fill="#F3F3F3"/>
</g>
<defs>
<clipPath id="clip0_280_16629">
<rect width="32" height="32" fill="white"/>
</clipPath>
</defs>
</svg>
