<svg width="32" height="32" viewBox="0 0 32 32" fill="none" xmlns="http://www.w3.org/2000/svg">
<g clip-path="url(#clip0_280_16563)">
<path d="M16 32C24.8366 32 32 24.8366 32 16C32 7.16344 24.8366 0 16 0C7.16344 0 0 7.16344 0 16C0 24.8366 7.16344 32 16 32Z" fill="#338AF3"/>
<path d="M16 6.9566L16.6906 9.08235H18.9259L17.1176 10.3962L17.8082 12.5219L16 11.2081L14.1917 12.5219L14.8825 10.3962L13.0742 9.08235H15.3094L16 6.9566Z" fill="#F0F0F0"/>
<path d="M6.95657 16.0003L9.08232 15.3095V13.0743L10.3961 14.8827L12.5218 14.192L11.2081 16.0003L12.5218 17.8084L10.3961 17.1177L9.08232 18.926V16.6908L6.95657 16.0003Z" fill="#F0F0F0"/>
<path d="M16.0001 25.0436L15.3094 22.9179H13.0742L14.8825 21.6041L14.1919 19.4784L16.0001 20.7921L17.8083 19.4784L17.1175 21.6041L18.9259 22.9179H16.6907L16.0001 25.0436Z" fill="#F0F0F0"/>
<path d="M25.0435 16.0001L22.9177 16.6908V18.926L21.6039 17.1177L19.4782 17.8083L20.792 16.0001L19.4782 14.1919L21.6039 14.8827L22.9177 13.0743V15.3095L25.0435 16.0001Z" fill="#F0F0F0"/>
</g>
<defs>
<clipPath id="clip0_280_16563">
<rect width="32" height="32" fill="white"/>
</clipPath>
</defs>
</svg>
