<svg width="32" height="32" viewBox="0 0 32 32" fill="none" xmlns="http://www.w3.org/2000/svg">
<g clip-path="url(#clip0_280_16718)">
<path d="M16 32C24.8366 32 32 24.8366 32 16C32 7.16344 24.8366 0 16 0C7.16344 0 0 7.16344 0 16C0 24.8366 7.16344 32 16 32Z" fill="#F0F0F0"/>
<path d="M31.3037 15.9997L31.8637 13.9128C31.7707 13.2015 31.6312 12.5047 31.4482 11.8259H14.608V0.0606079C13.898 0.121733 13.2015 0.229795 12.5211 0.38067L9.73848 2.08667L8.34716 1.94623C7.61498 2.34573 6.91742 2.80073 6.26023 3.30567V11.8258H0.55054C0.367603 12.5047 0.228103 13.2014 0.135103 13.9127L0.694978 15.9997L0.13504 18.0867C0.22804 18.798 0.36754 19.4947 0.550478 20.1736H6.26016V28.6937C6.91735 29.1987 7.61498 29.6537 8.3471 30.0532L10.434 29.9127L12.521 31.6187C13.2014 31.7695 13.898 31.8776 14.6079 31.9388V20.1737H31.448C31.631 19.4948 31.7705 18.798 31.8635 18.0867L31.3037 15.9997Z" fill="#0052B4"/>
<path d="M31.8646 13.9131H12.5218H12.5218V0.38031C11.0431 0.708185 9.64131 1.23962 8.34781 1.94543V13.913H0.135438C0.0465 14.5962 0 15.2927 0 16C0 16.7073 0.0465 17.4038 0.135438 18.0869H8.34775H8.34781V30.0545C9.64131 30.7602 11.0431 31.2918 12.5218 31.6196V18.0871V18.087H31.8646C31.9535 17.4038 32 16.7073 32 16C32 15.2927 31.9535 14.5962 31.8646 13.9131Z" fill="#D80027"/>
</g>
<defs>
<clipPath id="clip0_280_16718">
<rect width="32" height="32" fill="white"/>
</clipPath>
</defs>
</svg>
