<svg width="32" height="32" viewBox="0 0 32 32" fill="none" xmlns="http://www.w3.org/2000/svg">
<g clip-path="url(#clip0_280_16622)">
<path d="M31.0048 21.5652C31.648 19.832 32 17.9571 32 16C32 14.0429 31.648 12.1682 31.0048 10.4348L16 9.04352L0.995188 10.4348C0.352063 12.1682 0 14.0429 0 16C0 17.9571 0.352063 19.832 0.995188 21.5652L16 22.9565L31.0048 21.5652Z" fill="#FFDA44"/>
<path d="M15.9999 32.0001C22.8793 32.0001 28.744 27.6581 31.0046 21.5652H0.995026C3.25578 27.6581 9.1204 32.0001 15.9999 32.0001Z" fill="#0052B4"/>
<path d="M15.9999 0C9.1204 0 3.25578 4.342 0.995026 10.4348H31.0047C28.744 4.342 22.8793 0 15.9999 0Z" fill="#6DA544"/>
</g>
<defs>
<clipPath id="clip0_280_16622">
<rect width="32" height="32" fill="white"/>
</clipPath>
</defs>
</svg>
