<svg width="32" height="32" viewBox="0 0 32 32" fill="none" xmlns="http://www.w3.org/2000/svg">
<g clip-path="url(#clip0_280_16491)">
<path d="M16 32C24.8366 32 32 24.8366 32 16C32 7.16344 24.8366 0 16 0C7.16344 0 0 7.16344 0 16C0 24.8366 7.16344 32 16 32Z" fill="#F0F0F0"/>
<path d="M3.30757 6.25879C2.05075 7.89398 1.10307 9.77866 0.551254 11.8261H8.87488L3.30757 6.25879Z" fill="#0052B4"/>
<path d="M31.4488 11.826C30.897 9.77866 29.9492 7.89398 28.6925 6.25879L23.1253 11.826H31.4488Z" fill="#0052B4"/>
<path d="M0.551254 20.174C1.10313 22.2213 2.05082 24.106 3.30757 25.7411L8.87469 20.174H0.551254Z" fill="#0052B4"/>
<path d="M25.7412 3.30752C24.106 2.05071 22.2214 1.10302 20.1739 0.551147V8.87471L25.7412 3.30752Z" fill="#0052B4"/>
<path d="M6.25881 28.6925C7.894 29.9493 9.77868 30.897 11.8261 31.4489V23.1254L6.25881 28.6925Z" fill="#0052B4"/>
<path d="M11.826 0.551147C9.77862 1.10302 7.89393 2.05071 6.25881 3.30746L11.826 8.87465V0.551147Z" fill="#0052B4"/>
<path d="M20.174 31.4489C22.2214 30.897 24.1061 29.9493 25.7412 28.6926L20.174 23.1254V31.4489Z" fill="#0052B4"/>
<path d="M23.1253 20.174L28.6925 25.7412C29.9492 24.1061 30.897 22.2213 31.4488 20.174H23.1253Z" fill="#0052B4"/>
<path d="M31.8646 13.9131H18.0871H18.087V0.135438C17.4038 0.0465 16.7073 0 16 0C15.2926 0 14.5962 0.0465 13.9131 0.135438V13.9129V13.913H0.135438C0.0465 14.5962 0 15.2927 0 16C0 16.7074 0.0465 17.4038 0.135438 18.0869H13.9129H13.913V31.8646C14.5962 31.9535 15.2926 32 16 32C16.7073 32 17.4038 31.9536 18.0869 31.8646V18.0871V18.087H31.8646C31.9535 17.4038 32 16.7074 32 16C32 15.2927 31.9535 14.5962 31.8646 13.9131Z" fill="#D80027"/>
<path d="M20.174 20.174L27.3138 27.3138C27.6421 26.9855 27.9554 26.6423 28.2543 26.2866L22.1416 20.174H20.174V20.174Z" fill="#D80027"/>
<path d="M11.8259 20.1741H11.8258L4.68613 27.3138C5.01438 27.6421 5.35757 27.9554 5.71332 28.2543L11.8259 22.1415V20.1741Z" fill="#D80027"/>
<path d="M11.826 11.8261V11.826L4.68629 4.68616C4.35791 5.01441 4.04466 5.35759 3.74579 5.71334L9.85848 11.826H11.826V11.8261Z" fill="#D80027"/>
<path d="M20.174 11.8263L27.3138 4.68641C26.9856 4.35803 26.6424 4.04478 26.2866 3.74597L20.174 9.85866V11.8263Z" fill="#D80027"/>
</g>
<defs>
<clipPath id="clip0_280_16491">
<rect width="32" height="32" fill="white"/>
</clipPath>
</defs>
</svg>
