<svg width="32" height="32" viewBox="0 0 32 32" fill="none" xmlns="http://www.w3.org/2000/svg">
<g clip-path="url(#clip0_280_16611)">
<path d="M16 32C24.8366 32 32 24.8366 32 16C32 7.16344 24.8366 0 16 0C7.16344 0 0 7.16344 0 16C0 24.8366 7.16344 32 16 32Z" fill="#F0F0F0"/>
<path d="M31.8646 13.9131H18.0871H18.087V0.135438C17.4038 0.0465 16.7073 0 16 0C15.2927 0 14.5962 0.0465 13.9131 0.135438V13.9129V13.913H0.135438C0.0465 14.5962 0 15.2927 0 16C0 16.7074 0.0465 17.4038 0.135438 18.0869H13.9129H13.913V31.8646C14.5962 31.9535 15.2927 32 16 32C16.7073 32 17.4038 31.9536 18.0869 31.8646V18.0871V18.087H31.8646C31.9535 17.4038 32 16.7074 32 16C32 15.2927 31.9535 14.5962 31.8646 13.9131Z" fill="#D80027"/>
<path d="M9.73928 7.65213V5.56512H7.65234V7.65213H5.56535V9.73906H7.65234V11.826H9.73928V9.73906H11.8262V7.65213H9.73928Z" fill="#D80027"/>
<path d="M24.3479 7.65213V5.56512H22.261V7.65213H20.174V9.73906H22.261V11.826H24.3479V9.73906H26.4349V7.65213H24.3479Z" fill="#D80027"/>
<path d="M9.73928 22.2609V20.174H7.65234V22.2609H5.56535V24.3478H7.65234V26.4348H9.73928V24.3478H11.8262V22.2609H9.73928Z" fill="#D80027"/>
<path d="M24.3479 22.2609V20.174H22.261V22.2609H20.174V24.3478H22.261V26.4348H24.3479V24.3478H26.4349V22.2609H24.3479Z" fill="#D80027"/>
</g>
<defs>
<clipPath id="clip0_280_16611">
<rect width="32" height="32" fill="white"/>
</clipPath>
</defs>
</svg>
