<svg width="32" height="32" viewBox="0 0 32 32" fill="none" xmlns="http://www.w3.org/2000/svg">
<g clip-path="url(#clip0_280_16613)">
<path d="M16 32C24.8366 32 32 24.8366 32 16C32 7.16344 24.8366 0 16 0C7.16344 0 0 7.16344 0 16C0 24.8366 7.16344 32 16 32Z" fill="#F9F9F9"/>
<path d="M16.0001 32C22.8795 32 28.7442 27.658 31.0048 21.5652H0.995216C3.25597 27.658 9.12059 32 16.0001 32Z" fill="#D80027"/>
<path d="M22.2609 13.2174V11.1305H22.9565V9.73916H21.5652V10.4349H20.1739V9.73916H18.7826V11.1305H19.4783V13.2174H18.0869V8.34798H18.7826V6.95673H17.3913V7.65223H16.6956V6.95673H15.3044V7.65223H14.6087V6.95673H13.2174V8.34798H13.9131V13.2174H12.5218V11.1305H13.2174V9.73916H11.8261V10.4349H10.4348V9.73916H9.0435V11.1305H9.73913V13.2174H8.34781V18.7827H23.6522V13.2174H22.2609Z" fill="#D80027"/>
<path d="M16 18.087C14.8475 18.087 13.9131 19.0214 13.9131 20.1739C13.9131 21.0824 14.494 21.8552 15.3044 22.1417V25.0435H13.2175V27.8262H16.6957V22.1417C17.5062 21.8552 18.087 21.0825 18.087 20.174C18.087 19.0214 17.1526 18.087 16 18.087ZM16 20.8696C15.6159 20.8696 15.3044 20.5581 15.3044 20.174C15.3044 19.7898 15.6159 19.4784 16 19.4784C16.3842 19.4784 16.6957 19.7898 16.6957 20.174C16.6957 20.5581 16.3842 20.8696 16 20.8696Z" fill="#FFDA44"/>
</g>
<defs>
<clipPath id="clip0_280_16613">
<rect width="32" height="32" fill="white"/>
</clipPath>
</defs>
</svg>
