<svg width="32" height="32" viewBox="0 0 32 32" fill="none" xmlns="http://www.w3.org/2000/svg">
<g clip-path="url(#clip0_280_16618)">
<path d="M16 32C24.8366 32 32 24.8366 32 16C32 7.16344 24.8366 0 16 0C7.16344 0 0 7.16344 0 16C0 24.8366 7.16344 32 16 32Z" fill="#F0F0F0"/>
<path d="M16.0001 0C9.3854 0 3.70865 4.01413 1.27184 9.73913H30.7284C28.2916 4.01413 22.6148 0 16.0001 0Z" fill="#A2001D"/>
<path d="M16.0001 32.0001C22.6148 32.0001 28.2916 27.9859 30.7283 22.2609H1.27184C3.70865 27.9859 9.3854 32.0001 16.0001 32.0001Z" fill="#496E2D"/>
<path d="M31.4488 11.8261H0.551188C0.1925 13.1569 0 14.5559 0 16C0 17.4442 0.1925 18.8432 0.551188 20.174H31.4489C31.8075 18.8432 32 17.4442 32 16C32 14.5559 31.8075 13.1569 31.4488 11.8261Z" fill="#0052B4"/>
</g>
<defs>
<clipPath id="clip0_280_16618">
<rect width="32" height="32" fill="white"/>
</clipPath>
</defs>
</svg>
