<svg width="32" height="32" viewBox="0 0 32 32" fill="none" xmlns="http://www.w3.org/2000/svg">
<g clip-path="url(#clip0_280_16607)">
<path d="M21.5655 0.99525C19.8321 0.352062 17.9573 0 16.0001 0C14.043 0 12.1683 0.352063 10.435 0.995125L9.73935 16L10.435 31.0049C12.1683 31.648 14.043 32 16.0001 32C17.9574 32 19.8321 31.648 21.5655 31.0047L22.2611 16L21.5655 0.99525Z" fill="#FFDA44"/>
<path d="M0 16C0 22.8794 4.342 28.7441 10.4348 31.0047V0.995117C4.342 3.25587 0 9.12049 0 16Z" fill="#D80027"/>
<path d="M31.9999 16C31.9999 9.12049 27.6579 3.25587 21.5651 0.995117V31.0048C27.6579 28.7441 31.9999 22.8794 31.9999 16Z" fill="#6DA544"/>
</g>
<defs>
<clipPath id="clip0_280_16607">
<rect width="32" height="32" fill="white"/>
</clipPath>
</defs>
</svg>
