<svg width="32" height="32" viewBox="0 0 32 32" fill="none" xmlns="http://www.w3.org/2000/svg">
<g clip-path="url(#clip0_280_16636)">
<path d="M16 32C24.8366 32 32 24.8366 32 16C32 7.16344 24.8366 0 16 0C7.16344 0 0 7.16344 0 16C0 24.8366 7.16344 32 16 32Z" fill="#F0F0F0"/>
<path d="M9.73925 10.4348H31.0049C28.7442 4.342 22.8795 0 16.0001 0C11.5817 0 7.58219 1.79119 4.68694 4.68681L9.73925 10.4348Z" fill="#6DA544"/>
<path d="M9.73925 21.5652H31.0049C28.7442 27.6581 22.8795 32.0001 16.0001 32.0001C11.5817 32.0001 7.58219 30.2089 4.68694 27.3132L9.73925 21.5652Z" fill="#D80027"/>
<path d="M4.68618 4.68628C-1.5622 10.9347 -1.5622 21.0653 4.68618 27.3138C7.26824 24.7317 9.75155 22.2484 15.9999 16L4.68618 4.68628Z" fill="#0052B4"/>
<path d="M18.7827 13.2173V16.6956C18.7827 18.8256 21.5653 19.4783 21.5653 19.4783C21.5653 19.4783 24.3479 18.8256 24.3479 16.6956V13.2173H18.7827Z" fill="#DEDDE0"/>
<path d="M22.2607 16.0696H20.8694V18.087H22.2607V16.0696Z" fill="#786145"/>
<path d="M22.9565 15.3043C22.9565 14.5359 22.3336 13.913 21.5652 13.913C20.7967 13.913 20.1739 14.5359 20.1739 15.3043C19.7897 15.3043 19.4782 15.6158 19.4782 16C19.4782 16.3841 19.7897 16.6956 20.1739 16.6956C20.402 16.6956 22.7284 16.6956 22.9565 16.6956C23.3407 16.6956 23.6521 16.3841 23.6521 16C23.6521 15.6158 23.3407 15.3043 22.9565 15.3043Z" fill="#6DA544"/>
</g>
<defs>
<clipPath id="clip0_280_16636">
<rect width="32" height="32" fill="white"/>
</clipPath>
</defs>
</svg>
