<svg width="32" height="32" viewBox="0 0 32 32" fill="none" xmlns="http://www.w3.org/2000/svg">
<g clip-path="url(#clip0_533_128)">
<path d="M32 16C32 24.8365 24.8365 32 16 32C7.1635 32 0 24.8365 0 16C0 16.0038 16 0.00175 16 0C24.8365 0 32 7.1635 32 16Z" fill="#0052B4"/>
<path d="M15.9571 16.0004H15.9997C15.9997 15.9859 15.9997 15.9718 15.9997 15.9572C15.9856 15.9716 15.9714 15.986 15.9571 16.0004Z" fill="#F0F0F0"/>
<path d="M16 8.34781C16 5.5325 16 3.68781 16 0H15.9973C7.162 0.0015 0 7.16431 0 16H8.34781V11.2993L13.0486 16H15.9572C15.9715 15.9858 15.9858 15.9715 16.0001 15.9572C16.0001 14.8793 16.0001 13.9174 16.0001 13.0486L11.2992 8.34781H16Z" fill="#F0F0F0"/>
<path d="M8.09478 2.08704C5.59235 3.51197 3.51197 5.59235 2.08704 8.09479V16.0001H6.26097V6.2611V6.26097H16.0001C16.0001 4.94454 16.0001 3.69041 16.0001 2.08704H8.09478Z" fill="#D80027"/>
<path d="M16.0001 14.0325L10.3155 8.3479H8.34796V8.34803L16 16H16.0001C16.0001 16 16.0001 14.6433 16.0001 14.0325Z" fill="#D80027"/>
<path d="M23.0847 18.4436C23.0847 18.4436 22.9906 18.6954 22.9369 18.6954C22.8833 18.6954 22.6885 18.5866 22.6885 18.5866C22.6885 18.5866 22.5474 18.8181 22.4735 18.8315C22.3996 18.8452 22.2049 18.7976 22.2049 18.7976C22.2049 18.7976 22.0169 18.7976 22.0101 18.7703C22.0034 18.7432 22.0169 18.6888 22.0169 18.6888C22.0169 18.6888 21.7483 18.9064 21.6879 18.8927C21.6274 18.8793 21.4259 18.6208 21.4259 18.6208L21.3924 18.7569L21.0096 18.7432L20.6739 18.5254C20.6739 18.5254 20.4858 18.8383 20.4791 18.8315C20.4724 18.8247 20.15 18.9064 20.15 18.9064L20.1299 18.8452L19.915 18.7159C19.915 18.7159 20.0829 18.4778 20.0829 18.471C20.0829 18.4641 20.0023 18.4368 20.0023 18.4368L19.8814 18.5391L19.633 18.7022L19.3845 18.5866L19.4919 18.3824L19.5054 18.2326L19.7001 17.9333L22.0841 15.5852L23.2592 17.7835L23.0847 18.4436Z" fill="#6A4C2D"/>
<path d="M24.7329 18.5372L25.3646 18.516L25.0957 18.3931L27.503 18.3091L27.1628 18.1891L26.8615 17.8111L25.6141 17.7242C25.6141 17.7242 25.5203 17.6583 25.3678 17.6911C25.3615 17.6013 25.2448 17.4842 25.2448 17.4842L24.4768 17.4302L23.9973 17.7332L24.3212 18.5012L24.7329 18.5372Z" fill="white"/>
<path d="M22.3367 11.4839L22.4027 11.2796C22.4027 11.2796 22.5182 11.1023 22.5182 11.0239C22.5182 10.9457 22.6044 10.8528 22.6044 10.8528C22.6044 10.8528 22.8685 10.7836 22.9247 10.9309C23.209 10.54 23.5427 10.9128 23.5427 10.9128L23.6351 10.8136L23.8235 10.6033C23.8235 10.6033 24.0912 10.8317 24.0945 10.8706C24.0977 10.9098 24.1405 10.8828 24.1405 10.8828L24.4314 10.8617C24.4314 10.8617 24.5692 10.9601 24.5404 11.1471C24.6429 11.2023 24.7353 11.5258 24.7353 11.5258L22.3367 11.4839Z" fill="url(#paint0_linear_533_128)"/>
<path d="M24.7396 14.0304C24.7871 14.0033 24.9365 13.9587 24.9183 13.7538C24.9001 13.5488 24.7106 13.5248 24.605 13.5317C24.499 13.5385 24.4044 13.6239 24.4044 13.6239L24.0545 13.4155C24.0545 13.4155 24.2296 12.3802 24.4153 12.3154C24.5918 12.196 24.623 12.1444 24.623 12.1172C24.623 12.0898 24.5575 12.0214 24.5575 12.0214L23.4167 11.8949L22.3379 12.0145C22.3379 12.0145 22.2542 12.1341 22.2651 12.1821C22.2761 12.2297 22.2797 12.2811 22.4728 12.4212C22.6866 12.5754 22.8336 13.46 22.8336 13.46C22.8336 13.46 22.5312 13.5999 22.5129 13.5828C22.4947 13.5659 22.4037 13.5488 22.3562 13.5556C22.309 13.5625 22.1522 13.6376 22.1522 13.8323C22.1522 14.0272 22.309 14.14 22.309 14.14C22.309 14.14 23.3402 14.0272 23.4934 14.2935C23.6429 13.9724 24.623 14.0852 24.7396 14.0304V14.0304Z" fill="#656263"/>
<path d="M25.9415 13.0444C25.9415 13.0444 25.9526 12.9266 26.0349 12.8706C26.1175 12.8146 26.6675 12.7864 26.7996 12.8706C26.9315 12.9548 26.981 13.3696 26.981 13.3696C26.981 13.3696 27.0636 13.5153 27.069 13.6218C27.0744 13.7283 27.0856 13.8012 27.0856 13.8012C27.0856 13.8012 27.5256 14.3843 27.531 14.9111C27.5805 15.2699 27.5694 16.2283 27.4322 16.5926C27.4265 17.0468 27.2396 17.3438 27.2396 17.3438C27.2396 17.3438 27.2835 17.4221 27.2781 17.5063C27.2724 17.5905 27.2285 17.6689 27.2285 17.6689L27.8719 17.994L27.6355 17.9043C27.6355 17.9043 27.8776 18.1118 27.8719 18.1063C27.8665 18.1005 27.6024 17.9771 27.6024 17.9771L27.7619 18.1397C27.7565 18.1341 27.3715 17.9603 27.3715 17.9603C27.3715 17.9603 27.5529 18.1341 27.5421 18.1286C27.531 18.1231 27.2505 17.9884 27.2505 17.9884C27.2505 17.9884 27.4265 18.1792 27.421 18.1678C27.4156 18.1565 27.1681 18.0558 27.1681 18.0558L27.179 18.151C27.179 18.151 26.981 18.1397 26.981 17.9884C26.8819 17.9324 26.8161 17.8538 26.8161 17.8538L26.3596 17.7754L25.8424 16.2002L25.9634 13.5376L25.9964 13.4032L25.9415 13.0444Z" fill="black"/>
<path d="M25.5494 21.4895C25.5494 21.4895 25.2641 20.9298 25.122 20.9219C24.9937 20.6937 25.5681 18.8282 26.6793 18.7218C27.2902 18.7686 26.7295 19.3785 26.3278 19.1908C26.3779 19.3549 26.5786 19.5897 26.5786 19.5897C26.5786 19.5897 25.7837 19.9102 25.5494 21.4895Z" fill="#FFBB00"/>
<path d="M21.9268 21.6739C21.9268 21.6739 22.1673 21.0405 22.313 21.0327C22.4591 21.0249 21.9268 18.9219 20.7686 18.9062C20.1422 18.9533 20.7171 19.5629 21.129 19.3752C21.0775 19.5396 20.8716 19.7741 20.8716 19.7741C20.8716 19.7741 21.6867 20.0946 21.9268 21.6739Z" fill="#FFBB00"/>
<path d="M21.9677 14.2024C22.2503 14.1971 22.533 14.1921 22.8156 14.1868C22.8156 14.1868 23.3757 14.1868 23.4363 14.3736C23.5423 14.1246 24.0266 14.1403 24.0266 14.1403L24.9046 14.1091C24.9097 14.8354 24.9147 15.5615 24.9198 16.2877C24.7484 17.133 24.1528 17.7297 23.4968 17.9839C22.7145 17.7244 22.2201 17.045 22.0587 16.272C22.0282 15.5822 21.9979 14.8922 21.9677 14.2024Z" fill="white"/>
<path d="M22.2507 14.1837L23.5109 17.6147L24.6493 14.109C24.2961 14.1323 23.5384 14.0522 23.4444 14.3813C23.2987 14.0869 22.5015 14.2056 22.2507 14.1837Z" fill="#006B00"/>
<path d="M22.9392 8.75825C22.9392 8.75825 23.0118 8.65796 23.0149 8.63394C23.0184 8.60984 23.3441 8.59381 23.5383 8.15261C23.6468 7.91998 23.5383 8.05636 23.5383 8.05636L23.5317 7.94404C23.5317 7.94404 23.6667 7.78763 23.6174 7.70337C23.5679 7.61915 23.5844 7.81169 23.5054 7.8077C23.4265 7.8037 23.4692 7.59909 23.4692 7.59909C23.4692 7.59909 23.4627 7.57502 23.4396 7.56299C23.4066 7.56699 23.4165 7.63922 23.3869 7.64721C23.3573 7.65525 23.331 7.47877 23.331 7.47877C23.331 7.47877 23.2817 7.39855 23.2387 7.65125C23.2618 7.91998 23.4034 7.86781 23.4034 8.04433C23.4034 8.2208 23.2783 8.35718 23.2421 8.36118C23.2059 8.36517 23.219 8.21276 23.219 8.21276C23.219 8.21276 23.1993 8.14058 23.1862 8.14058C23.1731 8.14058 23.2586 8.12455 23.2455 7.92397C23.2158 7.68335 23.1928 7.98013 23.1401 7.9681C23.0874 7.95611 23.127 7.7475 23.1466 7.72348C23.1663 7.69946 23.1236 7.59909 23.0084 7.85578C22.9984 7.98013 22.9853 7.82373 22.9623 7.83172C22.9229 7.93205 22.9295 8.00419 22.9853 8.09645C23.0676 8.1887 23.1204 8.28095 23.117 8.32908C23.1138 8.37725 23.0709 8.48553 23.0118 8.48553C22.9525 8.48553 23.015 8.35314 23.0118 8.30901C23.0084 8.26493 22.9098 8.10448 22.9098 8.10448C22.9098 8.10448 22.8405 7.9681 22.8471 7.9641C22.8537 7.96011 22.8405 7.94004 22.8077 8.08042C22.7747 8.2208 22.7351 7.98817 22.7351 7.98817C22.7351 7.98817 22.6892 8.1606 22.7878 8.26493C22.7123 8.2529 22.7057 8.28899 22.7057 8.28899C22.7057 8.33711 22.8077 8.35718 22.8208 8.4414C22.8339 8.52562 22.7154 8.57374 22.7154 8.57374C22.7154 8.57374 22.765 8.65796 22.903 8.49356C22.9064 8.5978 22.8505 8.67004 22.8505 8.67004C22.8964 8.69543 22.9326 8.69272 22.9392 8.75825Z" fill="#CDAD56"/>
<path d="M22.4198 8.75814C22.4198 8.75814 22.3311 8.65133 22.3272 8.63032C22.323 8.60932 21.891 8.65687 21.6866 8.22926C21.5537 8.02606 21.6866 8.14519 21.6866 8.14519L21.6947 8.04711C21.6947 8.04711 21.5532 7.90664 21.6137 7.8331C21.6741 7.75956 21.6492 7.92768 21.7269 7.92798C21.8235 7.92449 21.7712 7.74584 21.7712 7.74584C21.7712 7.74584 21.7792 7.72483 21.8074 7.71431C21.8477 7.71784 21.8642 7.82321 21.9005 7.8302C21.9367 7.83719 22.0116 7.70621 22.0351 7.67928C22.0684 7.67545 22.0671 7.57072 22.1195 7.79138C22.0915 8.02606 21.8519 7.98056 21.8519 8.13467C21.8519 8.28878 22.0048 8.40787 22.0491 8.41136C22.0935 8.41486 22.0775 8.28179 22.0775 8.28179C22.0775 8.28179 22.1016 8.21873 22.1176 8.21873C22.1339 8.21873 21.9768 8.24319 21.993 8.06808C22.0293 7.90412 22.1094 8.07864 22.174 8.06808C22.2386 8.05759 22.1665 7.89471 22.1851 7.86982C22.1893 7.84498 22.2842 7.73817 22.321 7.97387C22.3331 8.08248 22.4061 7.88043 22.4342 7.88742C22.4827 7.97498 22.413 8.09194 22.3445 8.17251C22.2437 8.25303 22.1981 8.34132 22.2023 8.38337C22.2063 8.42538 22.2301 8.47762 22.3028 8.47762C22.3752 8.47762 22.3272 8.40433 22.3311 8.36586C22.335 8.32738 22.456 8.20259 22.456 8.20259C22.4798 8.17182 22.4599 8.1143 22.485 8.08772C22.5245 8.08806 22.5408 8.04362 22.5809 8.1662C22.6213 8.28878 22.6696 8.08563 22.6696 8.08563C22.6696 8.08563 22.7259 8.23625 22.605 8.32734C22.6976 8.31682 22.7057 8.34835 22.7057 8.34835C22.7057 8.39036 22.6617 8.40787 22.6454 8.48141C22.6292 8.55495 22.6937 8.597 22.6937 8.597C22.6937 8.597 22.6333 8.67059 22.4642 8.52696C22.46 8.61801 22.5287 8.68107 22.5287 8.68107C22.472 8.70327 22.4279 8.70088 22.4198 8.75814Z" fill="#CDAD56"/>
<path d="M23.6283 15.0316C23.6283 15.0316 23.7588 14.9952 23.7838 14.977C23.8085 14.9588 23.8521 14.9224 23.8646 14.895C23.8769 14.8678 23.7775 14.8267 23.8272 14.7676C23.8583 14.7403 23.9017 14.7357 23.9764 14.7676C24.0509 14.7994 23.908 14.6675 23.8335 14.663C23.7588 14.6584 23.709 14.6993 23.6906 14.6902C23.6719 14.6811 23.6967 14.7267 23.6656 14.7267C23.6345 14.7267 23.7277 14.7631 23.7216 14.7859C23.7153 14.8086 23.8209 14.886 23.8148 14.9042C23.8085 14.9224 23.6593 15.027 23.6283 15.0316Z" fill="#006B00"/>
<path d="M20.7249 21.2388C20.871 21.2083 21.6625 21.3905 21.9677 21.6739C21.9028 21.1689 21.7414 20.7821 21.7414 20.7821C21.7414 20.7821 21.2698 20.6654 21.205 20.7217C21.1101 20.8082 20.8248 21.068 20.7249 21.2388ZM20.4837 18.9063C20.4282 18.9143 20.3727 18.9465 20.3172 19.0266C20.2525 19.1628 20.2062 19.5074 20.1137 19.5876C20.0212 19.6677 19.938 19.6757 19.938 19.7481C19.938 19.8202 19.9473 19.9885 20.197 20.0526C20.4467 20.0606 20.8444 19.7079 20.8444 19.7079C20.8444 19.7079 21.0479 19.5155 21.131 19.3072C20.6502 19.4515 20.3079 19.0666 20.4837 18.9062V18.9063Z" fill="#C01500"/>
<path d="M26.7003 21.0833C26.5793 21.0549 25.9109 21.2249 25.6579 21.4894C25.7116 21.0182 25.8454 20.6569 25.8454 20.6569C25.8922 20.6446 26.232 20.5481 26.2857 20.6007C26.3642 20.6814 26.6175 20.924 26.7003 21.0833ZM26.8875 18.9062C26.9335 18.9138 26.9498 18.9726 26.9875 19.0476C27.0409 19.1746 27.0962 19.36 27.1729 19.4347C27.2495 19.5097 27.3185 19.6203 27.3185 19.6877C27.3185 19.7551 27.3025 19.846 27.0954 19.9059C26.8886 19.9134 26.5886 19.6544 26.5886 19.6544C26.5886 19.6544 26.42 19.475 26.3511 19.2803C26.7497 19.4152 27.0077 19.0684 26.8875 18.9062Z" fill="#C01500"/>
<path d="M20.3071 20.7102C20.3071 20.7102 20.747 20.9911 20.7552 21.1204C21.9365 19.4866 24.9508 18.9775 26.6696 21.0064C26.8978 20.7251 27.134 20.6342 27.134 20.6342C25.3256 18.4305 21.7246 18.7041 20.3071 20.7101V20.7102Z" fill="#FFBB00"/>
<path d="M25.8601 13.5555C25.8601 13.5555 26.4236 13.5784 26.4236 13.635C26.4236 13.6915 26.0037 13.7991 25.9983 14.0368C25.9928 14.2745 26.3186 14.2915 26.3406 14.5913C26.3627 14.8914 26.0866 14.9366 26.0314 15.016C25.976 15.0556 25.8435 15.48 25.8601 15.7291C25.8767 15.9782 25.9485 16.8215 26.0755 16.9914C26.175 17.0706 26.3241 17.3253 26.4842 17.2461C26.6444 17.1667 26.534 16.8783 26.5174 16.7989C26.5008 16.7197 26.5838 16.5896 26.5838 16.4706C26.5838 16.3516 26.5229 16.2555 26.5286 16.2274C26.534 16.1989 26.9759 16.3349 26.9482 16.7819C26.9207 17.2291 26.744 17.0932 26.744 17.0932C26.744 17.0932 26.7992 17.6424 26.661 17.716C26.4124 17.8517 26.2302 17.6875 26.2302 17.6875L26.2536 17.7993L26.0646 17.699C26.0646 17.699 25.8215 17.3423 25.7663 17.1837C25.7111 17.0254 25.6447 16.3179 25.6667 16.1649C25.6888 16.0122 25.7054 15.1177 25.6945 15.0726C25.6833 15.0272 25.6393 14.2801 25.6667 14.1669C25.6945 14.0538 25.8655 13.5555 25.8601 13.5555Z" fill="url(#paint1_linear_533_128)"/>
<path d="M25.2889 13.3452C25.2889 13.3452 25.7141 12.9612 25.9597 13.0055C26.0853 13.0055 25.9656 13.0892 25.9656 13.0892C25.9656 13.0892 26.1811 13.1059 26.2112 13.195C26.2171 13.2339 26.1091 13.2451 26.1091 13.2451C26.1091 13.2451 26.1991 13.2619 26.205 13.3342C26.2112 13.4066 25.2948 13.3507 25.2889 13.3452Z" fill="#FF7000"/>
<path d="M24.2718 12.7222C24.2718 12.7222 24.7147 13.2165 25.0013 13.2112C25.0534 13.3563 24.871 13.4912 24.7982 13.5556C24.6523 13.5073 24.5204 13.5643 24.1818 13.1346C24.2029 12.8605 24.277 12.7329 24.2718 12.7222ZM24.871 11.5723C24.9282 11.3896 25.0429 11.2445 25.1417 11.2284C25.1157 11.0887 25.3503 10.471 26.0327 10.2344C26.0743 10.5514 25.7409 10.8631 25.7409 10.8631C25.7409 10.8631 26.7463 10.6858 26.9495 10.4224C26.9286 10.5407 26.7255 11.2767 25.6522 11.2714C26.0587 11.6691 25.5222 11.9862 25.2928 11.8894C25.7149 11.5562 25.1732 11.3575 24.871 11.5723Z" fill="white"/>
<path d="M24.8528 13.5439C24.8528 13.5439 25.4104 13.6957 25.4734 12.9001C25.3524 12.5546 25.1841 11.8112 25.4419 11.5966C25.2051 11.4344 24.9476 11.6019 24.9476 11.6019C24.9318 11.6385 24.7213 11.9369 25.0053 12.4603C24.3323 12.2823 24.6058 12.9157 24.6058 12.9157C24.6321 12.8162 24.9896 12.7221 25.0791 13.2298C25.1158 13.3555 24.8371 13.5491 24.8528 13.5439Z" fill="#0000FF"/>
<path d="M25.4033 13.002C25.4033 13.002 26.044 12.6714 26.0266 11.8949C25.4833 11.9059 25.2889 12.5831 25.2889 12.5831L25.4033 13.002Z" fill="#0000FF"/>
<path d="M22.6351 12.8175C22.6351 12.8175 22.2176 13.2311 21.981 13.0989C21.8049 13.2197 21.5986 13.0071 21.5986 13.0071C21.5986 13.0071 21.8401 14.0239 22.7057 13.2885C22.6906 13.0645 22.6452 12.8347 22.6351 12.8175Z" fill="white"/>
<path d="M22.0851 13.157C22.1197 12.964 22.2633 12.87 22.3773 13.0526C22.5308 13.0841 22.6843 12.4215 22.1395 12.5309C22.293 11.6649 21.8326 11.3414 21.8326 11.3414C21.8326 11.3414 21.6692 12.3014 21.7434 12.4788C21.8177 12.6561 21.6345 12.1501 21.0452 12.0092C21.0353 12.7345 21.7038 13.0737 21.7038 13.0737C21.7038 13.0737 21.892 13.2562 22.0851 13.157Z" fill="#0000FF"/>
<path d="M21.7052 11.6245C21.7052 11.6189 21.2946 11.6245 21.5389 12.0711C21.357 12.1325 20.9516 11.848 21.2323 11.4681C20.3123 11.4458 19.938 10.9715 19.938 10.5359C20.2083 10.8375 20.8528 10.7146 21.0815 10.8988C20.8008 10.6198 20.858 10.2344 20.858 10.2344C20.858 10.2344 21.6429 10.4858 21.7832 11.2337C21.7364 11.3789 21.7156 11.6356 21.7052 11.6245Z" fill="white"/>
<path d="M21.4141 11.3531C21.4141 11.3531 21.5572 11.2874 21.5986 11.468C21.5427 11.468 21.524 11.4188 21.4432 11.5259C21.466 11.4845 21.4597 11.4106 21.4722 11.4106C21.4846 11.4106 21.4204 11.3531 21.4141 11.3531Z" fill="#CCCCCD"/>
<path d="M22.934 8.70576C22.934 8.70576 23.1135 8.54797 23.3089 8.68997C23.2206 8.95268 22.9024 8.85301 22.9024 8.85301C22.9024 8.85301 22.913 8.9845 22.8813 9.0476C22.9449 9.0953 22.9973 9.25274 22.9973 9.25274C22.9973 9.25274 23.3247 9.17384 23.3935 9.31583C23.5189 9.29857 23.6099 9.31583 23.6099 9.31583C23.6099 9.31583 23.8635 9.25274 23.9531 9.25274C24.043 9.25274 24.3279 9.32634 24.3543 9.37893C24.3809 9.43148 24.4758 9.78387 24.5394 9.77862C24.6026 9.77336 24.3862 9.86272 24.3279 9.77336C24.27 9.68392 24.2858 9.88906 24.2858 9.88906C24.2858 9.88906 24.4652 10.0784 24.4864 10.1205C24.5074 10.1624 24.3757 10.5042 24.4758 10.7411C24.3879 10.7491 24.3809 10.8408 24.3809 10.8408C24.3759 10.945 24.2436 10.9724 24.2436 10.9724L24.212 10.8303L24.1221 10.8831L24.159 10.7726C24.159 10.7726 24.2805 10.478 24.291 10.3835C24.3016 10.2887 24.1801 10.1205 24.0852 10.1205C23.99 10.1205 23.9215 10.4202 23.9215 10.4202C23.9215 10.4202 23.874 10.6463 23.8898 10.6673C23.9057 10.6883 23.8263 10.5938 23.8263 10.5938C23.8263 10.5938 23.7841 10.7306 23.7525 10.7726C23.7209 10.8146 23.6521 10.8303 23.6521 10.8303C23.6521 10.8303 23.6046 10.6935 23.6204 10.641C23.6362 10.5885 23.8793 10.3835 23.8582 10.2362C23.8368 10.0889 23.8582 10.1257 23.8527 10.1205C23.8474 10.1152 23.7261 10.01 23.7209 9.95216C23.7156 9.89431 23.5624 10.0258 23.3618 9.98371C23.3003 10.0906 23.293 10.357 23.293 10.357C23.293 10.357 23.2719 10.6778 23.3141 10.7148C23.3566 10.7516 23.2087 10.8303 23.2087 10.8303L23.103 10.9724C23.103 10.9724 23.0661 10.8831 23.0661 10.8884C23.0661 10.8936 22.992 10.9409 22.992 10.9409L23.0344 10.8356C23.0317 10.756 23.1371 10.5385 23.1371 10.3545C23.1371 10.1704 23.1504 9.97321 23.1504 9.97321C23.1504 9.97321 22.9551 9.96266 22.9604 10.1624C22.9656 10.3625 22.913 10.373 22.9235 10.4307C22.934 10.4885 22.9867 10.6515 22.9709 10.6991C22.9551 10.7463 22.8918 10.7621 22.8918 10.7621L22.8761 10.7883C22.8761 10.7883 22.6807 10.8779 22.686 10.9146C22.6913 10.9514 22.6807 10.8093 22.6807 10.8093L22.6699 10.6568C22.6699 10.6568 22.7862 10.5833 22.7862 10.3992C22.7862 10.2152 22.7595 10.189 22.7648 10.1469C22.77 10.1047 22.7967 9.95216 22.7914 9.93641C22.7862 9.92061 22.6807 9.97846 22.6488 9.97846C22.6172 9.97846 22.7071 9.86801 22.7176 9.78912C22.7282 9.71022 22.6119 9.86276 22.517 9.77336C22.5611 9.67627 22.6277 9.64712 22.6383 9.57352C22.6488 9.49992 22.5645 9.63662 22.4904 9.58402C22.4965 9.51345 22.5697 9.45258 22.5697 9.45258C22.5697 9.45258 22.5095 9.44519 22.4851 9.45258C22.4377 9.43678 22.5381 9.36314 22.5434 9.25799C22.5487 9.15284 22.4851 9.1107 22.4851 9.10545C22.4851 9.1002 22.3797 9.0108 22.3639 8.974C22.3481 8.9372 22.3481 8.8951 22.3481 8.8951C22.3481 8.8951 22.1735 9.0213 21.9677 8.75311C22.1563 8.59274 22.3586 8.71101 22.3586 8.71101C22.3586 8.71101 22.4113 8.56372 22.6541 8.57427C22.8971 8.58482 22.9445 8.72156 22.934 8.70576Z" fill="#923F00"/>
<path d="M24.1976 11.5259C24.2025 11.5259 24.7299 11.5372 24.7352 11.7392C24.7405 11.941 24.5734 11.8888 24.5682 11.8888C24.5629 11.8888 24.1818 11.8551 24.1818 11.8551L24.1976 11.5259Z" fill="#0000FF"/>
<path d="M23.8128 11.5259C23.8128 11.5259 24.3975 11.5224 24.365 11.7273C24.3325 11.9325 24.1841 11.8916 24.1841 11.8916L23.9009 11.8727L23.8128 11.5259L23.8128 11.5259Z" fill="#FFFEFF"/>
<path d="M23.4485 11.5259L23.7966 11.5487C23.7966 11.5487 24.0063 11.5715 23.997 11.7313C23.9874 11.891 23.7822 11.8949 23.7822 11.8949L23.4437 11.8795L23.4486 11.5259L23.4485 11.5259Z" fill="#0000FF"/>
<path d="M22.6952 11.5259C22.6917 11.5259 22.3403 11.5372 22.3368 11.7392C22.3335 11.941 22.4448 11.8888 22.4483 11.8888C22.4518 11.8888 22.7057 11.8551 22.7057 11.8551L22.6952 11.5259Z" fill="white"/>
<path d="M23.079 11.5259C23.079 11.5259 22.6847 11.5224 22.7066 11.7297C22.7285 11.9373 22.8286 11.8958 22.8286 11.8958L23.0196 11.8768L23.079 11.5259L23.079 11.5259Z" fill="#0000FF"/>
<path d="M23.4408 11.5259L23.2086 11.5487C23.2086 11.5487 23.0685 11.5715 23.075 11.7313C23.0814 11.8911 23.218 11.8949 23.218 11.8949L23.4438 11.8795L23.4408 11.5259Z" fill="white"/>
<path d="M24.3443 14.2226C24.3443 14.2226 24.5884 13.8918 24.6913 13.9272C24.781 13.9547 24.7127 14.2107 24.6699 14.2345L24.3443 14.2226ZM22.6718 14.2817C22.595 14.1832 22.4835 13.9116 22.3809 13.9863C22.2908 14.0138 22.3594 14.2698 22.4023 14.2936L22.6718 14.2817Z" fill="#5E0043"/>
<path d="M23.0748 12.3936L23.151 12.2639L23.533 12.5277L23.921 12.2939L23.9973 12.4023L23.5646 12.8174L23.0747 12.3936H23.0748Z" fill="#5E0043"/>
<path d="M22.381 12.1322L23.5166 13.002L24.5394 12.1969C24.5394 12.1969 24.7527 12.0591 24.7342 11.9602C24.716 11.8609 24.6423 11.8998 24.6054 11.917C24.5689 11.9343 23.5351 12.7911 23.5351 12.7911L22.4352 11.9771C22.4352 11.9771 22.3544 11.9472 22.3396 12.0073C22.3249 12.0677 22.37 12.102 22.381 12.1322Z" fill="#B4B6B9"/>
<path d="M23.4437 10.9724C23.4437 10.9724 23.5491 11.1982 23.5371 11.2622C23.5802 11.315 23.6283 11.5259 23.6283 11.5259" fill="url(#paint2_linear_533_128)"/>
<path d="M26.0298 17.6147C26.0298 17.6147 25.9447 17.636 25.9476 17.6464C25.9501 17.657 25.7004 17.6677 25.6952 17.657C25.6898 17.6464 25.6579 17.7134 25.6579 17.7134L25.6978 17.6817C25.6978 17.6817 25.7588 17.766 25.7775 17.7591C25.7962 17.7521 25.7694 17.7907 25.7749 17.7978C25.7801 17.8048 25.7987 17.7838 25.7987 17.7838L26.2114 17.7746L26.0298 17.6147Z" fill="#FF7000"/>
<path d="M26.2601 17.8002L25.7854 17.8189C25.7854 17.8189 25.666 17.9659 25.6583 18.0011C25.651 18.0367 25.7368 18.0466 25.7368 18.0466L25.7631 18.1683L25.823 18.1381C25.823 18.1381 26.2265 18.2193 26.5971 18.1074C26.784 18.0189 26.8167 17.9125 26.6856 17.8478C26.5549 17.7832 26.2638 17.8027 26.2601 17.8002Z" fill="#FF7000"/>
<path d="M24.929 18.7219L25.713 18.6749L25.567 18.5088L27.6875 18.3942L27.6143 18.1683L25.2402 18.2961L25.5258 18.475L24.8845 18.5005L24.9035 18.59L24.7353 18.5813C24.7353 18.5813 24.9226 18.679 24.929 18.7219Z" fill="url(#paint3_linear_533_128)"/>
<path d="M25.6173 14.3202C25.5494 14.2868 25.2517 14.2468 24.9198 14.4607L24.9335 15.2161C24.9335 15.2161 25.4208 14.9553 25.6579 15.0155C25.6442 14.7814 25.6442 14.4809 25.6173 14.3202Z" fill="url(#paint4_linear_533_128)"/>
<path d="M21.1973 13.675C21.1973 13.675 21.1429 13.8512 21.1973 13.9393C21.2517 14.0274 21.5936 14.7402 21.5936 14.7402C21.5936 14.7402 21.8268 14.4438 21.9123 14.4358C21.9978 14.428 21.9588 15.2049 21.9588 15.2049C21.9588 15.2049 21.819 15.3409 21.7335 15.3329C21.648 15.3249 21.9432 15.6374 21.9354 15.9017C21.9276 16.166 21.547 17.4796 21.4071 17.5034C21.2672 17.5275 21.4693 17.2632 21.4615 17.1911C21.4537 17.1191 21.4149 17.167 21.3838 17.0869C21.3527 17.0069 21.4304 16.8866 21.4149 16.8066C21.3993 16.7265 21.3294 16.7426 21.3216 16.6866C21.3138 16.6304 21.3682 16.6146 21.3605 16.5503C21.3527 16.4863 21.2672 16.5024 21.275 16.4461C21.2828 16.3901 21.2905 16.4142 21.2828 16.3101C21.275 16.2059 21.2595 16.3821 21.174 16.3901C21.0885 16.3982 21.0186 16.5985 21.0186 16.5985C21.0186 16.5985 20.8476 16.8467 20.6766 16.7345C20.7776 16.9589 20.7 17.0551 20.6611 17.0628C20.6222 17.0709 20.6921 17.2391 20.5989 17.2471C20.5057 17.2551 20.6689 17.6236 20.5601 17.6558C20.6766 17.7117 20.5834 17.7837 20.5834 17.7837C20.5834 17.7837 20.314 17.807 20.3736 18.1683C19.5809 17.8799 19.1924 17.3834 19.2001 16.8789C19.2079 16.3741 19.3633 15.9178 19.7441 15.7496C19.8529 15.3329 20.0394 14.8844 20.0394 14.8844C20.0394 14.8844 20.0083 14.7001 20.0316 14.5801C20.055 14.4599 20.1637 14.3399 20.1637 14.3399C20.1637 14.3399 20.1482 14.0515 20.156 13.9074C20.1638 13.7631 20.2182 13.6991 20.2259 13.619C20.2336 13.539 20.2026 13.1303 20.2803 13.0582C20.358 12.9862 20.5057 12.9942 20.5834 12.9463C20.6611 12.8981 20.7621 12.81 20.8631 12.818C20.9641 12.826 21.0496 12.8981 21.0496 12.8981C21.0496 12.8981 21.4304 12.8981 21.4537 13.0502C21.477 13.2026 21.376 13.2586 21.376 13.2586C21.376 13.2586 21.4304 13.475 21.1973 13.675H21.1973Z" fill="#8A9396"/>
<path d="M21.5904 14.7853C21.5904 14.7853 21.859 14.4666 21.9214 14.4783C21.9839 14.4901 21.965 15.2162 21.965 15.2162C21.965 15.2162 21.7652 15.3578 21.7217 15.352C21.6779 15.3461 21.9463 15.6944 21.9401 15.8243C21.9339 15.9542 21.9277 15.9541 21.9277 15.9541C21.9277 15.9541 21.9277 15.8775 21.8653 15.7535C21.8028 15.6295 21.8401 15.4876 21.4344 15.1748C21.3344 14.98 21.6342 15.2929 21.6965 15.2456C21.759 15.1986 21.5842 14.7912 21.5904 14.7853Z" fill="#2B2B2B"/>
<path d="M20.4511 13.1865C20.4511 13.1865 20.2561 13.3691 20.3506 13.3914C20.4451 13.4133 20.5456 13.2475 20.5456 13.2475C20.5456 13.2475 20.5456 13.5297 20.6283 13.4853C20.7111 13.4411 20.9533 13.2807 20.9533 13.2807C20.9533 13.2807 21.036 13.2749 21.0537 13.2807C21.0715 13.2862 21.2783 13.452 21.4142 13.3914C21.3374 13.5794 21.2487 13.6017 21.2487 13.6017C21.2487 13.6017 21.1069 13.7733 20.9238 13.7343C20.7406 13.6956 20.6933 13.6236 20.6933 13.6236C20.6933 13.6236 20.5397 13.6349 20.4924 13.5685C20.4451 13.502 20.4274 13.4633 20.4274 13.4633C20.4274 13.4633 20.3388 13.5462 20.3151 13.5075C20.2915 13.4688 20.3151 13.2417 20.4511 13.1865Z" fill="#2B2B2B"/>
<path d="M20.562 17.8021C20.7085 17.7603 21.3472 18.1933 21.4912 18.3024C21.6352 18.4112 21.9363 18.3413 21.9363 18.3413C21.9363 18.3413 21.7974 18.4307 21.7111 18.4532C21.6248 18.4755 21.9677 18.4755 21.9677 18.4755C21.9677 18.4755 21.151 18.7158 20.3211 18.2493C20.2452 17.8861 20.4991 17.8051 20.562 17.8021Z" fill="#2B2B2B"/>
<path d="M20.676 17.6884L20.5475 17.4508C20.5475 17.4508 20.5071 17.2995 20.3987 17.2574C20.2904 17.2155 20.1467 17.2225 20.1442 17.2738C20.1417 17.325 20.3761 17.3901 20.3912 17.4183C20.4063 17.4462 20.3987 17.4929 20.3786 17.4951C20.3585 17.4974 20.2551 17.4602 20.2022 17.4717C20.1492 17.4835 20.119 17.5463 20.0409 17.5277C19.9627 17.509 19.8972 17.2786 19.9275 17.2552C19.9577 17.2319 19.8695 17.2971 19.8519 17.2365C19.8342 17.1758 19.8771 16.9873 19.8468 16.964C19.8166 16.9406 19.6704 16.8591 19.6678 16.8428C19.6654 16.8267 19.6754 15.9159 20.4996 16.6706C20.1467 16.2838 20.0081 16.3257 19.9426 16.3235C19.8947 16.3235 19.5746 16.349 19.494 16.7264C19.4133 17.1037 19.3175 16.8685 19.3175 16.8685C19.3175 16.8685 19.2999 17.0316 19.3856 17.0782C19.4713 17.1247 19.3452 17.2598 19.3452 17.2598C19.3452 17.2598 19.1915 16.9128 19.2142 16.7612C19.184 16.8825 19.1865 17.1828 19.3806 17.5114C19.6074 17.7327 19.8216 17.9378 20.3912 18.1682C20.6911 17.7445 20.676 17.6932 20.676 17.6884Z" fill="#2B2B2B"/>
<path d="M20.0042 17.7158C20.0042 17.7158 20.2439 17.7324 20.3092 17.8038C20.3745 17.8748 20.4036 17.9838 20.4036 17.9838C20.4435 17.9377 20.4616 17.898 20.5416 17.8645C20.6216 17.8309 20.6796 17.8266 20.6759 17.8016C20.6722 17.7766 20.4217 17.6237 20.2947 17.6153C20.1676 17.6069 19.9461 17.6948 19.9461 17.6948C19.9461 17.6948 19.9062 17.7283 20.0042 17.7158Z" fill="#8A9396"/>
</g>
<defs>
<linearGradient id="paint0_linear_533_128" x1="24.8416" y1="11.2583" x2="24.8527" y2="10.4642" gradientUnits="userSpaceOnUse">
<stop stop-color="#474747"/>
<stop offset="1" stop-color="#FF5500"/>
</linearGradient>
<linearGradient id="paint1_linear_533_128" x1="26.4347" y1="14.8173" x2="27.1737" y2="14.8077" gradientUnits="userSpaceOnUse">
<stop stop-color="#D5DFFF"/>
<stop offset="1" stop-color="white"/>
</linearGradient>
<linearGradient id="paint2_linear_533_128" x1="24.2761" y1="11.2127" x2="24.4859" y2="11.2127" gradientUnits="userSpaceOnUse">
<stop stop-color="#474747"/>
<stop offset="1" stop-color="#FF5500"/>
</linearGradient>
<linearGradient id="paint3_linear_533_128" x1="28.6716" y1="18.5596" x2="28.4368" y2="17.4707" gradientUnits="userSpaceOnUse">
<stop stop-color="#D5DFFF"/>
<stop offset="1" stop-color="white"/>
</linearGradient>
<linearGradient id="paint4_linear_533_128" x1="26.6965" y1="15.0346" x2="26.3338" y2="14.4416" gradientUnits="userSpaceOnUse">
<stop stop-color="#D5DFFF"/>
<stop offset="1" stop-color="white"/>
</linearGradient>
<clipPath id="clip0_533_128">
<rect width="32" height="32" fill="white"/>
</clipPath>
</defs>
</svg>
