<svg width="32" height="32" viewBox="0 0 32 32" fill="none" xmlns="http://www.w3.org/2000/svg">
<g clip-path="url(#clip0_280_16604)">
<path d="M15.9998 0C14.5557 0 13.1567 0.1925 11.8259 0.551188L10.4347 16L11.826 31.4488C13.1567 31.8075 14.5557 32 15.9998 32C24.8363 32 31.9998 24.8365 31.9998 16C31.9998 7.1635 24.8363 0 15.9998 0Z" fill="#FFDA44"/>
<path d="M10.4347 16L11.826 31.4488C13.1567 31.8075 14.5557 32 15.9998 32C24.8363 32 31.9998 24.8365 31.9998 16H10.4347Z" fill="#6DA544"/>
<path d="M0 16C0 22.0647 3.37438 27.3409 8.34781 30.0546V1.94543C3.37438 4.65906 0 9.93531 0 16Z" fill="#D80027"/>
<path d="M0 16C0 23.3925 5.01381 29.6128 11.8261 31.4488V0.551208C5.01381 2.38721 0 8.60758 0 16Z" fill="#D80027"/>
<path d="M6.04594 11.826L7.08188 15.0145H10.4348L7.72238 16.9853L8.75826 20.1739L6.04594 18.2032L3.33351 20.1739L4.36963 16.9853L1.65726 15.0145H5.00994L6.04594 11.826Z" fill="black"/>
</g>
<defs>
<clipPath id="clip0_280_16604">
<rect width="32" height="32" fill="white"/>
</clipPath>
</defs>
</svg>
