<svg width="32" height="32" viewBox="0 0 32 32" fill="none" xmlns="http://www.w3.org/2000/svg">
<g clip-path="url(#clip0_280_16547)">
<path d="M16 32C24.8366 32 32 24.8366 32 16C32 7.16344 24.8366 0 16 0C7.16344 0 0 7.16344 0 16C0 24.8366 7.16344 32 16 32Z" fill="#F0F0F0"/>
<path d="M15.9999 32C22.3432 32 27.8243 28.3084 30.4123 22.9565H1.58755C4.17555 28.3084 9.65655 32 15.9999 32Z" fill="#338AF3"/>
<path d="M15.9999 0C9.65655 0 4.17555 3.69156 1.58755 9.0435H30.4122C27.8243 3.69156 22.3432 0 15.9999 0Z" fill="#338AF3"/>
<path d="M9.84654 10.4349L10.3645 12.0292H12.0408L10.6847 13.0144L11.2028 14.6088L9.84654 13.6234L8.49029 14.6088L9.00835 13.0144L7.65216 12.0292H9.32847L9.84654 10.4349Z" fill="#338AF3"/>
<path d="M9.84654 17.3912L10.3645 18.9856H12.0408L10.6847 19.9709L11.2028 21.5651L9.84654 20.5798L8.49029 21.5651L9.00835 19.9709L7.65216 18.9856H9.32847L9.84654 17.3912Z" fill="#338AF3"/>
<path d="M22.1532 10.4349L22.6713 12.0292H24.3476L22.9914 13.0144L23.5095 14.6088L22.1532 13.6234L20.797 14.6088L21.315 13.0144L19.9588 12.0292H21.6352L22.1532 10.4349Z" fill="#338AF3"/>
<path d="M22.1532 17.3912L22.6713 18.9856H24.3476L22.9914 19.9709L23.5095 21.5651L22.1532 20.5798L20.797 21.5651L21.315 19.9709L19.9588 18.9856H21.6352L22.1532 17.3912Z" fill="#338AF3"/>
<path d="M15.9998 13.9131L16.5179 15.5075H18.1942L16.838 16.4927L17.356 18.087L15.9998 17.1017L14.6435 18.087L15.1616 16.4927L13.8054 15.5075H15.4817L15.9998 13.9131Z" fill="#338AF3"/>
</g>
<defs>
<clipPath id="clip0_280_16547">
<rect width="32" height="32" fill="white"/>
</clipPath>
</defs>
</svg>
