<svg width="32" height="32" viewBox="0 0 32 32" fill="none" xmlns="http://www.w3.org/2000/svg">
<g clip-path="url(#clip0_280_16658)">
<path d="M32 16C32 14.0429 31.6479 12.1681 31.0048 10.4348L16 9.73914L0.995188 10.4348C0.352063 12.1681 0 14.0429 0 16C0 17.9571 0.352063 19.8319 0.995188 21.5652L16 22.2609L31.0048 21.5653C31.6479 19.8319 32 17.9571 32 16Z" fill="#F0F0F0"/>
<path d="M15.9998 32.0001C22.8793 32.0001 28.744 27.6581 31.0047 21.5652H0.995026C3.25571 27.6581 9.1204 32.0001 15.9998 32.0001Z" fill="#0052B4"/>
<path d="M0.995026 10.4348H31.0047C28.744 4.342 22.8793 0 15.9998 0C9.1204 0 3.25571 4.342 0.995026 10.4348Z" fill="#D80027"/>
<path d="M20.1739 11.1306H17.3913L17.8551 7.65224L19.7101 6.26093L21.5652 7.65224V10.4349L20.1739 11.1306Z" fill="#338AF3"/>
<path d="M11.826 11.1306H14.6086L14.1448 7.65224L12.2898 6.26093L10.4348 7.65224V10.4349L11.826 11.1306Z" fill="#338AF3"/>
<path d="M17.8552 11.1306H14.145V7.65224L16.0001 6.26093L17.8552 7.65224V11.1306Z" fill="#0052B4"/>
<path d="M10.4348 10.4349V18.0871C10.4348 19.9091 11.3149 21.5295 12.6724 22.5453L13.6463 22.3016L14.8753 23.538C15.2388 23.6129 15.6148 23.6523 16 23.6523C16.3831 23.6523 16.7573 23.6134 17.1188 23.5393L18.5218 22.3711L19.3275 22.5431C20.6844 21.5273 21.5652 19.9086 21.5652 18.0871V10.4349H10.4348Z" fill="#F0F0F0"/>
<path d="M12.6608 10.4348H10.4348V12.6609H12.6608V10.4348Z" fill="#D80027"/>
<path d="M17.113 10.4348H14.887V12.6609H17.113V10.4348Z" fill="#D80027"/>
<path d="M21.5653 10.4348H19.3392V12.6609H21.5653V10.4348Z" fill="#D80027"/>
<path d="M14.887 12.6609H12.6609V14.887H14.887V12.6609Z" fill="#D80027"/>
<path d="M19.339 12.6609H17.1129V14.887H19.339V12.6609Z" fill="#D80027"/>
<path d="M12.6608 14.8862H10.4348V17.1123H12.6608V14.8862Z" fill="#D80027"/>
<path d="M14.887 17.1124H12.6609V19.3385H14.887V17.1124Z" fill="#D80027"/>
<path d="M17.113 14.8862H14.887V17.1123H17.113V14.8862Z" fill="#D80027"/>
<path d="M21.5653 14.8862H19.3392V17.1123H21.5653V14.8862Z" fill="#D80027"/>
<path d="M19.339 17.1124H17.1129V19.3385H19.339V17.1124Z" fill="#D80027"/>
<path d="M17.113 19.3384H14.887V21.5645H17.113V19.3384Z" fill="#D80027"/>
<path d="M12.6603 19.3386H10.5778C10.7688 20.1661 11.1443 20.9233 11.6592 21.5647H12.6603V19.3386Z" fill="#D80027"/>
<path d="M19.3392 21.5648H20.3402C20.8552 20.9234 21.2306 20.1661 21.4216 19.3387H19.3392V21.5648Z" fill="#D80027"/>
<path d="M12.6609 21.5648V22.5361C13.3084 23.0233 14.065 23.3726 14.887 23.5402V21.5648H12.6609Z" fill="#D80027"/>
<path d="M17.1129 21.5648V23.5402C17.935 23.3727 18.6915 23.0233 19.339 22.5361V21.5648H17.1129Z" fill="#D80027"/>
</g>
<defs>
<clipPath id="clip0_280_16658">
<rect width="32" height="32" fill="white"/>
</clipPath>
</defs>
</svg>
