<svg width="32" height="32" viewBox="0 0 32 32" fill="none" xmlns="http://www.w3.org/2000/svg">
<g clip-path="url(#clip0_280_16597)">
<path d="M16 32C24.8366 32 32 24.8366 32 16C32 7.16344 24.8366 0 16 0C7.16344 0 0 7.16344 0 16C0 24.8366 7.16344 32 16 32Z" fill="#F0F0F0"/>
<path d="M22.0246 12.5217H18.0082L16.0001 9.04346L13.992 12.5217H9.97552L11.9839 16L9.97552 19.4782H13.992L16.0001 22.9565L18.0082 19.4782H22.0246L20.0163 16L22.0246 12.5217ZM18.4673 16L17.2338 18.1367H14.7666L13.5329 16L14.7665 13.8632H17.2337L18.4673 16ZM16.0001 11.7264L16.4592 12.5216H15.5411L16.0001 11.7264ZM12.2992 13.8632H13.2175L12.7583 14.6585L12.2992 13.8632ZM12.2992 18.1367L12.7584 17.3415L13.2175 18.1367H12.2992ZM16.0001 20.2735L15.541 19.4782H16.4592L16.0001 20.2735ZM19.701 18.1367H18.7827L19.2419 17.3415L19.701 18.1367ZM18.7827 13.8632H19.701L19.2418 14.6585L18.7827 13.8632Z" fill="#0052B4"/>
<path d="M25.9599 3.47821H6.04023C4.58004 4.64121 3.32779 6.05384 2.34842 7.65215H29.6517C28.6722 6.0539 27.42 4.64121 25.9599 3.47821Z" fill="#0052B4"/>
<path d="M6.04023 28.5217H25.9598C27.42 27.3587 28.6722 25.946 29.6516 24.3477H2.34842C3.32786 25.946 4.58011 27.3587 6.04023 28.5217Z" fill="#0052B4"/>
</g>
<defs>
<clipPath id="clip0_280_16597">
<rect width="32" height="32" fill="white"/>
</clipPath>
</defs>
</svg>
