<svg width="32" height="32" viewBox="0 0 32 32" fill="none" xmlns="http://www.w3.org/2000/svg">
<g clip-path="url(#clip0_280_16546)">
<path d="M16 32C24.8366 32 32 24.8366 32 16C32 7.16344 24.8366 0 16 0C7.16344 0 0 7.16344 0 16C0 24.8366 7.16344 32 16 32Z" fill="#F0F0F0"/>
<path d="M15.9999 0C9.65654 0 4.17554 3.69156 1.58754 9.0435H30.4122C27.8243 3.69156 22.3432 0 15.9999 0Z" fill="#FF9811"/>
<path d="M15.9999 32C22.3432 32 27.8243 28.3084 30.4123 22.9565H1.58754C4.17554 28.3084 9.65654 32 15.9999 32Z" fill="#6DA544"/>
<path d="M16 21.5652C19.0736 21.5652 21.5652 19.0736 21.5652 16.0001C21.5652 12.9265 19.0736 10.4349 16 10.4349C12.9265 10.4349 10.4348 12.9265 10.4348 16.0001C10.4348 19.0736 12.9265 21.5652 16 21.5652Z" fill="#0052B4"/>
<path d="M15.9998 19.4783C17.9208 19.4783 19.4781 17.921 19.4781 16C19.4781 14.0791 17.9208 12.5218 15.9998 12.5218C14.0788 12.5218 12.5216 14.0791 12.5216 16C12.5216 17.921 14.0788 19.4783 15.9998 19.4783Z" fill="#F0F0F0"/>
<path d="M15.9999 11.7079L17.073 14.1415L19.717 13.8539L18.146 16L19.717 18.1461L17.073 17.8585L15.9999 20.2921L14.9268 17.8585L12.2828 18.146L13.8538 16L12.2828 13.8539L14.9268 14.1415L15.9999 11.7079Z" fill="#0052B4"/>
</g>
<defs>
<clipPath id="clip0_280_16546">
<rect width="32" height="32" fill="white"/>
</clipPath>
</defs>
</svg>
