<svg width="32" height="32" viewBox="0 0 32 32" fill="none" xmlns="http://www.w3.org/2000/svg">
<g clip-path="url(#clip0_280_16525)">
<path d="M16 32C24.8366 32 32 24.8366 32 16C32 7.16344 24.8366 0 16 0C7.16344 0 0 7.16344 0 16C0 24.8366 7.16344 32 16 32Z" fill="#F0F0F0"/>
<path d="M15.9999 0C9.12041 0 3.25573 4.342 0.99504 10.4348H31.0047C28.744 4.342 22.8793 0 15.9999 0Z" fill="#A2001D"/>
<path d="M15.9999 32C22.8793 32 28.744 27.658 31.0047 21.5652H0.99504C3.25573 27.658 9.12042 32 15.9999 32Z" fill="black"/>
<path d="M12.174 14.9565C12.1653 14.9565 12.1567 14.9571 12.148 14.9572V14.9565H9.08939C9.24445 14.3574 9.78808 13.913 10.4349 13.913V11.8261C8.51695 11.8261 6.95664 13.3865 6.95664 15.3044V17.0087V17.0435H12.148C12.1597 17.0435 12.169 17.0435 12.174 17.0435C12.3658 17.0435 12.5218 17.1996 12.5218 17.3914V18.087H5.56527V20.1739H14.6088V17.3913C14.6088 16.0488 13.5165 14.9565 12.174 14.9565Z" fill="#496E2D"/>
<path d="M17.3915 18.087V11.8261H15.3046V20.174H18.7828V18.087H17.3915Z" fill="#496E2D"/>
<path d="M24.3479 18.087V11.8261H22.261V18.087H21.5653V16.0001H19.4783V20.174H25.7392V18.087H24.3479Z" fill="#496E2D"/>
</g>
<defs>
<clipPath id="clip0_280_16525">
<rect width="32" height="32" fill="white"/>
</clipPath>
</defs>
</svg>
