<svg width="32" height="32" viewBox="0 0 32 32" fill="none" xmlns="http://www.w3.org/2000/svg">
<g clip-path="url(#clip0_280_16705)">
<path d="M16 32C24.8366 32 32 24.8366 32 16C32 7.16344 24.8366 0 16 0C7.16344 0 0 7.16344 0 16C0 24.8366 7.16344 32 16 32Z" fill="#F0F0F0"/>
<path d="M28.6936 25.7422L18.9514 16H18.9513L28.6936 6.25771C28.2734 5.71171 27.8138 5.1864 27.3137 4.68621C26.8135 4.18609 26.2883 3.7264 25.7422 3.30634L16 13.0485L16 13.0486L6.25777 3.30634C5.71184 3.72646 5.18646 4.18602 4.68627 4.68621C4.18609 5.1864 3.72646 5.71171 3.3064 6.25771L13.0486 15.9998L13.0486 15.9999L3.30634 25.7422C3.72652 26.2882 4.18615 26.8135 4.68621 27.3137C5.1864 27.8138 5.71165 28.2735 6.25771 28.6936L16 18.9514L16 18.9513L25.7422 28.6935C26.2881 28.2734 26.8135 27.8138 27.3137 27.3137C27.8139 26.8135 28.2735 26.2882 28.6936 25.7422Z" fill="#D80027"/>
<path d="M13.2174 4.86955L16 5.56517L18.7826 4.86955V2.50436L17.6696 3.06086L16 1.3913L14.3304 3.06086L13.2174 2.50436V4.86955Z" fill="#FFDA44"/>
<path d="M13.2174 4.86951V6.60876C13.2174 8.73876 16 9.39138 16 9.39138C16 9.39138 18.7826 8.73869 18.7826 6.60876V4.86951H13.2174Z" fill="#D80027"/>
</g>
<defs>
<clipPath id="clip0_280_16705">
<rect width="32" height="32" fill="white"/>
</clipPath>
</defs>
</svg>
