<svg width="32" height="32" viewBox="0 0 32 32" fill="none" xmlns="http://www.w3.org/2000/svg">
<g clip-path="url(#clip0_280_16716)">
<path d="M16 32C24.8366 32 32 24.8366 32 16C32 7.16344 24.8366 0 16 0C7.16344 0 0 7.16344 0 16C0 24.8366 7.16344 32 16 32Z" fill="#FFDA44"/>
<path d="M25.7411 3.3075C23.0431 1.23369 19.6659 0 16.0001 0C12.3342 0 8.95694 1.23375 6.259 3.3075L16.0001 13.0485L25.7411 3.3075Z" fill="#6DA544"/>
<path d="M3.30744 6.25897C1.23375 8.95691 0 12.3341 0 16C0 19.6658 1.23375 23.0431 3.3075 25.7411L13.0486 16L3.30744 6.25897Z" fill="black"/>
<path d="M6.259 28.6925C8.957 30.7664 12.3342 32 16.0001 32C19.6659 32 23.0431 30.7663 25.7411 28.6925L16.0001 18.9515L6.259 28.6925Z" fill="#6DA544"/>
<path d="M28.6925 25.741C30.7663 23.043 32 19.6659 32 16C32 12.3341 30.7663 8.95691 28.6925 6.25897L18.9515 16L28.6925 25.741Z" fill="black"/>
</g>
<defs>
<clipPath id="clip0_280_16716">
<rect width="32" height="32" fill="white"/>
</clipPath>
</defs>
</svg>
