<svg width="32" height="32" viewBox="0 0 32 32" fill="none" xmlns="http://www.w3.org/2000/svg">
<g clip-path="url(#clip0_280_16644)">
<path d="M16 32C24.8366 32 32 24.8366 32 16C32 7.16344 24.8366 0 16 0C7.16344 0 0 7.16344 0 16C0 24.8366 7.16344 32 16 32Z" fill="#F0F0F0"/>
<path d="M16.0001 0C9.65674 0 4.17574 3.69156 1.58774 9.0435H30.4124C27.8245 3.69156 22.3434 0 16.0001 0Z" fill="black"/>
<path d="M16.0001 32C9.65674 32 4.17574 28.3085 1.58774 22.9565H30.4124C27.8245 28.3085 22.3434 32 16.0001 32Z" fill="#496E2D"/>
<path d="M31.2444 11.1304H0.755562C0.265437 12.666 0 14.3019 0 16C0 17.6981 0.265437 19.334 0.755562 20.8696H31.2444C31.7346 19.334 32 17.6981 32 16C32 14.3019 31.7346 12.666 31.2444 11.1304Z" fill="#A2001D"/>
<path d="M20.982 7.39385L19.0872 6.51929L15.9999 13.51L12.9125 6.51929L11.0177 7.39385L14.8507 16L11.0177 24.6062L12.9125 25.4808L15.9999 18.4901L19.0872 25.4808L20.982 24.6062L17.149 16L20.982 7.39385Z" fill="#F0F0F0"/>
<path d="M17.2868 8.21811C16.5533 7.41704 15.9998 6.95654 15.9998 6.95654C15.9998 6.95654 15.4464 7.41698 14.7129 8.21811V23.7819C15.4464 24.583 15.9998 25.0435 15.9998 25.0435C15.9998 25.0435 16.5533 24.5831 17.2868 23.7819V8.21811Z" fill="#F0F0F0"/>
<path d="M12.5217 11.2027V20.7972C13.2968 22.1706 14.2455 23.2963 14.9565 24.0427V7.95715C14.2455 8.70347 13.2967 9.82928 12.5217 11.2027Z" fill="#A2001D"/>
<path d="M19.478 11.2027C18.7028 9.82922 17.7542 8.70347 17.0432 7.95715V24.0427C17.7541 23.2963 18.7028 22.1706 19.478 20.7972V11.2027Z" fill="#A2001D"/>
<path d="M19.4784 11.2027V20.7972C20.263 19.4066 20.8697 17.7623 20.8697 16C20.8697 14.2377 20.263 12.5933 19.4784 11.2027Z" fill="black"/>
<path d="M12.5218 11.2027V20.7972C11.7371 19.4066 11.1305 17.7623 11.1305 16C11.1305 14.2377 11.7371 12.5933 12.5218 11.2027Z" fill="black"/>
</g>
<defs>
<clipPath id="clip0_280_16644">
<rect width="32" height="32" fill="white"/>
</clipPath>
</defs>
</svg>
