<svg width="32" height="32" viewBox="0 0 32 32" fill="none" xmlns="http://www.w3.org/2000/svg">
<g clip-path="url(#clip0_280_16639)">
<path d="M0 16C0 7.1635 7.1635 0 16 0C24.8365 0 32 7.1635 32 16" fill="#D80027"/>
<path d="M21.5651 14.8798L19.291 15.9494L20.502 18.1518L18.0327 17.6794L17.7199 20.1739L15.9999 18.3392L14.2799 20.1739L13.9671 17.6794L11.4978 18.1517L12.7087 15.9494L10.4347 14.8798L12.7087 13.8101L11.4978 11.6079L13.967 12.0801L14.28 9.58575L15.9999 11.4203L17.7199 9.58575L18.0327 12.0801L20.5021 11.6079L19.2912 13.8103L21.5651 14.8798Z" fill="#FFDA44"/>
<path d="M20.1739 5.21733H17.0435C17.0435 4.64114 16.5762 4.17383 16 4.17383C15.4237 4.17383 14.9565 4.64108 14.9565 5.21733H11.826C11.826 5.79358 12.328 6.26083 12.9043 6.26083H12.8695C12.8695 6.83708 13.3366 7.30433 13.913 7.30433C13.913 7.88058 14.3801 8.34783 14.9565 8.34783H17.0434C17.6196 8.34783 18.0869 7.88064 18.0869 7.30433C18.6631 7.30433 19.1304 6.83714 19.1304 6.26083H19.0956C19.6719 6.26083 20.1739 5.79364 20.1739 5.21733Z" fill="#FFDA44"/>
<path d="M32 16C32 24.8365 24.8365 32 16 32C7.1635 32 0 24.8365 0 16C0.695625 16 32 16 32 16Z" fill="#F0F0F0"/>
<path d="M16.0001 31.9999C21.0015 31.9999 25.4661 29.7047 28.4003 26.1107C27.8725 25.7509 27.5876 25.1693 26.6666 25.1693C25.3333 25.1693 25.3333 26.3884 24 26.3884C22.6668 26.3884 22.6667 25.1693 21.3335 25.1693C20.0001 25.1693 20.0001 26.3884 18.6668 26.3884C17.3334 26.3884 17.3333 25.1693 15.9999 25.1693C14.6666 25.1693 14.6666 26.3884 13.3333 26.3884C12.0002 26.3884 12.0002 25.1693 10.6669 25.1693C9.33345 25.1693 9.33345 26.3884 8.00001 26.3884C6.66657 26.3884 6.66657 25.1693 5.33314 25.1693C4.41226 25.1693 4.12732 25.7507 3.59982 26.1106C6.53382 29.7047 10.9987 31.9999 16.0001 31.9999Z" fill="#0052B4"/>
<path d="M29.333 18.0406C27.9997 18.0406 27.9997 16.8215 26.6663 16.8215C25.333 16.8215 25.333 18.0406 23.9998 18.0406C22.6665 18.0406 22.6665 16.8215 21.3332 16.8215C19.9999 16.8215 19.9999 18.0406 18.6665 18.0406C17.3332 18.0406 17.3331 16.8215 15.9997 16.8215C14.6663 16.8215 14.6663 18.0406 13.3331 18.0406C12 18.0406 12 16.8215 10.6667 16.8215C9.33322 16.8215 9.33322 18.0406 7.99978 18.0406C6.66635 18.0406 6.66635 16.8215 5.33291 16.8215C3.99978 16.8215 3.99978 18.0406 2.66647 18.0406C1.34035 18.0406 1.33266 16.8349 0.0207214 16.822C0.0576589 17.5539 0.145034 18.2724 0.277159 18.975C1.33991 19.1312 1.43297 20.1739 2.66653 20.1739C3.99985 20.1739 3.99985 18.9549 5.33297 18.9549C6.66641 18.9549 6.66641 20.1739 7.99985 20.1739C9.33328 20.1739 9.33328 18.9549 10.6667 18.9549C12 18.9549 12 20.1739 13.3332 20.1739C14.6665 20.1739 14.6665 18.9549 15.9997 18.9549C17.3332 18.9549 17.3332 20.1739 18.6666 20.1739C20 20.1739 20 18.9549 21.3333 18.9549C22.6666 18.9549 22.6666 20.1739 23.9998 20.1739C25.3331 20.1739 25.3332 18.9549 26.6664 18.9549C27.9998 18.9549 27.9998 20.1739 29.3331 20.1739C30.5668 20.1739 30.6598 19.1313 31.7227 18.9751C31.8548 18.2724 31.9421 17.554 31.9792 16.8221C30.667 16.835 30.6592 18.0406 29.333 18.0406Z" fill="#0052B4"/>
<path d="M26.6665 20.9954C25.3332 20.9954 25.3332 22.2145 24 22.2145C22.6667 22.2145 22.6667 20.9954 21.3334 20.9954C20.0001 20.9954 20.0001 22.2145 18.6667 22.2145C17.3333 22.2145 17.3333 20.9954 15.9998 20.9954C14.6665 20.9954 14.6665 22.2145 13.3333 22.2145C12.0002 22.2145 12.0002 20.9954 10.6668 20.9954C9.3334 20.9954 9.3334 22.2145 7.99996 22.2145C6.66653 22.2145 6.66653 20.9954 5.33309 20.9954C3.99996 20.9954 3.99996 22.2145 2.66665 22.2145C1.71396 22.2145 1.44184 21.5922 0.877777 21.2367C1.25328 22.3217 1.74178 23.3537 2.33009 24.3185C2.4324 24.3374 2.54378 24.3478 2.66665 24.3478C3.99996 24.3478 3.99996 23.1288 5.33309 23.1288C6.66653 23.1288 6.66653 24.3478 7.99996 24.3478C9.3334 24.3478 9.3334 23.1288 10.6668 23.1288C12.0002 23.1288 12.0002 24.3478 13.3333 24.3478C14.6666 24.3478 14.6666 23.1288 15.9998 23.1288C17.3333 23.1288 17.3333 24.3478 18.6667 24.3478C20.0002 24.3478 20.0002 23.1288 21.3334 23.1288C22.6667 23.1288 22.6667 24.3478 24 24.3478C25.3332 24.3478 25.3333 23.1288 26.6665 23.1288C28 23.1288 28 24.3478 29.3332 24.3478C29.4562 24.3478 29.5676 24.3374 29.6699 24.3184C30.2582 23.3537 30.7467 22.3217 31.1223 21.2368C30.5582 21.5921 30.286 22.2145 29.3332 22.2145C28 22.2145 28 20.9954 26.6665 20.9954Z" fill="#0052B4"/>
<path d="M31.9504 14.7359C30.6672 14.7662 30.6496 15.9537 29.3331 15.9537C27.9998 15.9537 27.9998 14.7346 26.6664 14.7346C25.3331 14.7346 25.3331 15.9537 23.9999 15.9537C22.6666 15.9537 22.6666 14.7346 21.3333 14.7346C20 14.7346 20 15.9537 18.6666 15.9537C17.3332 15.9537 17.3332 14.7346 15.9998 14.7346C14.6664 14.7346 14.6664 15.9537 13.3332 15.9537C12.0001 15.9537 12.0001 14.7346 10.6667 14.7346C9.33331 14.7346 9.33331 15.9537 7.99988 15.9537C6.66644 15.9537 6.66644 14.7346 5.333 14.7346C3.99988 14.7346 3.99988 15.9537 2.66656 15.9537C1.35038 15.9537 1.33256 14.7664 0.0495625 14.7359C0.017 15.1531 0 15.5746 0 16C0 16.2914 0.00825 16.581 0.0238125 16.8686C1.33275 16.8832 1.34144 18.0869 2.66663 18.0869C3.99994 18.0869 3.99994 16.8679 5.33306 16.8679C6.6665 16.8679 6.6665 18.0869 7.99994 18.0869C9.33337 18.0869 9.33338 16.8679 10.6668 16.8679C12.0001 16.8679 12.0001 18.0869 13.3333 18.0869C14.6666 18.0869 14.6666 16.8679 15.9998 16.8679C17.3333 16.8679 17.3333 18.0869 18.6667 18.0869C20.0001 18.0869 20.0001 16.8679 21.3334 16.8679C22.6667 16.8679 22.6667 18.0869 23.9999 18.0869C25.3332 18.0869 25.3333 16.8679 26.6665 16.8679C27.9999 16.8679 27.9999 18.0869 29.3332 18.0869C30.6585 18.0869 30.6672 16.8832 31.9764 16.8686C31.9918 16.5809 32 16.2914 32 16C32 15.5746 31.983 15.1531 31.9504 14.7359Z" fill="#F0F0F0"/>
</g>
<defs>
<clipPath id="clip0_280_16639">
<rect width="32" height="32" fill="white"/>
</clipPath>
</defs>
</svg>
