<svg width="32" height="32" viewBox="0 0 32 32" fill="none" xmlns="http://www.w3.org/2000/svg">
<g clip-path="url(#clip0_280_16661)">
<path d="M16 32C24.8366 32 32 24.8366 32 16C32 7.16344 24.8366 0 16 0C7.16344 0 0 7.16344 0 16C0 24.8366 7.16344 32 16 32Z" fill="#F0F0F0"/>
<path d="M31.9994 15.9537H14.6551C11.2115 19.3973 9.12912 22.0559 7.00287 24.1821L16.0464 24.9971L30.0797 23.6058C31.3044 21.3436 32 18.7531 32 16C32 15.9845 31.9994 15.9692 31.9994 15.9537Z" fill="#D80027"/>
<path d="M7.00289 8.3015H30.0286C27.3075 3.3535 22.0456 0 16 0C11.5934 0 7.60364 1.78194 4.71021 4.664L7.00289 8.3015Z" fill="#FFDA44"/>
<path d="M7.69866 23.6058C6.26029 25.0442 5.70441 26.2493 4.66373 27.29C7.56091 30.1991 11.57 32 16.0001 32C22.0836 32 27.3738 28.6047 30.0799 23.6058H7.69866Z" fill="#0052B4"/>
<path d="M4.6861 4.64001C-1.56228 10.8884 -1.56228 21.0191 4.6861 27.2675C7.26816 24.6855 9.75147 22.2021 15.9998 15.9538L4.6861 4.64001Z" fill="#6DA544"/>
<path d="M4.22027 15.9537C4.22027 13.6226 5.85858 11.6752 8.04633 11.1974C7.71008 11.124 7.36121 11.0842 7.00283 11.0842C4.31339 11.0842 2.13327 13.2643 2.13327 15.9537C2.13327 18.6432 4.31339 20.8233 7.00283 20.8233C7.36114 20.8233 7.71002 20.7835 8.04633 20.71C5.85858 20.2322 4.22027 18.2849 4.22027 15.9537Z" fill="#F0F0F0"/>
<path d="M7.99282 11.7798L8.25188 12.5769H9.09L8.41188 13.0696L8.67094 13.8667L7.99282 13.3741L7.31469 13.8667L7.57375 13.0696L6.89563 12.5769H7.73375L7.99282 11.7798Z" fill="#F0F0F0"/>
<path d="M7.99282 13.8668L8.25188 14.6639H9.09L8.41188 15.1566L8.67094 15.9538L7.99282 15.4611L7.31469 15.9538L7.57375 15.1566L6.89563 14.6639H7.73375L7.99282 13.8668Z" fill="#F0F0F0"/>
<path d="M7.99282 15.9538L8.25188 16.7509H9.09L8.41188 17.2436L8.67094 18.0407L7.99282 17.548L7.31469 18.0407L7.57375 17.2436L6.89563 16.7509H7.73375L7.99282 15.9538Z" fill="#F0F0F0"/>
<path d="M7.99282 18.0406L8.25188 18.8378H9.09L8.41188 19.3305L8.67094 20.1276L7.99282 19.635L7.31469 20.1276L7.57375 19.3305L6.89563 18.8378H7.73375L7.99282 18.0406Z" fill="#F0F0F0"/>
</g>
<defs>
<clipPath id="clip0_280_16661">
<rect width="32" height="32" fill="white"/>
</clipPath>
</defs>
</svg>
