<svg width="32" height="32" viewBox="0 0 32 32" fill="none" xmlns="http://www.w3.org/2000/svg">
<g clip-path="url(#clip0_280_16594)">
<path d="M16 31.9999C24.8365 31.9999 31.9999 24.8365 31.9999 16C31.9999 7.16343 24.8365 0 16 0C7.16343 0 0 7.16343 0 16C0 24.8365 7.16343 31.9999 16 31.9999Z" fill="#FFDA44"/>
<path d="M4.68631 27.3137C5.35749 27.9849 6.07368 28.5835 6.82487 29.1105L29.1104 6.82491C28.5835 6.07365 27.9849 5.35753 27.3137 4.68634C26.6425 4.01515 25.9263 3.41671 25.1752 2.88965L2.88974 25.1753C3.41662 25.9264 4.01512 26.6425 4.68631 27.3137Z" fill="black"/>
<path d="M4.68691 4.68674C-0.360792 9.73444 -1.32986 17.3153 1.7779 23.3366L23.3367 1.77786C17.3154 -1.32983 9.73442 -0.360767 4.68691 4.68674Z" fill="#6DA544"/>
<path d="M27.3138 27.3138C32.3615 22.2662 33.3305 14.6854 30.2229 8.66394L8.66391 30.2229C14.6853 33.3305 22.2661 32.3615 27.3138 27.3138Z" fill="#D80027"/>
<path d="M10.1732 18.8757L11.6668 19.6367L12.8522 18.4514L12.5899 20.107L14.0835 20.8681L12.4278 21.1303L12.1655 22.786L11.4045 21.2924L9.7489 21.5546L10.9342 20.3693L10.1732 18.8757Z" fill="#F0F0F0"/>
<path d="M18.8754 10.1733L20.369 10.9343L21.5544 9.74902L21.2922 11.4046L22.7857 12.1657L21.13 12.428L20.8679 14.0836L20.1068 12.59L18.4512 12.8522L19.6365 11.6669L18.8754 10.1733Z" fill="#F0F0F0"/>
</g>
<defs>
<clipPath id="clip0_280_16594">
<rect width="32" height="32" fill="white"/>
</clipPath>
</defs>
</svg>
