<svg width="32" height="32" viewBox="0 0 32 32" fill="none" xmlns="http://www.w3.org/2000/svg">
<g clip-path="url(#clip0_280_16540)">
<path d="M16 32C24.8366 32 32 24.8366 32 16C32 7.16344 24.8366 0 16 0C7.16344 0 0 7.16344 0 16C0 24.8366 7.16344 32 16 32Z" fill="#F0F0F0"/>
<path d="M16 0C11.1505 0 6.80534 2.15775 3.87115 5.56519H28.1287C25.1946 2.15775 20.8494 0 16 0Z" fill="#0052B4"/>
<path d="M28.1288 26.4348H3.87115C6.80534 29.8423 11.1505 32 16 32C20.8494 32 25.1946 29.8423 28.1288 26.4348Z" fill="#0052B4"/>
<path d="M29.6516 7.65216H2.34838C0.859063 10.0825 0 12.9408 0 16C0 19.0592 0.859063 21.9175 2.34838 24.3478H29.6516C31.1409 21.9175 32 19.0592 32 16C32 12.9408 31.1409 10.0825 29.6516 7.65216Z" fill="#D80027"/>
<path d="M9.84337 22.1565C13.2435 22.1565 15.9999 19.4002 15.9999 16C15.9999 12.5999 13.2435 9.84351 9.84337 9.84351C6.44323 9.84351 3.68687 12.5999 3.68687 16C3.68687 19.4002 6.44323 22.1565 9.84337 22.1565Z" fill="#F0F0F0"/>
<path d="M9.84342 9.84351L11.2247 14.0948H15.7021L12.0785 16.7224L13.4707 20.9864L9.84342 18.3463L6.22167 20.9815L7.6083 16.7224L3.98799 14.0948H8.46205L9.84342 9.84351Z" fill="#D80027"/>
</g>
<defs>
<clipPath id="clip0_280_16540">
<rect width="32" height="32" fill="white"/>
</clipPath>
</defs>
</svg>
