<svg width="32" height="32" viewBox="0 0 32 32" fill="none" xmlns="http://www.w3.org/2000/svg">
<g clip-path="url(#clip0_280_16588)">
<path d="M31.0048 21.5652C31.6479 19.8319 32 17.9571 32 16C32 14.0429 31.6479 12.1681 31.0048 10.4348L16 9.04352L0.995188 10.4348C0.352063 12.1681 0 14.0429 0 16C0 17.9571 0.352063 19.8319 0.995188 21.5652L16 22.9565L31.0048 21.5652Z" fill="#F0F0F0"/>
<path d="M16 32C22.8793 32 28.7441 27.658 31.0047 21.5652H0.995102C3.25585 27.658 9.12048 32 16 32Z" fill="#D80027"/>
<path d="M16 0C9.12048 0 3.25585 4.342 0.995102 10.4348H31.0048C28.7441 4.342 22.8794 0 16 0Z" fill="#6DA544"/>
<path d="M4.68617 4.68628C-1.5622 10.9347 -1.5622 21.0653 4.68617 27.3138C6.31711 25.6828 7.90899 24.091 10.4347 21.5653V10.4348L4.68617 4.68628Z" fill="black"/>
</g>
<defs>
<clipPath id="clip0_280_16588">
<rect width="32" height="32" fill="white"/>
</clipPath>
</defs>
</svg>
