<svg width="32" height="32" viewBox="0 0 32 32" fill="none" xmlns="http://www.w3.org/2000/svg">
<g clip-path="url(#clip0_280_16690)">
<path d="M32 16C32 24.8365 24.8365 32 16 32C7.1635 32 0 24.8365 0 16C0 16.0038 16 0.00175 16 0C24.8365 0 32 7.1635 32 16Z" fill="#0052B4"/>
<path d="M15.9573 16.0005H16C16 15.986 16 15.9718 16 15.9572C15.9858 15.9717 15.9716 15.9861 15.9573 16.0005Z" fill="#F0F0F0"/>
<path d="M16 8.34781C16 5.5325 16 3.68781 16 0H15.9973C7.16194 0.0015 0 7.16431 0 16H8.34781V11.2993L13.0485 16H15.9572C15.9715 15.9858 15.9858 15.9715 16.0001 15.9572C16.0001 14.8793 16.0001 13.9174 16.0001 13.0486L11.2992 8.34781H16Z" fill="#F0F0F0"/>
<path d="M22.9567 11.8262C24.4935 11.8262 25.7393 10.5804 25.7393 9.04355C25.7393 7.50675 24.4935 6.26093 22.9567 6.26093C21.4199 6.26093 20.174 7.50675 20.174 9.04355C20.174 10.5804 21.4199 11.8262 22.9567 11.8262Z" fill="#6DA544"/>
<path d="M8.09476 2.08691C5.59232 3.51185 3.51188 5.59223 2.08701 8.09467V16H6.26094V6.26098V6.26085H16.0001C16.0001 4.94441 16.0001 3.69029 16.0001 2.08691H8.09476Z" fill="#D80027"/>
<path d="M16.0001 14.0324L10.3154 8.34784H8.34787V8.34796L15.9999 16H16.0001C16.0001 16 16.0001 14.6433 16.0001 14.0324Z" fill="#D80027"/>
<path d="M27.8261 8.34784H18.087V12.5218H27.8261V8.34784Z" fill="#D80027"/>
<path d="M18.087 18.7827V21.5653H19.551C20.4288 22.4255 21.6304 22.9566 22.9566 22.9566C24.2828 22.9566 25.4843 22.4255 26.3621 21.5653H26.4348H27.8261V18.7827H18.087Z" fill="#FFDA44"/>
<path d="M18.087 11.826V15.9999C18.087 19.7274 22.9566 20.8695 22.9566 20.8695C22.9566 20.8695 27.8261 19.7274 27.8261 15.9999V11.826H18.087Z" fill="#338AF3"/>
<path d="M22.9561 14.0555C21.7388 14.0555 21.7388 15.1685 20.5215 15.1685C19.3042 15.1685 19.3042 14.0555 18.0869 14.0555V16.0033C19.3042 16.0033 19.3042 17.1164 20.5215 17.1164C21.7388 17.1164 21.7388 16.0033 22.9561 16.0033C24.1735 16.0033 24.1735 17.1164 25.391 17.1164C26.6085 17.1164 26.6085 16.0033 27.826 16.0033V14.0555C26.6085 14.0555 26.6085 15.1685 25.391 15.1685C24.1735 15.1685 24.1735 14.0555 22.9561 14.0555Z" fill="#F3F3F3"/>
<path d="M22.9561 10.1564C21.7388 10.1564 21.7388 11.2695 20.5215 11.2695C19.3042 11.2695 19.3042 10.1564 18.0869 10.1564V12.1042C19.3042 12.1042 19.3042 13.2173 20.5215 13.2173C21.7388 13.2173 21.7388 12.1042 22.9561 12.1042C24.1735 12.1042 24.1735 13.2173 25.391 13.2173C26.6085 13.2173 26.6085 12.1042 27.826 12.1042V10.1564C26.6085 10.1564 26.6085 11.2695 25.391 11.2695C24.1735 11.2695 24.1735 10.1564 22.9561 10.1564Z" fill="#F3F3F3"/>
</g>
<defs>
<clipPath id="clip0_280_16690">
<rect width="32" height="32" fill="white"/>
</clipPath>
</defs>
</svg>
