<svg width="32" height="32" viewBox="0 0 32 32" fill="none" xmlns="http://www.w3.org/2000/svg">
<g clip-path="url(#clip0_280_16590)">
<path d="M16 32C24.8366 32 32 24.8366 32 16C32 7.16344 24.8366 0 16 0C7.16344 0 0 7.16344 0 16C0 24.8366 7.16344 32 16 32Z" fill="#338AF3"/>
<path d="M25.0436 16.1739H6.95657C6.95657 17.4226 8.04414 18.4348 9.2927 18.4348H9.21745C9.21745 19.6835 10.2296 20.6956 11.4783 20.6956C11.4783 21.9443 12.4905 22.9565 13.7392 22.9565H18.261C19.5096 22.9565 20.5218 21.9443 20.5218 20.6956C21.7705 20.6956 22.7827 19.6835 22.7827 18.4348H22.7075C23.9559 18.4348 25.0436 17.4226 25.0436 16.1739Z" fill="#FFDA44"/>
<path d="M22.261 13.2174C22.261 16.6752 19.4579 19.4783 16.0002 19.4783C12.5424 19.4783 9.73929 16.6752 9.73929 13.2174" fill="#338AF3"/>
<path d="M20.7822 13.2174L18.8282 14.1366L19.8687 16.0291L17.7469 15.6232L17.478 17.7667L16.0001 16.1901L14.5221 17.7667L14.2532 15.6232L12.1314 16.029L13.1719 14.1365L11.2179 13.2174L13.1719 12.2983L12.1314 10.4058L14.2532 10.8117L14.5221 8.66821L16.0001 10.2448L17.4781 8.66821L17.7469 10.8117L19.8688 10.4058L18.8282 12.2983L20.7822 13.2174Z" fill="#FFDA44"/>
</g>
<defs>
<clipPath id="clip0_280_16590">
<rect width="32" height="32" fill="white"/>
</clipPath>
</defs>
</svg>
