<svg width="32" height="32" viewBox="0 0 32 32" fill="none" xmlns="http://www.w3.org/2000/svg">
<g clip-path="url(#clip0_280_16662)">
<path d="M30.4124 9.0435C27.8244 3.69156 22.3434 0 16 0C9.65662 0 4.17562 3.69156 1.58762 9.0435L16 10.4348L30.4124 9.0435Z" fill="#D80027"/>
<path d="M1.58762 22.9565C4.17562 28.3084 9.65662 32 16 32C22.3434 32 27.8244 28.3084 30.4124 22.9565L16 21.5652L1.58762 22.9565Z" fill="#D80027"/>
<path d="M30.4124 9.04352H1.58763C0.5705 11.147 0 13.5068 0 16C0 18.4932 0.5705 20.8531 1.58763 22.9565H30.4123C31.4296 20.8531 32 18.4932 32 16C32 13.5068 31.4296 11.147 30.4124 9.04352Z" fill="#0052B4"/>
<path d="M15.9999 21.5652C19.0735 21.5652 21.5651 19.0736 21.5651 16C21.5651 12.9264 19.0735 10.4348 15.9999 10.4348C12.9264 10.4348 10.4347 12.9264 10.4347 16C10.4347 19.0736 12.9264 21.5652 15.9999 21.5652Z" fill="#F0F0F0"/>
</g>
<defs>
<clipPath id="clip0_280_16662">
<rect width="32" height="32" fill="white"/>
</clipPath>
</defs>
</svg>
