<svg width="32" height="32" viewBox="0 0 32 32" fill="none" xmlns="http://www.w3.org/2000/svg">
<g clip-path="url(#clip0_280_16586)">
<path d="M16 32C24.8366 32 32 24.8366 32 16C32 7.16344 24.8366 0 16 0C7.16344 0 0 7.16344 0 16C0 24.8366 7.16344 32 16 32Z" fill="#F0F0F0"/>
<path d="M15.9999 0C9.65657 0 4.17557 3.69156 1.58757 9.0435H30.4123C27.8243 3.69156 22.3433 0 15.9999 0Z" fill="#D80027"/>
<path d="M15.9999 32C22.3433 32 27.8243 28.3085 30.4123 22.9565H1.58757C4.17557 28.3085 9.65657 32 15.9999 32Z" fill="#D80027"/>
<path d="M20.174 18.7826L16.0001 11.1304L11.8262 18.7826H14.9566V20.8696H17.0436V18.7826H20.174Z" fill="#6DA544"/>
</g>
<defs>
<clipPath id="clip0_280_16586">
<rect width="32" height="32" fill="white"/>
</clipPath>
</defs>
</svg>
