<svg width="32" height="32" viewBox="0 0 32 32" fill="none" xmlns="http://www.w3.org/2000/svg">
<g clip-path="url(#clip0_280_16583)">
<path d="M32 16C32 24.8365 24.8365 32 16 32C7.1635 32 0 24.8365 0 16C0.695625 16 16 13.9131 16 13.9131L32 16Z" fill="#D80027"/>
<path d="M0 16C0 7.1635 7.1635 0 16 0C24.8365 0 32 7.1635 32 16" fill="#0052B4"/>
<path d="M11.8262 11.1304C11.8262 9.97786 10.8918 9.04349 9.73925 9.04349C9.20457 9.04349 8.71725 9.24474 8.34794 9.5753V8.3478H9.04357V6.95649H8.34794V6.26086H6.95663V6.95649H6.261V8.3478H6.95663V9.5753C6.58732 9.24474 6.1 9.04349 5.56532 9.04349C4.41275 9.04349 3.47838 9.97786 3.47838 11.1304C3.47838 11.7484 3.74719 12.3034 4.174 12.6856V13.913H11.1305V12.6856C11.5574 12.3034 11.8262 11.7484 11.8262 11.1304Z" fill="#FFDA44"/>
</g>
<defs>
<clipPath id="clip0_280_16583">
<rect width="32" height="32" fill="white"/>
</clipPath>
</defs>
</svg>
