<svg width="32" height="32" viewBox="0 0 32 32" fill="none" xmlns="http://www.w3.org/2000/svg">
<g clip-path="url(#clip0_280_16571)">
<path d="M5.83162e-05 2.78271H0V29.2175H5.83162e-05V16.0002V2.78271Z" fill="#FF9811"/>
<path d="M16 31.9999C24.8365 31.9999 31.9999 24.8365 31.9999 16C31.9999 7.16343 24.8365 0 16 0C7.16343 0 0 7.16343 0 16C0 24.8365 7.16343 31.9999 16 31.9999Z" fill="#FFDA44"/>
<path d="M12.5218 2.78271H6.98207C6.73657 2.95053 6.49632 3.12522 6.26088 3.30603L4.86957 16.0001L6.26088 28.6941C6.49632 28.875 6.73657 29.0496 6.98207 29.2174H12.5218V2.78271Z" fill="#FF9811"/>
<path d="M0.00012207 16C0.00012207 21.1716 2.45438 25.7692 6.26101 28.694V3.30591C2.45438 6.23079 0.00012207 10.8284 0.00012207 16Z" fill="#6DA544"/>
<path d="M25.7393 9.75391V10.1542L25.7541 10.1565L25.7393 9.75391Z" fill="#FFDA44"/>
<path d="M30.7247 20.174H27.7101L26.4348 21.5653V24.3479H23.6522V22.9566H25.0435V20.174H18.7826V21.9131H17.3913V18.5987C16.9644 18.2166 16.6957 17.6615 16.6957 17.0436V8.0001C16.6957 6.84754 17.6301 5.91316 18.7826 5.91316V18.7827H21.5652L22.52 17.9871C22.3533 17.5899 22.2609 17.1537 22.2609 16.6958V14.6089H20.1739V10.435H24.3478C24.3478 9.73935 25.3913 9.04367 25.3913 9.04367C25.3913 9.04367 26.4348 9.73929 26.4348 10.435V11.4785V14.6089C27.2088 14.6181 28.4384 14.5981 29.7668 14.6089C29.4178 13.9989 29.2174 13.2751 29.2174 12.522C29.2174 11.2944 29.7474 10.1908 30.591 9.42704C29.375 6.73235 27.4346 4.43472 25.0179 2.78271H14.6087V29.2175H25.018C27.9567 27.2087 30.191 24.2455 31.275 20.7744L30.7247 20.174Z" fill="#A2001D"/>
</g>
<defs>
<clipPath id="clip0_280_16571">
<rect width="32" height="32" fill="white"/>
</clipPath>
</defs>
</svg>
