<svg width="32" height="32" viewBox="0 0 32 32" fill="none" xmlns="http://www.w3.org/2000/svg">
<g clip-path="url(#clip0_280_16570)">
<path d="M16 32C24.8366 32 32 24.8366 32 16C32 7.16344 24.8366 0 16 0C7.16344 0 0 7.16344 0 16C0 24.8366 7.16344 32 16 32Z" fill="#D80027"/>
<path d="M25.4555 13.1306H18.2321L16 6.2608L13.7679 13.1306H6.54453L12.3883 17.3763L10.1562 24.2462L16 20.0004L21.8439 24.2463L19.6117 17.3764L25.4555 13.1306ZM14.0239 16.8449L14.7787 14.5218H17.2213L17.9762 16.8449V16.8449L16 18.2806L14.024 16.8449L14.0239 16.8449ZM16.7693 13.1306H15.2308L16 10.7631L16.7693 13.1306ZM19.1596 15.9851L18.6842 14.5219H21.1735L19.1596 15.9851ZM13.3158 14.5219L12.8404 15.9851L10.8265 14.5219H13.3158ZM12.8026 20.6037L13.5718 18.2363L14.8165 19.1406L12.8026 20.6037ZM17.1835 19.1406L18.4282 18.2364L19.1975 20.6038L17.1835 19.1406Z" fill="#FFDA44"/>
</g>
<defs>
<clipPath id="clip0_280_16570">
<rect width="32" height="32" fill="white"/>
</clipPath>
</defs>
</svg>
