<svg width="32" height="32" viewBox="0 0 32 32" fill="none" xmlns="http://www.w3.org/2000/svg">
<g clip-path="url(#clip0_280_16579)">
<path d="M16 32C24.8366 32 32 24.8366 32 16C32 7.16344 24.8366 0 16 0C7.16344 0 0 7.16344 0 16C0 24.8366 7.16344 32 16 32Z" fill="#F0F0F0"/>
<path d="M10.4348 16V31.0048C12.168 31.648 14.0428 32 15.9999 32C24.8364 32 31.9999 24.8365 31.9999 16C31.9999 7.16353 10.4348 16 10.4348 16Z" fill="#6DA544"/>
<path d="M15.9999 0C14.0428 0 12.168 0.352063 10.4348 0.995188V16C10.4348 16 24.6261 16 31.9999 16C31.9999 7.1635 24.8364 0 15.9999 0Z" fill="#D80027"/>
</g>
<defs>
<clipPath id="clip0_280_16579">
<rect width="32" height="32" fill="white"/>
</clipPath>
</defs>
</svg>
