<svg width="32" height="32" viewBox="0 0 32 32" fill="none" xmlns="http://www.w3.org/2000/svg">
<g clip-path="url(#clip0_280_16574)">
<path d="M16 32C24.8365 32 32 24.8365 32 16C32 13.3148 31.3375 10.7846 30.1686 8.5625L15.9812 16.0187L23.4375 1.83138C21.2154 0.6625 18.6852 0 16 0C7.1635 0 0 7.1635 0 16C0 20.4183 1.79088 24.4183 4.68625 27.3137C7.58169 30.2092 11.5817 32 16 32Z" fill="#0052B4"/>
<path d="M30.1518 8.57989C29.4194 7.18589 28.4672 5.87708 27.2951 4.70495C26.1229 3.53283 24.8143 2.58064 23.4201 1.84833L4.66757 27.3324L30.1518 8.57989Z" fill="#F0F0F0"/>
<path d="M4.66757 27.3324L30.1518 8.57989C29.4194 7.18589 28.4672 5.87708 27.2951 4.70496L4.66757 27.3324Z" fill="#FF9811"/>
<path d="M13.8943 9.38268L11.9403 10.3018L12.9809 12.1943L10.859 11.7884L10.5901 13.9319L9.11214 12.3553L7.63414 13.9319L7.36539 11.7884L5.24352 12.1942L6.28396 10.3017L4.32996 9.38268L6.28402 8.4635L5.24352 6.57112L7.36527 6.97693L7.63421 4.83344L9.11214 6.41L10.5901 4.83344L10.859 6.97693L12.981 6.57112L11.9404 8.46356L13.8943 9.38268Z" fill="#F0F0F0"/>
</g>
<defs>
<clipPath id="clip0_280_16574">
<rect width="32" height="32" fill="white"/>
</clipPath>
</defs>
</svg>
