<svg width="32" height="32" viewBox="0 0 32 32" fill="none" xmlns="http://www.w3.org/2000/svg">
<g clip-path="url(#clip0_280_16652)">
<path d="M16 32C24.8366 32 32 24.8366 32 16C32 7.16344 24.8366 0 16 0C7.16344 0 0 7.16344 0 16C0 24.8366 7.16344 32 16 32Z" fill="#FFDA44"/>
<path d="M18.4333 31.8161C21.0355 31.4191 23.4309 30.3943 25.4618 28.9024L16 16L18.4333 31.8161Z" fill="#D80027"/>
<path d="M13.5667 0.182983C10.9645 0.579984 8.56913 1.60473 6.53813 3.09655L16 15.9991L13.5667 0.182983Z" fill="#D80027"/>
<path d="M6.53813 28.9024C8.569 30.3943 10.9644 31.419 13.5666 31.8161L16 16L6.53813 28.9024Z" fill="#D80027"/>
<path d="M3.09657 6.53796C1.6047 8.56896 0.580075 10.9643 0.183012 13.5665L15.9991 15.9998L3.09657 6.53796Z" fill="#D80027"/>
<path d="M0.183012 18.4333C0.580012 21.0355 1.60476 23.4309 3.09664 25.4618L15.9991 16L0.183012 18.4333Z" fill="#D80027"/>
<path d="M31.8161 13.5666C31.419 10.9644 30.3943 8.56902 28.9024 6.53809L16 15.9999L31.8161 13.5666Z" fill="#D80027"/>
<path d="M25.4618 3.09648C23.4308 1.60467 21.0355 0.579984 18.4333 0.182983L16 15.9991L25.4618 3.09648Z" fill="#D80027"/>
<path d="M28.9026 25.4618C30.3944 23.4309 31.4191 21.0354 31.8162 18.4333L16 16L28.9026 25.4618Z" fill="#D80027"/>
<path d="M15.9999 21.5652C19.0735 21.5652 21.5651 19.0736 21.5651 16C21.5651 12.9264 19.0735 10.4348 15.9999 10.4348C12.9263 10.4348 10.4347 12.9264 10.4347 16C10.4347 19.0736 12.9263 21.5652 15.9999 21.5652Z" fill="#D80027"/>
<path d="M15.9999 20.1739C18.3052 20.1739 20.1739 18.3052 20.1739 16C20.1739 13.6948 18.3052 11.826 15.9999 11.826C13.6947 11.826 11.826 13.6948 11.826 16C11.826 18.3052 13.6947 20.1739 15.9999 20.1739Z" fill="#FFDA44"/>
</g>
<defs>
<clipPath id="clip0_280_16652">
<rect width="32" height="32" fill="white"/>
</clipPath>
</defs>
</svg>
