<svg width="32" height="32" viewBox="0 0 32 32" fill="none" xmlns="http://www.w3.org/2000/svg">
<g clip-path="url(#clip0_280_16685)">
<path d="M31.0048 21.5651C31.648 19.8319 32 17.9571 32 16C32 14.0428 31.648 12.168 31.0048 10.4348L16 9.04346L0.995188 10.4348C0.352063 12.168 0 14.0428 0 16C0 17.9571 0.352063 19.8319 0.995188 21.5651L16 22.9565L31.0048 21.5651Z" fill="#6DA544"/>
<path d="M31.0048 10.4348C28.7441 4.342 22.8795 0 16 0C9.12058 0 3.2559 4.342 0.995209 10.4348H31.0048Z" fill="#FFDA44"/>
<path d="M16 32C22.8795 32 28.7441 27.658 31.0048 21.5652H0.995209C3.2559 27.658 9.12058 32 16 32Z" fill="#D80027"/>
<path d="M26.9717 13.5366H18.59L15.9999 5.56519L13.4098 13.5366H5.02811L11.809 18.4632L9.21892 26.4348L15.9999 21.5652L22.7809 26.4347L20.1909 18.4632L26.9717 13.5366Z" fill="#F0F0F0"/>
</g>
<defs>
<clipPath id="clip0_280_16685">
<rect width="32" height="32" fill="white"/>
</clipPath>
</defs>
</svg>
