<svg width="32" height="32" viewBox="0 0 32 32" fill="none" xmlns="http://www.w3.org/2000/svg">
<g clip-path="url(#clip0_280_16555)">
<path d="M16.0002 32C17.9573 32 19.8321 31.648 21.5654 31.0048L22.2611 16L21.5655 0.995188C19.8321 0.352063 17.9573 0 16.0002 0C14.0431 0 12.1683 0.352063 10.435 0.995188L9.73933 16L10.435 31.0048C12.1683 31.648 14.0431 32 16.0002 32Z" fill="#0052B4"/>
<path d="M0 16.0001C0 22.8795 4.342 28.7442 10.4348 31.0049V0.9953C4.342 3.25599 0 9.12067 0 16.0001Z" fill="#A2001D"/>
<path d="M21.5653 0.9953V31.005C27.6581 28.7442 32.0001 22.8795 32.0001 16.0001C32.0001 9.12067 27.6581 3.25599 21.5653 0.9953Z" fill="#A2001D"/>
<path d="M9.04353 16H7.65221V21.5652H9.04353V16Z" fill="#FFDA44"/>
<path d="M3.47821 16H2.0869V21.5652H3.47821V16Z" fill="#FFDA44"/>
<path d="M5.56511 19.4783C6.33351 19.4783 6.95643 18.8554 6.95643 18.087C6.95643 17.3186 6.33351 16.6957 5.56511 16.6957C4.79671 16.6957 4.1738 17.3186 4.1738 18.087C4.1738 18.8554 4.79671 19.4783 5.56511 19.4783Z" fill="#FFDA44"/>
<path d="M5.56519 13.9129C5.94937 13.9129 6.26081 13.6015 6.26081 13.2173C6.26081 12.8331 5.94937 12.5217 5.56519 12.5217C5.181 12.5217 4.86956 12.8331 4.86956 13.2173C4.86956 13.6015 5.181 13.9129 5.56519 13.9129Z" fill="#FFDA44"/>
<path d="M6.95655 20.174H4.17392V21.5653H6.95655V20.174Z" fill="#FFDA44"/>
<path d="M6.95655 14.6086H4.17392V16H6.95655V14.6086Z" fill="#FFDA44"/>
<path d="M5.56503 8.34784L6.05778 9.86409H7.65203L6.36234 10.8012L6.85471 12.3175L5.56503 11.3803L4.2754 12.3175L4.76778 10.8012L3.47809 9.86409H5.07234L5.56503 8.34784Z" fill="#FFDA44"/>
</g>
<defs>
<clipPath id="clip0_280_16555">
<rect width="32" height="32" fill="white"/>
</clipPath>
</defs>
</svg>
