<svg width="32" height="32" viewBox="0 0 32 32" fill="none" xmlns="http://www.w3.org/2000/svg">
<g clip-path="url(#clip0_280_16572)">
<path d="M16 32C24.8366 32 32 24.8366 32 16C32 7.16344 24.8366 0 16 0C7.16344 0 0 7.16344 0 16C0 24.8366 7.16344 32 16 32Z" fill="#F0F0F0"/>
<path d="M31.8629 13.9122C31.4215 10.5381 29.9059 7.27773 27.3137 4.68554C24.7215 2.09335 21.4611 0.577666 18.0869 0.136292L18.087 13.9122H31.8629Z" fill="#0052B4"/>
<path d="M13.913 0.136292C10.5389 0.577666 7.27841 2.09329 4.68623 4.68548C2.0941 7.27773 0.578414 10.5382 0.137039 13.9124L13.913 13.9123L13.913 0.136292Z" fill="#0052B4"/>
<path d="M0.137039 18.087C0.578414 21.4611 2.0941 24.7216 4.68623 27.3137C7.27841 29.9059 10.5388 31.4215 13.913 31.863L13.913 18.0871L0.137039 18.087Z" fill="#0052B4"/>
<path d="M18.0871 31.8629C21.4612 31.4215 24.7216 29.9059 27.3138 27.3137C29.906 24.7215 31.4216 21.4611 31.863 18.087H18.0871V31.8629Z" fill="#0052B4"/>
<path d="M21.4617 10.1524C21.4617 9.93967 21.6346 9.76673 21.8475 9.76673H22.674C23.9805 9.76673 25.0434 8.70386 25.0434 7.39742C25.0434 6.09098 23.9805 5.02804 22.674 5.02804H21.8891C21.6329 4.83561 21.2892 4.71692 20.9101 4.71692C20.1193 4.71692 19.4782 5.22973 19.4782 5.86236C19.4782 6.48886 20.107 6.99711 20.8873 7.00698L20.8869 7.01154H22.674C22.8868 7.01154 23.0597 7.18455 23.0597 7.3973C23.0597 7.61005 22.8868 7.78298 22.674 7.78298H21.8475C20.541 7.78298 19.4781 8.84586 19.4781 10.1523C19.4781 11.4587 20.5409 12.5217 21.8475 12.5217H25.0433V10.538H21.8475C21.6346 10.5381 21.4617 10.3652 21.4617 10.1524Z" fill="#F0F0F0"/>
<path d="M8.94099 10.1524C8.94099 9.93967 9.11393 9.76673 9.32674 9.76673H10.1532C11.4597 9.76673 12.5227 8.70386 12.5227 7.39742C12.5227 6.09098 11.4598 5.02804 10.1532 5.02804H9.36836C9.11218 4.83561 8.76849 4.71692 8.38936 4.71692C7.59855 4.71692 6.95749 5.22973 6.95749 5.86236C6.95749 6.48886 7.5863 6.99711 8.36655 7.00698L8.36618 7.01154H10.1533C10.3661 7.01154 10.5391 7.18455 10.5391 7.3973C10.5391 7.61005 10.3661 7.78298 10.1533 7.78298H9.3268C8.0203 7.78298 6.95749 8.84586 6.95749 10.1523C6.95749 11.4587 8.02024 12.5217 9.3268 12.5217H12.5226V10.538H9.32674C9.11393 10.5381 8.94099 10.3652 8.94099 10.1524Z" fill="#F0F0F0"/>
<path d="M21.4617 24.9139C21.4617 24.7011 21.6346 24.5282 21.8474 24.5282H22.6739C23.9804 24.5282 25.0433 23.4653 25.0433 22.1589C25.0433 20.8525 23.9805 19.7895 22.6739 19.7895H21.889C21.6328 19.5971 21.2892 19.4784 20.91 19.4784C20.1192 19.4784 19.4781 19.9913 19.4781 20.6238C19.4781 21.2503 20.1069 21.7586 20.8872 21.7685L20.8868 21.773H22.6738C22.8867 21.773 23.0596 21.946 23.0596 22.1588C23.0596 22.3715 22.8867 22.5445 22.6738 22.5445H21.8473C20.5408 22.5445 19.478 23.6073 19.478 24.9138C19.478 26.2202 20.5408 27.2831 21.8473 27.2831H25.0433V25.2996H21.8474C21.6346 25.2996 21.4617 25.1266 21.4617 24.9139Z" fill="#F0F0F0"/>
<path d="M8.94004 24.9139C8.94004 24.7011 9.11298 24.5282 9.32579 24.5282H10.1523C11.4588 24.5282 12.5217 23.4653 12.5217 22.1589C12.5217 20.8525 11.4589 19.7895 10.1523 19.7895H9.36742C9.11123 19.5971 8.76754 19.4784 8.38842 19.4784C7.59754 19.4784 6.95648 19.9913 6.95648 20.6238C6.95648 21.2503 7.58529 21.7586 8.36554 21.7685L8.36517 21.773H10.1523C10.3651 21.773 10.538 21.946 10.538 22.1588C10.538 22.3715 10.3651 22.5445 10.1523 22.5445H9.32579C8.01929 22.5445 6.95648 23.6073 6.95648 24.9138C6.95648 26.2202 8.01923 27.2831 9.32579 27.2831H12.5217V25.2996H9.32579C9.11298 25.2996 8.94004 25.1266 8.94004 24.9139Z" fill="#F0F0F0"/>
</g>
<defs>
<clipPath id="clip0_280_16572">
<rect width="32" height="32" fill="white"/>
</clipPath>
</defs>
</svg>
