<svg width="32" height="32" viewBox="0 0 32 32" fill="none" xmlns="http://www.w3.org/2000/svg">
<g clip-path="url(#clip0_280_16616)">
<path d="M1.94556 8.34781L16.0001 9.73913L30.0547 8.34781C27.341 3.37431 22.0648 0 16.0001 0C9.93543 0 4.65924 3.37431 1.94556 8.34781Z" fill="#D80027"/>
<path d="M1.94544 23.6521L16 25.0435L30.0546 23.6521C31.2948 21.379 32 18.7718 32 16L16 14.6086L0 16C0 18.7718 0.705188 21.379 1.94544 23.6521Z" fill="#FFDA44"/>
<path d="M1.94544 8.34778C0.705188 10.621 0 13.2281 0 16H32C32 13.2281 31.2948 10.621 30.0546 8.34778H16H1.94544Z" fill="#0052B4"/>
<path d="M16.0001 32C22.0648 32 27.341 28.6257 30.0547 23.6522H1.94556C4.65924 28.6257 9.93543 32 16.0001 32Z" fill="#6DA544"/>
</g>
<defs>
<clipPath id="clip0_280_16616">
<rect width="32" height="32" fill="white"/>
</clipPath>
</defs>
</svg>
