<svg width="32" height="32" viewBox="0 0 32 32" fill="none" xmlns="http://www.w3.org/2000/svg">
<g clip-path="url(#clip0_280_16724)">
<path d="M16 32C24.8366 32 32 24.8366 32 16C32 7.16344 24.8366 0 16 0C7.16344 0 0 7.16344 0 16C0 24.8366 7.16344 32 16 32Z" fill="#D80027"/>
<path d="M26.4348 8.34778H5.56528V23.6522H26.4348V8.34778Z" fill="#6DA544"/>
<path d="M18.5767 20.5218C16.0795 20.5218 14.055 18.4973 14.055 16C14.055 13.5028 16.0795 11.4783 18.5767 11.4783C19.3553 11.4783 20.088 11.6751 20.7276 12.0218C19.7242 11.0404 18.352 10.4348 16.8376 10.4348C13.7641 10.4348 11.2724 12.9264 11.2724 15.9999C11.2724 19.0735 13.7641 21.5651 16.8376 21.5651C18.352 21.5651 19.7243 20.9594 20.7276 19.9781C20.088 20.3249 19.3553 20.5218 18.5767 20.5218Z" fill="#F0F0F0"/>
</g>
<defs>
<clipPath id="clip0_280_16724">
<rect width="32" height="32" fill="white"/>
</clipPath>
</defs>
</svg>
