<svg width="32" height="32" viewBox="0 0 32 32" fill="none" xmlns="http://www.w3.org/2000/svg">
<g clip-path="url(#clip0_280_16565)">
<path d="M16 32C24.8366 32 32 24.8366 32 16C32 7.16344 24.8366 0 16 0C7.16344 0 0 7.16344 0 16C0 24.8366 7.16344 32 16 32Z" fill="#F0F0F0"/>
<path d="M32.0001 16C32.0001 9.65658 28.3085 4.17559 22.9566 1.58759V30.4123C28.3085 27.8243 32.0001 22.3433 32.0001 16Z" fill="#D80027"/>
<path d="M0 16C0 22.3433 3.69156 27.8243 9.0435 30.4123V1.58759C3.69156 4.17559 0 9.65659 0 16Z" fill="#6DA544"/>
<path d="M11.8262 16C11.8262 18.3052 13.6949 20.1739 16.0001 20.1739C18.3053 20.1739 20.174 18.3052 20.174 16V14.6087H11.8262V16Z" fill="#6DA544"/>
<path d="M21.5651 13.2174H17.3912C17.3912 12.449 16.7683 11.8261 15.9999 11.8261C15.2315 11.8261 14.6086 12.449 14.6086 13.2174H10.4346C10.4346 13.9859 11.104 14.6087 11.8723 14.6087H11.826C11.826 15.3772 12.4488 16 13.2173 16C13.2173 16.7685 13.8401 17.3914 14.6086 17.3914H17.3912C18.1596 17.3914 18.7825 16.7685 18.7825 16C19.551 16 20.1738 15.3772 20.1738 14.6087H20.1275C20.8959 14.6087 21.5651 13.9859 21.5651 13.2174Z" fill="#FF9811"/>
</g>
<defs>
<clipPath id="clip0_280_16565">
<rect width="32" height="32" fill="white"/>
</clipPath>
</defs>
</svg>
