<svg width="32" height="32" viewBox="0 0 32 32" fill="none" xmlns="http://www.w3.org/2000/svg">
<g clip-path="url(#clip0_280_16578)">
<path d="M16 32C24.8366 32 32 24.8366 32 16C32 7.16344 24.8366 0 16 0C7.16344 0 0 7.16344 0 16C0 24.8366 7.16344 32 16 32Z" fill="#F0F0F0"/>
<path d="M15.3044 16.0001H32C32 14.5559 31.8075 13.157 31.4488 11.8262H15.3044V16.0001Z" fill="#D80027"/>
<path d="M15.3044 7.65221H29.6516C28.6722 6.05396 27.42 4.64127 25.9598 3.47827H15.3044V7.65221Z" fill="#D80027"/>
<path d="M15.9999 32C19.7655 32 23.2266 30.6985 25.9598 28.5217H6.04013C8.77331 30.6985 12.2344 32 15.9999 32Z" fill="#D80027"/>
<path d="M2.34828 24.3479H29.6515C30.4378 23.0649 31.0476 21.6623 31.4487 20.174H0.551092C0.952155 21.6623 1.56197 23.0649 2.34828 24.3479Z" fill="#D80027"/>
<path d="M16 16C16 7.1635 16 6.12175 16 0C7.1635 0 0 7.1635 0 16H16Z" fill="#0052B4"/>
<path d="M10.6396 13.6956C8.45447 13.6956 6.68309 11.9242 6.68309 9.73913C6.68309 7.55407 8.45453 5.78263 10.6396 5.78263C11.3209 5.78263 11.962 5.95494 12.5217 6.25819C11.6437 5.39963 10.4429 4.86963 9.11784 4.86963C6.42853 4.86963 4.24828 7.04982 4.24828 9.73919C4.24828 12.4286 6.42853 14.6088 9.11784 14.6088C10.4429 14.6088 11.6437 14.0788 12.5217 13.2202C11.962 13.5233 11.321 13.6956 10.6396 13.6956Z" fill="#FFDA44"/>
<path d="M11.7546 6.95642L12.457 8.4253L14.0433 8.0588L13.333 9.52374L14.6087 10.5354L13.0203 10.8935L13.0248 12.5217L11.7546 11.503L10.4843 12.5217L10.4887 10.8935L8.90034 10.5354L10.1761 9.52374L9.46565 8.0588L11.0521 8.4253L11.7546 6.95642Z" fill="#FFDA44"/>
</g>
<defs>
<clipPath id="clip0_280_16578">
<rect width="32" height="32" fill="white"/>
</clipPath>
</defs>
</svg>
