<svg width="32" height="32" viewBox="0 0 32 32" fill="none" xmlns="http://www.w3.org/2000/svg">
<g clip-path="url(#clip0_280_16569)">
<path d="M16 32C24.8366 32 32 24.8366 32 16C32 7.16344 24.8366 0 16 0C7.16344 0 0 7.16344 0 16C0 24.8366 7.16344 32 16 32Z" fill="#F0F0F0"/>
<path d="M8.6483 22.2609L4.68692 27.3132C7.58217 30.2088 11.5817 32 16.0001 32C22.6145 32 28.2904 27.9857 30.727 22.2609H8.6483Z" fill="#FFDA44"/>
<path d="M30.7519 9.79706C28.3288 4.04138 22.6369 0 16.0001 0C11.5817 0 7.58217 1.79119 4.68692 4.68681L8.69379 9.79706H30.7519Z" fill="#496E2D"/>
<path d="M3.47824 11.7681V20.1739H31.4489C31.8077 18.8432 32 17.4442 32 16C32 14.5349 31.8026 13.1161 31.4337 11.7681H3.47824Z" fill="black"/>
<path d="M4.6861 4.68622C-1.56228 10.9346 -1.56228 21.0653 4.6861 27.3137C7.26816 24.7317 9.75147 22.2483 15.9998 16L4.6861 4.68622Z" fill="#A2001D"/>
<path d="M6.47572 11.8262L7.51166 15.0147H10.8645L8.15216 16.9854L9.18804 20.1741L6.47572 18.2034L3.76329 20.1741L4.79941 16.9854L2.08704 15.0147H5.43966L6.47572 11.8262Z" fill="#FFDA44"/>
<path d="M9.50812 16H3.44412V18.7826H9.50812V16Z" fill="#F0F0F0"/>
<path d="M10.6562 12.81L9.67239 11.8262L6.47564 15.0229L3.27889 11.8262L2.29507 12.81L5.49464 16.0039L2.29507 19.2036L3.27889 20.1741L6.47564 16.9831L9.67239 20.1741L10.6562 19.2036L7.45664 16.0039L10.6562 12.81Z" fill="black"/>
</g>
<defs>
<clipPath id="clip0_280_16569">
<rect width="32" height="32" fill="white"/>
</clipPath>
</defs>
</svg>
