<svg width="32" height="32" viewBox="0 0 32 32" fill="none" xmlns="http://www.w3.org/2000/svg">
<g clip-path="url(#clip0_280_16567)">
<path d="M16 32C24.8366 32 32 24.8366 32 16C32 7.16344 24.8366 0 16 0C7.16344 0 0 7.16344 0 16C0 24.8366 7.16344 32 16 32Z" fill="#F0F0F0"/>
<path d="M4.68634 27.3137C5.35752 27.9849 6.07365 28.5835 6.82484 29.1105L29.1104 6.82484C28.5835 6.07365 27.9849 5.35752 27.3137 4.68634C26.6425 4.01515 25.9263 3.41665 25.1752 2.88965L2.88965 25.1753C3.41659 25.9263 4.01515 26.6425 4.68634 27.3137Z" fill="#A2001D"/>
<path d="M4.68687 4.68678C-0.360883 9.73453 -1.32988 17.3153 1.7778 23.3367L23.3367 1.77784C17.3153 -1.32985 9.73449 -0.360724 4.68687 4.68678Z" fill="#0052B4"/>
<path d="M27.3138 27.3138C32.3614 22.2662 33.3304 14.6854 30.2228 8.66394L8.66394 30.2228C14.6853 33.3305 22.2661 32.3615 27.3138 27.3138Z" fill="#496E2D"/>
<path d="M13.2173 9.04357L11.4245 9.88688L12.3792 11.6233L10.4324 11.2509L10.1856 13.2174L8.82964 11.771L7.47358 13.2174L7.22696 11.2509L5.28008 11.6232L6.23477 9.88682L4.44196 9.04357L6.23483 8.20019L5.28008 6.46394L7.22689 6.83632L7.47364 4.86963L8.82964 6.31613L10.1857 4.86963L10.4324 6.83632L12.3792 6.46394L11.4246 8.20025L13.2173 9.04357Z" fill="#FFDA44"/>
</g>
<defs>
<clipPath id="clip0_280_16567">
<rect width="32" height="32" fill="white"/>
</clipPath>
</defs>
</svg>
