<svg width="32" height="32" viewBox="0 0 32 32" fill="none" xmlns="http://www.w3.org/2000/svg">
<g clip-path="url(#clip0_280_16548)">
<path d="M1.58763 9.04347C0.5705 11.147 0 13.5068 0 16C0 18.4932 0.5705 20.853 1.58763 22.9565L16 24.3478L30.4124 22.9565C31.4295 20.853 32 18.4932 32 16C32 13.5068 31.4295 11.147 30.4124 9.04347L16 7.65216L1.58763 9.04347Z" fill="#F0F0F0"/>
<path d="M1.58823 22.9564C4.1761 28.3084 9.65666 31.9999 16 31.9999C22.3434 31.9999 27.824 28.3084 30.4119 22.9564H1.58823Z" fill="#6DA544"/>
<path d="M1.58823 9.0435H30.4119C27.824 3.69156 22.3434 0 16 0C9.65673 0 4.1761 3.69156 1.58823 9.0435Z" fill="#FF9811"/>
<path d="M16.0001 21.5652C19.0736 21.5652 21.5653 19.0736 21.5653 16C21.5653 12.9264 19.0736 10.4348 16.0001 10.4348C12.9265 10.4348 10.4349 12.9264 10.4349 16C10.4349 19.0736 12.9265 21.5652 16.0001 21.5652Z" fill="#FF9811"/>
</g>
<defs>
<clipPath id="clip0_280_16548">
<rect width="32" height="32" fill="white"/>
</clipPath>
</defs>
</svg>
