<svg width="32" height="32" viewBox="0 0 32 32" fill="none" xmlns="http://www.w3.org/2000/svg">
<g clip-path="url(#clip0_280_16603)">
<path d="M22.9564 1.58763C20.8529 0.5705 18.4931 0 15.9999 0C13.5067 0 11.1469 0.5705 9.04343 1.58763L7.65211 16L9.04343 30.4124C11.1469 31.4295 13.5067 32 15.9999 32C18.4931 32 20.8529 31.4295 22.9564 30.4124L24.3477 16L22.9564 1.58763Z" fill="#F0F0F0"/>
<path d="M9.0435 1.58807C3.69156 4.17595 0 9.65651 0 15.9999C0 22.3433 3.69156 27.8238 9.0435 30.4117V1.58807Z" fill="#6DA544"/>
<path d="M22.9566 1.58807V30.4117C28.3085 27.8238 32.0001 22.3432 32.0001 15.9999C32.0001 9.65657 28.3085 4.17595 22.9566 1.58807Z" fill="#6DA544"/>
<path d="M20.174 20.8694L16.0001 7.65198L11.8262 20.8694H14.9566V24.3476H17.0436V20.8694H20.174Z" fill="#6DA544"/>
</g>
<defs>
<clipPath id="clip0_280_16603">
<rect width="32" height="32" fill="white"/>
</clipPath>
</defs>
</svg>
