<svg width="32" height="32" viewBox="0 0 32 32" fill="none" xmlns="http://www.w3.org/2000/svg">
<g clip-path="url(#clip0_280_16575)">
<path d="M16 32C24.8366 32 32 24.8366 32 16C32 7.16344 24.8366 0 16 0C7.16344 0 0 7.16344 0 16C0 24.8366 7.16344 32 16 32Z" fill="#F0F0F0"/>
<path d="M16 0C9.65658 0 4.17559 3.69156 1.58759 9.0435H30.4123C27.8243 3.69156 22.3433 0 16 0Z" fill="#338AF3"/>
<path d="M16 31.9999C22.3433 31.9999 27.8243 28.3084 30.4123 22.9564H1.58759C4.17559 28.3084 9.65658 31.9999 16 31.9999Z" fill="#338AF3"/>
<path d="M16.0001 11.1305C13.3108 11.1305 11.1306 13.3107 11.1306 16.0001C11.1306 18.6894 13.3108 20.8696 16.0001 20.8696C18.6895 20.8696 20.8697 18.6894 20.8697 16.0001C20.8697 13.3107 18.6895 11.1305 16.0001 11.1305ZM16.0001 18.7827C14.4634 18.7827 13.2175 17.5369 13.2175 16.0001C13.2175 14.4632 14.4633 13.2174 16.0001 13.2174C17.537 13.2174 18.7828 14.4632 18.7828 16.0001C18.7828 17.5369 17.5369 18.7827 16.0001 18.7827Z" fill="#FFDA44"/>
<path d="M18.4097 16.6956L15.9999 16L13.59 16.6956L12.7867 18.0869H19.2129L18.4097 16.6956Z" fill="#0052B4"/>
<path d="M16 12.5217L14.3934 15.3044L16 16L17.6066 15.3044L16 12.5217Z" fill="#338AF3"/>
<path d="M13.5901 16.6956H18.4099L17.6066 15.3043H14.3934L13.5901 16.6956Z" fill="#6DA544"/>
</g>
<defs>
<clipPath id="clip0_280_16575">
<rect width="32" height="32" fill="white"/>
</clipPath>
</defs>
</svg>
