<svg width="32" height="32" viewBox="0 0 32 32" fill="none" xmlns="http://www.w3.org/2000/svg">
<g clip-path="url(#clip0_280_16550)">
<path d="M16 32C24.8366 32 32 24.8366 32 16C32 7.16344 24.8366 0 16 0C7.16344 0 0 7.16344 0 16C0 24.8366 7.16344 32 16 32Z" fill="#0052B4"/>
<path d="M16 32C24.8366 32 32 24.8366 32 16C32 7.16344 24.8366 0 16 0C7.16344 0 0 7.16344 0 16C0 24.8366 7.16344 32 16 32Z" fill="#FFDA44"/>
<path d="M15.9997 0C7.63192 0 0.765795 6.42381 0.0606079 14.6087H31.9388C31.2335 6.42381 24.3674 0 15.9997 0Z" fill="#0052B4"/>
<path d="M15.9997 32C24.3674 32 31.2335 25.5762 31.9388 17.3914H0.0606079C0.765795 25.5762 7.63192 32 15.9997 32Z" fill="#0052B4"/>
<path d="M13.2173 21.5652L11.4245 22.4086L12.3791 24.1449L10.4323 23.7725L10.1856 25.7392L8.82958 24.2927L7.47358 25.7392L7.22689 23.7725L5.28002 24.1449L6.23477 22.4085L4.44189 21.5652L6.23483 20.7219L5.28002 18.9857L7.22683 19.358L7.47364 17.3914L8.82958 18.8378L10.1857 17.3914L10.4323 19.358L12.3792 18.9857L11.4245 20.722L13.2173 21.5652Z" fill="#F0F0F0"/>
</g>
<defs>
<clipPath id="clip0_280_16550">
<rect width="32" height="32" fill="white"/>
</clipPath>
</defs>
</svg>
