<svg width="32" height="32" viewBox="0 0 32 32" fill="none" xmlns="http://www.w3.org/2000/svg">
<g clip-path="url(#clip0_280_16541)">
<path d="M32 16C32 24.8365 24.8365 32 16 32C7.1635 32 0 24.8365 0 16C0 16.0038 16 0.00175 16 0C24.8365 0 32 7.1635 32 16Z" fill="#FFDA44"/>
<path d="M15.9997 7.65216V13.0486L10.4345 7.65216H15.9997Z" fill="#0052B4"/>
<path d="M8.34766 15.9999H13.0483L8.34766 9.73901L7.65203 14.6086L8.34766 15.9999Z" fill="#0052B4"/>
<path d="M15.9573 15.9998H16C16 15.9855 16 15.9715 16 15.9572C15.9858 15.9714 15.9716 15.9856 15.9573 15.9998Z" fill="#F0F0F0"/>
<path d="M16 8.34781C16 5.5325 16 3.68781 16 0H15.9973C7.16194 0.0015 0 7.16431 0 16H8.34781V11.2993L13.0485 16H15.9572C15.9715 15.9858 15.9858 15.9715 16.0001 15.9572C16.0001 14.8793 16.0001 13.9174 16.0001 13.0486L11.2992 8.34781H16Z" fill="#F0F0F0"/>
<path d="M16.0001 14.0322L10.3154 8.34766H8.34787V8.34778L15.9999 15.9998H16.0001C16.0001 15.9998 16.0001 14.6431 16.0001 14.0322Z" fill="#D80027"/>
<path d="M8.09476 2.08685C7.47794 2.4381 6.88701 2.82954 6.32501 3.25685H6.98151L5.24638 4.51773L5.90901 6.55754L4.17388 5.29692L3.98926 5.4311C3.26882 6.24923 2.63007 7.14098 2.08701 8.0946V15.9999H6.26094V6.26092V6.26079H16.0001C16.0001 4.94435 16.0001 3.69023 16.0001 2.08685H8.09476Z" fill="#D80027"/>
<path d="M6.83514 2.88458C6.66257 3.0054 6.49245 3.12958 6.32489 3.25702L5.24645 4.5179L4.17395 5.29702L3.98776 5.43227C3.59489 5.87852 3.22645 6.34677 2.88457 6.83508C3.27426 7.02421 3.7117 7.13052 4.17395 7.13052C5.80682 7.13052 7.13045 5.8069 7.13045 4.17402C7.13057 3.71165 7.02432 3.27433 6.83514 2.88458Z" fill="#0052B4"/>
<path d="M3.98776 5.43233L4.17395 5.29708L5.90908 6.55777L5.24639 4.51795L6.98139 3.25708H6.32476C5.47514 3.90327 4.6922 4.63227 3.98776 5.43233Z" fill="#FFDA44"/>
<path d="M11.0589 2.78265L11.4042 3.84547H12.5217L11.6177 4.5024L11.9629 5.56522L11.0589 4.90834L10.1548 5.56522L10.4999 4.5024L9.59587 3.84547H10.7134L11.0589 2.78265Z" fill="#FFDA44"/>
<path d="M4.17401 9.73914L4.51939 10.8019H5.63689L4.73289 11.4589L5.07808 12.5218L4.17401 11.8648L3.26989 12.5218L3.61508 11.4589L2.71107 10.8019H3.82858L4.17401 9.73914Z" fill="#FFDA44"/>
</g>
<defs>
<clipPath id="clip0_280_16541">
<rect width="32" height="32" fill="white"/>
</clipPath>
</defs>
</svg>
