<svg width="32" height="32" viewBox="0 0 32 32" fill="none" xmlns="http://www.w3.org/2000/svg">
<g clip-path="url(#clip0_280_16549)">
<path d="M32 16C32 24.8365 24.8365 32 16 32C7.1635 32 0 24.8365 0 16C0 16.0038 16 0.00175 16 0C24.8365 0 32 7.1635 32 16Z" fill="#0052B4"/>
<path d="M15.9572 15.9998H15.9998C15.9998 15.9855 15.9998 15.9715 15.9998 15.9572C15.9856 15.9714 15.9715 15.9856 15.9572 15.9998Z" fill="#F0F0F0"/>
<path d="M16 8.34781C16 5.5325 16 3.68781 16 0H15.9973C7.162 0.0015 0 7.16431 0 16H8.34781V11.2993L13.0486 16H15.9572C15.9715 15.9858 15.9858 15.9715 16.0001 15.9572C16.0001 14.8793 16.0001 13.9174 16.0001 13.0486L11.2992 8.34781H16Z" fill="#F0F0F0"/>
<path d="M8.09476 2.08685C5.59232 3.51179 3.51194 5.59217 2.08701 8.0946V15.9999H6.26094V6.26092V6.26079H16.0001C16.0001 4.94435 16.0001 3.69023 16.0001 2.08685H8.09476Z" fill="#D80027"/>
<path d="M16.0001 14.0322L10.3155 8.34766C10.3155 8.34766 8.34793 8.34778 8.34793 8.34766V8.34778L16 15.9998H16.0001C16.0001 15.9998 16.0001 14.6431 16.0001 14.0322Z" fill="#D80027"/>
<path d="M27.7081 11.8723L28.0534 12.9352H29.171L28.2668 13.5921L28.6122 14.6549L27.7081 13.9981L26.8039 14.6549L27.1493 13.5921L26.2451 12.9352H27.3627L27.7081 11.8723Z" fill="#D80027"/>
<path d="M23.7132 19.5244L24.2313 21.1188H25.9076L24.5514 22.104L25.0695 23.6984L23.7132 22.713L22.357 23.6984L22.8751 22.104L21.5189 21.1188H23.1952L23.7132 19.5244Z" fill="#D80027"/>
<path d="M23.8641 7.00275L24.2958 8.33143H25.6927L24.5625 9.15237L24.9942 10.481L23.8641 9.65981L22.7339 10.481L23.1656 9.15237L22.0355 8.33143H23.4324L23.8641 7.00275Z" fill="#D80027"/>
<path d="M20.0203 11.8259L20.5383 13.4203H22.2147L20.8584 14.4056L21.3766 15.9999L20.0203 15.0146L18.6641 15.9999L19.1822 14.4056L17.8259 13.4203H19.5022L20.0203 11.8259Z" fill="#D80027"/>
</g>
<defs>
<clipPath id="clip0_280_16549">
<rect width="32" height="32" fill="white"/>
</clipPath>
</defs>
</svg>
