<svg width="32" height="32" viewBox="0 0 32 32" fill="none" xmlns="http://www.w3.org/2000/svg">
<g clip-path="url(#clip0_280_16647)">
<path d="M16 32C24.8366 32 32 24.8366 32 16C32 7.16344 24.8366 0 16 0C7.16344 0 0 7.16344 0 16C0 24.8366 7.16344 32 16 32Z" fill="#F0F0F0"/>
<path d="M0 16.0001C0 22.0648 3.37438 27.3411 8.34781 30.0547V1.94556C3.37438 4.65918 0 9.93543 0 16.0001Z" fill="#D80027"/>
<path d="M31.0049 21.5652C31.648 19.8319 32 17.9572 32 16.0001C32 14.0429 31.648 12.1681 31.0049 10.4349H0.99525C0.352062 12.1681 0 14.0429 0 16.0001C0 17.9572 0.352062 19.8319 0.99525 21.5652L16 22.9566L31.0049 21.5652Z" fill="#D80027"/>
<path d="M15.9999 32.0001C22.8794 32.0001 28.7441 27.6581 31.0048 21.5653H0.995193C3.25582 27.6581 9.12057 32.0001 15.9999 32.0001Z" fill="#6DA544"/>
<path d="M0 16C0 23.3924 5.01381 29.6128 11.8261 31.4488V0.551147C5.01381 2.38715 0 8.60752 0 16Z" fill="#D80027"/>
<path d="M9.78863 7.041L8.31294 5.56531L7.32919 6.54918L6.34544 5.56531L4.86975 7.041L5.85357 8.02481L4.86963 9.00868L6.34532 10.4844L7.32913 9.5005L8.31294 10.4844L9.78863 9.00868L8.80482 8.02481L9.78863 7.041Z" fill="#F0F0F0"/>
</g>
<defs>
<clipPath id="clip0_280_16647">
<rect width="32" height="32" fill="white"/>
</clipPath>
</defs>
</svg>
