<svg width="32" height="32" viewBox="0 0 32 32" fill="none" xmlns="http://www.w3.org/2000/svg">
<g clip-path="url(#clip0_280_16530)">
<path d="M16 32C24.8366 32 32 24.8366 32 16C32 7.16344 24.8366 0 16 0C7.16344 0 0 7.16344 0 16C0 24.8366 7.16344 32 16 32Z" fill="#F0F0F0"/>
<path d="M0 16C0 24.8365 7.1635 32 16 32C16 25.9153 16 16 16 16C16 16 5.56519 16 0 16Z" fill="#0052B4"/>
<path d="M16 0C24.8365 0 32 7.1635 32 16C25.9153 16 16 16 16 16C16 16 16 5.56519 16 0Z" fill="#D80027"/>
<path d="M9.52421 5.56531L10.5603 8.75393H13.913L11.2006 10.7246L12.2366 13.9132L9.52421 11.9425L6.81183 13.9132L7.84783 10.7246L5.13546 8.75393H8.48814L9.52421 5.56531Z" fill="#0052B4"/>
<path d="M22.4758 18.0868L23.5118 21.2754H26.8645L24.1521 23.246L25.1882 26.4347L22.4758 24.464L19.7634 26.4347L20.7994 23.246L18.087 21.2754H21.4397L22.4758 18.0868Z" fill="#D80027"/>
</g>
<defs>
<clipPath id="clip0_280_16530">
<rect width="32" height="32" fill="white"/>
</clipPath>
</defs>
</svg>
