<svg width="32" height="32" viewBox="0 0 32 32" fill="none" xmlns="http://www.w3.org/2000/svg">
<g clip-path="url(#clip0_280_16527)">
<path d="M27.3136 27.3137C21.0652 33.5621 10.9346 33.5621 4.68606 27.3137C-1.56232 21.0653 -1.56232 10.9346 4.68612 4.68618C10.9345 -1.56219 20.0813 -0.578378 26.3297 5.67006C32.578 11.9184 33.5619 21.0653 27.3136 27.3137Z" fill="black"/>
<path d="M4.68637 4.68623C10.9347 -1.56215 21.0653 -1.56202 27.3138 4.68629C33.5622 10.9347 33.5622 21.0653 27.3138 27.3137" fill="#A2001D"/>
<path d="M12.2277 21.5652L12.4867 22.3624H13.3249L12.6467 22.855L12.9058 23.6522L12.2277 23.1595L11.5496 23.6522L11.8086 22.855L11.1305 22.3624H11.9686L12.2277 21.5652Z" fill="#F0F0F0"/>
<path d="M10.0871 13.913L10.519 15.2416H11.9158L10.7856 16.0627L11.2173 17.3913L10.0871 16.5701L8.95702 17.3913L9.38877 16.0627L8.25851 15.2416H9.65552L10.0871 13.913Z" fill="#F0F0F0"/>
<path d="M10.0871 23.6522L10.5188 24.9808H11.9158L10.7855 25.8018L11.2173 27.1305L10.0871 26.3093L8.95702 27.1305L9.38864 25.8018L8.25851 24.9808H9.65533L10.0871 23.6522Z" fill="#F0F0F0"/>
<path d="M14.1714 17.3912L14.6032 18.7199H16.0001L14.8699 19.5409L15.3016 20.8695L14.1714 20.0483L13.0412 20.8695L13.473 19.5409L12.3428 18.7199H13.7397L14.1714 17.3912Z" fill="#F0F0F0"/>
<path d="M6.0027 17.3912L6.43451 18.7199H7.83132L6.7012 19.5409L7.13282 20.8695L6.0027 20.0483L4.87251 20.8695L5.30432 19.5409L4.17407 18.7199H5.57101L6.0027 17.3912Z" fill="#F0F0F0"/>
<path d="M26.7842 11.8476C26.0691 11.1326 25.14 10.7101 24.1416 10.6376L27.1303 8.313C25.94 7.12269 24.3446 6.58513 22.7879 6.69881C22.6015 6.02906 22.2462 5.39644 21.7195 4.86975L20.539 7.23088C20.4615 7.08975 20.3635 6.95694 20.2438 6.83738C19.5646 6.15819 18.4635 6.15819 17.7843 6.83738C17.1052 7.51656 17.1051 8.61769 17.7843 9.29688C17.9039 9.41644 18.0368 9.5145 18.1779 9.592L15.8168 10.7726C16.3436 11.2994 16.9766 11.655 17.6468 11.8413C17.5327 13.398 18.0697 14.9931 19.2601 16.1835L21.8713 12.8261C22.0678 12.6327 22.3272 12.5259 22.6032 12.5259C22.882 12.5259 23.144 12.6344 23.341 12.8316C23.5381 13.0286 23.6467 13.2907 23.6467 13.5694C23.6467 13.8481 23.5381 14.1101 23.341 14.3073L24.3249 15.2911C24.7847 14.8313 25.038 14.2198 25.038 13.5694C25.038 13.0373 24.8683 12.5314 24.5549 12.1132C25.0115 12.2351 25.4431 12.474 25.8006 12.8316C26.8856 13.9165 26.8856 15.6819 25.8006 16.7667L26.7845 17.7506C27.5728 16.9622 28.007 15.9141 28.007 14.7992C28.0068 13.6841 27.5725 12.636 26.7842 11.8476Z" fill="#FFDA44"/>
</g>
<defs>
<clipPath id="clip0_280_16527">
<rect width="32" height="32" fill="white"/>
</clipPath>
</defs>
</svg>
