<svg width="32" height="32" viewBox="0 0 32 32" fill="none" xmlns="http://www.w3.org/2000/svg">
<g clip-path="url(#clip0_280_16524)">
<path d="M16 32C24.8366 32 32 24.8366 32 16C32 7.16344 24.8366 0 16 0C7.16344 0 0 7.16344 0 16C0 24.8366 7.16344 32 16 32Z" fill="#F0F0F0"/>
<path d="M16 0V16L4.68628 27.3137C7.58172 30.2091 11.5817 32 16 32C24.8365 32 32 24.8365 32 16C32 7.1635 16 0 16 0Z" fill="#D80027"/>
<path d="M16 0C11.5817 0 7.58172 1.79088 4.68628 4.68625C8.6119 8.61188 10.0055 10.0055 16 16H32C32 7.1635 24.8365 0 16 0Z" fill="#0052B4"/>
<path d="M10.9556 16.0001L9.00155 15.081L10.0421 13.1886L7.92024 13.5945L7.65136 11.4509L6.17336 13.0274L4.69542 11.4509L4.42649 13.5945L2.30467 13.1885L3.34524 15.081L1.39117 16.0001L3.34524 16.9192L2.30467 18.8117L4.42667 18.4058L4.69536 20.5493L6.17336 18.9728L7.65136 20.5493L7.92024 18.4058L10.042 18.8117L9.00149 16.9193L10.9556 16.0001Z" fill="#FFDA44"/>
<path d="M4.2668 6.26099L4.91705 7.16992L5.98237 6.83249L5.31874 7.73174L5.96899 8.64067L4.90862 8.28749L4.24505 9.18667L4.25337 8.06917L3.19305 7.71592L4.25855 7.37849L4.2668 6.26099Z" fill="#FFDA44"/>
<path d="M4.2668 22.8136L4.91705 23.7225L5.98237 23.385L5.31874 24.2843L5.96899 25.1933L4.90862 24.8401L4.24505 25.7393L4.25337 24.6218L3.19305 24.2685L4.25855 23.9311L4.2668 22.8136Z" fill="#FFDA44"/>
<path d="M13.5414 14.5374L12.8912 15.4463L11.8258 15.1087L12.4895 16.008L11.8392 16.917L12.8996 16.5638L13.5632 17.463L13.5548 16.3455L14.6151 15.9923L13.5497 15.6549L13.5414 14.5374Z" fill="#FFDA44"/>
</g>
<defs>
<clipPath id="clip0_280_16524">
<rect width="32" height="32" fill="white"/>
</clipPath>
</defs>
</svg>
