<svg width="32" height="32" viewBox="0 0 32 32" fill="none" xmlns="http://www.w3.org/2000/svg">
<g clip-path="url(#clip0_280_16532)">
<path d="M16 32C24.8366 32 32 24.8366 32 16C32 7.16344 24.8366 0 16 0C7.16344 0 0 7.16344 0 16C0 24.8366 7.16344 32 16 32Z" fill="#F0F0F0"/>
<path d="M0 16.0001C0 22.0648 3.37431 27.341 8.34781 30.0547V1.94556C3.37431 4.65924 0 9.93543 0 16.0001Z" fill="#F0F0F0"/>
<path d="M15.9999 0C13.2281 0 10.6209 0.705188 8.34775 1.94544V30.0545C10.6209 31.2948 13.2281 32 15.9999 32C24.8364 32 31.9999 24.8365 31.9999 16C31.9999 7.1635 24.8364 0 15.9999 0Z" fill="#496E2D"/>
<path d="M22.8408 18.6472C20.8166 20.1098 17.99 19.6545 16.5275 17.6304C15.0649 15.6061 15.5202 12.7796 17.5444 11.3171C18.1755 10.8611 18.8846 10.5915 19.606 10.4978C18.2181 10.2903 16.7509 10.603 15.5236 11.4898C13.0324 13.29 12.4719 16.7688 14.272 19.2602C16.072 21.7513 19.5509 22.3118 22.0423 20.5116C23.2697 19.6248 24.0273 18.3302 24.2659 16.9471C23.9505 17.6025 23.472 18.1912 22.8408 18.6472Z" fill="#F0F0F0"/>
<path d="M22.7541 10.4351L23.8944 11.6639L25.4154 10.9594L24.5989 12.4234L25.7391 13.6523L24.0944 13.3282L23.278 14.7924L23.0779 13.128L21.4332 12.8039L22.9542 12.0994L22.7541 10.4351Z" fill="#F0F0F0"/>
</g>
<defs>
<clipPath id="clip0_280_16532">
<rect width="32" height="32" fill="white"/>
</clipPath>
</defs>
</svg>
