<svg width="32" height="32" viewBox="0 0 32 32" fill="none" xmlns="http://www.w3.org/2000/svg">
<g clip-path="url(#clip0_280_16553)">
<path d="M16 32C24.8366 32 32 24.8366 32 16C32 7.16344 24.8366 0 16 0C7.16344 0 0 7.16344 0 16C0 24.8366 7.16344 32 16 32Z" fill="#F0F0F0"/>
<path d="M16 0C10.7655 0 6.11826 2.51394 3.19926 6.4H28.8006C25.8816 2.51394 21.2345 0 16 0Z" fill="#D80027"/>
<path d="M16 32C21.2345 32 25.8816 29.486 28.8006 25.6H3.19926C6.11826 29.486 10.7655 32 16 32Z" fill="#D80027"/>
<path d="M0 16C0 17.096 0.1105 18.1661 0.320437 19.2H31.6797C31.8896 18.1661 32 17.096 32 16C32 14.9041 31.8895 13.834 31.6796 12.8H0.320437C0.1105 13.834 0 14.9041 0 16Z" fill="#D80027"/>
<path d="M4.6861 4.68616C-1.56228 10.9345 -1.56228 21.0652 4.6861 27.3137C7.26816 24.7316 9.75147 22.2483 15.9998 15.9999L4.6861 4.68616Z" fill="#0052B4"/>
<path d="M6.47571 11.826L7.51165 15.0145H10.8645L8.15215 16.9853L9.18802 20.1739L6.47571 18.2032L3.76327 20.1739L4.7994 16.9853L2.08702 15.0145H5.43965L6.47571 11.826Z" fill="#F0F0F0"/>
</g>
<defs>
<clipPath id="clip0_280_16553">
<rect width="32" height="32" fill="white"/>
</clipPath>
</defs>
</svg>
