<svg width="32" height="32" viewBox="0 0 32 32" fill="none" xmlns="http://www.w3.org/2000/svg">
<g clip-path="url(#clip0_280_16529)">
<path d="M16 32C24.8366 32 32 24.8366 32 16C32 7.16344 24.8366 0 16 0C7.16344 0 0 7.16344 0 16C0 24.8366 7.16344 32 16 32Z" fill="#F0F0F0"/>
<path d="M9.73923 10.4348H31.0049C28.7442 4.342 22.8795 0 16.0001 0C11.5817 0 7.58217 1.79119 4.68692 4.68681L9.73923 10.4348Z" fill="black"/>
<path d="M9.73923 21.5653H31.0049C28.7442 27.6581 22.8795 32.0001 16.0001 32.0001C11.5817 32.0001 7.58217 30.2089 4.68692 27.3133L9.73923 21.5653Z" fill="#6DA544"/>
<path d="M4.6861 4.68616C-1.56228 10.9345 -1.56228 21.0652 4.6861 27.3137C7.26816 24.7316 9.75147 22.2483 15.9998 15.9999L4.6861 4.68616Z" fill="#D80027"/>
</g>
<defs>
<clipPath id="clip0_280_16529">
<rect width="32" height="32" fill="white"/>
</clipPath>
</defs>
</svg>
