<svg width="32" height="32" viewBox="0 0 32 32" fill="none" xmlns="http://www.w3.org/2000/svg">
<g clip-path="url(#clip0_280_16520)">
<path d="M0 15.9999C0 22.8793 4.342 28.744 10.4347 31.0047L11.8261 15.9999L10.4347 0.995117C4.342 3.25587 0 9.12049 0 15.9999Z" fill="#6DA544"/>
<path d="M32 16C32 7.1635 24.8365 0 16 0C14.0428 0 12.168 0.352063 10.4346 0.995188V31.0048C12.168 31.648 14.0428 32 16 32C24.8365 32 32 24.8365 32 16Z" fill="#D80027"/>
<path d="M10.4348 21.5651C13.5084 21.5651 16 19.0734 16 15.9999C16 12.9263 13.5084 10.4347 10.4348 10.4347C7.36122 10.4347 4.8696 12.9263 4.8696 15.9999C4.8696 19.0734 7.36122 21.5651 10.4348 21.5651Z" fill="#FFDA44"/>
<path d="M7.30443 13.2173V16.6955C7.30443 18.4244 8.70593 19.826 10.4349 19.826C12.1638 19.826 13.5653 18.4245 13.5653 16.6955V13.2173H7.30443Z" fill="#D80027"/>
<path d="M10.4347 17.7392C9.85928 17.7392 9.39116 17.2711 9.39116 16.6957V15.3044H11.4781V16.6958C11.4781 17.2711 11.01 17.7392 10.4347 17.7392Z" fill="#F0F0F0"/>
</g>
<defs>
<clipPath id="clip0_280_16520">
<rect width="32" height="32" fill="white"/>
</clipPath>
</defs>
</svg>
