<svg width="32" height="32" viewBox="0 0 32 32" fill="none" xmlns="http://www.w3.org/2000/svg">
<g clip-path="url(#clip0_280_16526)">
<path d="M16 32C24.8366 32 32 24.8366 32 16C32 7.16344 24.8366 0 16 0C7.16344 0 0 7.16344 0 16C0 24.8366 7.16344 32 16 32Z" fill="#F0F0F0"/>
<path d="M16.0001 0C9.65674 0 4.17574 3.69156 1.58774 9.0435H30.4124C27.8245 3.69156 22.3434 0 16.0001 0Z" fill="#D80027"/>
<path d="M16.0001 32.0001C22.3434 32.0001 27.8245 28.3085 30.4125 22.9565H1.58774C4.17574 28.3085 9.65674 32.0001 16.0001 32.0001Z" fill="#0052B4"/>
<path d="M19.9352 11.3691L18.4595 12.8448C19.0889 13.4743 19.4783 14.3438 19.4783 15.3043C19.4783 17.2253 17.921 18.7826 16 18.7826C14.0791 18.7826 12.5218 17.2253 12.5218 15.3043C12.5218 14.3438 12.9112 13.4743 13.5406 12.8448L12.0649 11.3691C11.0577 12.3761 10.4348 13.7675 10.4348 15.3043C10.4348 18.378 12.9265 20.8695 16 20.8695C19.0736 20.8695 21.5652 18.3779 21.5652 15.3043C21.5652 13.7675 20.9423 12.3761 19.9352 11.3691Z" fill="#6DA544"/>
<path d="M15.9999 13.2173L16.518 14.8117H18.1943L16.8381 15.7969L17.3562 17.3912L15.9999 16.4059L14.6437 17.3912L15.1617 15.7969L13.8055 14.8117H15.4819L15.9999 13.2173Z" fill="#FFDA44"/>
</g>
<defs>
<clipPath id="clip0_280_16526">
<rect width="32" height="32" fill="white"/>
</clipPath>
</defs>
</svg>
