<svg width="32" height="32" viewBox="0 0 32 32" fill="none" xmlns="http://www.w3.org/2000/svg">
<g clip-path="url(#clip0_5667_1709)">
<path d="M15.3976 0H16.5867L16.6039 0.00248698C16.8872 0.0414088 17.1942 0.0422464 17.4816 0.0678022C24.623 0.702688 30.5553 6.17767 31.765 13.2416C31.8366 13.6551 31.8928 14.0711 31.9336 14.4887C31.9553 14.7334 31.9622 15.0881 32 15.3199V16.6961L31.9972 16.7134C31.9581 16.9669 31.9547 17.3108 31.9292 17.5759C31.8719 18.1333 31.7869 18.6875 31.6742 19.2364C30.8769 23.0755 28.7023 26.4902 25.5609 28.8367C23.6103 30.2842 21.3567 31.2703 18.9697 31.7205C18.5073 31.8042 18.1148 31.8688 17.6498 31.9147C17.493 31.9302 16.8756 31.9706 16.7739 32H15.2538C15.1335 31.9684 14.5593 31.9339 14.3888 31.9172C13.914 31.8705 13.5218 31.8072 13.0504 31.7223C10.6645 31.2759 8.41123 30.2934 6.46056 28.8491C3.30306 26.5023 1.11926 23.0761 0.325213 19.223C0.210219 18.6806 0.132039 18.1133 0.0687836 17.5616C0.0370164 17.2845 0.0459203 16.9667 0.00285848 16.6881L0 16.6706V15.3791C0.0372808 15.2221 0.0420163 14.7078 0.0627422 14.5106C0.107158 14.0879 0.162223 13.6894 0.233186 13.2697C0.640384 10.8614 1.71855 8.32069 3.21153 6.37603C3.76172 5.65231 4.36742 4.97253 5.02314 4.34284C7.20236 2.30148 9.90733 0.907844 12.8345 0.318291C13.3726 0.208392 13.9535 0.130393 14.4999 0.0700108C14.7834 0.0386842 15.1008 0.0408397 15.3804 0.00248309L15.3976 0Z" fill="#0072F4"/>
<path d="M13.0155 6.38706C14.5252 6.31828 16.208 6.41559 17.7319 6.376C18.2682 6.3705 18.7745 6.38097 19.3088 6.44637C24.6683 7.10284 26.8893 13.6523 23.1079 17.4694C21.1171 19.479 19.2191 19.3209 16.6319 19.3084C16.5521 20.4271 16.3177 21.604 16.1286 22.7113C16.0249 23.3185 15.9894 24.437 15.6549 24.9089C15.33 25.3293 15.0381 25.4767 14.4907 25.4788C13.9361 25.4808 13.381 25.4702 12.8261 25.472L11.2513 25.4779C10.6402 25.4799 9.82862 25.5655 9.41225 25.0223C9.26253 24.8253 9.1764 24.5875 9.16531 24.3403C9.14997 23.9846 9.24165 23.4912 9.2824 23.1254C9.37884 22.2593 9.51669 21.4221 9.66034 20.564C9.94365 18.9365 10.1975 17.3039 10.4218 15.6672C10.249 15.6844 10.0459 15.6795 9.86909 15.6819C8.902 15.6949 7.89181 15.8416 7.94103 14.5035C8.48459 13.8718 8.40059 13.8577 9.34144 13.8622C9.79422 13.8643 10.283 13.8678 10.7387 13.8715C10.781 13.2969 10.9021 12.5312 10.9735 11.9404C10.4943 11.9371 9.01056 12.0532 8.80131 11.6971C7.628 9.70047 10.5478 10.1279 11.3002 10.1216C11.3315 9.61803 11.4433 8.99406 11.5218 8.49115C11.6913 7.40406 11.6752 6.51815 13.0155 6.38706Z" fill="#FEFEFE"/>
<path d="M13.4111 8.25305L16.9736 8.24945C17.7201 8.24908 18.596 8.21158 19.3248 8.31377C21.695 8.64605 23.4914 11.0346 23.1337 13.4115C23.0008 14.3407 22.5825 15.2056 21.9367 15.8867C19.5465 18.4115 16.5531 16.8006 15.4052 17.6663C15.2166 17.8085 15.1213 17.9659 15.0433 18.1867C14.8947 18.6076 14.8624 19.0921 14.7876 19.5321C14.5648 20.8427 14.3919 22.1557 14.2078 23.4719C13.7029 23.4925 13.1787 23.4848 12.6719 23.4837L11.0472 23.4854C11.0894 23.0401 11.2429 22.3398 11.3113 21.8579C11.6077 19.7726 11.9586 17.6776 12.2602 15.5929C14.243 15.6148 16.2378 15.5868 18.2231 15.598C19.1407 15.6259 19.8158 15.4208 20.4765 14.7611C21.5629 13.6765 21.4986 11.8987 20.4034 10.8476C20.0835 10.5407 19.6875 10.3245 19.2562 10.2215C18.6882 10.0854 17.3044 10.1146 16.6512 10.1114C15.527 10.106 14.3037 10.0583 13.186 10.0811C13.2776 9.58992 13.3685 8.75139 13.4111 8.25305Z" fill="#0072F4"/>
<path d="M12.8453 11.8821C14.1496 11.9 15.454 11.9084 16.7584 11.9072C17.3307 11.909 17.9072 11.9012 18.4779 11.9227C18.8237 11.9357 19.032 11.9929 19.2265 12.292C19.6032 12.8714 19.4705 13.2957 18.9243 13.6664C18.476 13.8897 16.8306 13.8159 16.2389 13.8156C15 13.8198 13.761 13.8158 12.5222 13.8036C12.7187 13.258 12.7841 12.465 12.8453 11.8821Z" fill="#0072F4"/>
</g>
<defs>
<clipPath id="clip0_5667_1709">
<rect width="32" height="32" fill="white"/>
</clipPath>
</defs>
</svg>
