<svg width="32" height="32" viewBox="0 0 32 32" fill="none" xmlns="http://www.w3.org/2000/svg">
<g clip-path="url(#clip0_280_16562)">
<path d="M16 32C24.8366 32 32 24.8366 32 16C32 7.16344 24.8366 0 16 0C7.16344 0 0 7.16344 0 16C0 24.8366 7.16344 32 16 32Z" fill="#F0F0F0"/>
<path d="M16 0C7.1635 0 0 7.1635 0 16C0 17.9571 0.352063 19.8319 0.995188 21.5652H31.0049C31.648 19.8319 32 17.9571 32 16C32 7.1635 24.8365 0 16 0Z" fill="#0052B4"/>
<path d="M16 0C9.12052 0 3.25584 4.342 0.995148 10.4348H31.0048C28.7441 4.342 22.8794 0 16 0Z" fill="#D80027"/>
<path d="M4.13734 9.04346V17.0251C4.13734 21.5653 10.0687 22.9565 10.0687 22.9565C10.0687 22.9565 15.9999 21.5653 15.9999 17.0251V9.04346H4.13734Z" fill="#D80027"/>
<path d="M6.59039 10.4347H13.547V7.65205L12.1556 8.34768L10.0687 6.26074L7.9817 8.34768L6.59039 7.65205V10.4347Z" fill="#FFDA44"/>
<path d="M14.6087 18.1364L10.087 13.6146L5.5652 18.1364L7.04089 19.6121L10.087 16.566L13.133 19.6121L14.6087 18.1364Z" fill="#FFDA44"/>
<path d="M14.6087 13.9131H12.499C12.6176 13.7084 12.6866 13.4712 12.6866 13.2176C12.6866 12.4491 12.0636 11.8263 11.2953 11.8263C10.7643 11.8263 10.3033 12.1237 10.0687 12.5609C9.83414 12.1237 9.37308 11.8263 8.84214 11.8263C8.07376 11.8263 7.45083 12.4491 7.45083 13.2176C7.45083 13.4712 7.51983 13.7084 7.63845 13.9131H5.5652C5.5652 14.6815 6.23451 15.3044 7.00283 15.3044H6.95651C6.95651 16.0729 7.57939 16.6957 8.34783 16.6957C8.34783 17.3761 8.83645 17.9414 9.48176 18.0624L8.38551 20.5375C8.91089 20.751 9.48501 20.8697 10.087 20.8697C10.689 20.8697 11.2631 20.751 11.7885 20.5375L10.6923 18.0624C11.3376 17.9415 11.8262 17.3762 11.8262 16.6957C12.5946 16.6957 13.2175 16.0729 13.2175 15.3044H13.1712C13.9395 15.3044 14.6087 14.6815 14.6087 13.9131Z" fill="#F0F0F0"/>
</g>
<defs>
<clipPath id="clip0_280_16562">
<rect width="32" height="32" fill="white"/>
</clipPath>
</defs>
</svg>
