<svg width="32" height="32" viewBox="0 0 32 32" fill="none" xmlns="http://www.w3.org/2000/svg">
<g clip-path="url(#clip0_280_16544)">
<path d="M16 32C24.8366 32 32 24.8366 32 16C32 7.16344 24.8366 0 16 0C7.16344 0 0 7.16344 0 16C0 24.8366 7.16344 32 16 32Z" fill="#F0F0F0"/>
<path d="M31.0048 21.5651C31.648 19.8318 32 17.957 32 15.9999C32 14.0428 31.648 12.168 31.0048 10.4347H0.995188C0.352063 12.168 0 14.0428 0 15.9999C0 17.957 0.352063 19.8318 0.995188 21.5651L16 22.9564L31.0048 21.5651Z" fill="#0052B4"/>
<path d="M16 32.0001C22.8794 32.0001 28.7441 27.6581 31.0048 21.5653H0.995148C3.25584 27.6581 9.12052 32.0001 16 32.0001Z" fill="#D80027"/>
</g>
<defs>
<clipPath id="clip0_280_16544">
<rect width="32" height="32" fill="white"/>
</clipPath>
</defs>
</svg>
