<svg width="32" height="32" viewBox="0 0 32 32" fill="none" xmlns="http://www.w3.org/2000/svg">
<g clip-path="url(#clip0_280_16692)">
<path d="M0 16.0001C0 18.772 0.705188 21.3791 1.94544 23.6523L16 25.0436L30.0546 23.6523C31.2948 21.3791 32 18.772 32 16.0001L16 14.6088L0 16.0001Z" fill="#FFDA44"/>
<path d="M30.0546 8.34781C27.3409 3.37431 22.0647 0 16 0C9.93531 0 4.65912 3.37431 1.94544 8.34781C0.705188 10.621 0 13.2281 0 16H32C32 13.2281 31.2948 10.621 30.0546 8.34781Z" fill="#338AF3"/>
<path d="M15.9999 32.0002C22.0646 32.0002 27.3407 28.6258 30.0544 23.6523H1.9453C4.65898 28.6258 9.93517 32.0002 15.9999 32.0002Z" fill="#496E2D"/>
<path d="M18.087 9.3637L20.0411 10.2829L19.0005 12.1754L21.1224 11.7695L21.3913 13.913L22.8692 12.3365L24.3472 13.913L24.616 11.7695L26.7378 12.1753L25.6974 10.2828L27.6513 9.3637L25.6973 8.44464L26.7378 6.55214L24.616 6.95801L24.3471 4.81458L22.8692 6.39108L21.3912 4.81458L21.1224 6.95801L19.0005 6.55214L20.041 8.4447L18.087 9.3637Z" fill="#FFDA44"/>
</g>
<defs>
<clipPath id="clip0_280_16692">
<rect width="32" height="32" fill="white"/>
</clipPath>
</defs>
</svg>
