<svg width="32" height="32" viewBox="0 0 32 32" fill="none" xmlns="http://www.w3.org/2000/svg">
<g clip-path="url(#clip0_280_16514)">
<path d="M16 32C24.8366 32 32 24.8366 32 16C32 7.16344 24.8366 0 16 0C7.16344 0 0 7.16344 0 16C0 24.8366 7.16344 32 16 32Z" fill="#6DA544"/>
<path d="M9.04333 19.1306C9.04333 20.2832 9.97771 21.2175 11.1303 21.2175H17.3911C17.3911 22.178 18.1698 22.9567 19.1303 22.9567H21.2172C22.1777 22.9567 22.9563 22.178 22.9563 21.2175V19.1306H9.04333Z" fill="#F0F0F0"/>
<path d="M23.1305 9.04358V13.9131C23.1305 14.6803 22.5064 15.3045 21.7392 15.3045V17.3914C23.6571 17.3914 25.2174 15.831 25.2174 13.9131V9.04358H23.1305Z" fill="#F0F0F0"/>
<path d="M8.17397 13.914C8.17397 14.6812 7.54984 15.3053 6.78265 15.3053V17.3923C8.70059 17.3923 10.2609 15.8319 10.2609 13.914V9.04443H8.17397V13.914Z" fill="#F0F0F0"/>
<path d="M22.0869 9.04358H20V13.9131H22.0869V9.04358Z" fill="#F0F0F0"/>
<path d="M16.8694 11.8261C16.8694 12.0179 16.7134 12.1739 16.5216 12.1739C16.3299 12.1739 16.1738 12.0178 16.1738 11.8261V9.04346H14.0869V11.8261C14.0869 12.0179 13.9308 12.1739 13.7391 12.1739C13.5473 12.1739 13.3913 12.0178 13.3913 11.8261V9.04346H11.3043V11.8261C11.3043 13.1686 12.3965 14.2609 13.7391 14.2609C14.2561 14.2609 14.7356 14.0984 15.1304 13.8224C15.5251 14.0983 16.0046 14.2609 16.5217 14.2609C16.6258 14.2609 16.7282 14.2536 16.8289 14.2408C16.681 14.8501 16.1323 15.3043 15.4782 15.3043V17.3913C17.3961 17.3913 18.9565 15.8309 18.9565 13.913V11.8261V9.04346H16.8695V11.8261H16.8694Z" fill="#F0F0F0"/>
<path d="M14.4347 15.3044H11.3043V17.3914H14.4347V15.3044Z" fill="#F0F0F0"/>
</g>
<defs>
<clipPath id="clip0_280_16514">
<rect width="32" height="32" fill="white"/>
</clipPath>
</defs>
</svg>
