<svg width="32" height="32" viewBox="0 0 32 32" fill="none" xmlns="http://www.w3.org/2000/svg">
<g clip-path="url(#clip0_280_16509)">
<path d="M27.3142 27.3141C33.3149 21.3135 33.5518 11.7332 28.0275 5.44824L16 15.9999L5.4483 28.0275C11.7332 33.5518 21.3135 33.3148 27.3142 27.3141Z" fill="#496E2D"/>
<path d="M4.68631 4.68587C10.687 -1.31481 20.2673 -1.55175 26.5522 3.97256L16.0004 16.0002L3.97306 26.5518C-1.5513 20.2668 -1.3143 10.6865 4.68631 4.68587Z" fill="#0052B4"/>
<path d="M26.5515 3.97253L3.97238 26.5517C4.20063 26.8114 4.43763 27.0662 4.68569 27.3141C4.93369 27.5621 5.1885 27.7991 5.44825 28.0275L28.0273 5.44828C27.799 5.18853 27.562 4.93378 27.3139 4.68572C27.066 4.43785 26.8112 4.20078 26.5515 3.97253Z" fill="#FFDA44"/>
<path d="M6.74125 5.56482L7.08669 6.62775H8.20425L7.30013 7.28456L7.64544 8.3475L6.74125 7.69056L5.83707 8.3475L6.18251 7.28456L5.27832 6.62775H6.39594L6.74125 5.56482Z" fill="#F0F0F0"/>
<path d="M12.4499 5.56482L12.7953 6.62775H13.9128L13.0087 7.28456L13.354 8.3475L12.4499 7.69056L11.5457 8.3475L11.8911 7.28456L10.9869 6.62775H12.1045L12.4499 5.56482Z" fill="#F0F0F0"/>
<path d="M6.74125 11.1302L7.08669 12.1932H8.20425L7.30013 12.8501L7.64544 13.913L6.74125 13.2561L5.83707 13.913L6.18251 12.8501L5.27832 12.1932H6.39594L6.74125 11.1302Z" fill="#F0F0F0"/>
<path d="M12.4499 11.1302L12.7953 12.1932H13.9128L13.0087 12.8501L13.354 13.913L12.4499 13.2561L11.5457 13.913L11.8911 12.8501L10.9869 12.1932H12.1045L12.4499 11.1302Z" fill="#F0F0F0"/>
<path d="M9.59572 8.34753L9.94116 9.41047H11.0587L10.1545 10.0673L10.4999 11.1303L9.59572 10.4733L8.69153 11.1303L9.03691 10.0673L8.13272 9.41047H9.25035L9.59572 8.34753Z" fill="#F0F0F0"/>
</g>
<defs>
<clipPath id="clip0_280_16509">
<rect width="32" height="32" fill="white"/>
</clipPath>
</defs>
</svg>
