<svg width="32" height="32" viewBox="0 0 32 32" fill="none" xmlns="http://www.w3.org/2000/svg">
<g clip-path="url(#clip0_280_16620)">
<path d="M16 32C24.8366 32 32 24.8366 32 16C32 7.16344 24.8366 0 16 0C7.16344 0 0 7.16344 0 16C0 24.8366 7.16344 32 16 32Z" fill="#F0F0F0"/>
<path d="M26.8006 4.19606C23.9543 1.59031 20.163 0 16 0C15.3185 0 14.647 0.0429375 13.9878 0.125625L6.26091 9.0435L0.506348 20.0082C0.878098 21.4495 1.44647 22.8116 2.17979 24.0655L16 16L26.8006 4.19606Z" fill="#FFDA44"/>
<path d="M29.3207 24.8647L6.93523 29.1847C9.51204 30.9598 12.6344 31.9999 16 31.9999C21.5576 31.9999 26.4525 29.1659 29.3207 24.8647Z" fill="#6DA544"/>
<path d="M26.8027 4.19824L2.18881 24.0811C2.83262 25.1791 3.60344 26.1935 4.48137 27.1041L31.9999 16.0001C31.9999 11.3276 29.9967 7.12337 26.8027 4.19824Z" fill="#D80027"/>
<path d="M0 15.9994C0 17.3836 0.175875 18.7266 0.506312 20.0076L13.9878 0.125C6.10112 1.11463 0 7.84438 0 15.9994Z" fill="#0052B4"/>
</g>
<defs>
<clipPath id="clip0_280_16620">
<rect width="32" height="32" fill="white"/>
</clipPath>
</defs>
</svg>
