<svg width="32" height="32" viewBox="0 0 32 32" fill="none" xmlns="http://www.w3.org/2000/svg">
<g clip-path="url(#clip0_280_16512)">
<path d="M16 32C24.8366 32 32 24.8366 32 16C32 7.16344 24.8366 0 16 0C7.16344 0 0 7.16344 0 16C0 24.8366 7.16344 32 16 32Z" fill="#F0F0F0"/>
<path d="M0 16.0001C0 7.1635 7.1635 0 16 0C24.8365 0 32 7.1635 32 16.0001" fill="#D80027"/>
<path d="M9.739 8.34765C9.739 6.01652 11.3773 4.06915 13.5651 3.59134C13.2288 3.51796 12.88 3.47815 12.5216 3.47815C9.83213 3.47815 7.652 5.65828 7.652 8.34771C7.652 11.0372 9.83213 13.2173 12.5216 13.2173C12.8799 13.2173 13.2288 13.1775 13.5651 13.104C11.3773 12.6262 9.739 10.6788 9.739 8.34765Z" fill="#F0F0F0"/>
<path d="M15.9999 3.82605L16.3453 4.88886H17.4628L16.5587 5.5458L16.904 6.60861L15.9999 5.9518L15.0958 6.60861L15.4412 5.5458L14.537 4.88886H15.6545L15.9999 3.82605Z" fill="#F0F0F0"/>
<path d="M13.2888 5.91284L13.6341 6.97572H14.7517L13.8476 7.63259L14.193 8.6954L13.2888 8.03859L12.3846 8.6954L12.73 7.63259L11.8258 6.97572H12.9434L13.2888 5.91284Z" fill="#F0F0F0"/>
<path d="M18.7109 5.91284L19.0563 6.97572H20.1738L19.2696 7.63259L19.6151 8.6954L18.7109 8.03859L17.8068 8.6954L18.1521 7.63259L17.248 6.97572H18.3655L18.7109 5.91284Z" fill="#F0F0F0"/>
<path d="M17.6674 9.04333L18.0128 10.1062H19.1303L18.2262 10.7631L18.5715 11.8259L17.6674 11.1691L16.7633 11.8259L17.1087 10.7631L16.2045 10.1062H17.322L17.6674 9.04333Z" fill="#F0F0F0"/>
<path d="M14.3325 9.04333L14.6778 10.1062H15.7954L14.8912 10.7631L15.2366 11.8259L14.3325 11.1691L13.4283 11.8259L13.7736 10.7631L12.8695 10.1062H13.9871L14.3325 9.04333Z" fill="#F0F0F0"/>
</g>
<defs>
<clipPath id="clip0_280_16512">
<rect width="32" height="32" fill="white"/>
</clipPath>
</defs>
</svg>
