<svg width="32" height="32" viewBox="0 0 32 32" fill="none" xmlns="http://www.w3.org/2000/svg">
<g clip-path="url(#clip0_280_16689)">
<path d="M16 32C24.8366 32 32 24.8366 32 16C32 7.16344 24.8366 0 16 0C7.16344 0 0 7.16344 0 16C0 24.8366 7.16344 32 16 32Z" fill="#F0F0F0"/>
<path d="M16 32C24.8365 32 32 24.8365 32 16C32 14.0429 31.648 12.1681 31.0048 10.4348H0.995188C0.352063 12.1681 0 14.0429 0 16C0 24.8365 7.1635 32 16 32Z" fill="#0052B4"/>
<path d="M16.0002 32C22.8796 32 28.7443 27.658 31.005 21.5652H0.995342C3.25603 27.658 9.12072 32 16.0002 32Z" fill="#D80027"/>
<path d="M4.13728 9.04346V17.0251C4.13728 21.5653 10.0686 22.9565 10.0686 22.9565C10.0686 22.9565 15.9998 21.5653 15.9998 17.0251V9.04346H4.13728Z" fill="#F0F0F0"/>
<path d="M5.52866 9.04346V17.0251C5.52866 17.5581 5.64704 18.0615 5.88154 18.5334C8.20866 18.5334 11.6869 18.5334 14.2557 18.5334C14.4902 18.0615 14.6086 17.5581 14.6086 17.0251V9.04346H5.52866Z" fill="#D80027"/>
<path d="M12.8511 14.6087H10.7642V13.2174H12.1555V11.8261H10.7642V10.4348H9.37291V11.8261H7.98166V13.2174H9.37291V14.6087H7.28591V16H9.37291V17.3913H10.7642V16H12.8511V14.6087Z" fill="#F0F0F0"/>
<path d="M7.77951 20.4757C8.67607 21.0392 9.5972 21.3663 10.0688 21.5118C10.5403 21.3664 11.4614 21.0392 12.358 20.4757C13.2621 19.9075 13.8959 19.2576 14.2558 18.5336C13.8589 18.2527 13.3746 18.0871 12.8514 18.0871C12.6609 18.0871 12.4758 18.1097 12.2979 18.1511C11.9208 17.2944 11.0649 16.6958 10.0688 16.6958C9.07276 16.6958 8.21676 17.2944 7.83976 18.1511C7.66182 18.1097 7.4767 18.0871 7.28626 18.0871C6.76307 18.0871 6.27876 18.2527 5.88182 18.5336C6.24151 19.2576 6.87532 19.9074 7.77951 20.4757Z" fill="#0052B4"/>
</g>
<defs>
<clipPath id="clip0_280_16689">
<rect width="32" height="32" fill="white"/>
</clipPath>
</defs>
</svg>
