<svg width="32" height="32" viewBox="0 0 32 32" fill="none" xmlns="http://www.w3.org/2000/svg">
<g clip-path="url(#clip0_280_16528)">
<path d="M31.0048 21.5651C31.648 19.8318 32 17.9571 32 16C32 14.0428 31.648 12.1681 31.0048 10.4348L16 9.04346L0.995188 10.4348C0.352 12.1681 0 14.0428 0 16C0 17.9571 0.352 19.8318 0.995188 21.5651L16 22.9565L31.0048 21.5651Z" fill="#F0F0F0"/>
<path d="M16 31.9999C22.8793 31.9999 28.7441 27.6579 31.0047 21.5651H0.995079C3.25583 27.6579 9.12045 31.9999 16 31.9999Z" fill="#338AF3"/>
<path d="M16 0C9.12045 0 3.25583 4.342 0.995079 10.4348H31.0048C28.7441 4.342 22.8793 0 16 0Z" fill="#6DA544"/>
</g>
<defs>
<clipPath id="clip0_280_16528">
<rect width="32" height="32" fill="white"/>
</clipPath>
</defs>
</svg>
