<svg width="32" height="32" viewBox="0 0 32 32" fill="none" xmlns="http://www.w3.org/2000/svg">
<g clip-path="url(#clip0_280_16516)">
<path d="M32 16.0001C32 24.8366 24.8365 32.0001 16 32.0001C7.1635 32.0001 0 24.8366 0 16.0001C0.695625 16.0001 16 13.9132 16 13.9132L32 16.0001Z" fill="#338AF3"/>
<path d="M0 16C0 7.1635 7.1635 0 16 0C24.8365 0 32 7.1635 32 16" fill="#F0F0F0"/>
<path d="M22.351 11.0403L16 17.3913L9.64897 11.0403C8.82766 12.2595 8.34785 13.7269 8.34785 15.3043V17.3913C8.34785 20.7423 10.5132 23.5968 13.518 24.63C13.1169 25.416 13.1845 26.397 13.7722 27.1304C14.5527 26.5048 15.3608 25.8573 16.0463 25.308C16.7318 25.8573 17.5399 26.5049 18.3203 27.1304C18.9149 26.3884 18.9777 25.3928 18.5608 24.6022C21.5245 23.5465 23.6521 20.7129 23.6521 17.3913V15.3044C23.6522 13.7269 23.1723 12.2595 22.351 11.0403Z" fill="#6DA544"/>
<path d="M16.0001 22.9565C12.9314 22.9565 10.4349 20.4599 10.4349 17.3913V15.3043C10.4349 12.2356 12.9314 9.73914 16.0001 9.73914C19.0687 9.73914 21.5653 12.2357 21.5653 15.3043V17.3913C21.5653 20.4599 19.0688 22.9565 16.0001 22.9565Z" fill="#FFDA44"/>
<path d="M19.4781 17.3912V15.3043C19.4781 13.3864 17.9178 11.826 15.9999 11.826C14.082 11.826 12.5216 13.3864 12.5216 15.3043V17.3912L15.9999 18.0869L19.4781 17.3912Z" fill="#338AF3"/>
<path d="M12.5216 17.3914C12.5216 19.3093 14.082 20.8696 15.9999 20.8696C17.9178 20.8696 19.4781 19.3092 19.4781 17.3914H12.5216Z" fill="#6DA544"/>
<path d="M20.1739 9.73907C20.1739 8.58651 19.2395 7.65213 18.0869 7.65213C17.5522 7.65213 17.0649 7.85338 16.6956 8.18394V6.95644H17.3912V5.56513H16.6956V4.86951H15.3043V5.56513H14.6087V6.95644H15.3043V8.18394C14.935 7.85338 14.4476 7.65213 13.913 7.65213C12.7604 7.65213 11.826 8.58651 11.826 9.73907C11.826 10.357 12.0949 10.912 12.5217 11.2942V12.5217H19.4782V11.2942C19.905 10.912 20.1739 10.357 20.1739 9.73907Z" fill="#FFDA44"/>
</g>
<defs>
<clipPath id="clip0_280_16516">
<rect width="32" height="32" fill="white"/>
</clipPath>
</defs>
</svg>
