<svg width="32" height="32" viewBox="0 0 32 32" fill="none" xmlns="http://www.w3.org/2000/svg">
<g clip-path="url(#clip0_280_16513)">
<path d="M22.9566 1.58763C20.8531 0.5705 18.4932 0 16.0001 0C13.507 0 11.1471 0.5705 9.0436 1.58763L7.65228 16L9.0436 30.4124C11.1471 31.4295 13.507 32 16.0001 32C18.4932 32 20.8531 31.4295 22.9566 30.4124L24.3479 16L22.9566 1.58763Z" fill="#FFDA44"/>
<path d="M16 10.4347L17.3812 14.6859H21.8517L18.2352 17.3136L19.6165 21.5651L16 18.9376L12.3834 21.5651L13.765 17.3136L10.1485 14.6859H14.6186L16 10.4347Z" fill="#496E2D"/>
<path d="M9.0435 1.58801C3.69163 4.17595 0 9.65651 0 15.9998C0 22.3431 3.69163 27.8237 9.0435 30.4116V1.58801Z" fill="#496E2D"/>
<path d="M22.9563 1.58801V30.4116C28.3082 27.8237 31.9998 22.3431 31.9998 15.9998C31.9998 9.65651 28.3082 4.17595 22.9563 1.58801Z" fill="#D80027"/>
</g>
<defs>
<clipPath id="clip0_280_16513">
<rect width="32" height="32" fill="white"/>
</clipPath>
</defs>
</svg>
