<svg width="32" height="32" viewBox="0 0 32 32" fill="none" xmlns="http://www.w3.org/2000/svg">
<g clip-path="url(#clip0_280_16503)">
<path d="M16 32C24.8366 32 32 24.8366 32 16C32 7.16344 24.8366 0 16 0C7.16344 0 0 7.16344 0 16C0 24.8366 7.16344 32 16 32Z" fill="#F0F0F0"/>
<path d="M31.0047 10.4347H0.995125C0.352063 12.1681 0 14.0428 0 15.9999C0 17.957 0.352063 19.8318 0.995125 21.5651H31.0048C31.648 19.8318 32 17.957 32 15.9999C32 14.0428 31.648 12.1681 31.0047 10.4347Z" fill="#A2001D"/>
<path d="M16.0463 31.9999C21.5265 31.9999 26.3625 29.2442 29.2461 25.0435H2.84665C5.73027 29.2442 10.5661 31.9999 16.0463 31.9999Z" fill="#6DA544"/>
<path d="M16.0463 0.00012207C21.5265 0.00012207 26.3625 2.75587 29.2461 6.95662H2.84665C5.73027 2.75587 10.5661 0.00012207 16.0463 0.00012207Z" fill="#6DA544"/>
<path d="M16.0001 10.4347L17.3814 14.6859H21.8517L18.2352 17.3137L19.6167 21.5651L16.0001 18.9376L12.3835 21.5651L13.765 17.3137L10.1485 14.6859H14.6188L16.0001 10.4347Z" fill="#FFDA44"/>
</g>
<defs>
<clipPath id="clip0_280_16503">
<rect width="32" height="32" fill="white"/>
</clipPath>
</defs>
</svg>
