<svg width="32" height="32" viewBox="0 0 32 32" fill="none" xmlns="http://www.w3.org/2000/svg">
<g clip-path="url(#clip0_280_16556)">
<path d="M16 32C24.8366 32 32 24.8366 32 16C32 7.16344 24.8366 0 16 0C7.16344 0 0 7.16344 0 16C0 24.8366 7.16344 32 16 32Z" fill="#F0F0F0"/>
<path d="M30.7519 9.79706C28.3289 4.04138 22.6369 0 16.0001 0C11.5817 0 7.58217 1.79119 4.68692 4.68681L8.6938 9.79706H30.7519Z" fill="black"/>
<path d="M8.73923 22.1449L4.68692 27.3131C7.58217 30.2087 11.5817 31.9999 16.0001 31.9999C22.6592 31.9999 28.3675 27.9315 30.7766 22.1449H8.73923Z" fill="#496E2D"/>
<path d="M3.47812 11.7681V20.1738H31.4487C31.8076 18.8431 31.9999 17.4441 31.9999 15.9999C31.9999 14.5348 31.8025 13.1161 31.4336 11.7681H3.47812Z" fill="#A2001D"/>
<path d="M4.6861 4.68616C-1.56228 10.9345 -1.56228 21.0652 4.6861 27.3137C7.26816 24.7316 9.75147 22.2483 15.9998 15.9999L4.6861 4.68616Z" fill="#0052B4"/>
<path d="M5.21148 12.022L7.16429 14.747L10.3598 13.7317L8.3716 16.4313L10.3244 19.1565L7.14266 18.0998L5.15441 20.7993L5.17629 17.4466L1.99442 16.3898L5.18966 15.3745L5.21148 12.022Z" fill="#FFDA44"/>
</g>
<defs>
<clipPath id="clip0_280_16556">
<rect width="32" height="32" fill="white"/>
</clipPath>
</defs>
</svg>
