<svg width="32" height="32" viewBox="0 0 32 32" fill="none" xmlns="http://www.w3.org/2000/svg">
<g clip-path="url(#clip0_280_16671)">
<path d="M16 32C24.8366 32 32 24.8366 32 16C32 7.16344 24.8366 0 16 0C7.16344 0 0 7.16344 0 16C0 24.8366 7.16344 32 16 32Z" fill="#F0F0F0"/>
<path d="M16.0001 0C9.65677 0 4.17577 3.69156 1.58777 9.0435H30.4125C27.8245 3.69156 22.3435 0 16.0001 0Z" fill="#0052B4"/>
<path d="M16.0001 32C22.3435 32 27.8245 28.3085 30.4125 22.9565H1.58777C4.17577 28.3085 9.65677 32 16.0001 32Z" fill="#0052B4"/>
<path d="M12.7869 16.6957L16 11.1305L19.2131 16.6957H12.7869Z" fill="#FFDA44"/>
<path d="M20.1739 18.5332L16 20.6202L11.826 18.5332V15.7506H20.1739V18.5332Z" fill="#6DA544"/>
<path d="M19.9352 11.3691L18.4595 12.8448C19.089 13.4743 19.4783 14.3438 19.4783 15.3043C19.4783 17.2253 17.921 18.7826 16.0001 18.7826C14.0792 18.7826 12.5218 17.2253 12.5218 15.3043C12.5218 14.3438 12.9112 13.4743 13.5407 12.8448L12.065 11.3691C11.0578 12.3761 10.4349 13.7675 10.4349 15.3043C10.4349 18.3779 12.9265 20.8695 16.0001 20.8695C19.0737 20.8695 21.5653 18.3779 21.5653 15.3043C21.5652 13.7675 20.9423 12.3761 19.9352 11.3691Z" fill="#FFDA44"/>
</g>
<defs>
<clipPath id="clip0_280_16671">
<rect width="32" height="32" fill="white"/>
</clipPath>
</defs>
</svg>
