<svg width="32" height="32" viewBox="0 0 32 32" fill="none" xmlns="http://www.w3.org/2000/svg">
<g clip-path="url(#clip0_280_16511)">
<path d="M14.6087 17.3913C14.6087 17.3913 4.69563 4.68406 4.68626 4.68631C7.58163 1.79088 11.5817 0 16 0C24.8365 0 32 7.1635 32 16L14.6087 17.3913Z" fill="#D80027"/>
<path d="M14.6087 16C14.6087 16 4.69563 27.3159 4.68626 27.3137C7.58163 30.2091 11.5817 32 16 32C24.8365 32 32 24.8365 32 16H14.6087Z" fill="#0052B4"/>
<path d="M4.68617 4.68616C-1.56221 10.9345 -1.56221 21.0652 4.68617 27.3137C7.26823 24.7316 9.75155 22.2483 15.9999 15.9999L4.68617 4.68616Z" fill="#F0F0F0"/>
<path d="M1.75399 16.0001C1.74524 16.115 1.7393 16.2307 1.7393 16.3479C1.7393 18.8451 3.7638 20.8696 6.26105 20.8696C8.7583 20.8696 10.7828 18.8451 10.7828 16.3479C10.7828 16.2307 10.7769 16.1149 10.7681 16.0001H1.75399Z" fill="#FFDA44"/>
<path d="M6.2611 13.913C7.02951 13.913 7.65242 13.2901 7.65242 12.5217C7.65242 11.7533 7.02951 11.1304 6.2611 11.1304C5.4927 11.1304 4.86979 11.7533 4.86979 12.5217C4.86979 13.2901 5.4927 13.913 6.2611 13.913Z" fill="#FFDA44"/>
<path d="M3.1305 12.174V16.6957C3.1305 19.0919 6.26093 19.8261 6.26093 19.8261C6.26093 19.8261 9.39137 19.0919 9.39137 16.6957V12.174H3.1305Z" fill="#D80027"/>
<path d="M6.26252 18.37C5.68177 18.161 4.52183 17.6269 4.52183 16.6956V13.5652H8.00014V16.6956C8.00014 17.6299 6.84033 18.1627 6.26252 18.37Z" fill="#338AF3"/>
<path d="M6.95647 15.3042V14.6086L6.26085 14.2607L5.56516 14.6086V15.3042L5.21734 15.6521V17.0434H7.30435V15.6521L6.95647 15.3042Z" fill="#F3F3F3"/>
</g>
<defs>
<clipPath id="clip0_280_16511">
<rect width="32" height="32" fill="white"/>
</clipPath>
</defs>
</svg>
