<svg width="32" height="32" viewBox="0 0 32 32" fill="none" xmlns="http://www.w3.org/2000/svg">
<g clip-path="url(#clip0_280_16715)">
<path d="M16 32C24.8366 32 32 24.8366 32 16C32 7.16344 24.8366 0 16 0C7.16344 0 0 7.16344 0 16C0 24.8366 7.16344 32 16 32Z" fill="#F0F0F0"/>
<path d="M16 0C9.12053 0 3.25584 4.342 0.995153 10.4348H31.0048C28.7441 4.342 22.8794 0 16 0Z" fill="#D80027"/>
<path d="M16 32.0001C22.8794 32.0001 28.7441 27.6581 31.0048 21.5653H0.995153C3.25584 27.6581 9.12053 32.0001 16 32.0001Z" fill="black"/>
<path d="M9.56024 12.1738L10.4236 14.8308H13.2175L10.9572 16.4732L11.8206 19.1303L9.56024 17.4881L7.29993 19.1303L8.1633 16.4732L5.90299 14.8308H8.69693L9.56024 12.1738Z" fill="#6DA544"/>
<path d="M22.4401 12.1738L23.3034 14.8308H26.0974L23.837 16.4732L24.7004 19.1303L22.4401 17.4881L20.1797 19.1303L21.0431 16.4732L18.7828 14.8308H21.5767L22.4401 12.1738Z" fill="#6DA544"/>
</g>
<defs>
<clipPath id="clip0_280_16715">
<rect width="32" height="32" fill="white"/>
</clipPath>
</defs>
</svg>
