<svg width="32" height="32" viewBox="0 0 32 32" fill="none" xmlns="http://www.w3.org/2000/svg">
<g clip-path="url(#clip0_280_16502)">
<path d="M30.4124 22.9563C31.4295 20.8529 32 18.493 32 15.9998C32 13.5067 31.4295 11.1468 30.4124 9.04334L16 8.34766L1.58763 9.04328C0.5705 11.1468 0 13.5067 0 15.9998C0 18.493 0.5705 20.8529 1.58763 22.9563L16 23.652L30.4124 22.9563Z" fill="#FFDA44"/>
<path d="M16 0C9.65662 0 4.17562 3.69156 1.58762 9.0435H30.4123C27.8244 3.69156 22.3433 0 16 0Z" fill="black"/>
<path d="M16 32C9.65662 32 4.17562 28.3085 1.58762 22.9565H30.4123C27.8244 28.3085 22.3433 32 16 32Z" fill="#0052B4"/>
<path d="M31.2444 11.1305H0.755562C0.265437 12.6661 0 14.302 0 16.0001C0 17.6981 0.265437 19.3341 0.755562 20.8696H31.2444C31.7346 19.3341 32 17.6981 32 16.0001C32 14.302 31.7346 12.6661 31.2444 11.1305Z" fill="#A2001D"/>
<path d="M26.4348 15.3043H5.56526V16.6956H26.4348V15.3043Z" fill="#FFDA44"/>
<path d="M23.6522 12.5217H8.34782V13.913H23.6522V12.5217Z" fill="#FFDA44"/>
<path d="M23.7515 16.0001C23.7515 16.0001 20.1738 20.174 15.9999 20.174C11.826 20.174 11.826 16.0001 11.826 16.0001C11.826 16.0001 11.826 11.8262 15.9999 11.8262C20.1738 11.8262 23.7515 16.0001 23.7515 16.0001Z" fill="#F0F0F0"/>
<path d="M16 20.174C11.826 20.174 8.24841 16.0001 8.24841 16.0001C8.24841 16.0001 11.826 11.8262 16 11.8262" fill="black"/>
<path d="M14.6088 14.6088H13.2174V17.3914H14.6088V14.6088Z" fill="#F0F0F0"/>
<path d="M18.7825 14.6088H17.3912V17.3914H18.7825V14.6088Z" fill="black"/>
<path d="M5.56539 17.3914C6.33379 17.3914 6.9567 16.7685 6.9567 16.0001C6.9567 15.2317 6.33379 14.6088 5.56539 14.6088C4.79698 14.6088 4.17407 15.2317 4.17407 16.0001C4.17407 16.7685 4.79698 17.3914 5.56539 17.3914Z" fill="#0052B4"/>
<path d="M26.435 17.3914C27.2034 17.3914 27.8263 16.7685 27.8263 16.0001C27.8263 15.2317 27.2034 14.6088 26.435 14.6088C25.6666 14.6088 25.0436 15.2317 25.0436 16.0001C25.0436 16.7685 25.6666 17.3914 26.435 17.3914Z" fill="#0052B4"/>
</g>
<defs>
<clipPath id="clip0_280_16502">
<rect width="32" height="32" fill="white"/>
</clipPath>
</defs>
</svg>
