<svg width="32" height="32" viewBox="0 0 32 32" fill="none" xmlns="http://www.w3.org/2000/svg">
<g clip-path="url(#clip0_280_16561)">
<path d="M32 16C32 24.8365 24.8365 32 16 32C7.1635 32 0 24.8365 0 16C0 16.0038 16 0.00175 16 0C24.8365 0 32 7.1635 32 16Z" fill="#0052B4"/>
<path d="M15.9572 15.9998H15.9998C15.9998 15.9855 15.9998 15.9715 15.9998 15.9572C15.9856 15.9714 15.9715 15.9856 15.9572 15.9998Z" fill="#F0F0F0"/>
<path d="M16 8.34781C16 5.5325 16 3.68781 16 0H15.9973C7.16194 0.0015 0 7.16431 0 16H8.34781V11.2993L13.0485 16H15.9572C15.9715 15.9858 15.9858 15.9715 16.0001 15.9572C16.0001 14.8793 16.0001 13.9174 16.0001 13.0486L11.2992 8.34781H16Z" fill="#F0F0F0"/>
<path d="M8.09476 2.08691C5.59232 3.51185 3.51188 5.59223 2.08701 8.09467V16H6.26094V6.26098V6.26085H16.0001C16.0001 4.94441 16.0001 3.69029 16.0001 2.08691H8.09476Z" fill="#D80027"/>
<path d="M16 14.0323L10.3153 8.34778H8.34781V8.3479L15.9999 15.9999H16C16 15.9999 16 14.6432 16 14.0323Z" fill="#D80027"/>
<path d="M18.087 8.34778V15.9999C18.087 19.7274 22.9566 20.8695 22.9566 20.8695C22.9566 20.8695 27.8261 19.7274 27.8261 15.9999V8.34778H18.087Z" fill="#FFDA44"/>
<path d="M22.2608 11.1306C22.2608 11.899 21.638 13.9132 20.8695 13.9132C20.1011 13.9132 19.4782 11.899 19.4782 11.1306C19.4782 10.3621 20.8695 9.73926 20.8695 9.73926C20.8695 9.73926 22.2608 10.3621 22.2608 11.1306Z" fill="#FF9811"/>
<path d="M25.953 12.6459C26.1775 12.0981 26.3521 11.2973 26.3521 10.8987C26.3521 10.2583 25.5173 9.73926 25.5173 9.73926C25.5173 9.73926 24.6825 10.2584 24.6825 10.8987C24.6825 11.2973 24.8571 12.0981 25.0816 12.6459L24.5996 13.734C24.8829 13.8491 25.1925 13.9131 25.5172 13.9131C25.8419 13.9131 26.1515 13.8491 26.4348 13.734L25.953 12.6459Z" fill="#A2001D"/>
<path d="M21.9132 15.9999C21.9132 15.9999 21.2175 17.3913 21.2175 18.7826C21.2175 18.7826 23.3045 18.7826 24.6958 18.7826C24.6957 17.3913 24.0001 15.9999 24.0001 15.9999L22.9566 15.3043L21.9132 15.9999Z" fill="#6DA544"/>
<path d="M23.9999 16V15.6521C23.9999 15.0759 23.5327 14.6086 22.9564 14.6086C22.3801 14.6086 21.9129 15.0758 21.9129 15.6521V16H23.9999Z" fill="#D80027"/>
</g>
<defs>
<clipPath id="clip0_280_16561">
<rect width="32" height="32" fill="white"/>
</clipPath>
</defs>
</svg>
