<svg width="32" height="32" viewBox="0 0 32 32" fill="none" xmlns="http://www.w3.org/2000/svg">
<g clip-path="url(#clip0_280_16695)">
<path d="M16.0002 0C14.0431 0 12.1682 0.352063 10.435 0.995188L9.7393 16L10.4349 31.0048C12.1682 31.648 14.0431 32 16.0002 32C17.9573 32 19.8321 31.648 21.5654 31.0048L22.2611 16L21.5654 0.995188C19.8321 0.352063 17.9573 0 16.0002 0Z" fill="#FFDA44"/>
<path d="M32.0001 16C32.0001 9.12061 27.6581 3.25593 21.5652 0.995239V31.0049C27.6581 28.7442 32.0001 22.8795 32.0001 16Z" fill="#D80027"/>
<path d="M10.4348 31.0049V0.995239C4.342 3.25593 0 9.12061 0 16.0001C0 22.8795 4.342 28.7442 10.4348 31.0049Z" fill="#0052B4"/>
</g>
<defs>
<clipPath id="clip0_280_16695">
<rect width="32" height="32" fill="white"/>
</clipPath>
</defs>
</svg>
