<svg width="32" height="32" viewBox="0 0 32 32" fill="none" xmlns="http://www.w3.org/2000/svg">
<g clip-path="url(#clip0_280_16496)">
<path d="M16 32C24.8366 32 32 24.8366 32 16C32 7.16344 24.8366 0 16 0C7.16344 0 0 7.16344 0 16C0 24.8366 7.16344 32 16 32Z" fill="#FFDA44"/>
<path d="M15.9999 0C15.9882 0.000125 15.3042 6.4 15.3042 6.4H28.8006C25.8816 2.51394 21.2344 0 15.9999 0Z" fill="#496E2D"/>
<path d="M15.9999 32C21.2344 32 25.8816 29.486 28.8006 25.6H3.19917C6.11817 29.486 10.7654 32 15.9999 32Z" fill="#496E2D"/>
<path d="M31.6795 12.7999H15.3042L15.9999 19.1999H31.6795C31.8895 18.166 31.9999 17.0959 31.9999 15.9999C31.9999 14.904 31.8894 13.8339 31.6795 12.7999Z" fill="#496E2D"/>
<path d="M16 19.2C16 15.8609 16 3.7565 16 0C7.1635 0 0 7.1635 0 16C0 17.0959 0.1105 18.1661 0.320375 19.2H16Z" fill="#D80027"/>
<path d="M8.82844 7.6521L9.86444 10.8405H13.2173L10.5049 12.8113L11.5408 15.9999L8.82844 14.0293L6.11607 15.9999L7.15213 12.8113L4.43982 10.8405H7.79251L8.82844 7.6521Z" fill="#F0F0F0"/>
</g>
<defs>
<clipPath id="clip0_280_16496">
<rect width="32" height="32" fill="white"/>
</clipPath>
</defs>
</svg>
