<svg width="32" height="32" viewBox="0 0 32 32" fill="none" xmlns="http://www.w3.org/2000/svg">
<g clip-path="url(#clip0_280_16498)">
<path d="M16 32C24.8366 32 32 24.8366 32 16C32 7.16344 24.8366 0 16 0C7.16344 0 0 7.16344 0 16C0 24.8366 7.16344 32 16 32Z" fill="#F0F0F0"/>
<path d="M31.0048 10.4349H0.995188C0.352 12.1682 0 14.043 0 16.0001C0 17.9572 0.352 19.832 0.995188 21.5653H31.0049C31.648 19.832 32 17.9572 32 16.0001C32 14.043 31.648 12.1682 31.0048 10.4349Z" fill="#0052B4"/>
<path d="M15.9999 0C11.1504 0 6.80524 2.15775 3.87105 5.56519H28.1286C25.1945 2.15775 20.8493 0 15.9999 0Z" fill="#D80027"/>
<path d="M28.1287 26.4349H3.87105C6.80524 29.8424 11.1504 32.0001 15.9999 32.0001C20.8493 32.0001 25.1945 29.8424 28.1287 26.4349Z" fill="#D80027"/>
</g>
<defs>
<clipPath id="clip0_280_16498">
<rect width="32" height="32" fill="white"/>
</clipPath>
</defs>
</svg>
