<svg width="32" height="32" viewBox="0 0 32 32" fill="none" xmlns="http://www.w3.org/2000/svg">
<g clip-path="url(#clip0_280_16552)">
<path d="M1.58763 9.04341C0.5705 11.1469 0 13.5068 0 15.9999C0 18.493 0.5705 20.8529 1.58763 22.9564L16 24.3477L30.4124 22.9564C31.4295 20.8529 32 18.493 32 15.9999C32 13.5068 31.4295 11.1469 30.4124 9.04341L16 7.6521L1.58763 9.04341Z" fill="#F0F0F0"/>
<path d="M1.58813 22.9564C4.17606 28.3083 9.65663 31.9999 15.9999 31.9999C22.3433 31.9999 27.8239 28.3083 30.4117 22.9564H1.58813Z" fill="#6DA544"/>
<path d="M1.58813 9.0435H30.4117C27.8239 3.69163 22.3433 0 15.9999 0C9.65663 0 4.17606 3.69163 1.58813 9.0435Z" fill="#D80027"/>
<path d="M13.2173 20.1739H18.7826V17.8086L17.6695 18.3651L16 16.6956L14.3304 18.3651L13.2173 17.8086V20.1739Z" fill="#FFDA44"/>
<path d="M10.0332 17.3912L10.2922 18.1884H11.1304L10.4522 18.6811L10.7113 19.4782L10.0332 18.9856L9.35505 19.4782L9.61411 18.6811L8.93599 18.1884H9.77411L10.0332 17.3912Z" fill="#FFDA44"/>
<path d="M10.8362 14.6086L11.0952 15.4058H11.9334L11.2552 15.8985L11.5142 16.6956L10.8362 16.203L10.1581 16.6956L10.4171 15.8985L9.739 15.4058H10.5771L10.8362 14.6086Z" fill="#FFDA44"/>
<path d="M13.1319 12.5217L13.391 13.3189H14.229L13.551 13.8115L13.81 14.6087L13.1319 14.116L12.4538 14.6087L12.7128 13.8115L12.0347 13.3189H12.8729L13.1319 12.5217Z" fill="#FFDA44"/>
<path d="M21.9666 17.3912L21.7076 18.1884H20.8694L21.5476 18.6811L21.2885 19.4782L21.9666 18.9856L22.6447 19.4782L22.3857 18.6811L23.0638 18.1884H22.2257L21.9666 17.3912Z" fill="#FFDA44"/>
<path d="M21.1636 14.6086L20.9046 15.4058H20.0664L20.7446 15.8985L20.4855 16.6956L21.1636 16.203L21.8418 16.6956L21.5827 15.8985L22.2608 15.4058H21.4227L21.1636 14.6086Z" fill="#FFDA44"/>
<path d="M18.868 12.5217L18.6089 13.3189H17.7708L18.4488 13.8115L18.1898 14.6087L18.868 14.116L19.546 14.6087L19.287 13.8115L19.9651 13.3189H19.127L18.868 12.5217Z" fill="#FFDA44"/>
<path d="M15.9998 11.4781L16.2588 12.2753H17.0969L16.4188 12.768L16.6779 13.5651L15.9998 13.0725L15.3216 13.5651L15.5807 12.768L14.9026 12.2753H15.7407L15.9998 11.4781Z" fill="#FFDA44"/>
</g>
<defs>
<clipPath id="clip0_280_16552">
<rect width="32" height="32" fill="white"/>
</clipPath>
</defs>
</svg>
