<svg width="32" height="32" viewBox="0 0 32 32" fill="none" xmlns="http://www.w3.org/2000/svg">
<g clip-path="url(#clip0_280_16630)">
<path d="M16 32C24.8366 32 32 24.8366 32 16C32 7.16344 24.8366 0 16 0C7.16344 0 0 7.16344 0 16C0 24.8366 7.16344 32 16 32Z" fill="#FFDA44"/>
<path d="M25.7391 7.65219C25.5956 8.34188 25.5304 9.07644 25.5304 9.80869C25.5304 14.0296 28.0466 17.6828 31.6526 19.3273C31.8796 18.2538 32 17.141 32 16C32 7.1635 24.8365 0 16 0C7.1635 0 0 7.1635 0 16C0 24.8365 7.1635 32 16 32C21.4801 32 26.3161 29.2443 29.1998 25.0435H9.0435V22.9566H30.4124C30.6311 22.5043 30.8286 22.04 31.0049 21.5653H9.0435L25.7391 7.65219Z" fill="#0052B4"/>
<path d="M11.7547 8.34778L12.1 9.41065H13.2175L12.3135 10.0676L12.6588 11.1304L11.7547 10.4736L10.8506 11.1304L11.1959 10.0676L10.2917 9.41065H11.4093L11.7547 8.34778Z" fill="#F0F0F0"/>
<path d="M7.21488 16L7.64663 17.3287H9.0435L7.91332 18.1496L8.34507 19.4783L7.21488 18.6571L6.08476 19.4783L6.51645 18.1496L5.38632 17.3287H6.7832L7.21488 16Z" fill="#F0F0F0"/>
<path d="M7.21488 4.86951L7.64663 6.19819H9.0435L7.91332 7.01913L8.34507 8.34776L7.21488 7.52663L6.08476 8.34776L6.51645 7.01913L5.38632 6.19819H6.7832L7.21488 4.86951Z" fill="#F0F0F0"/>
<path d="M3.73664 11.1304L4.16839 12.4591H5.56521L4.43508 13.28L4.86683 14.6086L3.73664 13.7875L2.60652 14.6086L3.03821 13.28L1.90808 12.4591H3.30489L3.73664 11.1304Z" fill="#F0F0F0"/>
</g>
<defs>
<clipPath id="clip0_280_16630">
<rect width="32" height="32" fill="white"/>
</clipPath>
</defs>
</svg>
