<svg width="32" height="32" viewBox="0 0 32 32" fill="none" xmlns="http://www.w3.org/2000/svg">
<g clip-path="url(#clip0_280_16494)">
<path d="M16.0002 0C14.8055 0 13.6419 0.132063 12.522 0.380313L11.8264 15.9999L12.522 31.6196C13.6419 31.8679 14.8056 32 16.0002 32C24.8367 32 32.0002 24.8365 32.0002 15.9999C32.0001 7.16344 24.8367 0 16.0002 0Z" fill="#496E2D"/>
<path d="M4.17403 5.22327C1.58128 8.06677 0.000152588 11.8486 0.000152588 16C0.000152588 20.1514 1.58134 23.9333 4.17409 26.7769L4.86972 16L4.17403 5.22327Z" fill="#496E2D"/>
<path d="M23.4014 12.0686C24.1886 9.87449 23.3042 7.48818 21.4063 6.29968C21.7477 6.34412 22.0894 6.4245 22.4267 6.54543C24.9581 7.45368 26.274 10.2419 25.3657 12.7733C24.4575 15.3049 21.6692 16.6206 19.1378 15.7124C18.8005 15.5914 18.4855 15.4361 18.1938 15.2534C20.4145 15.5426 22.6142 14.2627 23.4014 12.0686Z" fill="#F0F0F0"/>
<path d="M19.0353 5.69824L18.3512 6.58212L17.2994 6.20468L17.9285 7.1283L17.2446 8.01205L18.3174 7.69918L18.9466 8.62268L18.9804 7.50568L20.0533 7.19274L19.0014 6.81543L19.0353 5.69824Z" fill="#F0F0F0"/>
<path d="M20.8823 8.57812L20.1982 9.46194L19.1464 9.0845L19.7756 10.0081L19.0916 10.8919L20.1644 10.5789L20.7936 11.5026L20.8275 10.3855L21.9003 10.0725L20.8484 9.69513L20.8823 8.57812Z" fill="#F0F0F0"/>
<path d="M15.7783 6.74707L15.0942 7.63082L14.0424 7.25351L14.6716 8.17707L13.9876 9.06088L15.0603 8.74795L15.6896 9.67151L15.7235 8.55451L16.7963 8.24157L15.7445 7.86413L15.7783 6.74707Z" fill="#F0F0F0"/>
<path d="M15.7037 10.0459L15.0197 10.9297L13.9679 10.5523L14.5971 11.476L13.913 12.3597L14.9859 12.0468L15.6151 12.9703L15.6489 11.8533L16.7218 11.5404L15.6699 11.163L15.7037 10.0459Z" fill="#F0F0F0"/>
<path d="M18.8427 11.1722L18.1587 12.056L17.1068 11.6786L17.7361 12.6022L17.052 13.4859L18.1249 13.1731L18.7541 14.0967L18.7879 12.9796L19.8608 12.6667L18.8088 12.2893L18.8427 11.1722Z" fill="#F0F0F0"/>
<path d="M4.17404 5.22312V26.7767C6.35404 29.1676 9.24967 30.8941 12.5219 31.6195V0.380249C9.2496 1.10562 6.3541 2.83219 4.17404 5.22312Z" fill="#D80027"/>
<path d="M7.3596 8.42389L5.96204 7.38276V5.91045L7.3596 4.86938H9.33616L10.7337 5.91045V7.38276L9.33616 8.42389H7.3596Z" fill="#F0F0F0"/>
<path d="M8.34791 4.86938H7.3596L5.96204 5.91045V6.63026H8.34791V4.86938Z" fill="#FF9811"/>
<path d="M8.34769 8.4239H9.33594L10.7335 7.38278V6.63171H8.34769V8.4239Z" fill="#FF9811"/>
<path d="M7.3596 27.1302L5.96204 26.0891V24.6168L7.3596 23.5757H9.33616L10.7337 24.6168V26.0891L9.33616 27.1302H7.3596Z" fill="#F0F0F0"/>
<path d="M8.34791 23.5757H7.3596L5.96204 24.6168V25.3366H8.34791V23.5757Z" fill="#FF9811"/>
<path d="M8.34769 27.1301H9.33594L10.7335 26.089V25.338H8.34769V27.1301Z" fill="#FF9811"/>
<path d="M7.35939 17.7773L5.96182 16.7362V15.2639L7.35939 14.2228H9.33595L10.7335 15.2639V16.7362L9.33595 17.7773H7.35939Z" fill="#496E2D"/>
<path d="M10.7825 20.0679H10.1737V19.4593H9.10403L8.34765 18.7029L7.59134 19.4593H6.52165V20.0679H5.91296V21.2853H6.52165V21.894H7.59128L8.34771 22.6504L9.10403 21.894H10.1737V21.2853H10.7825V20.0679Z" fill="#496E2D"/>
<path d="M10.7825 10.7147H10.1737V10.106H9.10403L8.34765 9.34961L7.59134 10.106H6.52165V10.7147H5.91296V11.9321H6.52165V12.5408H7.59128L8.34771 13.2973L9.10403 12.5408H10.1737V11.9321H10.7825V10.7147Z" fill="#496E2D"/>
<path d="M9.04341 15.3043H7.6521V16.6956H9.04341V15.3043Z" fill="#D80027"/>
<path d="M8.34772 12.0187C8.7319 12.0187 9.04335 11.7072 9.04335 11.3231C9.04335 10.9389 8.7319 10.6274 8.34772 10.6274C7.96354 10.6274 7.6521 10.9389 7.6521 11.3231C7.6521 11.7072 7.96354 12.0187 8.34772 12.0187Z" fill="#D80027"/>
<path d="M8.34772 21.3723C8.7319 21.3723 9.04335 21.0609 9.04335 20.6767C9.04335 20.2925 8.7319 19.9811 8.34772 19.9811C7.96354 19.9811 7.6521 20.2925 7.6521 20.6767C7.6521 21.0609 7.96354 21.3723 8.34772 21.3723Z" fill="#D80027"/>
</g>
<defs>
<clipPath id="clip0_280_16494">
<rect width="32" height="32" fill="white"/>
</clipPath>
</defs>
</svg>
