<svg width="32" height="32" viewBox="0 0 32 32" fill="none" xmlns="http://www.w3.org/2000/svg">
<g clip-path="url(#clip0_280_16582)">
<path d="M16 32C24.8366 32 32 24.8366 32 16C32 7.16344 24.8366 0 16 0C7.16344 0 0 7.16344 0 16C0 24.8366 7.16344 32 16 32Z" fill="#D80027"/>
<path d="M15.3451 13.0741L16.6579 14.8832L18.784 14.1938L17.4691 16.0013L18.7817 17.8103L16.6564 17.1183L15.3416 18.9258L15.343 16.6907L13.2176 15.9987L15.3437 15.3093L15.3451 13.0741Z" fill="#F0F0F0"/>
<path d="M11.7622 20.5217C9.26495 20.5217 7.24045 18.4972 7.24045 15.9999C7.24045 13.5027 9.26495 11.4782 11.7622 11.4782C12.5408 11.4782 13.2734 11.6751 13.9131 12.0217C12.9096 11.0403 11.5373 10.4347 10.0231 10.4347C6.94945 10.4347 4.45789 12.9263 4.45789 15.9999C4.45789 19.0734 6.94951 21.5651 10.0231 21.5651C11.5374 21.5651 12.9097 20.9594 13.9131 19.9781C13.2734 20.3248 12.5408 20.5217 11.7622 20.5217Z" fill="#F0F0F0"/>
</g>
<defs>
<clipPath id="clip0_280_16582">
<rect width="32" height="32" fill="white"/>
</clipPath>
</defs>
</svg>
