<svg width="32" height="32" viewBox="0 0 32 32" fill="none" xmlns="http://www.w3.org/2000/svg">
<g clip-path="url(#clip0_280_16673)">
<path d="M32 16C32 24.8365 24.8365 32 16.0001 32C7.1635 32 0 24.8365 0 16C0 16.0038 16.0001 0.00175 16.0001 0C24.8365 0 32 7.1635 32 16Z" fill="#338AF3"/>
<path d="M7.65228 16.0001H13.0487L8.34791 10.4349L7.65228 12.5219V16.0001Z" fill="#0052B4"/>
<path d="M16.0002 13.0487L10.435 7.65222H16.0001L16.0002 13.0487Z" fill="#0052B4"/>
<path d="M15.9571 15.9998H16.0004C16.0004 15.9855 16.0004 15.9715 16.0004 15.9572C15.986 15.9714 15.9716 15.9856 15.9571 15.9998Z" fill="#F0F0F0"/>
<path d="M16.0001 8.34781C16.0001 5.5325 16.0001 3.68775 16.0001 0H15.9974C7.162 0.0015 0 7.16431 0 16H8.34787V11.2993L13.0486 16H15.9573C15.9716 15.9858 15.9858 15.9715 16.0001 15.9572C16.0001 14.8793 16.0001 13.9174 16.0001 13.0486L11.2992 8.34781H16.0001Z" fill="#F0F0F0"/>
<path d="M8.09483 2.08691C5.59239 3.51185 3.51202 5.59223 2.08708 8.09467V16H6.26102V6.26098V6.26085H16.0001C16.0001 4.94441 16.0001 3.69029 16.0001 2.08691H8.09483Z" fill="#D80027"/>
<path d="M16.0003 14.0323L10.3157 8.34778H8.34816V8.3479L16.0002 15.9999H16.0003C16.0003 15.9999 16.0003 14.6432 16.0003 14.0323Z" fill="#D80027"/>
<path d="M17.4629 26.4348L17.8083 27.4977H18.9258L18.0217 28.1546L18.3671 29.2174L17.4629 28.5606L16.5588 29.2174L16.9042 28.1546L16 27.4977H17.1175L17.4629 26.4348Z" fill="#FFDA44"/>
<path d="M26.3633 19.4781L26.7086 20.541H27.8261L26.9221 21.198L27.2675 22.2608L26.3633 21.604L25.4592 22.2608L25.8046 21.198L24.9003 20.541H26.0179L26.3633 19.4781Z" fill="#FFDA44"/>
<path d="M28.5935 9.04346L28.9388 10.1063H30.0564L29.1523 10.7632L29.4977 11.826L28.5935 11.1692L27.6894 11.826L28.0348 10.7632L27.1306 10.1063H28.2481L28.5935 9.04346Z" fill="#FFDA44"/>
<path d="M29.1459 16.6956L29.4913 17.7585H30.6088L29.7047 18.4154L30.0501 19.4782L29.1459 18.8214L28.2419 19.4782L28.5873 18.4154L27.683 17.7585H28.8006L29.1459 16.6956Z" fill="#FFDA44"/>
<path d="M19.0654 23.9349L20.0614 24.4423L20.8515 23.6521L20.6768 24.7558L21.6725 25.2632L20.5686 25.438L20.3938 26.5418L19.8865 25.546L18.7827 25.721L19.5729 24.9308L19.0654 23.9349Z" fill="#FFDA44"/>
<path d="M19.0654 19.761L20.0614 20.2683L20.8515 19.4781L20.6768 20.5819L21.6725 21.0892L20.5686 21.2641L20.3938 22.3679L19.8865 21.3722L18.7827 21.547L19.5729 20.7568L19.0654 19.761Z" fill="#FFDA44"/>
<path d="M22.5437 22.4364L23.5396 22.9439L24.3298 22.1537L24.155 23.2574L25.1507 23.7647L24.0468 23.9396L23.872 25.0434L23.3648 24.0476L22.2609 24.2226L23.0511 23.4324L22.5437 22.4364Z" fill="#FFDA44"/>
<path d="M22.5437 13.5001L23.5396 14.0075L24.3298 13.2173L24.155 14.321L25.1507 14.8283L24.0468 15.0032L23.872 16.107L23.3648 15.1113L22.2609 15.2862L23.0511 14.496L22.5437 13.5001Z" fill="#FFDA44"/>
<path d="M25.9147 13.393L26.9106 13.9004L27.7008 13.1102L27.526 14.214L28.5218 14.7213L27.4179 14.8962L27.2431 16L26.7358 15.0042L25.632 15.1791L26.4221 14.3889L25.9147 13.393Z" fill="#FFDA44"/>
</g>
<defs>
<clipPath id="clip0_280_16673">
<rect width="32" height="32" fill="white"/>
</clipPath>
</defs>
</svg>
