<svg width="32" height="32" viewBox="0 0 32 32" fill="none" xmlns="http://www.w3.org/2000/svg">
<g clip-path="url(#clip0_280_16499)">
<path d="M32 16C32 24.8365 24.8365 32 16 32C7.1635 32 0 24.8365 0 16C5.49563 10.5044 10.1565 5.8435 16 0C24.8365 0 32 7.1635 32 16Z" fill="#D80027"/>
<path d="M16 16C16 7.1635 16 6.12175 16 0C7.1635 0 0 7.1635 0 16H16Z" fill="#0052B4"/>
<path d="M13.9131 9.3637L11.959 10.2829L12.9995 12.1754L10.8777 11.7694L10.6087 13.9129L9.13087 12.3364L7.65287 13.9129L7.38406 11.7694L5.26218 12.1753L6.30268 10.2828L4.34868 9.3637L6.30275 8.44464L5.26218 6.55214L7.384 6.95807L7.65293 4.81458L9.13087 6.39107L10.6088 4.81458L10.8777 6.95807L12.9996 6.55214L11.959 8.4447L13.9131 9.3637Z" fill="#F0F0F0"/>
<path d="M9.13127 12.3419C10.7762 12.3419 12.1096 11.0084 12.1096 9.36357C12.1096 7.71869 10.7762 6.38525 9.13127 6.38525C7.4864 6.38525 6.15296 7.71869 6.15296 9.36357C6.15296 11.0084 7.4864 12.3419 9.13127 12.3419Z" fill="#0052B4"/>
<path d="M9.13081 10.9509C8.25575 10.9509 7.54387 10.2389 7.54387 9.36386C7.54387 8.48879 8.25581 7.77686 9.13081 7.77686C10.0059 7.77686 10.7178 8.48879 10.7178 9.36386C10.7177 10.2389 10.0057 10.9509 9.13081 10.9509Z" fill="#F0F0F0"/>
</g>
<defs>
<clipPath id="clip0_280_16499">
<rect width="32" height="32" fill="white"/>
</clipPath>
</defs>
</svg>
