<svg width="32" height="32" viewBox="0 0 32 32" fill="none" xmlns="http://www.w3.org/2000/svg">
<g clip-path="url(#clip0_280_16693)">
<path d="M16 32C24.8366 32 32 24.8366 32 16C32 7.16344 24.8366 0 16 0C7.16344 0 0 7.16344 0 16C0 24.8366 7.16344 32 16 32Z" fill="#FFDA44"/>
<path d="M4.68633 27.3138C5.35751 27.985 6.07364 28.5835 6.82483 29.1105L29.1104 6.82484C28.5836 6.07365 27.985 5.35752 27.3138 4.68634C26.6425 4.01515 25.9265 3.41665 25.1753 2.88965L2.8897 25.1753C3.41658 25.9263 4.0152 26.6425 4.68633 27.3138Z" fill="black"/>
<path d="M4.6866 4.68678C-0.361024 9.73453 -1.33009 17.3152 1.7776 23.3367L23.3365 1.77784C17.315 -1.32985 9.73429 -0.360724 4.6866 4.68678Z" fill="#6DA544"/>
<path d="M27.3136 27.3137C32.3612 22.2661 33.3302 14.6853 30.2226 8.66382L8.66374 30.2227C14.6851 33.3304 22.2659 32.3613 27.3136 27.3137Z" fill="#338AF3"/>
</g>
<defs>
<clipPath id="clip0_280_16693">
<rect width="32" height="32" fill="white"/>
</clipPath>
</defs>
</svg>
