<svg width="32" height="32" viewBox="0 0 32 32" fill="none" xmlns="http://www.w3.org/2000/svg">
<g clip-path="url(#clip0_280_16493)">
<path d="M27.9246 26.6666C30.4585 23.8359 32 20.0983 32 16C32 11.9018 30.4584 8.16408 27.9245 5.33333L16 4.17395L4.0755 5.33333C1.54156 8.16408 0 11.9018 0 16C0 20.0983 1.5415 23.8359 4.07544 26.6666L16 27.8261L27.9246 26.6666Z" fill="#FFDA44"/>
<path d="M4.07555 5.33331H27.9246C24.9949 2.06037 20.7384 0 16 0C11.2617 0 7.00517 2.06037 4.07555 5.33331Z" fill="black"/>
<path d="M0 16L16 17.3913L32 16C32 14.1298 31.6781 12.3349 31.0882 10.6666H0.91175C0.321938 12.3349 0 14.1298 0 16Z" fill="#D80027"/>
<path d="M0.91175 21.3333H31.0884C31.6781 19.6651 32 17.8703 32 16H0C0 17.8703 0.321938 19.6651 0.91175 21.3333Z" fill="black"/>
<path d="M27.9245 26.6665H4.07542C7.00505 29.9395 11.2616 31.9999 16 31.9999C20.7384 31.9999 24.9949 29.9395 27.9245 26.6665Z" fill="#D80027"/>
<path d="M21.3392 16C21.3392 18.949 18.949 21.3391 16 21.3391C13.0511 21.3391 10.6609 18.949 10.6609 16C10.6609 13.0511 13.0511 10.6609 16 10.6609C18.949 10.6609 21.3392 13.0511 21.3392 16Z" fill="#F0F0F0"/>
<path d="M17.9559 16.2723L15.9999 15.4247C15.9999 15.4247 16.4576 13.9058 16.4819 13.8019C16.4997 13.7259 16.5092 13.6467 16.5092 13.5654C16.5092 13.2772 16.3924 13.0163 16.2036 12.8275L16.6954 12.3357C16.3807 12.021 15.9459 11.8263 15.4657 11.8263C14.9854 11.8263 14.5506 12.0209 14.2359 12.3357L14.7278 12.8275C14.5389 13.0164 14.4222 13.2772 14.4222 13.5654C14.4222 13.6707 14.4381 13.7723 14.4672 13.8682L13.7266 14.6087H15.0726C15.0726 14.6087 14.5161 15.4446 14.2123 16.131C13.9085 16.8174 14.2165 17.6554 14.9186 17.9675L15.3246 18.1479L15.9999 18.7827V19.4783L15.3043 20.1739H16.6956V18.7826L17.3304 18.1478H18.6434C18.6497 18.1347 18.6564 18.122 18.6624 18.1086C18.9743 17.4065 18.6581 16.5843 17.9559 16.2723Z" fill="black"/>
</g>
<defs>
<clipPath id="clip0_280_16493">
<rect width="32" height="32" fill="white"/>
</clipPath>
</defs>
</svg>
