<svg width="32" height="32" viewBox="0 0 32 32" fill="none" xmlns="http://www.w3.org/2000/svg">
<g clip-path="url(#clip0_280_16489)">
<path d="M16 32C24.8366 32 32 24.8366 32 16C32 7.16344 24.8366 0 16 0C7.16344 0 0 7.16344 0 16C0 24.8366 7.16344 32 16 32Z" fill="#F0F0F0"/>
<path d="M16 11.8262H31.4488C31.0476 10.3378 30.4379 8.93522 29.6516 7.65222H16V11.8262Z" fill="#338AF3"/>
<path d="M6.0403 28.5217H25.9599C27.42 27.3587 28.6723 25.9461 29.6517 24.3478H2.34849C3.32793 25.946 4.58018 27.3587 6.0403 28.5217Z" fill="#338AF3"/>
<path d="M16 0C16 1.39131 16 3.47825 16 3.47825H25.9598C23.2267 1.3015 19.7656 0 16 0Z" fill="#338AF3"/>
<path d="M16 11.8262H31.4488C31.0476 10.3378 30.4379 8.93522 29.6516 7.65222H16V11.8262Z" fill="#338AF3"/>
<path d="M0 16C0 17.4442 0.1925 18.8431 0.551188 20.1739H31.4489C31.8075 18.8431 32 17.4442 32 16H0Z" fill="#338AF3"/>
<path d="M13.913 9.3637L11.9589 10.2829L12.9995 12.1754L10.8776 11.7695L10.6087 13.9129L9.13084 12.3364L7.65284 13.9129L7.38403 11.7695L5.26216 12.1753L6.30266 10.2828L4.34866 9.3637L6.30272 8.44464L5.26216 6.55214L7.38397 6.95801L7.65291 4.81458L9.13084 6.39107L10.6088 4.81458L10.8776 6.95801L12.9995 6.55214L11.959 8.4447L13.913 9.3637Z" fill="#FFDA44"/>
</g>
<defs>
<clipPath id="clip0_280_16489">
<rect width="32" height="32" fill="white"/>
</clipPath>
</defs>
</svg>
