<svg width="32" height="32" viewBox="0 0 32 32" fill="none" xmlns="http://www.w3.org/2000/svg">
<g clip-path="url(#clip0_280_16619)">
<path d="M0.7555 11.1306C0.265375 12.6661 -6.2489e-05 14.3019 1.10347e-08 16C-6.2489e-05 17.6981 0.265437 19.3341 0.755562 20.8696L16 21.5653L31.2444 20.8697C31.7345 19.3341 32.0001 17.6981 32.0001 16.0001C32 14.302 31.7346 12.6661 31.2444 11.1306L16 10.4349L0.7555 11.1306Z" fill="#F0F0F0"/>
<path d="M31.2444 11.1306L16 10.4349L0.755481 11.1306C0.610231 11.5858 0.485168 12.05 0.380356 12.5219H31.6194C31.5147 12.0499 31.3897 11.5857 31.2444 11.1306Z" fill="#D80027"/>
<path d="M0.380569 19.4784C0.485257 19.9503 0.61032 20.4144 0.75557 20.8696L0.75707 20.8697L15.9999 21.5653L31.2444 20.8697C31.3896 20.4145 31.5147 19.9503 31.6194 19.4784H0.380569Z" fill="#D80027"/>
<path d="M16 31.9999C23.1385 31.9999 29.1841 27.3248 31.2444 20.8695H0.755592C2.8159 27.3247 8.86165 31.9999 16 31.9999Z" fill="#6DA544"/>
<path d="M16 0.000122071C8.86163 0.000184571 2.816 4.67537 0.755562 11.1306L31.2444 11.1306C29.1842 4.67531 23.1385 5.95709e-05 16 0.000122071Z" fill="#338AF3"/>
<path d="M7.31153 6.61036C7.31153 5.11179 8.36472 3.85992 9.77116 3.55279C9.55503 3.50554 9.33072 3.47998 9.10035 3.47998C7.37147 3.47998 5.96991 4.88148 5.96991 6.61042C5.96991 8.33936 7.37135 9.74086 9.10035 9.74086C9.33072 9.74086 9.55497 9.71523 9.77116 9.66804C8.36478 9.36079 7.31153 8.10892 7.31153 6.61036Z" fill="#F0F0F0"/>
<path d="M11.6213 8.03174L11.8331 8.68393H12.5189L11.9641 9.08705L12.176 9.73924L11.6213 9.33618L11.0664 9.73924L11.2783 9.08705L10.7235 8.68393H11.4093L11.6213 8.03174Z" fill="#F0F0F0"/>
<path d="M13.8101 8.03174L14.0221 8.68393H14.7078L14.153 9.08705L14.3649 9.73924L13.8101 9.33618L13.2553 9.73924L13.4673 9.08705L12.9125 8.68393H13.5982L13.8101 8.03174Z" fill="#F0F0F0"/>
<path d="M15.999 8.03174L16.2108 8.68393H16.8966L16.3418 9.08705L16.5537 9.73924L15.999 9.33618L15.4441 9.73924L15.6561 9.08705L15.1012 8.68393H15.787L15.999 8.03174Z" fill="#F0F0F0"/>
<path d="M18.1878 8.03174L18.3997 8.68393H19.0854L18.5307 9.08705L18.7426 9.73924L18.1878 9.33618L17.6329 9.73924L17.8449 9.08705L17.29 8.68393H17.9758L18.1878 8.03174Z" fill="#F0F0F0"/>
<path d="M20.3764 8.03174L20.5884 8.68393H21.2741L20.7194 9.08705L20.9313 9.73924L20.3764 9.33618L19.8216 9.73924L20.0336 9.08705L19.4788 8.68393H20.1645L20.3764 8.03174Z" fill="#F0F0F0"/>
<path d="M13.8101 5.755L14.0221 6.40713H14.7078L14.153 6.81032L14.3649 7.46244L13.8101 7.05938L13.2553 7.46244L13.4673 6.81032L12.9125 6.40713H13.5982L13.8101 5.755Z" fill="#F0F0F0"/>
<path d="M15.999 5.755L16.2108 6.40713H16.8966L16.3418 6.81032L16.5537 7.46244L15.999 7.05938L15.4441 7.46244L15.6561 6.81032L15.1012 6.40713H15.787L15.999 5.755Z" fill="#F0F0F0"/>
<path d="M18.1878 5.755L18.3997 6.40713H19.0854L18.5307 6.81032L18.7426 7.46244L18.1878 7.05938L17.6329 7.46244L17.8449 6.81032L17.29 6.40713H17.9758L18.1878 5.755Z" fill="#F0F0F0"/>
<path d="M20.3764 5.755L20.5884 6.40713H21.2741L20.7194 6.81032L20.9313 7.46244L20.3764 7.05938L19.8216 7.46244L20.0336 6.81032L19.4788 6.40713H20.1645L20.3764 5.755Z" fill="#F0F0F0"/>
<path d="M15.999 3.47827L16.2108 4.13052H16.8966L16.3418 4.53358L16.5537 5.18583L15.999 4.78277L15.4441 5.18583L15.6561 4.53358L15.1012 4.13052H15.787L15.999 3.47827Z" fill="#F0F0F0"/>
<path d="M18.1878 3.47827L18.3997 4.13052H19.0854L18.5307 4.53358L18.7426 5.18583L18.1878 4.78277L17.6329 5.18583L17.8449 4.53358L17.29 4.13052H17.9758L18.1878 3.47827Z" fill="#F0F0F0"/>
<path d="M20.3764 3.47827L20.5884 4.13052H21.2741L20.7194 4.53358L20.9313 5.18583L20.3764 4.78277L19.8216 5.18583L20.0336 4.53358L19.4788 4.13052H20.1645L20.3764 3.47827Z" fill="#F0F0F0"/>
</g>
<defs>
<clipPath id="clip0_280_16619">
<rect width="32" height="32" fill="white"/>
</clipPath>
</defs>
</svg>
