<svg width="32" height="32" viewBox="0 0 32 32" fill="none" xmlns="http://www.w3.org/2000/svg">
<g clip-path="url(#clip0_280_16542)">
<path d="M15.9999 0C24.8364 0 31.9999 7.1635 31.9999 16C31.9999 24.8365 24.8364 32 15.9999 32C15.9999 31.3044 13.913 16 13.913 16L15.9999 0Z" fill="#F0F0F0"/>
<path d="M16 32C7.1635 32 0 24.8365 0 16C0 7.1635 7.1635 0 16 0" fill="#FFDA44"/>
<path d="M22.1268 13.9227L25.1338 17.9006C24.66 18.618 24.6625 19.5845 25.2104 20.3093C25.9054 21.2287 27.2143 21.4107 28.1338 20.7157C29.0532 20.0207 29.2352 18.7119 28.5401 17.7924C27.9923 17.0676 27.063 16.8016 26.2436 17.0617L21.5573 10.8622L20.4474 11.7012L18.7824 12.9596L20.4604 15.1792L22.1268 13.9227ZM26.4558 18.4959C26.7623 18.2641 27.1986 18.3249 27.4303 18.6312C27.6619 18.9377 27.6013 19.3741 27.2948 19.6058C26.9884 19.8374 26.5521 19.7769 26.3204 19.4703C26.0886 19.1638 26.1493 18.7275 26.4558 18.4959Z" fill="#ACABB1"/>
<path d="M27.2845 15.1792L28.9625 12.9596L27.2976 11.7011L26.1877 10.8621L21.5014 17.0616C20.6821 16.8015 19.7528 17.0676 19.205 17.7923C18.5098 18.7118 18.6918 20.0206 19.6113 20.7156C20.5308 21.4106 21.8395 21.2286 22.5345 20.3092C23.0824 19.5844 23.0849 18.6179 22.6112 17.9005L25.6181 13.9226L27.2845 15.1792ZM21.4246 19.4703C21.193 19.7769 20.7568 19.8374 20.4503 19.6058C20.1438 19.3741 20.0831 18.9377 20.3148 18.6312C20.5465 18.3249 20.9828 18.2641 21.2893 18.4959C21.5958 18.7276 21.6563 19.1639 21.4246 19.4703Z" fill="#FFDA44"/>
</g>
<defs>
<clipPath id="clip0_280_16542">
<rect width="32" height="32" fill="white"/>
</clipPath>
</defs>
</svg>
