<svg width="32" height="32" viewBox="0 0 32 32" fill="none" xmlns="http://www.w3.org/2000/svg">
<g clip-path="url(#clip0_280_16505)">
<path d="M23.6522 1.94544C21.379 0.705188 18.7719 0 16 0C13.2281 0 10.621 0.705188 8.34779 1.94544L6.95648 16L8.34779 30.0546C10.621 31.2948 13.2281 32 16 32C18.7719 32 21.379 31.2948 23.6522 30.0546L25.0435 16L23.6522 1.94544Z" fill="#FFDA44"/>
<path d="M8.34781 30.0544V1.94531C3.37431 4.65906 0 9.93525 0 15.9999C0 22.0646 3.37431 27.3408 8.34781 30.0544Z" fill="#338AF3"/>
<path d="M32 15.9999C32 9.93525 28.6257 4.65906 23.6522 1.94531V30.0544C28.6257 27.3408 32 22.0646 32 15.9999Z" fill="#6DA544"/>
<path d="M12.5218 20.1738L9.73907 15.9999L12.5217 11.8259L15.3044 15.9999L12.5218 20.1738Z" fill="#6DA544"/>
<path d="M19.4784 20.1738L16.6958 15.9999L19.4784 11.8259L22.261 15.9999L19.4784 20.1738Z" fill="#6DA544"/>
<path d="M16 25.7389L13.2174 21.565L16 17.3911L18.7826 21.565L16 25.7389Z" fill="#6DA544"/>
</g>
<defs>
<clipPath id="clip0_280_16505">
<rect width="32" height="32" fill="white"/>
</clipPath>
</defs>
</svg>
