<svg width="32" height="32" viewBox="0 0 32 32" fill="none" xmlns="http://www.w3.org/2000/svg">
<g clip-path="url(#clip0_280_16651)">
<path d="M30.4124 22.9564C31.4296 20.8529 32 18.4931 32 15.9999C32 13.5067 31.4296 11.1469 30.4124 9.04341L16 7.6521L1.58763 9.04341C0.570438 11.1469 0 13.5067 0 15.9999C0 18.4931 0.570438 20.8529 1.58763 22.9564L16 24.3477L30.4124 22.9564Z" fill="#0052B4"/>
<path d="M16.0001 31.9999C22.3434 31.9999 27.8244 28.3084 30.4124 22.9564H1.58769C4.17569 28.3084 9.65669 31.9999 16.0001 31.9999Z" fill="#D80027"/>
<path d="M27.7104 19.1409L26.8653 19.8013L27.2321 20.8088L26.3429 20.2093L25.4978 20.8695L25.7933 19.8386L24.9042 19.2388L25.976 19.2015L26.2718 18.1705L26.6387 19.1783L27.7104 19.1409Z" fill="#F0F0F0"/>
<path d="M25.5462 15.3928L24.9781 16.3024L25.6675 17.1238L24.6268 16.8647L24.0584 17.774L23.9835 16.7042L22.9429 16.4446L23.9374 16.0428L23.8627 14.9729L24.552 15.7946L25.5462 15.3928Z" fill="#F0F0F0"/>
<path d="M22.2307 12.6107L22.0078 13.6598L22.9365 14.196L21.87 14.3085L21.647 15.3572L21.2107 14.3776L20.144 14.4895L20.9412 13.7719L20.505 12.7923L21.4337 13.3284L22.2307 12.6107Z" fill="#F0F0F0"/>
<path d="M18.1637 11.1305L18.3131 12.1926L19.3692 12.3787L18.4053 12.8491L18.5546 13.9111L17.8096 13.1396L16.8455 13.6097L17.3491 12.6626L16.604 11.8912L17.6603 12.0774L18.1637 11.1305Z" fill="#F0F0F0"/>
<path d="M13.8358 11.1305L14.3394 12.0774L15.3954 11.8911L14.6506 12.6628L15.1539 13.6098L14.19 13.1396L13.4449 13.9109L13.5943 12.8491L12.6304 12.3789L13.6866 12.1926L13.8358 11.1305Z" fill="#F0F0F0"/>
<path d="M9.76903 12.6107L10.5662 13.3284L11.4947 12.7923L11.0587 13.7723L11.8556 14.4898L10.789 14.3776L10.3527 15.3572L10.13 14.3083L9.06334 14.1963L9.99209 13.6599L9.76903 12.6107Z" fill="#F0F0F0"/>
<path d="M6.45358 15.3926L7.44814 15.7944L8.13727 14.9729L8.0627 16.043L9.05695 16.4448L8.01639 16.7041L7.94145 17.7738L7.37333 16.8645L6.33264 17.1238L7.02202 16.3022L6.45358 15.3926Z" fill="#F0F0F0"/>
<path d="M4.28955 19.1408L5.36155 19.1782L5.72818 18.1705L6.02411 19.2015L7.0958 19.239L6.20668 19.8387L6.50218 20.8696L5.65718 20.2093L4.76799 20.8089L5.1348 19.8012L4.28955 19.1408Z" fill="#F0F0F0"/>
<path d="M30.4124 9.0435C27.8244 3.69156 22.3434 0 16.0001 0C9.65669 0 4.17569 3.69156 1.58769 9.0435H30.4124Z" fill="#FFDA44"/>
</g>
<defs>
<clipPath id="clip0_280_16651">
<rect width="32" height="32" fill="white"/>
</clipPath>
</defs>
</svg>
