<svg width="32" height="32" viewBox="0 0 32 32" fill="none" xmlns="http://www.w3.org/2000/svg">
<g clip-path="url(#clip0_280_16535)">
<path d="M32 16C32 24.8365 24.8365 32 16 32C7.1635 32 0 24.8365 0 16C0 16.0038 16 0.00175 16 0C24.8365 0 32 7.1635 32 16Z" fill="#0052B4"/>
<path d="M15.9573 15.9998H15.9999C15.9999 15.9855 15.9999 15.9715 15.9999 15.9572C15.9858 15.9714 15.9716 15.9856 15.9573 15.9998Z" fill="#F0F0F0"/>
<path d="M16 8.34781C16 5.5325 16 3.68781 16 0H15.9973C7.16194 0.0015 0 7.16431 0 16H8.34781V11.2993L13.0485 16H15.9572C15.9715 15.9858 15.9858 15.9715 16.0001 15.9572C16.0001 14.8793 16.0001 13.9174 16.0001 13.0486L11.2992 8.34781H16Z" fill="#F0F0F0"/>
<path d="M8.09476 2.08691C5.59232 3.51185 3.51188 5.59223 2.08701 8.09467V16H6.26094V6.26098V6.26085H16.0001C16.0001 4.94442 16.0001 3.69029 16.0001 2.08691H8.09476Z" fill="#D80027"/>
<path d="M22.9565 16L18.6319 20.3246C19.4424 21.8878 21.0741 22.9565 22.9565 22.9565C24.8388 22.9565 26.4705 21.8878 27.281 20.3246L22.9565 16Z" fill="#FFDA44"/>
<path d="M16.0002 14.0325L10.3155 8.3479H8.34796V8.34803L16 16H16.0002C16.0002 16 16.0002 14.6433 16.0002 14.0325Z" fill="#D80027"/>
<path d="M18.087 8.34778V15.9999V16C18.0871 19.7274 22.9566 20.8695 22.9566 20.8695C22.9566 20.8695 27.8261 19.7274 27.8261 16V15.9999V8.34778H18.087Z" fill="#6DA544"/>
<path d="M23.9999 11.826H21.913V17.3912H23.9999V11.826Z" fill="#F0F0F0"/>
<path d="M22.9566 12.8696C23.533 12.8696 24.0001 12.4024 24.0001 11.8261C24.0001 11.2498 23.533 10.7826 22.9566 10.7826C22.3803 10.7826 21.9131 11.2498 21.9131 11.8261C21.9131 12.4024 22.3803 12.8696 22.9566 12.8696Z" fill="#A2001D"/>
<path d="M20.8695 9.73914H19.4782V11.1304H20.8695V9.73914Z" fill="#FFDA44"/>
<path d="M20.8695 12.8696H19.4782V14.2609H20.8695V12.8696Z" fill="#FFDA44"/>
<path d="M20.8695 16H19.4782V17.3913H20.8695V16Z" fill="#FFDA44"/>
<path d="M26.4348 9.73914H25.0435V11.1304H26.4348V9.73914Z" fill="#FFDA44"/>
<path d="M26.4348 12.8696H25.0435V14.2609H26.4348V12.8696Z" fill="#FFDA44"/>
<path d="M26.4348 16H25.0435V17.3913H26.4348V16Z" fill="#FFDA44"/>
</g>
<defs>
<clipPath id="clip0_280_16535">
<rect width="32" height="32" fill="white"/>
</clipPath>
</defs>
</svg>
