<svg width="32" height="32" viewBox="0 0 32 32" fill="none" xmlns="http://www.w3.org/2000/svg">
<g clip-path="url(#clip0_280_16486)">
<path d="M16 32C24.8366 32 32 24.8366 32 16C32 7.16344 24.8366 0 16 0C7.16344 0 0 7.16344 0 16C0 24.8366 7.16344 32 16 32Z" fill="#FCFCFC"/>
<path d="M18.7175 11.1778C18.7175 9.67707 17.5009 8.46045 16.0001 8.46045C14.4993 8.46045 13.2826 9.67707 13.2826 11.1778H7.30444C7.30444 12.6554 8.59157 13.8533 10.0691 13.8533H9.98013C9.98013 15.331 11.1779 16.529 12.6557 16.529C12.6557 17.8373 13.5953 18.9244 14.8363 19.1568L14.8293 19.1724H17.1709L17.1639 19.1568C18.4049 18.9243 19.3445 17.8373 19.3445 16.529C20.8223 16.529 22.0201 15.331 22.0201 13.8533H21.9309C23.4085 13.8533 24.6957 12.6554 24.6957 11.1778H18.7175Z" fill="#FFDA44"/>
<path d="M14.8054 18.8951L13.1205 22.6991C14.0095 23.0605 14.9812 23.2613 16 23.2613C17.0189 23.2613 17.9905 23.0605 18.8795 22.6991L17.1947 18.8951H14.8054Z" fill="#FFDA44"/>
<path d="M12.5216 12.5142V17.1948C12.5216 19.8572 15.9999 20.6731 15.9999 20.6731C15.9999 20.6731 19.4781 19.8572 19.4781 17.1948V12.5142H12.5216Z" fill="#F0F0F0"/>
<path d="M3.87979 16.1127L5.76098 21.3742L7.62261 16.1127H9.04336L6.32923 23.0692H5.19267L2.45911 16.1127H3.87979Z" fill="#338AF3"/>
<path d="M25.7391 23.0692V16.1127H27.0911V23.0692H25.7391Z" fill="#338AF3"/>
<path d="M13.9132 14.0258V19.6979C14.3914 20.0498 14.9059 20.2919 15.3045 20.4469V14.0258H13.9132Z" fill="#D80027"/>
<path d="M18.0872 14.0258V19.6979C17.609 20.0498 17.0945 20.2919 16.6959 20.4469V14.0258H18.0872Z" fill="#D80027"/>
<path d="M19.4781 12.5142H12.5216V14.7214H19.4781V12.5142Z" fill="#0052B4"/>
</g>
<defs>
<clipPath id="clip0_280_16486">
<rect width="32" height="32" fill="white"/>
</clipPath>
</defs>
</svg>
