<svg width="32" height="32" viewBox="0 0 32 32" fill="none" xmlns="http://www.w3.org/2000/svg">
<g clip-path="url(#clip0_280_16720)">
<path d="M16 32C24.8366 32 32 24.8366 32 16C32 7.16344 24.8366 0 16 0C7.16344 0 0 7.16344 0 16C0 24.8366 7.16344 32 16 32Z" fill="#0052B4"/>
<path d="M7.02809 9.73926L7.37347 10.8023H8.49097L7.5869 11.4591L7.93222 12.5219L7.02809 11.8651L6.1239 12.5219L6.46934 11.4591L5.56522 10.8023H6.68265L7.02809 9.73926Z" fill="#F0F0F0"/>
<path d="M10.5063 8.6958L10.8517 9.75874H11.9692L11.0651 10.4156L11.4105 11.4784L10.5063 10.8216L9.60221 11.4784L9.94758 10.4156L9.04352 9.75874H10.161L10.5063 8.6958Z" fill="#F0F0F0"/>
<path d="M13.9844 7.65228L14.3297 8.71522H15.4472L14.5432 9.3721L14.8885 10.4349L13.9844 9.77804L13.0802 10.4349L13.4256 9.3721L12.5215 8.71522H13.639L13.9844 7.65228Z" fill="#F0F0F0"/>
<path d="M24.972 9.73926L24.6266 10.8023H23.5091L24.4133 11.4591L24.0679 12.5219L24.972 11.8651L25.8762 12.5219L25.5308 11.4591L26.4349 10.8023H25.3174L24.972 9.73926Z" fill="#F0F0F0"/>
<path d="M21.4937 8.6958L21.1483 9.75874H20.0308L20.9349 10.4156L20.5895 11.4784L21.4937 10.8216L22.3978 11.4784L22.0524 10.4156L22.9565 9.75874H21.839L21.4937 8.6958Z" fill="#F0F0F0"/>
<path d="M18.0155 7.65228L17.6702 8.71522H16.5527L17.4567 9.3721L17.1114 10.4349L18.0155 9.77804L18.9197 10.4349L18.5743 9.3721L19.4784 8.71522H18.3609L18.0155 7.65228Z" fill="#F0F0F0"/>
<path d="M18.7826 16.6957L15.9999 13.2174L14.6086 13.913V15.3043L12.5217 16.6957H11.1304V18.4931C13.1696 19.3188 14.6086 21.3169 14.6086 23.6522H15.9999V22.2609L17.3912 20.8696L18.7826 22.2609L20.1739 20.8696V19.4783L21.5652 17.3913L18.7826 16.6957Z" fill="#FFDA44"/>
</g>
<defs>
<clipPath id="clip0_280_16720">
<rect width="32" height="32" fill="white"/>
</clipPath>
</defs>
</svg>
