<svg width="32" height="32" viewBox="0 0 32 32" fill="none" xmlns="http://www.w3.org/2000/svg">
<g clip-path="url(#clip0_280_16484)">
<path d="M16 32C24.8366 32 32 24.8366 32 16C32 7.16344 24.8366 0 16 0C7.16344 0 0 7.16344 0 16C0 24.8366 7.16344 32 16 32Z" fill="#F0F0F0"/>
<path d="M15.9998 31.9999C22.8793 31.9999 28.744 27.6579 31.0047 21.5651H0.995026C3.25571 27.6579 9.1204 31.9999 15.9998 31.9999Z" fill="black"/>
<path d="M15.9998 0C9.1204 0 3.25571 4.342 0.995026 10.4348H31.0047C28.744 4.342 22.8793 0 15.9998 0Z" fill="#D80027"/>
</g>
<defs>
<clipPath id="clip0_280_16484">
<rect width="32" height="32" fill="white"/>
</clipPath>
</defs>
</svg>
