<svg width="32" height="32" viewBox="0 0 32 32" fill="none" xmlns="http://www.w3.org/2000/svg">
<g clip-path="url(#clip0_280_16483)">
<path d="M16 32C24.8366 32 32 24.8366 32 16C32 7.16344 24.8366 0 16 0C7.16344 0 0 7.16344 0 16C0 24.8366 7.16344 32 16 32Z" fill="#496E2D"/>
<path d="M22.2609 16H16V32C17.8703 32 19.6651 31.6781 21.3333 31.0884L22.2609 16Z" fill="#D80027"/>
<path d="M26.6668 27.9246C29.9398 24.9949 32.0001 20.7383 32.0001 16H25.7393L26.6668 27.9246Z" fill="#FF9811"/>
<path d="M21.3333 16V31.0884C23.3206 30.3858 25.1277 29.3021 26.6667 27.9246V16H21.3333Z" fill="black"/>
<path d="M29.5652 10.4349H25.3913C25.3913 9.66652 24.7684 9.04358 24 9.04358C23.2316 9.04358 22.6087 9.66652 22.6087 10.4349H18.4347C18.4347 11.2033 19.104 11.8262 19.8724 11.8262H19.826C19.826 12.5946 20.4489 13.2175 21.2174 13.2175C21.2174 13.986 21.8402 14.6088 22.6087 14.6088H25.3913C26.1597 14.6088 26.7826 13.986 26.7826 13.2175C27.551 13.2175 28.1739 12.5946 28.1739 11.8262H28.1276C28.896 11.8261 29.5652 11.2033 29.5652 10.4349Z" fill="#FF9811"/>
</g>
<defs>
<clipPath id="clip0_280_16483">
<rect width="32" height="32" fill="white"/>
</clipPath>
</defs>
</svg>
