<svg width="32" height="32" viewBox="0 0 32 32" fill="none" xmlns="http://www.w3.org/2000/svg">
<g clip-path="url(#clip0_280_16595)">
<path d="M16 32C24.8366 32 32 24.8366 32 16C32 7.16344 24.8366 0 16 0C7.16344 0 0 7.16344 0 16C0 24.8366 7.16344 32 16 32Z" fill="#F0F0F0"/>
<path d="M30.4697 9.16271C29.6568 7.44559 28.5474 5.89665 27.2074 4.58133L16.0012 3.47827L4.7949 4.5814C4.75915 4.61646 4.72428 4.65233 4.6889 4.68777L9.16391 9.16278L16.0012 9.37159L30.4697 9.16271Z" fill="#FFDA44"/>
<path d="M4.68762 27.3123C4.7465 27.3712 4.80525 27.4301 4.865 27.4881L16.0001 28.5216L27.135 27.4881C28.4888 26.1756 29.6118 24.6266 30.4361 22.9067L9.73912 22.2607C7.95831 24.0416 5.90431 26.0955 4.68762 27.3123Z" fill="#FFDA44"/>
<path d="M31.8408 13.7441L13.2173 13.2174L16 16C15.1758 16.8242 13.9454 18.0546 13.2173 18.7827L31.8311 18.3255C31.9417 17.5662 32 16.79 32 16C32 15.2342 31.945 14.4813 31.8408 13.7441Z" fill="black"/>
<path d="M16.0001 0C11.6359 0 7.68048 1.74813 4.79385 4.58138H27.2064C24.3197 1.74813 20.3644 0 16.0001 0Z" fill="#6DA544"/>
<path d="M13.7435 13.7441H31.8404C31.612 12.1267 31.1423 10.587 30.468 9.16272H9.16217L13.7435 13.7441Z" fill="#D80027"/>
<path d="M9.09305 22.9069H30.436C31.1182 21.4837 31.5954 19.9439 31.8311 18.3256H13.6744C11.9002 20.0997 10.3966 21.6034 9.09305 22.9069Z" fill="#D80027"/>
<path d="M15.9999 32.0001C20.3283 32.0001 24.2546 30.2806 27.1348 27.4883H4.86496C7.74521 30.2806 11.6715 32.0001 15.9999 32.0001Z" fill="#6DA544"/>
<path d="M5.71353 3.74585C5.35784 4.04472 5.01465 4.35804 4.68634 4.68623L16.0001 16L4.68634 27.3137C5.01459 27.642 5.35784 27.9552 5.71353 28.2541L17.9677 16L5.71353 3.74585Z" fill="black"/>
<path d="M6.43272 11.826L7.46866 15.0146H10.8215L8.1091 16.9853L9.1451 20.1739L6.43272 18.2032L3.72029 20.1739L4.75641 16.9853L2.0441 15.0146H5.39672L6.43272 11.826Z" fill="#D80027"/>
<path d="M9.28244 16.2609L6.58256 15.3044C6.58256 15.3044 6.38306 13.4329 6.371 13.3695C6.27938 12.8868 5.85519 12.5217 5.34581 12.5217C4.76956 12.5217 4.30231 12.9889 4.30231 13.5652C4.30231 13.6608 4.31625 13.7529 4.34031 13.8409L3.58331 14.6029C3.58331 14.6029 4.48244 14.6029 4.92931 14.6029C4.92931 16 3.88681 16 3.88681 17.3913L4.46513 18.7826H7.94338L8.52312 17.3913H8.52287C8.58094 17.2578 8.61619 17.1201 8.63075 16.9825C9.1305 16.7804 9.28244 16.2609 9.28244 16.2609Z" fill="#FFDA44"/>
</g>
<defs>
<clipPath id="clip0_280_16595">
<rect width="32" height="32" fill="white"/>
</clipPath>
</defs>
</svg>
