<svg width="52" height="51" viewBox="0 0 52 51" fill="none" xmlns="http://www.w3.org/2000/svg">
<path d="M37.3342 18.9758C35.0336 18.9758 33.0035 20.084 31.7721 21.7748C31.0466 22.7754 30.5916 23.9722 30.5248 25.2799C30.5216 25.3812 30.5152 25.4889 30.5152 25.5934C30.5152 27.9111 28.5838 29.7888 26.2036 29.7888H26.1941C23.8172 29.7888 21.8825 27.9111 21.8825 25.5934C21.8825 25.4921 21.8793 25.3844 21.873 25.2799C21.8125 23.9722 21.3575 22.7754 20.6256 21.7748C19.4069 20.0808 17.3736 18.9758 15.0762 18.9758C11.5092 18.9758 8.58499 21.6386 8.28588 25.0266C8.28588 25.0266 8.26361 25.2989 8.26679 25.3654C8.31134 25.9955 8.84591 26.499 9.50776 26.499C10.1696 26.499 10.736 25.9448 10.7583 25.2831C10.841 24.197 11.3501 23.2281 12.1234 22.5316C12.8998 21.835 13.9339 21.4043 15.0699 21.4043C17.3418 21.4043 19.2033 23.1142 19.3687 25.2831L19.3878 25.6219C19.391 27.0372 19.8524 28.3418 20.6352 29.4151C21.8666 31.1091 23.9031 32.2173 26.1973 32.2173H26.2068C28.501 32.2173 30.5375 31.1091 31.7689 29.4151C32.5517 28.3418 33.0099 27.0404 33.0163 25.6219L33.0354 25.2831C33.2008 23.111 35.0623 21.4043 37.3342 21.4043C38.4702 21.4043 39.5075 21.8318 40.2807 22.5316C41.054 23.2281 41.5631 24.197 41.6458 25.2831C41.6745 25.9448 42.2058 26.499 42.8963 26.499C43.5868 26.499 44.0928 25.9987 44.1373 25.3654C44.1469 25.2989 44.1246 25.0266 44.1246 25.0266C43.8255 21.6355 40.9012 18.9758 37.3342 18.9758Z" fill="#131F44"/>
<path d="M26 0C11.6397 0 0 11.4178 0 25.5016C0 39.5854 11.6397 51 26 51C40.3603 51 52 39.5822 52 25.5016C52 11.4209 40.3603 0 26 0ZM41.6458 25.2894C41.5631 24.2034 41.054 23.2345 40.2807 22.5379C39.5075 21.8413 38.4702 21.4107 37.3342 21.4107C35.0623 21.4107 33.2008 23.1173 33.0354 25.2894L33.0163 25.6282C33.0131 27.0436 32.5517 28.3481 31.7689 29.4215C30.5375 31.1155 28.501 32.2237 26.2068 32.2237H26.1973C23.9031 32.2237 21.8666 31.1155 20.6352 29.4215C19.8524 28.3481 19.3942 27.0467 19.3878 25.6282L19.3687 25.2894C19.2033 23.1237 17.3418 21.4107 15.0699 21.4107C13.9339 21.4107 12.8998 21.8381 12.1234 22.5379C11.3501 23.2345 10.841 24.2034 10.7583 25.2894C10.736 25.9512 10.2014 26.5053 9.50777 26.5053C8.8141 26.5053 8.31134 26.0019 8.2668 25.3718C8.26361 25.3053 8.28589 25.033 8.28589 25.033C8.585 21.6418 11.5092 18.9821 15.0762 18.9821C17.3736 18.9821 19.4069 20.0903 20.6256 21.7811C21.3575 22.7817 21.8125 23.9786 21.873 25.2863C21.8761 25.3876 21.8825 25.4952 21.8825 25.5997C21.8825 27.9175 23.8172 29.7951 26.1941 29.7951H26.2036C28.587 29.7951 30.5152 27.9175 30.5152 25.5997C30.5152 25.4984 30.5184 25.3908 30.5248 25.2863C30.5884 23.9786 31.0434 22.7817 31.7721 21.7811C33.0035 20.0872 35.0368 18.9821 37.3342 18.9821C40.9012 18.9821 43.8255 21.645 44.1246 25.033C44.1246 25.033 44.1469 25.3053 44.1373 25.3718C44.0928 26.005 43.5582 26.5053 42.8963 26.5053C42.2345 26.5053 41.6745 25.9512 41.6458 25.2894Z" fill="white"/>
</svg>
