<svg width="25" height="24" viewBox="0 0 25 24" fill="none" xmlns="http://www.w3.org/2000/svg">
<ellipse cx="12.2474" cy="12" rx="12.2474" ry="12" fill="#0B0B0B" fill-opacity="0.5"/>
<path d="M20.7846 11.7784C20.6438 10.183 19.2663 8.93018 17.5856 8.93018C16.5026 8.93018 15.5453 9.45148 14.9649 10.2482C14.6227 10.719 14.4082 11.2824 14.3779 11.8983C14.3757 11.9466 14.3736 11.9971 14.3736 12.0454C14.3736 13.1364 13.4639 14.0192 12.342 14.0192C12.3398 14.0192 12.3398 14.0192 12.3398 14.0192H12.3377C11.2179 14.0192 10.3061 13.1364 10.3061 12.0454C10.3061 11.9971 10.3039 11.9466 10.3017 11.8983C10.2736 11.2824 10.0591 10.719 9.71476 10.2482C9.1408 9.45148 8.18348 8.93018 7.10054 8.93018C5.41981 8.93018 4.04231 10.183 3.90153 11.7784C3.90153 11.7784 3.8907 11.9067 3.89286 11.9382C3.91452 12.2346 4.16577 12.4721 4.47765 12.4721C4.8047 12.4721 5.05594 12.2115 5.06677 11.9004C5.10576 11.3896 5.34617 10.9334 5.71004 10.6055C6.07608 10.2776 6.5634 10.0758 7.09837 10.0758C8.16832 10.0758 9.04551 10.8809 9.12348 11.9004L9.13214 12.0601C9.13431 12.7265 9.3509 13.3403 9.7191 13.8448C10.2996 14.6414 11.259 15.1627 12.3398 15.1627C12.342 15.1627 12.342 15.1627 12.342 15.1627H12.3441C13.4249 15.1627 14.3844 14.6414 14.9649 13.8448C15.3331 13.3403 15.5497 12.7265 15.5518 12.0601L15.5605 11.9004C15.6385 10.8788 16.5156 10.0758 17.5856 10.0758C18.1206 10.0758 18.6101 10.2776 18.9739 10.6055C19.3378 10.9334 19.5782 11.3896 19.6172 11.9004C19.6302 12.2115 19.8814 12.4721 20.2063 12.4721C20.5182 12.4721 20.7694 12.2367 20.7911 11.9382C20.7954 11.9067 20.7846 11.7784 20.7846 11.7784Z" fill="white"/>
</svg>
