<svg width="103" height="17" viewBox="0 0 103 17" fill="none" xmlns="http://www.w3.org/2000/svg">
<path d="M12.0632 8.59598H14.8733V14.8415C14.0509 15.4832 13.0913 15.9757 11.9946 16.3189C10.898 16.6622 9.77087 16.8338 8.61329 16.8338C6.98354 16.8338 5.51373 16.4906 4.20383 15.8041C2.89394 15.1027 1.86583 14.1401 1.1195 12.9164C0.373166 11.6926 0 10.3122 0 8.77507C0 7.23794 0.373166 5.85751 1.1195 4.63377C1.86583 3.41004 2.89394 2.45493 4.20383 1.76844C5.52896 1.06704 7.01401 0.716332 8.65899 0.716332C9.99934 0.716332 11.2178 0.932724 12.3145 1.36551C13.4111 1.79829 14.3326 2.43254 15.079 3.26826L13.2055 5.05909C11.987 3.86521 10.5172 3.26826 8.79607 3.26826C7.66895 3.26826 6.66369 3.49958 5.78027 3.96221C4.91209 4.42484 4.22668 5.07402 3.72405 5.90974C3.23665 6.74546 2.99295 7.70057 2.99295 8.77507C2.99295 9.81972 3.23665 10.7599 3.72405 11.5956C4.22668 12.4313 4.91209 13.088 5.78027 13.5655C6.66369 14.0431 7.66134 14.2819 8.77322 14.2819C10.0222 14.2819 11.1188 14.0132 12.0632 13.476V8.59598Z" fill="#0B0B0B" fill-opacity="0.5"/>
<path d="M18.5165 0H21.3724V16.6099H18.5165V0Z" fill="#0B0B0B" fill-opacity="0.5"/>
<path d="M30.604 16.7666C29.3703 16.7666 28.2584 16.5055 27.2683 15.9832C26.2783 15.4608 25.5015 14.737 24.938 13.8118C24.3896 12.8716 24.1155 11.812 24.1155 10.6331C24.1155 9.45409 24.3896 8.40198 24.938 7.47672C25.5015 6.55145 26.2783 5.82766 27.2683 5.30533C28.2584 4.78301 29.3703 4.52185 30.604 4.52185C31.853 4.52185 32.9725 4.78301 33.9625 5.30533C34.9525 5.82766 35.7217 6.55145 36.27 7.47672C36.8336 8.40198 37.1154 9.45409 37.1154 10.6331C37.1154 11.812 36.8336 12.8716 36.27 13.8118C35.7217 14.737 34.9525 15.4608 33.9625 15.9832C32.9725 16.5055 31.853 16.7666 30.604 16.7666ZM30.604 14.3714C31.655 14.3714 32.5231 14.0282 33.2085 13.3417C33.8939 12.6552 34.2367 11.7523 34.2367 10.6331C34.2367 9.51378 33.8939 8.61091 33.2085 7.92442C32.5231 7.23794 31.655 6.8947 30.604 6.8947C29.553 6.8947 28.6848 7.23794 27.9994 7.92442C27.3293 8.61091 26.9942 9.51378 26.9942 10.6331C26.9942 11.7523 27.3293 12.6552 27.9994 13.3417C28.6848 14.0282 29.553 14.3714 30.604 14.3714Z" fill="#0B0B0B" fill-opacity="0.5"/>
<path d="M46.609 4.52185C47.797 4.52185 48.8556 4.77555 49.7847 5.28295C50.729 5.79035 51.4678 6.50668 52.0009 7.43194C52.534 8.35721 52.8005 9.42424 52.8005 10.6331C52.8005 11.8419 52.534 12.9164 52.0009 13.8565C51.4678 14.7818 50.729 15.4981 49.7847 16.0055C48.8556 16.5129 47.797 16.7666 46.609 16.7666C45.7713 16.7666 45.0021 16.6249 44.3014 16.3413C43.616 16.0578 43.0372 15.6325 42.5651 15.0654V16.6099H39.8463V0H42.7022V6.11121C43.1896 5.58888 43.7607 5.19341 44.4157 4.92478C45.0859 4.65616 45.817 4.52185 46.609 4.52185ZM46.2891 14.3714C47.3401 14.3714 48.2006 14.0282 48.8708 13.3417C49.5562 12.6552 49.8989 11.7523 49.8989 10.6331C49.8989 9.51378 49.5562 8.61091 48.8708 7.92442C48.2006 7.23794 47.3401 6.8947 46.2891 6.8947C45.6037 6.8947 44.9868 7.05139 44.4385 7.36479C43.8902 7.66326 43.4561 8.09604 43.1362 8.66314C42.8164 9.23024 42.6565 9.88687 42.6565 10.6331C42.6565 11.3792 42.8164 12.0359 43.1362 12.603C43.4561 13.1701 43.8902 13.6103 44.4385 13.9237C44.9868 14.2222 45.6037 14.3714 46.2891 14.3714Z" fill="#0B0B0B" fill-opacity="0.5"/>
<path d="M60.0135 4.52185C61.8108 4.52185 63.1816 4.94717 64.126 5.79781C65.0855 6.63353 65.5653 7.90204 65.5653 9.60333V16.6099H62.8694V15.1549C62.5191 15.6772 62.0164 16.0802 61.3615 16.3637C60.7218 16.6323 59.945 16.7666 59.0311 16.7666C58.1172 16.7666 57.3176 16.6174 56.6322 16.3189C55.9468 16.0055 55.4137 15.5802 55.0329 15.043C54.6673 14.4908 54.4846 13.8715 54.4846 13.185C54.4846 12.1105 54.8882 11.2524 55.6955 10.6107C56.5179 9.95403 57.805 9.62571 59.5566 9.62571H62.7095V9.44663C62.7095 8.61091 62.4505 7.96919 61.9327 7.52149C61.43 7.07378 60.6761 6.84993 59.6708 6.84993C58.9854 6.84993 58.3076 6.95439 57.6374 7.16332C56.9825 7.37225 56.4266 7.66326 55.9696 8.03635L54.8501 5.99928C55.4898 5.52173 56.259 5.1561 57.1577 4.9024C58.0563 4.6487 59.0083 4.52185 60.0135 4.52185ZM59.6251 14.7296C60.341 14.7296 60.9731 14.5729 61.5214 14.2595C62.085 13.9312 62.481 13.4685 62.7095 12.8716V11.4837H59.7622C58.1172 11.4837 57.2947 12.0135 57.2947 13.0731C57.2947 13.5805 57.5004 13.9834 57.9116 14.2819C58.3228 14.5803 58.894 14.7296 59.6251 14.7296Z" fill="#0B0B0B" fill-opacity="0.5"/>
<path d="M69.2305 0H72.0863V16.6099H69.2305V0Z" fill="#0B0B0B" fill-opacity="0.5"/>
<path d="M82.2318 6.93947C83.2828 6.93947 84.2271 7.14093 85.0648 7.54387C85.9025 7.93188 86.5575 8.49152 87.0297 9.22277C87.5018 9.95403 87.7379 10.7972 87.7379 11.7523C87.7379 12.7671 87.479 13.6625 86.9611 14.4386C86.4432 15.1997 85.7426 15.7891 84.8592 16.207C83.9758 16.6249 82.9858 16.8338 81.8891 16.8338C79.6958 16.8338 77.9899 16.1622 76.7714 14.8191C75.5681 13.476 74.9665 11.5509 74.9665 9.04369C74.9665 7.28271 75.2939 5.78289 75.9489 4.54423C76.6038 3.29065 77.5177 2.343 78.6905 1.70129C79.8786 1.04465 81.2494 0.716332 82.803 0.716332C83.6255 0.716332 84.3946 0.805874 85.1105 0.984957C85.8416 1.14912 86.4737 1.39536 87.0068 1.72367L85.9102 3.91744C85.1181 3.41004 84.1052 3.15634 82.8715 3.15634C81.3332 3.15634 80.1299 3.61897 79.2617 4.54423C78.3935 5.46949 77.9594 6.80515 77.9594 8.55121V8.5736C78.4316 8.03635 79.0332 7.63341 79.7643 7.36479C80.4954 7.08124 81.3179 6.93947 82.2318 6.93947ZM81.7292 14.5505C82.6583 14.5505 83.4122 14.3117 83.991 13.8342C84.5698 13.3417 84.8592 12.6925 84.8592 11.8866C84.8592 11.0658 84.5698 10.4167 83.991 9.93911C83.4122 9.46155 82.6354 9.22277 81.6606 9.22277C80.7011 9.22277 79.9166 9.47647 79.3074 9.98388C78.7134 10.4913 78.4164 11.133 78.4164 11.909C78.4164 12.6701 78.7058 13.3044 79.2845 13.8118C79.8786 14.3043 80.6934 14.5505 81.7292 14.5505Z" fill="#0B0B0B" fill-opacity="0.5"/>
<path d="M96.5557 6.93947C97.6067 6.93947 98.551 7.14093 99.3888 7.54387C100.226 7.93188 100.881 8.49152 101.354 9.22277C101.826 9.95403 102.062 10.7972 102.062 11.7523C102.062 12.7671 101.803 13.6625 101.285 14.4386C100.767 15.1997 100.067 15.7891 99.1831 16.207C98.2997 16.6249 97.3097 16.8338 96.213 16.8338C94.0197 16.8338 92.3138 16.1622 91.0953 14.8191C89.8921 13.476 89.2904 11.5509 89.2904 9.04369C89.2904 7.28271 89.6179 5.78289 90.2728 4.54423C90.9278 3.29065 91.8417 2.343 93.0145 1.70129C94.2025 1.04465 95.5733 0.716332 97.1269 0.716332C97.9494 0.716332 98.7186 0.805874 99.4345 0.984957C100.166 1.14912 100.798 1.39536 101.331 1.72367L100.234 3.91744C99.4421 3.41004 98.4292 3.15634 97.1955 3.15634C95.6571 3.15634 94.4538 3.61897 93.5856 4.54423C92.7175 5.46949 92.2834 6.80515 92.2834 8.55121V8.5736C92.7555 8.03635 93.3572 7.63341 94.0883 7.36479C94.8194 7.08124 95.6419 6.93947 96.5557 6.93947ZM96.0531 14.5505C96.9822 14.5505 97.7362 14.3117 98.315 13.8342C98.8938 13.3417 99.1831 12.6925 99.1831 11.8866C99.1831 11.0658 98.8938 10.4167 98.315 9.93911C97.7362 9.46155 96.9594 9.22277 95.9846 9.22277C95.025 9.22277 94.2406 9.47647 93.6313 9.98388C93.0373 10.4913 92.7403 11.133 92.7403 11.909C92.7403 12.6701 93.0297 13.3044 93.6085 13.8118C94.2025 14.3043 95.0174 14.5505 96.0531 14.5505Z" fill="#0B0B0B" fill-opacity="0.5"/>
</svg>
