<svg width="44" height="14" viewBox="0 0 44 14" fill="none" xmlns="http://www.w3.org/2000/svg">
<path d="M21.4893 0.248323L18.5898 13.7881H15.083L17.9828 0.248323H21.4893Z" fill="white"/>
<path fill-rule="evenodd" clip-rule="evenodd" d="M43.4009 13.7857H40.1575L39.7328 11.7633H35.2341L34.5034 13.7857H30.8202L36.082 1.23909C36.3339 0.636529 36.9021 0.245911 37.5763 0.245911H40.5674L43.4009 13.7857ZM38.0891 3.90631L36.2425 8.99112H39.1507L38.0891 3.90631Z" fill="white"/>
<path d="M31.0025 9.36681C31.0185 5.79395 26.0575 5.59526 26.0905 3.99921C26.101 3.51402 26.5642 2.9971 27.5774 2.86525C28.0795 2.80055 29.4653 2.74818 31.0364 3.47089L31.6508 0.598865C30.8063 0.293887 29.7213 0 28.3704 0C24.9036 0 22.4649 1.83972 22.4449 4.47577C22.4223 6.42516 24.1872 7.51168 25.5134 8.16045C26.8816 8.82463 27.3399 9.25036 27.3331 9.84276C27.3229 10.7515 26.2419 11.1535 25.2355 11.1686C23.4713 11.1961 22.4495 10.6927 21.634 10.3129L20.998 13.2813C21.8178 13.6565 23.3307 13.9827 24.8959 14C28.5823 14 30.992 12.1818 31.0025 9.36681Z" fill="white"/>
<path d="M16.4774 0.248323L10.7953 13.7881L7.08858 13.7881L4.29176 2.98203C4.12274 2.31786 3.9747 2.07357 3.45901 1.79323C2.61577 1.33546 1.22384 0.907569 0 0.641099L0.0826585 0.248323H6.05011C6.80976 0.248323 7.49416 0.753847 7.66842 1.62781L9.14579 9.46357L12.7932 0.248323H16.4774Z" fill="white"/>
</svg>
