<svg width="194" height="36" viewBox="0 0 194 36" fill="none" xmlns="http://www.w3.org/2000/svg">
<circle cx="18" cy="18" r="18" fill="#1F49B6"/>
<path d="M30.547 17.6678C30.34 15.2746 28.3155 13.3954 25.8454 13.3954C24.2538 13.3954 22.8468 14.1773 21.9937 15.3724C21.4908 16.0786 21.1756 16.9237 21.1311 17.8475C21.1279 17.92 21.1247 17.9957 21.1247 18.0682C21.1247 19.7047 19.7878 21.029 18.1389 21.029C18.1357 21.029 18.1357 21.029 18.1357 21.029H18.1325C16.4868 21.029 15.1467 19.7047 15.1467 18.0682C15.1467 17.9957 15.1435 17.92 15.1403 17.8475C15.0989 16.9237 14.7838 16.0786 14.2776 15.3724C13.4341 14.1773 12.0271 13.3954 10.4355 13.3954C7.96537 13.3954 5.94086 15.2746 5.73395 17.6678C5.73395 17.6678 5.71803 17.8601 5.72122 17.9074C5.75305 18.352 6.1223 18.7083 6.58068 18.7083C7.06134 18.7083 7.43059 18.3173 7.44651 17.8507C7.5038 17.0845 7.85714 16.4003 8.39192 15.9084C8.92988 15.4165 9.6461 15.1138 10.4323 15.1138C12.0048 15.1138 13.294 16.3214 13.4086 17.8507L13.4214 18.0903C13.4245 19.0898 13.7429 20.0105 14.284 20.7673C15.1371 21.9623 16.5473 22.7442 18.1357 22.7442C18.1389 22.7442 18.1389 22.7442 18.1389 22.7442H18.142C19.7305 22.7442 21.1406 21.9623 21.9937 20.7673C22.5349 20.0105 22.8532 19.0898 22.8564 18.0903L22.8691 17.8507C22.9837 16.3183 24.2729 15.1138 25.8454 15.1138C26.6316 15.1138 27.351 15.4165 27.8858 15.9084C28.4206 16.4003 28.7739 17.0845 28.8312 17.8507C28.8503 18.3173 29.2196 18.7083 29.697 18.7083C30.1554 18.7083 30.5247 18.3552 30.5565 17.9074C30.5629 17.8601 30.547 17.6678 30.547 17.6678Z" fill="white"/>
<path d="M61.7292 18.2686H65.8593V27.6369C64.6505 28.5995 63.2402 29.3382 61.6285 29.853C60.0167 30.3679 58.3602 30.6253 56.6589 30.6253C54.2637 30.6253 52.1035 30.1105 50.1784 29.0807C48.2532 28.0286 46.7422 26.5848 45.6453 24.7492C44.5484 22.9136 44 20.8429 44 18.5372C44 16.2315 44.5484 14.1609 45.6453 12.3253C46.7422 10.4897 48.2532 9.05703 50.1784 8.0273C52.1259 6.97519 54.3085 6.44913 56.7261 6.44913C58.696 6.44913 60.4868 6.77372 62.0986 7.4229C63.7103 8.07207 65.0646 9.02345 66.1615 10.277L63.4081 12.9633C61.6173 11.1724 59.4571 10.277 56.9276 10.277C55.271 10.277 53.7936 10.624 52.4952 11.318C51.2193 12.0119 50.2119 12.9857 49.4732 14.2392C48.7569 15.4928 48.3987 16.9255 48.3987 18.5372C48.3987 20.1042 48.7569 21.5145 49.4732 22.7681C50.2119 24.0217 51.2193 25.0066 52.4952 25.7229C53.7936 26.4393 55.2598 26.7974 56.894 26.7974C58.7296 26.7974 60.3413 26.3945 61.7292 25.5886V18.2686Z" fill="#1F49B6"/>
<path d="M71.2137 5.37463H75.411V30.2896H71.2137V5.37463Z" fill="#1F49B6"/>
<path d="M88.9786 30.5246C87.1654 30.5246 85.5312 30.1329 84.0762 29.3494C82.6211 28.5659 81.4795 27.4802 80.6512 26.0923C79.8454 24.682 79.4424 23.0927 79.4424 21.3242C79.4424 19.5558 79.8454 17.9776 80.6512 16.5897C81.4795 15.2018 82.6211 14.1161 84.0762 13.3326C85.5312 12.5491 87.1654 12.1574 88.9786 12.1574C90.8142 12.1574 92.4595 12.5491 93.9146 13.3326C95.3696 14.1161 96.5001 15.2018 97.306 16.5897C98.1342 17.9776 98.5483 19.5558 98.5483 21.3242C98.5483 23.0927 98.1342 24.682 97.306 26.0923C96.5001 27.4802 95.3696 28.5659 93.9146 29.3494C92.4595 30.1329 90.8142 30.5246 88.9786 30.5246ZM88.9786 26.9317C90.5232 26.9317 91.7991 26.4169 92.8065 25.3872C93.8138 24.3574 94.3175 23.0031 94.3175 21.3242C94.3175 19.6453 93.8138 18.291 92.8065 17.2613C91.7991 16.2315 90.5232 15.7167 88.9786 15.7167C87.434 15.7167 86.158 16.2315 85.1507 17.2613C84.1657 18.291 83.6733 19.6453 83.6733 21.3242C83.6733 23.0031 84.1657 24.3574 85.1507 25.3872C86.158 26.4169 87.434 26.9317 88.9786 26.9317Z" fill="#1F49B6"/>
<path d="M112.501 12.1574C114.247 12.1574 115.803 12.538 117.168 13.2991C118.556 14.0602 119.642 15.1347 120.425 16.5226C121.209 17.9104 121.601 19.511 121.601 21.3242C121.601 23.1374 121.209 24.7492 120.425 26.1595C119.642 27.5473 118.556 28.6218 117.168 29.3829C115.803 30.1441 114.247 30.5246 112.501 30.5246C111.27 30.5246 110.139 30.3119 109.11 29.8866C108.102 29.4613 107.252 28.8233 106.558 27.9727V30.2896H102.562V5.37463H106.759V14.5414C107.476 13.758 108.315 13.1647 109.278 12.7618C110.263 12.3589 111.337 12.1574 112.501 12.1574ZM112.031 26.9317C113.576 26.9317 114.84 26.4169 115.825 25.3872C116.833 24.3574 117.336 23.0031 117.336 21.3242C117.336 19.6453 116.833 18.291 115.825 17.2613C114.84 16.2315 113.576 15.7167 112.031 15.7167C111.024 15.7167 110.117 15.9517 109.311 16.4218C108.505 16.8695 107.867 17.5187 107.397 18.3693C106.927 19.22 106.692 20.2049 106.692 21.3242C106.692 22.4435 106.927 23.4284 107.397 24.2791C107.867 25.1297 108.505 25.7901 109.311 26.2602C110.117 26.7079 111.024 26.9317 112.031 26.9317Z" fill="#1F49B6"/>
<path d="M132.202 12.1574C134.843 12.1574 136.858 12.7954 138.246 14.0714C139.656 15.3249 140.361 17.2277 140.361 19.7796V30.2896H136.399V28.107C135.884 28.8905 135.145 29.4949 134.183 29.9202C133.243 30.3231 132.101 30.5246 130.758 30.5246C129.415 30.5246 128.239 30.3007 127.232 29.853C126.225 29.3829 125.441 28.745 124.882 27.9391C124.344 27.1108 124.076 26.1818 124.076 25.1521C124.076 23.5404 124.669 22.2532 125.855 21.2906C127.064 20.3057 128.956 19.8132 131.53 19.8132H136.164V19.5446C136.164 18.291 135.783 17.3284 135.022 16.6569C134.284 15.9853 133.175 15.6495 131.698 15.6495C130.691 15.6495 129.695 15.8062 128.71 16.1196C127.747 16.433 126.93 16.8695 126.258 17.4292L124.613 14.3736C125.553 13.6572 126.684 13.1088 128.004 12.7282C129.325 12.3477 130.724 12.1574 132.202 12.1574ZM131.631 27.469C132.683 27.469 133.612 27.234 134.418 26.7639C135.246 26.2714 135.828 25.5774 136.164 24.682V22.6002H131.832C129.415 22.6002 128.206 23.3949 128.206 24.9842C128.206 25.7453 128.508 26.3497 129.113 26.7974C129.717 27.2451 130.556 27.469 131.631 27.469Z" fill="#1F49B6"/>
<path d="M145.748 5.37463H149.945V30.2896H145.748V5.37463Z" fill="#1F49B6"/>
<path d="M164.856 15.7838C166.4 15.7838 167.788 16.086 169.02 16.6904C170.251 17.2725 171.213 18.1119 171.907 19.2088C172.601 20.3057 172.948 21.5705 172.948 23.0031C172.948 24.5253 172.568 25.8684 171.806 27.0325C171.045 28.1741 170.016 29.0584 168.717 29.6852C167.419 30.3119 165.964 30.6253 164.352 30.6253C161.129 30.6253 158.621 29.618 156.831 27.6033C155.062 25.5886 154.178 22.7009 154.178 18.9402C154.178 16.2987 154.659 14.049 155.622 12.191C156.584 10.3106 157.928 8.88914 159.651 7.92657C161.397 6.94161 163.412 6.44913 165.695 6.44913C166.904 6.44913 168.035 6.58344 169.087 6.85207C170.161 7.09831 171.09 7.46767 171.874 7.96015L170.262 11.2508C169.098 10.4897 167.609 10.1091 165.796 10.1091C163.535 10.1091 161.767 10.8031 160.491 12.191C159.215 13.5789 158.577 15.5824 158.577 18.2015V18.235C159.271 17.4292 160.155 16.8248 161.229 16.4218C162.304 15.9965 163.513 15.7838 164.856 15.7838ZM164.117 27.2004C165.483 27.2004 166.591 26.8422 167.441 26.1259C168.292 25.3872 168.717 24.4134 168.717 23.2046C168.717 21.9734 168.292 20.9996 167.441 20.2833C166.591 19.567 165.449 19.2088 164.016 19.2088C162.606 19.2088 161.453 19.5893 160.558 20.3504C159.685 21.1116 159.248 22.0741 159.248 23.2382C159.248 24.3798 159.674 25.3312 160.524 26.0923C161.397 26.831 162.595 27.2004 164.117 27.2004Z" fill="#1F49B6"/>
<path d="M185.908 15.7838C187.452 15.7838 188.84 16.086 190.071 16.6904C191.303 17.2725 192.265 18.1119 192.959 19.2088C193.653 20.3057 194 21.5705 194 23.0031C194 24.5253 193.619 25.8684 192.858 27.0325C192.097 28.1741 191.068 29.0584 189.769 29.6852C188.471 30.3119 187.016 30.6253 185.404 30.6253C182.181 30.6253 179.673 29.618 177.883 27.6033C176.114 25.5886 175.23 22.7009 175.23 18.9402C175.23 16.2987 175.711 14.049 176.674 12.191C177.636 10.3106 178.979 8.88914 180.703 7.92657C182.449 6.94161 184.464 6.44913 186.747 6.44913C187.956 6.44913 189.086 6.58344 190.139 6.85207C191.213 7.09831 192.142 7.46767 192.925 7.96015L191.314 11.2508C190.15 10.4897 188.661 10.1091 186.848 10.1091C184.587 10.1091 182.818 10.8031 181.543 12.191C180.267 13.5789 179.629 15.5824 179.629 18.2015V18.235C180.323 17.4292 181.207 16.8248 182.281 16.4218C183.356 15.9965 184.565 15.7838 185.908 15.7838ZM185.169 27.2004C186.534 27.2004 187.643 26.8422 188.493 26.1259C189.344 25.3872 189.769 24.4134 189.769 23.2046C189.769 21.9734 189.344 20.9996 188.493 20.2833C187.643 19.567 186.501 19.2088 185.068 19.2088C183.658 19.2088 182.505 19.5893 181.61 20.3504C180.737 21.1116 180.3 22.0741 180.3 23.2382C180.3 24.3798 180.725 25.3312 181.576 26.0923C182.449 26.831 183.647 27.2004 185.169 27.2004Z" fill="#1F49B6"/>
</svg>
