<svg width="366" height="46" viewBox="0 0 366 46" fill="none" xmlns="http://www.w3.org/2000/svg">
<path d="M79.6348 23.1891H82.8676V32.2524C81.7003 33.205 80.3424 33.9338 78.791 34.4449C77.2427 34.953 75.6248 35.207 73.9403 35.207C71.5603 35.207 69.4162 34.699 67.508 33.6798C65.5997 32.6395 64.0937 31.2242 62.9929 29.4309C61.9163 27.6164 61.375 25.5812 61.375 23.3221C61.375 21.0631 61.9133 19.0278 62.9929 17.2134C64.0937 15.3989 65.5967 13.9806 67.508 12.9644C69.4404 11.9453 71.6057 11.4373 74.0099 11.4373C75.8969 11.4373 77.6025 11.7457 79.1297 12.3657C80.6781 12.9644 81.9936 13.8475 83.0702 15.0209L80.9805 17.0803C79.0934 15.287 76.8163 14.3918 74.1429 14.3918C72.3466 14.3918 70.7287 14.7789 69.2922 15.5531C67.8769 16.3061 66.767 17.3676 65.9566 18.7406C65.1491 20.0893 64.7439 21.6165 64.7439 23.3221C64.7439 25.0277 65.1491 26.5307 65.9566 27.9037C66.764 29.2525 67.8769 30.317 69.2922 31.0911C70.7287 31.8653 72.3345 32.2524 74.1097 32.2524C76.2205 32.2524 78.0622 31.7534 79.6348 30.7585V23.1891Z" fill="#131F44"/>
<path d="M89.6718 10.3093H92.9047V34.9439H89.6718V10.3093Z" fill="#131F44"/>
<path d="M107.557 35.1405C105.781 35.1405 104.188 34.7534 102.772 33.9792C101.357 33.205 100.247 32.1436 99.4368 30.7918C98.6506 29.4188 98.2574 27.8705 98.2574 26.1437C98.2574 24.4169 98.6506 22.8806 99.4368 21.5288C100.244 20.1559 101.357 19.0944 102.772 18.3414C104.188 17.5672 105.781 17.1801 107.557 17.1801C109.332 17.1801 110.913 17.5672 112.308 18.3414C113.723 19.0944 114.824 20.1559 115.61 21.5288C116.417 22.8776 116.823 24.4169 116.823 26.1437C116.823 27.8705 116.417 29.4188 115.61 30.7918C114.824 32.1405 113.723 33.205 112.308 33.9792C110.916 34.7534 109.332 35.1405 107.557 35.1405ZM107.557 32.3522C108.703 32.3522 109.725 32.0982 110.623 31.5901C111.542 31.0579 112.262 30.3291 112.779 29.3976C113.296 28.445 113.554 27.3624 113.554 26.1437C113.554 24.9249 113.296 23.8544 112.779 22.923C112.262 21.9704 111.545 21.2415 110.623 20.7305C109.725 20.2224 108.703 19.9684 107.557 19.9684C106.41 19.9684 105.379 20.2224 104.457 20.7305C103.559 21.2385 102.839 21.9704 102.301 22.923C101.784 23.8514 101.527 24.9249 101.527 26.1437C101.527 27.3624 101.784 28.445 102.301 29.3976C102.839 30.3261 103.559 31.0579 104.457 31.5901C105.376 32.0982 106.41 32.3522 107.557 32.3522Z" fill="#131F44"/>
<path d="M131.583 17.1801C133.313 17.1801 134.862 17.5551 136.232 18.3081C137.601 19.0611 138.666 20.1105 139.431 21.4623C140.217 22.8111 140.61 24.3715 140.61 26.1437C140.61 27.9158 140.217 29.4853 139.431 30.8583C138.666 32.2071 137.601 33.2595 136.232 34.0125C134.862 34.7655 133.313 35.1405 131.583 35.1405C130.259 35.1405 129.046 34.8865 127.945 34.3784C126.845 33.8703 125.934 33.1264 125.218 32.1526V34.9409H122.118V10.3093H125.351V20.0047C126.07 19.0763 126.969 18.3777 128.045 17.912C129.122 17.4251 130.301 17.1801 131.58 17.1801H131.583ZM131.314 32.3522C132.46 32.3522 133.483 32.0982 134.381 31.5901C135.3 31.0579 136.02 30.3291 136.537 29.3976C137.075 28.445 137.344 27.3624 137.344 26.1437C137.344 24.9249 137.075 23.8544 136.537 22.923C136.02 21.9704 135.303 21.2415 134.381 20.7305C133.483 20.2224 132.46 19.9684 131.314 19.9684C130.168 19.9684 129.17 20.2224 128.248 20.7305C127.328 21.2385 126.609 21.9704 126.092 22.923C125.574 23.8514 125.317 24.9249 125.317 26.1437C125.317 27.3624 125.574 28.445 126.092 29.3976C126.606 30.3261 127.325 31.0579 128.248 31.5901C129.17 32.0982 130.189 32.3522 131.314 32.3522Z" fill="#131F44"/>
<path d="M152.244 17.1801C154.715 17.1801 156.599 17.7789 157.903 18.9734C159.227 20.168 159.889 21.9492 159.889 24.3171V34.9409H156.823V32.6184C156.285 33.4379 155.51 34.0669 154.5 34.5115C153.511 34.9318 152.332 35.1435 150.962 35.1435C148.963 35.1435 147.357 34.6687 146.145 33.7161C144.953 32.7635 144.357 31.5145 144.357 29.9632C144.357 28.4118 144.932 27.1749 146.075 26.2435C147.221 25.2909 149.039 24.8161 151.531 24.8161H156.651V24.184C156.651 22.8111 156.245 21.7617 155.438 21.0298C154.63 20.298 153.439 19.9351 151.869 19.9351C150.814 19.9351 149.78 20.1135 148.77 20.4674C147.76 20.8 146.904 21.2536 146.208 21.8282L144.862 19.4391C145.785 18.7073 146.883 18.1539 148.165 17.7789C149.444 17.3797 150.805 17.1801 152.241 17.1801H152.244ZM151.503 32.6849C152.737 32.6849 153.805 32.4188 154.703 31.8895C155.601 31.3361 156.251 30.5619 156.657 29.567V27.1114H151.67C148.93 27.1114 147.56 28.0186 147.56 29.8331C147.56 30.7192 147.908 31.4147 148.603 31.9258C149.299 32.4339 150.264 32.6879 151.5 32.6879L151.503 32.6849Z" fill="#131F44"/>
<path d="M166.703 10.3093H169.936V34.9439H166.703V10.3093Z" fill="#131F44"/>
<path d="M185.664 20.8332C187.216 20.8332 188.595 21.1205 189.807 21.6951C191.041 22.2697 192.009 23.1013 192.704 24.184C193.4 25.2455 193.748 26.4733 193.748 27.8704C193.748 29.2676 193.379 30.6163 192.635 31.7201C191.915 32.827 190.917 33.6889 189.638 34.3088C188.38 34.9076 186.965 35.204 185.395 35.204C182.229 35.204 179.779 34.1969 178.052 32.1828C176.344 30.1688 175.491 27.314 175.491 23.6185C175.491 21.0298 175.954 18.8252 176.873 17.0107C177.817 15.1751 179.12 13.79 180.78 12.8616C182.465 11.909 184.418 11.4342 186.641 11.4342C187.787 11.4342 188.864 11.5552 189.874 11.8001C190.884 12.0209 191.761 12.3535 192.502 12.7951L191.223 15.3837C190.101 14.6519 188.595 14.289 186.711 14.289C184.264 14.289 182.344 15.042 180.95 16.548C179.558 18.0299 178.863 20.2012 178.863 23.056C178.863 23.4098 178.875 23.688 178.896 23.8846C179.571 22.8897 180.49 22.1366 181.657 21.6256C182.849 21.0933 184.185 20.8302 185.667 20.8302L185.664 20.8332ZM185.259 32.5185C186.81 32.5185 188.065 32.1103 189.033 31.2907C189.998 30.4712 190.482 29.3764 190.482 28.0035C190.482 26.6305 189.986 25.5479 189 24.7495C188.035 23.93 186.732 23.5217 185.093 23.5217C184.037 23.5217 183.094 23.7213 182.262 24.1205C181.455 24.5197 180.813 25.061 180.342 25.7475C179.891 26.4339 179.667 27.196 179.667 28.0367C179.667 28.8774 179.879 29.6093 180.308 30.2958C180.756 30.9611 181.397 31.5024 182.229 31.9228C183.082 32.3219 184.092 32.5215 185.259 32.5215V32.5185Z" fill="#131F44"/>
<path d="M207.281 20.8332C208.832 20.8332 210.211 21.1205 211.424 21.6951C212.658 22.2697 213.625 23.1013 214.321 24.184C215.016 25.2455 215.364 26.4733 215.364 27.8704C215.364 29.2676 214.995 30.6163 214.254 31.7201C213.535 32.827 212.537 33.6889 211.257 34.3088C209.999 34.9076 208.584 35.204 207.012 35.204C203.845 35.204 201.399 34.1969 199.669 32.1828C197.963 30.1688 197.111 27.314 197.111 23.6185C197.111 21.0298 197.57 18.8252 198.493 17.0107C199.436 15.1751 200.736 13.79 202.4 12.8616C204.084 11.909 206.038 11.4342 208.261 11.4342C209.407 11.4342 210.483 11.5552 211.493 11.8001C212.503 12.0209 213.38 12.3535 214.121 12.7951L212.842 15.3837C211.72 14.6519 210.217 14.289 208.33 14.289C205.884 14.289 203.963 15.042 202.569 16.548C201.178 18.0299 200.479 20.2012 200.479 23.056C200.479 23.4098 200.492 23.688 200.513 23.8846C201.187 22.8897 202.106 22.1366 203.274 21.6256C204.462 21.0933 205.802 20.8302 207.281 20.8302V20.8332ZM206.879 32.5185C208.427 32.5185 209.685 32.1103 210.653 31.2907C211.617 30.4712 212.101 29.3764 212.101 28.0035C212.101 26.6305 211.605 25.5479 210.619 24.7495C209.655 23.93 208.351 23.5217 206.712 23.5217C205.657 23.5217 204.713 23.7213 203.882 24.1205C203.074 24.5197 202.433 25.061 201.961 25.7475C201.514 26.4339 201.287 27.196 201.287 28.0367C201.287 28.8774 201.502 29.6093 201.928 30.2958C202.376 30.9611 203.017 31.5024 203.848 31.9228C204.701 32.3219 205.714 32.5215 206.882 32.5215L206.879 32.5185Z" fill="#131F44"/>
<path d="M230.497 35.0044V10.5331H241.054C243.782 10.5331 245.896 11.0804 247.399 12.1752C248.902 13.2699 249.655 14.8213 249.655 16.8263C249.655 18.1539 249.346 19.2728 248.729 20.1831C248.113 21.0934 247.272 21.7799 246.213 22.2456C245.152 22.7113 243.994 22.9442 242.736 22.9442L243.331 22.1065C244.892 22.1065 246.238 22.3454 247.369 22.8232C248.5 23.301 249.38 24.0117 250.009 24.9552C250.638 25.8987 250.952 27.0691 250.952 28.4693C250.952 30.5438 250.187 32.1527 248.663 33.2928C247.136 34.4359 244.834 35.0044 241.759 35.0044H230.5H230.497ZM233.083 32.8724H241.716C243.861 32.8724 245.503 32.5065 246.646 31.7716C247.789 31.0368 248.357 29.8664 248.357 28.2576C248.357 26.6487 247.786 25.5117 246.646 24.7798C245.503 24.0449 243.861 23.679 241.716 23.679H232.801V21.547H240.879C242.835 21.547 244.357 21.175 245.442 20.4281C246.525 19.6811 247.069 18.5743 247.069 17.1076C247.069 15.6409 246.528 14.5038 245.442 13.7689C244.36 13.034 242.838 12.6681 240.879 12.6681H233.083V32.8754V32.8724Z" fill="#131F44"/>
<path d="M261.821 35.1798C260.261 35.1798 258.897 34.8895 257.729 34.3058C256.565 33.7222 255.661 32.8482 255.02 31.6839C254.379 30.5196 254.058 29.062 254.058 27.314V16.6509H256.541V27.0328C256.541 28.9894 257.025 30.4652 257.992 31.4541C258.96 32.446 260.318 32.9389 262.066 32.9389C263.348 32.9389 264.461 32.6758 265.405 32.1527C266.348 31.6295 267.071 30.8644 267.573 29.8634C268.075 28.8624 268.326 27.6618 268.326 26.2616V16.6479H270.809V35.0014H268.432V29.9662L268.816 30.8765C268.232 32.2283 267.331 33.2837 266.106 34.0397C264.881 34.7958 263.454 35.1768 261.824 35.1768L261.821 35.1798Z" fill="#131F44"/>
<path d="M280.562 35.1798C279.046 35.1798 277.613 34.9651 276.261 34.5326C274.909 34.1032 273.848 33.5589 273.08 32.9057L274.199 30.949C274.946 31.5085 275.898 31.9924 277.066 32.4006C278.23 32.8089 279.455 33.0115 280.737 33.0115C282.485 33.0115 283.743 32.7393 284.514 32.1889C285.282 31.6416 285.669 30.9127 285.669 30.0025C285.669 29.3281 285.455 28.7958 285.022 28.4118C284.59 28.0277 284.027 27.7374 283.326 27.5378C282.627 27.3412 281.844 27.1719 280.982 27.0297C280.12 26.8906 279.264 26.7273 278.411 26.5398C277.562 26.3523 276.784 26.0802 276.086 25.7173C275.387 25.3574 274.822 24.8614 274.389 24.2324C273.957 23.6034 273.742 22.7627 273.742 21.7163C273.742 20.67 274.02 19.8172 274.58 19.0248C275.139 18.2325 275.962 17.6096 277.044 17.1529C278.127 16.6993 279.452 16.4725 281.012 16.4725C282.201 16.4725 283.389 16.6297 284.578 16.9442C285.766 17.2587 286.746 17.6731 287.514 18.1841L286.431 20.177C285.615 19.6176 284.741 19.2154 283.809 18.9704C282.878 18.7255 281.944 18.6045 281.012 18.6045C279.358 18.6045 278.139 18.8918 277.359 19.4603C276.579 20.0319 276.189 20.7607 276.189 21.6468C276.189 22.3454 276.403 22.8927 276.836 23.2889C277.268 23.685 277.837 23.9935 278.547 24.2143C279.258 24.435 280.038 24.6165 280.891 24.7556C281.741 24.8947 282.594 25.0641 283.444 25.2637C284.293 25.4632 285.074 25.7294 285.787 26.0681C286.498 26.4068 287.07 26.8846 287.499 27.5015C287.931 28.1184 288.146 28.9289 288.146 29.9299C288.146 31.0035 287.85 31.9289 287.254 32.7091C286.658 33.4893 285.796 34.0972 284.668 34.5266C283.537 34.959 282.167 35.1738 280.562 35.1738V35.1798Z" fill="#131F44"/>
<path d="M291.854 13.8687C291.34 13.8687 290.91 13.6933 290.559 13.3455C290.209 12.9947 290.036 12.5774 290.036 12.0875C290.036 11.5976 290.212 11.1833 290.559 10.8476C290.91 10.5089 291.34 10.3395 291.854 10.3395C292.368 10.3395 292.797 10.5028 293.148 10.8295C293.499 11.1561 293.671 11.5643 293.671 12.0542C293.671 12.5441 293.502 12.9978 293.163 13.3486C292.824 13.6994 292.389 13.8717 291.851 13.8717L291.854 13.8687ZM290.593 35.0044V16.6509H293.075V35.0044H290.593Z" fill="#131F44"/>
<path d="M297.902 35.0044V16.6509H300.279V21.6861L299.895 20.7426C300.479 19.415 301.41 18.3717 302.692 17.6126C303.974 16.8566 305.502 16.4755 307.271 16.4755C308.762 16.4755 310.074 16.7598 311.205 17.3314C312.336 17.9029 313.222 18.7708 313.863 19.9351C314.505 21.0994 314.825 22.5692 314.825 24.3413V35.0044H312.342V24.5863C312.342 22.6508 311.858 21.1902 310.891 20.1982C309.923 19.2063 308.565 18.7134 306.817 18.7134C305.511 18.7134 304.377 18.9765 303.409 19.4997C302.441 20.0228 301.697 20.7819 301.171 21.7708C300.648 22.7627 300.385 23.9572 300.385 25.3544V35.0044H297.902Z" fill="#131F44"/>
<path d="M327.233 35.1798C325.322 35.1798 323.643 34.7776 322.198 33.9732C320.752 33.1687 319.621 32.0619 318.808 30.6527C317.991 29.2434 317.583 27.6285 317.583 25.811C317.583 23.9935 317.973 22.3847 318.753 20.9875C319.534 19.5904 320.607 18.4865 321.971 17.6851C323.335 16.8807 324.868 16.4785 326.568 16.4785C328.267 16.4785 329.825 16.8686 331.164 17.6489C332.504 18.4291 333.56 19.5269 334.328 20.9361C335.096 22.3453 335.483 23.9723 335.483 25.814C335.483 25.932 335.477 26.0529 335.465 26.18C335.453 26.307 335.447 26.4431 335.447 26.5822H319.47V24.7284H334.119L333.139 25.4632C333.139 24.1356 332.855 22.9532 332.283 21.9159C331.712 20.8786 330.938 20.0682 329.958 19.4875C328.978 18.9039 327.847 18.6136 326.568 18.6136C325.289 18.6136 324.179 18.9039 323.178 19.4875C322.177 20.0712 321.393 20.8847 320.834 21.9341C320.275 22.9834 319.996 24.184 319.996 25.5358V25.9199C319.996 27.317 320.305 28.5479 320.922 29.6093C321.539 30.6708 322.401 31.4964 323.51 32.0922C324.617 32.6879 325.881 32.9843 327.303 32.9843C328.422 32.9843 329.465 32.7877 330.433 32.3885C331.4 31.9924 332.232 31.3875 332.934 30.571L334.331 32.1799C333.514 33.1597 332.495 33.9036 331.27 34.4177C330.046 34.9318 328.7 35.1859 327.233 35.1859V35.1798Z" fill="#131F44"/>
<path d="M343.385 35.1798C341.87 35.1798 340.437 34.9651 339.085 34.5326C337.733 34.1032 336.672 33.5589 335.903 32.9057L337.022 30.949C337.769 31.5085 338.722 31.9924 339.889 32.4006C341.054 32.8089 342.278 33.0115 343.561 33.0115C345.308 33.0115 346.567 32.7393 347.338 32.1889C348.106 31.6416 348.493 30.9127 348.493 30.0025C348.493 29.3281 348.278 28.7958 347.846 28.4118C347.413 28.0277 346.851 27.7374 346.149 27.5378C345.451 27.3412 344.667 27.1719 343.805 27.0297C342.944 26.8906 342.088 26.7273 341.235 26.5398C340.385 26.3523 339.608 26.0802 338.909 25.7173C338.211 25.3574 337.645 24.8614 337.213 24.2324C336.78 23.6034 336.566 22.7627 336.566 21.7163C336.566 20.67 336.844 19.8172 337.403 19.0248C337.963 18.2325 338.785 17.6096 339.868 17.1529C340.951 16.6993 342.275 16.4725 343.836 16.4725C345.024 16.4725 346.213 16.6297 347.401 16.9442C348.59 17.2587 349.569 17.6731 350.338 18.1841L349.255 20.177C348.438 19.6176 347.564 19.2154 346.633 18.9704C345.702 18.7255 344.767 18.6045 343.836 18.6045C342.181 18.6045 340.963 18.8918 340.183 19.4603C339.402 20.0319 339.012 20.7607 339.012 21.6468C339.012 22.3454 339.227 22.8927 339.659 23.2889C340.092 23.685 340.66 23.9935 341.371 24.2143C342.082 24.435 342.862 24.6165 343.715 24.7556C344.565 24.8947 345.417 25.0641 346.267 25.2637C347.117 25.4632 347.897 25.7294 348.611 26.0681C349.322 26.4068 349.893 26.8846 350.323 27.5015C350.755 28.1184 350.97 28.9289 350.97 29.9299C350.97 31.0035 350.673 31.9289 350.078 32.7091C349.482 33.4893 348.62 34.0972 347.492 34.5266C346.361 34.959 344.991 35.1738 343.385 35.1738V35.1798Z" fill="#131F44"/>
<path d="M358.349 35.1798C356.833 35.1798 355.4 34.9651 354.048 34.5326C352.696 34.1032 351.635 33.5589 350.867 32.9057L351.986 30.949C352.733 31.5085 353.685 31.9924 354.853 32.4006C356.017 32.8089 357.242 33.0115 358.524 33.0115C360.272 33.0115 361.53 32.7393 362.301 32.1889C363.069 31.6416 363.456 30.9127 363.456 30.0025C363.456 29.3281 363.242 28.7958 362.809 28.4118C362.377 28.0277 361.814 27.7374 361.113 27.5378C360.414 27.3412 359.631 27.1719 358.769 27.0297C357.907 26.8906 357.051 26.7273 356.198 26.5398C355.349 26.3523 354.571 26.0802 353.873 25.7173C353.174 25.3574 352.609 24.8614 352.176 24.2324C351.744 23.6034 351.529 22.7627 351.529 21.7163C351.529 20.67 351.807 19.8172 352.367 19.0248C352.926 18.2325 353.749 17.6096 354.831 17.1529C355.914 16.6993 357.239 16.4725 358.799 16.4725C359.988 16.4725 361.176 16.6297 362.365 16.9442C363.553 17.2587 364.533 17.6731 365.301 18.1841L364.218 20.177C363.402 19.6176 362.528 19.2154 361.596 18.9704C360.665 18.7255 359.731 18.6045 358.799 18.6045C357.145 18.6045 355.926 18.8918 355.146 19.4603C354.366 20.0319 353.976 20.7607 353.976 21.6468C353.976 22.3454 354.19 22.8927 354.623 23.2889C355.055 23.685 355.624 23.9935 356.334 24.2143C357.045 24.435 357.825 24.6165 358.678 24.7556C359.528 24.8947 360.381 25.0641 361.231 25.2637C362.08 25.4632 362.861 25.7294 363.574 26.0681C364.285 26.4068 364.857 26.8846 365.286 27.5015C365.718 28.1184 365.933 28.9289 365.933 29.9299C365.933 31.0035 365.637 31.9289 365.041 32.7091C364.445 33.4893 363.583 34.0972 362.455 34.5266C361.324 34.959 359.954 35.1738 358.349 35.1738V35.1798Z" fill="#131F44"/>
<path d="M33.1537 16.9352C31.1124 16.9352 29.307 17.9241 28.2122 19.4331C27.5681 20.3252 27.1628 21.3958 27.1054 22.5631C27.1024 22.6538 27.0963 22.7506 27.0963 22.8413C27.0963 24.9098 25.3816 26.5852 23.2647 26.5852H23.2556C21.1448 26.5852 19.4241 24.9098 19.4241 22.8413C19.4241 22.7506 19.421 22.6538 19.415 22.5631C19.3606 21.3958 18.9583 20.3252 18.3082 19.4331C17.2255 17.9211 15.4201 16.9352 13.3788 16.9352C10.2095 16.9352 7.61177 19.3122 7.34867 22.3363C7.34867 22.3363 7.3275 22.5782 7.33355 22.6387C7.37588 23.2012 7.84765 23.6518 8.43736 23.6518C9.02706 23.6518 9.52907 23.1589 9.54722 22.5661C9.6198 21.5984 10.0734 20.7335 10.7599 20.1105C11.4494 19.4876 12.3687 19.1065 13.3758 19.1065C15.3929 19.1065 17.0471 20.6337 17.1953 22.5661L17.2104 22.8685C17.2134 24.1326 17.6217 25.2969 18.3172 26.2526C19.412 27.7646 21.2204 28.7535 23.2587 28.7535H23.2677C25.306 28.7535 27.1145 27.7646 28.2092 26.2526C28.9047 25.2969 29.313 24.1326 29.316 22.8685L29.3311 22.5661C29.4793 20.6277 31.1305 19.1065 33.1476 19.1065C34.1577 19.1065 35.08 19.4906 35.7635 20.1105C36.45 20.7335 36.9036 21.5984 36.9762 22.5661C37.0004 23.1558 37.4752 23.6518 38.086 23.6518C38.6969 23.6518 39.1475 23.2042 39.1898 22.6387C39.1989 22.5782 39.1778 22.3363 39.1778 22.3363C38.9116 19.3091 36.3139 16.9352 33.1476 16.9352H33.1537Z" fill="white"/>
<path d="M23.0893 0C10.3365 0 0 10.1883 0 22.7567C0 35.325 10.3365 45.5133 23.0893 45.5133C35.8421 45.5133 46.1786 35.325 46.1786 22.7567C46.1786 10.1883 35.8421 0 23.0893 0ZM39.1959 22.6417C39.1566 23.2073 38.6818 23.6548 38.0921 23.6548C37.5024 23.6548 37.0064 23.1619 36.9822 22.5692C36.9096 21.6014 36.456 20.7365 35.7695 20.1136C35.0831 19.4906 34.1607 19.1095 33.1537 19.1095C31.1366 19.1095 29.4824 20.6337 29.3372 22.5692L29.3221 22.8716C29.319 24.1357 28.9108 25.3 28.2152 26.2556C27.1205 27.7677 25.3121 28.7566 23.2738 28.7566H23.2647C21.2264 28.7566 19.418 27.7677 18.3233 26.2556C17.6277 25.3 17.2195 24.1357 17.2164 22.8716L17.2013 22.5692C17.0531 20.6367 15.402 19.1095 13.3818 19.1095C12.3748 19.1095 11.4554 19.4936 10.7659 20.1136C10.0795 20.7365 9.62584 21.6014 9.55326 22.5692C9.53209 23.1589 9.06033 23.6548 8.4434 23.6548C7.82648 23.6548 7.38193 23.2042 7.33959 22.6417C7.33657 22.5813 7.35471 22.3393 7.35471 22.3393C7.62084 19.3122 10.2186 16.9382 13.3848 16.9382C15.4261 16.9382 17.2316 17.9271 18.3142 19.4362C18.9644 20.3283 19.3666 21.3988 19.421 22.5661C19.4241 22.6569 19.4301 22.7536 19.4301 22.8444C19.4301 24.9129 21.1478 26.5882 23.2617 26.5882H23.2708C25.3846 26.5882 27.1024 24.9129 27.1024 22.8444C27.1024 22.7536 27.1054 22.6569 27.1114 22.5661C27.1689 21.3988 27.5741 20.3283 28.2183 19.4362C29.313 17.9241 31.1184 16.9382 33.1597 16.9382C36.329 16.9382 38.9267 19.3152 39.1898 22.3393C39.1898 22.3393 39.211 22.5813 39.2019 22.6417H39.1959Z" fill="#131F44"/>
</svg>
