<svg width="34" height="22" viewBox="0 0 34 22" fill="none" xmlns="http://www.w3.org/2000/svg">
<path fill-rule="evenodd" clip-rule="evenodd" d="M12.3914 18.7567H21.5845V2.23505H12.3914V18.7567Z" fill="#FF5F00"/>
<path fill-rule="evenodd" clip-rule="evenodd" d="M12.9868 10.5073C12.9868 7.1555 14.5562 4.17054 17 2.24653C15.2129 0.83942 12.9576 0 10.5065 0C4.70409 0 0 4.70437 0 10.5073C0 16.3103 4.70409 21.0147 10.5065 21.0147C12.9576 21.0147 15.2129 20.1753 17 18.7682C14.5562 16.8442 12.9868 13.8592 12.9868 10.5073Z" fill="#EB001B"/>
<path fill-rule="evenodd" clip-rule="evenodd" d="M34 10.5073C34 16.3103 29.2962 21.0147 23.4935 21.0147C21.0424 21.0147 18.7874 20.1753 17 18.7682C19.4438 16.8442 21.0132 13.8592 21.0132 10.5073C21.0132 7.1555 19.4438 4.17054 17 2.24653C18.7874 0.83942 21.0424 0 23.4935 0C29.2962 0 34 4.70437 34 10.5073Z" fill="#F79E1B"/>
</svg>
