<svg width="32" height="32" viewBox="0 0 32 32" fill="none" xmlns="http://www.w3.org/2000/svg">
<g clip-path="url(#clip0_1703_4036)">
<path d="M32 16C32.0003 24.8361 24.8372 31.9997 16 32C7.16389 32.0003 0.000329 24.8372 0 16C0.000205625 7.16389 7.16282 -0.000205614 16 1.13327e-08C24.8361 -0.000328988 32.0002 7.16278 32 16Z" fill="#2394E0"/>
<path d="M10.7713 17.8692C10.9132 18.4873 10.5986 19.1058 10.3403 19.6853C9.32205 21.9685 9.07448 24.587 9.64776 27.0207C9.76538 27.5188 9.79293 28.2335 9.29285 28.3421C8.93671 28.4202 8.63526 28.0793 8.46377 27.7581C7.85594 26.6198 7.7556 25.2906 7.46896 24.033C7.18314 22.775 6.60574 21.4553 5.44931 20.8841C5.00064 20.662 4.49932 20.5719 4.03543 20.3865C3.57154 20.2002 3.1167 19.8782 2.97605 19.3982C2.85761 18.9936 2.98387 18.5613 3.12534 18.1645C3.42473 17.3288 3.85407 16.4594 4.64573 16.0589C5.09728 15.8298 8.03113 15.7476 9.50053 16.524C10.0639 16.8209 10.629 17.2482 10.7713 17.8692Z" fill="#A1E367"/>
<path d="M12.0852 6.22879C12.1362 6.47348 11.9927 6.71653 11.7538 6.78973C11.4478 6.88349 11.0123 7.05869 10.5632 7.37576C9.69834 7.98605 8.84911 8.68683 8.38316 9.63723C8.09981 10.2146 7.96862 10.8644 7.62687 11.4093C7.28512 11.9542 6.61602 12.386 6.01231 12.1635C5.7853 12.08 5.58461 11.9106 5.34362 11.895C4.9883 11.8724 4.69754 12.2001 4.60008 12.5419C4.50302 12.884 4.54044 13.248 4.5059 13.6017C4.47423 13.92 4.38047 14.2305 4.23489 14.5151C3.86682 15.2364 2.90408 15.4021 2.30119 14.8622C1.98371 14.5776 1.70406 14.2589 1.51283 13.8784C1.2525 13.3603 1.17889 12.7693 0.976143 12.2256C0.909521 12.0463 0.747489 11.8078 0.606842 11.6199C1.39274 8.85421 2.90367 6.39328 4.92126 4.4563C5.21366 4.9025 5.69688 5.33226 6.18873 5.35365C6.92199 5.38614 7.60713 4.76638 8.32106 4.93458C8.66281 5.01519 8.93711 5.26482 9.25953 5.403C9.90355 5.67853 10.7063 5.8163 11.6279 5.84509C11.7394 5.84879 11.8422 5.88992 11.9228 5.95777C12.0034 6.02563 12.0622 6.11981 12.0852 6.22879Z" fill="#A1E367"/>
<path d="M15.3209 7.06117C15.1651 7.03033 15.045 6.9086 14.9952 6.75767C14.8805 6.41057 15.0475 6.09515 15.1531 5.7756C15.2383 5.51981 15.2778 5.2163 15.1182 4.99875C14.9706 4.79806 14.6954 4.73596 14.4466 4.74583C14.1974 4.7557 13.9523 4.82315 13.7027 4.81863C13.1055 4.80876 12.5787 4.38106 12.2818 3.86288C12.2641 3.83204 12.2473 3.80119 12.2308 3.76994C11.8274 2.99761 12.318 2.06243 13.1783 1.92713C14.5918 1.70505 16.1693 1.84159 17.4594 2.08793C17.9295 2.17758 18.4682 2.31987 18.6632 2.75662C18.8622 3.20324 18.5797 3.7284 18.2042 4.0426C17.8296 4.35597 17.3624 4.54967 17.005 4.88319C16.4679 5.38327 16.2458 6.12846 15.844 6.74245C15.7264 6.92299 15.5665 7.10929 15.3209 7.06117Z" fill="#A1E367"/>
<path d="M30.5894 9.42165C30.2501 9.73173 29.8253 10.1311 29.5066 10.3774C29.308 10.5308 29.0768 10.6879 28.8288 10.6505C28.5957 10.6155 28.4213 10.416 28.2005 10.3334C27.973 10.2487 27.7004 10.3021 27.5219 10.4658C27.3434 10.6299 27.2669 10.8968 27.3323 11.1304C27.4413 11.5215 27.8817 11.7444 28.0092 12.1306C28.1244 12.4813 27.9311 12.8819 27.6259 13.09C27.3208 13.2977 26.9301 13.3429 26.5625 13.3112C26.3848 13.2964 26.2063 13.2648 26.0291 13.2821C25.6709 13.317 25.3776 13.5378 25.1227 13.8039C25.3867 14.1876 25.6075 14.6285 26.0377 14.7786C26.3589 14.89 26.7097 14.8024 27.0461 14.7535C27.3825 14.7046 27.7699 14.7132 28.0035 14.9599C28.1963 15.1631 28.226 15.4785 28.1528 15.7491C28.08 16.0189 27.92 16.2558 27.7678 16.4906C26.7126 18.1204 24.9972 19.649 25.0774 21.5893C25.1584 23.5559 24.4893 23.6369 24.287 25.5418C24.2072 26.2899 23.6191 26.8187 23.1034 26.7237C22.7892 26.6653 22.519 26.4647 22.3023 26.2302C21.6513 25.5262 21.4185 24.5314 21.3437 23.5744C21.2688 22.6182 21.324 21.6481 21.1364 20.7076C21.064 20.3432 20.9292 19.9517 20.6067 19.7662C20.3592 19.6239 20.0552 19.6359 19.7703 19.6523C19.2027 19.6848 18.342 19.7502 17.7736 19.7502C16.5333 19.7502 15.8144 18.164 15.8144 16.8805C15.8144 15.5287 16.4449 14.4438 17.0017 13.9113C17.4524 13.479 18.0574 13.238 18.6821 13.2245C19.3068 13.2109 19.9253 13.3425 20.5496 13.3709C21.2997 13.4046 22.0556 13.2825 22.76 13.0217C23.2153 12.8535 23.7088 12.8527 24.1472 13.0127C24.3067 12.6771 24.3158 12.256 24.162 11.9114C23.9185 11.3652 23.3625 11.0091 22.7839 10.8594C22.2053 10.7097 21.597 10.7356 20.9995 10.7636L16.2134 10.984C15.4233 11.0202 15.0989 9.9756 15.7754 9.56641C15.7807 9.56312 15.7861 9.56024 15.791 9.55695C16.3022 9.2555 16.9075 9.17202 17.4747 8.99641C18.0409 8.8204 18.6233 8.4988 18.8314 7.94362C18.9642 7.58953 18.926 7.18651 19.0757 6.839C19.4001 6.08929 20.3863 5.9507 21.2026 5.9252C22.0194 5.89971 23.0035 5.77469 23.3432 5.03115C23.5529 4.5726 23.4267 4.04003 23.4382 3.53584C23.4493 3.06331 23.6516 2.50525 23.9111 2.08948C26.8417 3.75915 29.1928 6.32864 30.5894 9.42165Z" fill="#A1E367"/>
</g>
<defs>
<clipPath id="clip0_1703_4036">
<rect width="32" height="32" fill="white"/>
</clipPath>
</defs>
</svg>
