<svg width="32" height="32" viewBox="0 0 32 32" fill="none" xmlns="http://www.w3.org/2000/svg">
<g clip-path="url(#clip0_280_16654)">
<path d="M16 32C24.8366 32 32 24.8366 32 16C32 7.16344 24.8366 0 16 0C7.16344 0 0 7.16344 0 16C0 24.8366 7.16344 32 16 32Z" fill="#F0F0F0"/>
<path d="M19.1303 31.693C25.4555 30.4382 30.4381 25.4556 31.6928 19.1305H19.1303V31.693Z" fill="#496E2D"/>
<path d="M0.306915 19.1305C1.5616 25.4556 6.54423 30.4382 12.8694 31.693V19.1305H0.306915Z" fill="#496E2D"/>
<path d="M31.6928 12.8696C30.4381 6.5445 25.4555 1.56188 19.1303 0.307129V12.8696H31.6928Z" fill="#496E2D"/>
<path d="M12.8694 0.307129C6.54423 1.56188 1.5616 6.5445 0.306915 12.8696H12.8694V0.307129Z" fill="#496E2D"/>
<path d="M14.9563 19.1304H12.8694V31.6929C13.5505 31.828 14.2472 31.9195 14.9563 31.9652V19.1304Z" fill="#FFDA44"/>
<path d="M14.9563 12.8694V0.034668C14.2472 0.080293 13.5504 0.171855 12.8694 0.306918V12.8694H14.9563Z" fill="#FFDA44"/>
<path d="M17.0436 0.0348125C16.6984 0.0125 16.3507 0 16.0001 0C15.6494 0 15.3017 0.0125 14.9566 0.0348125V12.8696H17.0435V0.0348125H17.0436Z" fill="black"/>
<path d="M14.9566 31.9652C15.3017 31.9875 15.6494 32 16.0001 32C16.3507 32 16.6984 31.9875 17.0436 31.9652V19.1304H14.9566V31.9652H14.9566Z" fill="black"/>
<path d="M12.8699 14.9566V12.8696H0.307452C0.172327 13.5508 0.080827 14.2474 0.035202 14.9566H12.8699Z" fill="#FFDA44"/>
<path d="M19.1303 14.9566H31.9651C31.9195 14.2474 31.8279 13.5508 31.6929 12.8696H19.1304V14.9566H19.1303Z" fill="#FFDA44"/>
<path d="M19.1306 17.0435H31.9654C31.9877 16.6985 32.0002 16.3507 32.0002 16C32.0002 15.6494 31.9877 15.3016 31.9653 14.9565H19.1306V17.0435Z" fill="black"/>
<path d="M0.0348125 14.9565C0.0125625 15.3016 0 15.6494 0 16C0 16.3507 0.0125625 16.6985 0.0348125 17.0435H12.8696V14.9566H0.0348125V14.9565Z" fill="black"/>
<path d="M16.0001 23.6522C20.2263 23.6522 23.6523 20.2262 23.6523 16C23.6523 11.7738 20.2263 8.34778 16.0001 8.34778C11.7739 8.34778 8.34788 11.7738 8.34788 16C8.34788 20.2262 11.7739 23.6522 16.0001 23.6522Z" fill="#D80027"/>
<path d="M17.7436 16.8538C17.1744 15.7155 16.4346 14.5618 16.4346 14.5618C16.4346 14.5618 16.453 14.0364 16.453 13.7234C16.453 13.2519 16.0707 12.8697 15.5992 12.8697C15.1525 12.8697 14.7865 13.2129 14.7492 13.6498C14.398 13.6728 14.12 13.9641 14.12 14.3211C14.12 14.5807 14.2671 14.8056 14.4823 14.9181C14.5893 14.6678 14.7988 14.4724 15.058 14.3834C15.1002 14.4179 15.1456 14.4488 15.194 14.475L15.3034 14.5274C15.3034 14.5274 14.8978 15.6706 14.8978 16.2847C14.8978 18.0112 16.0362 18.5436 16.0362 18.5436V18.5614L15.467 19.1306H16.6053V17.9922L17.1745 18.5614C17.1795 18.5507 18.2527 17.872 17.7436 16.8538Z" fill="#496E2D"/>
<path d="M16.0002 9.73914L16.2592 10.5363H17.0973L16.4193 11.0289L16.6783 11.8261L16.0002 11.3334L15.3221 11.8261L15.5811 11.0289L14.9031 10.5363H15.7412L16.0002 9.73914Z" fill="#496E2D"/>
<path d="M12.32 10.9349L12.998 11.4276L13.6761 10.9348L13.4171 11.7321L14.0953 12.2246L13.2571 12.2247L12.9981 13.0218L12.739 12.2247L11.9009 12.2246L12.579 11.7319L12.32 10.9349Z" fill="#496E2D"/>
<path d="M10.0456 14.0653H10.8837L11.1428 13.2682L11.4018 14.0653L12.24 14.0653L11.5619 14.558L11.821 15.3551L11.1428 14.8624L10.4647 15.3551L10.7236 14.5579L10.0456 14.0653Z" fill="#496E2D"/>
<path d="M10.0456 17.9346L10.7236 17.4421L10.4646 16.6449L11.1428 17.1376L11.8209 16.6449L11.5619 17.442L12.24 17.9347L11.4018 17.9348L11.1428 18.7318L10.8837 17.9346H10.0456Z" fill="#496E2D"/>
<path d="M12.3199 21.0651L12.5789 20.2681L11.9008 19.7755H12.7389L12.998 18.9783L13.257 19.7754H14.0952L13.4171 20.2681L13.6761 21.0652L12.9979 20.5725L12.3199 21.0651Z" fill="#496E2D"/>
<path d="M16.0002 22.2609L15.7412 21.4639H14.9031L15.5811 20.9711L15.3221 20.174L16.0002 20.6666L16.6783 20.174L16.4193 20.9711L17.0973 21.4638L16.2592 21.4639L16.0002 22.2609Z" fill="#496E2D"/>
<path d="M19.6801 21.0651L19.0021 20.5725L18.324 21.0653L18.5829 20.2681L17.9048 19.7755L18.743 19.7754L19.0019 18.9783L19.2611 19.7755H20.0992L19.4211 20.2681L19.6801 21.0651Z" fill="#496E2D"/>
<path d="M21.9544 17.9347H21.1164L20.8573 18.7319L20.5983 17.9348H19.7601L20.4382 17.4421L20.1791 16.645L20.8573 17.1376L21.5353 16.645L21.2764 17.4421L21.9544 17.9347Z" fill="#496E2D"/>
<path d="M21.9544 14.0654L21.2764 14.558L21.5354 15.3551L20.8573 14.8625L20.1792 15.3552L20.4382 14.5581L19.7601 14.0654L20.5983 14.0653L20.8573 13.2683L21.1164 14.0654H21.9544Z" fill="#496E2D"/>
<path d="M19.6801 10.9349L19.4211 11.7319L20.0992 12.2246H19.2611L19.0021 13.0218L18.743 12.2247L17.9048 12.2248L18.5829 11.7319L18.324 10.9349L19.0021 11.4275L19.6801 10.9349Z" fill="#496E2D"/>
</g>
<defs>
<clipPath id="clip0_280_16654">
<rect width="32" height="32" fill="white"/>
</clipPath>
</defs>
</svg>
