<svg width="24" height="6" viewBox="0 0 24 6" fill="none" xmlns="http://www.w3.org/2000/svg">
<path d="M18.0145 0.0141796C18.5794 0.000571463 19.2053 0.0187311 19.7622 0.0123282C21.5655 -0.00839253 24.1745 -0.190652 23.608 2.09458C23.5165 2.46395 23.1388 2.75144 22.7687 2.92008C23.7151 3.17183 24.066 3.65578 23.9898 4.51136C23.9515 4.94138 23.7418 5.28081 23.3524 5.55581C22.8758 5.86699 22.2145 5.96658 21.6272 5.96731C20.4446 5.96879 19.2607 5.97243 18.0781 5.96573C17.9699 5.96512 17.9127 5.90781 17.936 5.81651C17.9921 5.59642 18.0764 5.37912 18.1524 5.16304L18.6626 3.71112C18.7487 3.46547 18.8643 3.20641 18.9166 2.95439C18.9423 2.83129 18.2066 0.934794 18.1098 0.67158C18.0643 0.547796 17.9206 0.237078 17.927 0.124263C17.9298 0.0719447 17.9717 0.0458238 18.0145 0.0141796ZM20.0357 3.4557C19.8796 3.54781 19.7806 4.04071 19.7091 4.20736C19.6665 4.30693 19.4681 4.77305 19.5324 4.85635C19.688 4.95036 20.4462 4.92283 20.6627 4.91774C21.045 4.90876 21.535 4.943 21.904 4.88906C21.9544 4.88201 22.0042 4.87279 22.0533 4.86147C22.2817 4.78302 22.4857 4.68032 22.586 4.47717C22.6712 4.30451 22.6644 4.05356 22.5799 3.88146C22.5005 3.71927 22.3465 3.60707 22.1582 3.54162C21.7386 3.39578 20.5457 3.45488 20.0357 3.4557ZM21.9814 2.35554C22.1697 2.21775 22.2515 2.08536 22.2762 1.87331C22.3407 1.32067 21.9215 1.07251 21.3249 1.06955C20.7531 1.06432 20.1855 1.06813 19.6162 1.06944C19.5566 1.09476 19.547 1.09806 19.5118 1.14697C19.4773 1.25426 19.8996 2.27872 19.9749 2.46321C20.0036 2.53334 20.5768 2.51693 20.6802 2.51454C21.1071 2.50466 21.5984 2.55033 21.9814 2.35554Z" fill="#203478"/>
<path d="M0.089507 0.01408C0.632499 0.000687935 1.20753 0.0187395 1.77795 0.0122903C3.59486 -0.00824523 6.28048 -0.201983 5.66494 2.11931C5.57178 2.47054 5.20688 2.75562 4.83586 2.91908C5.78143 3.17642 6.1316 3.64835 6.05691 4.50849C6.01893 4.94597 5.81136 5.27609 5.41841 5.55747C4.98234 5.82731 4.41805 5.95292 3.88755 5.96282C3.1678 5.97626 2.42592 5.96798 1.70379 5.96824L0.689312 5.97C0.51429 5.97038 0.338871 5.97222 0.164011 5.96829C0.0457112 5.96563 -0.0201458 5.89992 0.00592245 5.8001C0.0589616 5.59706 0.138033 5.39622 0.208132 5.19654L0.729731 3.71363C0.803423 3.50457 1.02452 3.00869 0.960537 2.81382C0.881411 2.57288 0.774882 2.29589 0.686062 2.05492C0.503259 1.56321 0.323471 1.0707 0.146752 0.577366C0.0977209 0.441269 -0.00158744 0.263623 1.92625e-05 0.122868C0.000615005 0.0703792 0.0443389 0.0439037 0.089507 0.01408ZM2.09508 3.45617C1.9633 3.55061 1.85549 3.98397 1.79907 4.14483C1.74865 4.28864 1.51293 4.77105 1.62605 4.8805C1.8483 4.95836 3.85272 4.92287 4.12745 4.85804C4.35121 4.78423 4.54548 4.68383 4.64654 4.48814C4.73693 4.3131 4.73693 4.06591 4.65454 3.89032C4.57749 3.72613 4.42032 3.61097 4.23165 3.54446C3.81225 3.39662 2.5948 3.45475 2.09508 3.45617ZM4.0395 2.35949C4.2191 2.23931 4.30778 2.10871 4.33464 1.91351C4.45931 1.0073 3.53432 1.06394 2.80346 1.06588L1.68924 1.06942C1.63811 1.0881 1.59872 1.10409 1.57767 1.1515C1.5509 1.21187 1.97075 2.35082 2.04136 2.45835C2.05791 2.48353 2.09127 2.49177 2.12242 2.49871C2.28523 2.53502 2.49374 2.51581 2.66209 2.5151C3.07797 2.51337 3.65833 2.56128 4.02632 2.36655L4.0395 2.35949Z" fill="#203478"/>
<path d="M12.9073 1.0837C13.6491 1.0127 14.5691 1.25795 15.0526 1.75761C15.6474 2.37235 15.658 3.17859 15.5829 3.93191C14.2918 3.94637 12.9638 3.93261 11.6696 3.93268C11.7875 4.48056 12.0926 4.86092 12.7878 4.9551C13.0897 4.996 13.6471 4.9743 13.9008 4.81329L13.9114 4.80644C14.0519 4.71714 14.1931 4.5377 14.2943 4.48389C14.3837 4.43648 14.9312 4.59845 15.0526 4.6293C15.1166 4.64321 15.3237 4.68499 15.3643 4.71544C15.542 4.84841 15.1964 5.19899 15.0897 5.31046C14.6527 5.75728 14.0456 5.94475 13.3908 5.98809C11.7359 6.10858 10.4071 5.30719 10.3131 3.83431C10.2152 2.29997 11.0553 1.20219 12.9073 1.0837ZM13.1821 3.0437L14.3407 3.0432C14.2032 2.27404 13.6986 2.00626 12.8266 2.08595C12.1294 2.1734 11.8325 2.4822 11.6816 3.04651C12.1818 3.04175 12.6819 3.04081 13.1821 3.0437Z" fill="#203478"/>
<path d="M8.01063 2.25242C8.10579 1.97452 8.21544 1.69273 8.44281 1.47122C8.68535 1.23494 9.01373 1.1345 9.37132 1.1148C9.65439 1.0992 9.94434 1.11202 10.2282 1.11221C10.3904 1.11231 10.5634 1.0954 10.724 1.1114C10.7729 1.11628 10.8379 1.12621 10.874 1.15644C10.8987 1.1771 10.906 1.19895 10.9017 1.22866C10.885 1.34541 10.5356 1.57587 10.4332 1.67237C10.2501 1.84507 10.0836 2.26919 9.95692 2.36549C9.77831 2.5013 8.78872 2.23978 8.27285 2.64853C7.96348 2.97491 8.01269 3.43323 8.0126 3.83123L8.01446 5.13747C8.01518 5.2971 8.0502 5.80376 7.97028 5.924C7.93002 5.98454 6.73926 6.00359 6.69698 5.91963C6.64003 5.80644 6.66223 5.45427 6.66218 5.29819L6.66219 4.22493L6.66008 1.40515C6.66178 1.24482 6.63385 1.20975 6.7485 1.11352C6.95259 1.10884 7.18659 1.11653 7.38636 1.10897C8.07676 1.08288 8.0278 1.11327 8.01688 1.64636C8.01337 1.84837 8.0113 2.05039 8.01063 2.25242Z" fill="#203478"/>
<path d="M16.2997 2.46868C16.9054 2.46034 17.5531 2.46586 18.159 2.46922C18.2186 2.58838 18.2857 2.79654 18.3299 2.92579C18.2933 3.05307 18.2312 3.21418 18.1864 3.34242C18.137 3.38047 18.0229 3.38092 17.9615 3.3757C17.706 3.35403 16.3893 3.42713 16.2461 3.3274C16.1813 3.2083 16.2219 3.00342 16.2152 2.86807C16.2082 2.72501 16.1692 2.57124 16.2997 2.46868Z" fill="#203478"/>
</svg>
