<svg width="32" height="32" viewBox="0 0 32 32" fill="none" xmlns="http://www.w3.org/2000/svg">
<g clip-path="url(#clip0_280_16643)">
<path d="M16 32C24.8366 32 32 24.8366 32 16C32 7.16344 24.8366 0 16 0C7.16344 0 0 7.16344 0 16C0 24.8366 7.16344 32 16 32Z" fill="#F0F0F0"/>
<path d="M29.333 17.9147C27.9997 17.9147 27.9997 16.6956 26.6663 16.6956C25.333 16.6956 25.333 17.9147 23.9998 17.9147C22.6665 17.9147 22.6664 16.6956 21.3332 16.6956C19.9999 16.6956 19.9999 17.9147 18.6665 17.9147C17.3331 17.9147 17.3331 16.6956 15.9996 16.6956C14.6663 16.6956 14.6663 17.9147 13.3331 17.9147C11.9999 17.9147 11.9999 16.6956 10.6666 16.6956C9.33319 16.6956 9.33319 17.9147 7.99975 17.9147C6.66632 17.9147 6.66632 16.6956 5.33288 16.6956C3.99975 16.6956 3.99975 17.9147 2.66644 17.9147C1.34032 17.9147 1.33263 16.7091 0.0206909 16.6962C0.0576284 17.428 0.145003 18.1466 0.277128 18.8492C1.33988 19.0053 1.43294 20.048 2.66657 20.048C3.99988 20.048 3.99988 18.829 5.333 18.829C6.66644 18.829 6.66644 20.048 7.99988 20.048C9.33332 20.048 9.33332 18.829 10.6668 18.829C12.0001 18.829 12.0001 20.048 13.3332 20.048C14.6665 20.048 14.6665 18.829 15.9998 18.829C17.3332 18.829 17.3332 20.048 18.6666 20.048C20.0001 20.048 20.0001 18.829 21.3333 18.829C22.6666 18.829 22.6666 20.048 23.9999 20.048C25.3332 20.048 25.3332 18.829 26.6664 18.829C27.9999 18.829 27.9999 20.048 29.3331 20.048C30.5668 20.048 30.6599 19.0054 31.7227 18.8492C31.8549 18.1465 31.9421 17.4281 31.9793 16.6962C30.667 16.7091 30.6592 17.9147 29.333 17.9147Z" fill="#0052B4"/>
<path d="M26.6662 20.8696C25.3329 20.8696 25.3329 22.0888 23.9997 22.0888C22.6664 22.0888 22.6664 20.8696 21.3331 20.8696C19.9998 20.8696 19.9998 22.0888 18.6664 22.0888C17.333 22.0888 17.333 20.8696 15.9996 20.8696C14.6662 20.8696 14.6662 22.0888 13.333 22.0888C11.9999 22.0888 11.9999 20.8696 10.6666 20.8696C9.33311 20.8696 9.33311 22.0888 7.99968 22.0888C6.66624 22.0888 6.66624 20.8696 5.3328 20.8696C3.99968 20.8696 3.99968 22.0888 2.66636 22.0888C1.68418 22.0888 1.42486 21.4276 0.823425 21.0794C1.18768 22.1681 1.66611 23.2043 2.24393 24.1745C2.36905 24.2047 2.50818 24.2221 2.6663 24.2221C3.99961 24.2221 3.99961 23.0031 5.33274 23.0031C6.66618 23.0031 6.66618 24.2221 7.99961 24.2221C9.33305 24.2221 9.33305 23.0031 10.6665 23.0031C11.9998 23.0031 11.9998 24.2221 13.3329 24.2221C14.6662 24.2221 14.6662 23.0031 15.9995 23.0031C17.3329 23.0031 17.3329 24.2221 18.6664 24.2221C19.9998 24.2221 19.9998 23.0031 21.333 23.0031C22.6664 23.0031 22.6664 24.2221 23.9996 24.2221C25.3329 24.2221 25.3329 23.0031 26.6662 23.0031C27.9996 23.0031 27.9996 24.2221 29.3329 24.2221C29.4911 24.2221 29.6304 24.2047 29.7556 24.1744C30.3334 23.2043 30.8118 22.1681 31.176 21.0794C30.5746 21.4277 30.3152 22.0888 29.3329 22.0888C27.9997 22.0888 27.9997 20.8696 26.6662 20.8696Z" fill="#0052B4"/>
<path d="M31.6276 12.5588C30.6529 12.7611 30.5287 13.7409 29.3329 13.7409C27.9996 13.7409 27.9996 12.5217 26.6662 12.5217C25.3329 12.5217 25.3329 13.7409 23.9997 13.7409C22.6664 13.7409 22.6664 12.5217 21.3331 12.5217C19.9998 12.5217 19.9998 13.7409 18.6664 13.7409C17.333 13.7409 17.333 12.5217 15.9995 12.5217C15.2791 12.5217 14.9479 12.8776 14.5853 13.2049V15.3382C14.9479 15.011 15.279 14.6552 15.9995 14.6552C17.333 14.6552 17.333 15.8742 18.6664 15.8742C19.9999 15.8742 19.9999 14.6552 21.3331 14.6552C22.6664 14.6552 22.6664 15.8742 23.9997 15.8742C25.3329 15.8742 25.333 14.6552 26.6662 14.6552C27.9997 14.6552 27.9997 15.8742 29.3329 15.8742C30.5666 15.8742 30.6597 14.8315 31.7225 14.6754C31.7906 14.6754 31.8667 14.6747 31.9447 14.6738C31.8856 13.9542 31.7787 13.2482 31.6276 12.5588Z" fill="#0052B4"/>
<path d="M30.4589 9.14209C30.1826 9.37415 29.8632 9.5669 29.3331 9.5669C27.9998 9.5669 27.9998 8.34778 26.6664 8.34778C25.3331 8.34778 25.3331 9.5669 23.9998 9.5669C22.6666 9.5669 22.6665 8.34778 21.3333 8.34778C19.9999 8.34778 19.9999 9.5669 18.6666 9.5669C17.3332 9.5669 17.3331 8.34778 15.9997 8.34778C15.2793 8.34778 14.948 8.70365 14.5854 9.0309V11.1642C14.948 10.837 15.2792 10.4812 15.9997 10.4812C17.3331 10.4812 17.3331 11.7002 18.6666 11.7002C19.9999 11.7002 19.9999 10.4812 21.3332 10.4812C22.6665 10.4812 22.6665 11.7002 23.9998 11.7002C25.333 11.7002 25.333 10.4812 26.6663 10.4812C27.9998 10.4812 27.9998 11.7002 29.333 11.7002C30.2791 11.7002 30.5546 11.0874 31.1109 10.731C30.9213 10.1875 30.7036 9.65715 30.4589 9.14209Z" fill="#0052B4"/>
<path d="M26.7804 4.1772C26.7434 4.1752 26.7057 4.17395 26.6665 4.17395C25.3332 4.17395 25.3332 5.39308 23.9999 5.39308C22.6666 5.39308 22.6666 4.17395 21.3334 4.17395C20 4.17395 20 5.39308 18.6666 5.39308C17.3332 5.39308 17.3332 4.17395 15.9997 4.17395C15.2793 4.17395 14.948 4.52983 14.5855 4.85708V6.99039C14.948 6.6632 15.2792 6.30739 15.9997 6.30739C17.3332 6.30739 17.3332 7.52639 18.6666 7.52639C20 7.52639 20 6.30739 21.3333 6.30739C22.6666 6.30739 22.6666 7.52639 23.9999 7.52639C25.3331 7.52639 25.3332 6.30739 26.6664 6.30739C27.9999 6.30739 27.9999 7.52639 29.3331 7.52639C29.4152 7.52639 29.4919 7.52151 29.5645 7.51283C28.7901 6.27758 27.8524 5.15526 26.7804 4.1772Z" fill="#0052B4"/>
<path d="M20.0895 0.528372C19.7235 0.857622 19.3927 1.21925 18.6665 1.21925C17.3331 1.21925 17.3331 0.00024707 15.9997 0.00012207H15.9995C15.31 0.00018457 14.9771 0.326247 14.6318 0.641185V2.77456C14.977 2.45962 15.31 2.1335 15.9997 2.1335C17.3331 2.1335 17.3331 3.3525 18.6666 3.3525C20 3.3525 20 2.1335 21.3333 2.1335C22.6666 2.1335 22.6666 3.3525 23.9998 3.3525C24.5593 3.3525 24.8838 3.13775 25.1708 2.88862C23.6498 1.82268 21.9349 1.01481 20.0895 0.528372Z" fill="#0052B4"/>
<path d="M18.6666 30.4365C17.3331 30.4365 17.3331 29.2173 15.9997 29.2173C14.6664 29.2173 14.6664 30.4365 13.3331 30.4365C12 30.4365 12 29.2173 10.6667 29.2173C9.64539 29.2173 9.40582 29.932 8.75082 30.2668C10.5571 31.1865 12.5613 31.7727 14.6825 31.9456C15.0106 31.6458 15.3438 31.3507 15.9997 31.3507C16.6558 31.3507 16.989 31.6458 17.3171 31.9457C19.4385 31.7728 21.4428 31.1865 23.2491 30.2669C22.5939 29.9321 22.3545 29.2173 21.3333 29.2173C20 29.2173 20 30.4365 18.6666 30.4365Z" fill="#0052B4"/>
<path d="M23.9999 26.2626C22.6666 26.2626 22.6666 25.0435 21.3334 25.0435C20.0001 25.0435 20.0001 26.2626 18.6667 26.2626C17.3333 26.2626 17.3333 25.0435 15.9998 25.0435C14.6665 25.0435 14.6665 26.2626 13.3333 26.2626C12.0001 26.2626 12.0001 25.0435 10.6668 25.0435C9.33339 25.0435 9.33339 26.2626 7.99995 26.2626C6.66651 26.2626 6.66651 25.0435 5.33307 25.0435C4.37426 25.0435 4.10501 25.6741 3.53345 26.0282C3.8917 26.4731 4.27257 26.899 4.67563 27.3027C4.8562 27.2256 5.06807 27.1769 5.33301 27.1769C6.66645 27.1769 6.66645 28.3959 7.99989 28.3959C9.33332 28.3959 9.33332 27.1769 10.6668 27.1769C12.0001 27.1769 12.0001 28.3959 13.3332 28.3959C14.6665 28.3959 14.6665 27.1769 15.9998 27.1769C17.3332 27.1769 17.3332 28.3959 18.6666 28.3959C20.0001 28.3959 20.0001 27.1769 21.3333 27.1769C22.6666 27.1769 22.6666 28.3959 23.9999 28.3959C25.3331 28.3959 25.3332 27.1769 26.6664 27.1769C26.9317 27.1769 27.1436 27.2256 27.3243 27.3028C27.7274 26.899 28.1083 26.4731 28.4665 26.0283C27.8949 25.6743 27.6256 25.0436 26.6665 25.0436C25.3332 25.0435 25.3332 26.2626 23.9999 26.2626Z" fill="#0052B4"/>
<path d="M15.9571 15.9998H15.9997C15.9997 15.9855 15.9997 15.9715 15.9997 15.9572C15.9856 15.9714 15.9714 15.9856 15.9571 15.9998Z" fill="#F0F0F0"/>
<path d="M16 8.34785V13.0487L10.4348 7.65222L16 8.34785Z" fill="#0052B4"/>
<path d="M8.34794 16H13.0486L8.34788 9.73914L7.65225 14.6087L8.34794 16Z" fill="#0052B4"/>
<path d="M16 8.34781C16 5.5325 16 3.68781 16 0H15.9973C7.162 0.0015 0 7.16431 0 16H8.34787V11.2993L13.0485 16H15.9572C15.9715 15.9858 15.9858 15.9715 16.0001 15.9572C16.0001 14.8793 16.0001 13.9174 16.0001 13.0486L11.2992 8.34781H16Z" fill="#F0F0F0"/>
<path d="M8.09479 2.08691C5.59235 3.51185 3.51197 5.59223 2.08704 8.09467V16H6.26097V6.26098V6.26085H16.0001C16.0001 4.94442 16.0001 3.69029 16.0001 2.08691H8.09479Z" fill="#D80027"/>
<path d="M15.9999 14.0324L10.3152 8.34784H8.34775V8.34796L15.9998 16H15.9999C15.9999 16 15.9999 14.6433 15.9999 14.0324Z" fill="#D80027"/>
<path d="M20.8695 8.34778H27.1304L23.9999 11.4782L20.8695 8.34778Z" fill="#6DA544"/>
<path d="M24.6956 10.7827H23.3043V14.6087H24.6956V10.7827Z" fill="#A2001D"/>
<path d="M24.6956 20.8696H23.3043V24.6956H24.6956V20.8696Z" fill="#A2001D"/>
<path d="M28.1741 18.7827C28.1741 17.6301 27.2397 16.6957 26.0871 16.6957C25.5525 16.6957 25.0651 16.897 24.6958 17.2275V16H25.3915V14.6087H24.6958V13.9131H23.3045V14.6087H22.6089V16H23.3045V17.2275C22.9352 16.897 22.4478 16.6957 21.9132 16.6957C20.7606 16.6957 19.8263 17.6301 19.8263 18.7827C19.8263 19.4006 20.0951 19.9556 20.5219 20.3378V21.5653H27.4784V20.3378C27.9053 19.9556 28.1741 19.4006 28.1741 18.7827Z" fill="#FFDA44"/>
<path d="M26.087 18.0869C25.8676 18.0869 25.7139 18.1833 25.6236 18.264L24.6957 19.0947H23.3044L22.3765 18.264C22.2862 18.1833 22.1326 18.0869 21.9131 18.0869C21.5296 18.0869 21.2175 18.399 21.2175 18.7825C21.2175 19.0527 21.3632 19.2234 21.45 19.3012L21.9132 19.716V20.1739H26.0871V19.716L26.5503 19.3012C26.6371 19.2235 26.7828 19.0527 26.7828 18.7825C26.7827 18.399 26.4706 18.0869 26.087 18.0869Z" fill="#D80027"/>
</g>
<defs>
<clipPath id="clip0_280_16643">
<rect width="32" height="32" fill="white"/>
</clipPath>
</defs>
</svg>
