<svg width="132" height="24" viewBox="0 0 132 24" fill="none" xmlns="http://www.w3.org/2000/svg">
<ellipse cx="12.2474" cy="12" rx="12.2474" ry="12" fill="#0B0B0B" fill-opacity="0.5"/>
<path d="M20.7846 11.7784C20.6438 10.183 19.2663 8.93018 17.5856 8.93018C16.5026 8.93018 15.5453 9.45148 14.9649 10.2482C14.6227 10.719 14.4082 11.2824 14.3779 11.8983C14.3757 11.9466 14.3736 11.9971 14.3736 12.0454C14.3736 13.1364 13.4639 14.0192 12.342 14.0192C12.3398 14.0192 12.3398 14.0192 12.3398 14.0192H12.3377C11.2179 14.0192 10.3061 13.1364 10.3061 12.0454C10.3061 11.9971 10.3039 11.9466 10.3017 11.8983C10.2736 11.2824 10.0591 10.719 9.71476 10.2482C9.1408 9.45148 8.18348 8.93018 7.10054 8.93018C5.41981 8.93018 4.04231 10.183 3.90153 11.7784C3.90153 11.7784 3.8907 11.9067 3.89286 11.9382C3.91452 12.2346 4.16577 12.4721 4.47765 12.4721C4.8047 12.4721 5.05594 12.2115 5.06677 11.9004C5.10576 11.3896 5.34617 10.9334 5.71004 10.6055C6.07608 10.2776 6.5634 10.0758 7.09837 10.0758C8.16832 10.0758 9.04551 10.8809 9.12348 11.9004L9.13214 12.0601C9.13431 12.7265 9.3509 13.3403 9.7191 13.8448C10.2996 14.6414 11.259 15.1627 12.3398 15.1627C12.342 15.1627 12.342 15.1627 12.342 15.1627H12.3441C13.4249 15.1627 14.3844 14.6414 14.9649 13.8448C15.3331 13.3403 15.5497 12.7265 15.5518 12.0601L15.5605 11.9004C15.6385 10.8788 16.5156 10.0758 17.5856 10.0758C18.1206 10.0758 18.6101 10.2776 18.9739 10.6055C19.3378 10.9334 19.5782 11.3896 19.6172 11.9004C19.6302 12.2115 19.8814 12.4721 20.2063 12.4721C20.5182 12.4721 20.7694 12.2367 20.7911 11.9382C20.7954 11.9067 20.7846 11.7784 20.7846 11.7784Z" fill="white"/>
<path d="M42.0012 12.1791H44.8113V18.4246C43.9888 19.0663 43.0293 19.5588 41.9326 19.9021C40.836 20.2453 39.7089 20.4169 38.5513 20.4169C36.9215 20.4169 35.4517 20.0737 34.1418 19.3872C32.8319 18.6858 31.8038 17.7232 31.0575 16.4995C30.3112 15.2758 29.938 13.8953 29.938 12.3582C29.938 10.8211 30.3112 9.44064 31.0575 8.2169C31.8038 6.99317 32.8319 6.03806 34.1418 5.35157C35.4669 4.65017 36.952 4.29946 38.597 4.29946C39.9373 4.29946 41.1558 4.51585 42.2525 4.94864C43.3491 5.38142 44.2706 6.01567 45.017 6.85139L43.1435 8.64222C41.925 7.44834 40.4552 6.85139 38.7341 6.85139C37.6069 6.85139 36.6017 7.08271 35.7183 7.54534C34.8501 8.00797 34.1647 8.65715 33.662 9.49287C33.1746 10.3286 32.9309 11.2837 32.9309 12.3582C32.9309 13.4028 33.1746 14.343 33.662 15.1788C34.1647 16.0145 34.8501 16.6711 35.7183 17.1487C36.6017 17.6262 37.5993 17.865 38.7112 17.865C39.9602 17.865 41.0568 17.5964 42.0012 17.0591V12.1791Z" fill="#0B0B0B" fill-opacity="0.5"/>
<path d="M48.4545 3.58313H51.3104V20.1931H48.4545V3.58313Z" fill="#0B0B0B" fill-opacity="0.5"/>
<path d="M60.542 20.3498C59.3082 20.3498 58.1964 20.0886 57.2063 19.5663C56.2163 19.044 55.4395 18.3202 54.8759 17.3949C54.3276 16.4547 54.0535 15.3951 54.0535 14.2162C54.0535 13.0372 54.3276 11.9851 54.8759 11.0598C55.4395 10.1346 56.2163 9.41079 57.2063 8.88846C58.1964 8.36614 59.3082 8.10498 60.542 8.10498C61.7909 8.10498 62.9104 8.36614 63.9005 8.88846C64.8905 9.41079 65.6597 10.1346 66.208 11.0598C66.7716 11.9851 67.0534 13.0372 67.0534 14.2162C67.0534 15.3951 66.7716 16.4547 66.208 17.3949C65.6597 18.3202 64.8905 19.044 63.9005 19.5663C62.9104 20.0886 61.7909 20.3498 60.542 20.3498ZM60.542 17.9545C61.5929 17.9545 62.4611 17.6113 63.1465 16.9248C63.8319 16.2383 64.1746 15.3355 64.1746 14.2162C64.1746 13.0969 63.8319 12.194 63.1465 11.5076C62.4611 10.8211 61.5929 10.4778 60.542 10.4778C59.491 10.4778 58.6228 10.8211 57.9374 11.5076C57.2673 12.194 56.9322 13.0969 56.9322 14.2162C56.9322 15.3355 57.2673 16.2383 57.9374 16.9248C58.6228 17.6113 59.491 17.9545 60.542 17.9545Z" fill="#0B0B0B" fill-opacity="0.5"/>
<path d="M76.547 8.10498C77.735 8.10498 78.7936 8.35868 79.7227 8.86608C80.667 9.37348 81.4058 10.0898 81.9388 11.0151C82.4719 11.9403 82.7385 13.0074 82.7385 14.2162C82.7385 15.425 82.4719 16.4995 81.9388 17.4397C81.4058 18.3649 80.667 19.0813 79.7227 19.5887C78.7936 20.0961 77.735 20.3498 76.547 20.3498C75.7092 20.3498 74.9401 20.208 74.2394 19.9245C73.554 19.6409 72.9752 19.2156 72.5031 18.6485V20.1931H69.7843V3.58313H72.6401V9.69434C73.1275 9.17201 73.6987 8.77654 74.3537 8.50791C75.0238 8.23929 75.7549 8.10498 76.547 8.10498ZM76.2271 17.9545C77.2781 17.9545 78.1386 17.6113 78.8088 16.9248C79.4942 16.2383 79.8369 15.3355 79.8369 14.2162C79.8369 13.0969 79.4942 12.194 78.8088 11.5076C78.1386 10.8211 77.2781 10.4778 76.2271 10.4778C75.5417 10.4778 74.9248 10.6345 74.3765 10.9479C73.8282 11.2464 73.3941 11.6792 73.0742 12.2463C72.7544 12.8134 72.5944 13.47 72.5944 14.2162C72.5944 14.9624 72.7544 15.619 73.0742 16.1861C73.3941 16.7532 73.8282 17.1934 74.3765 17.5068C74.9248 17.8053 75.5417 17.9545 76.2271 17.9545Z" fill="#0B0B0B" fill-opacity="0.5"/>
<path d="M89.9515 8.10498C91.7488 8.10498 93.1196 8.5303 94.064 9.38094C95.0235 10.2167 95.5033 11.4852 95.5033 13.1865V20.1931H92.8074V18.738C92.4571 19.2604 91.9544 19.6633 91.2995 19.9468C90.6598 20.2155 89.883 20.3498 88.9691 20.3498C88.0552 20.3498 87.2556 20.2005 86.5702 19.9021C85.8848 19.5887 85.3517 19.1634 84.9709 18.6261C84.6053 18.0739 84.4226 17.4546 84.4226 16.7681C84.4226 15.6936 84.8262 14.8355 85.6334 14.1938C86.4559 13.5372 87.743 13.2088 89.4946 13.2088H92.6474V13.0298C92.6474 12.194 92.3885 11.5523 91.8706 11.1046C91.368 10.6569 90.6141 10.4331 89.6088 10.4331C88.9234 10.4331 88.2456 10.5375 87.5754 10.7464C86.9205 10.9554 86.3645 11.2464 85.9076 11.6195L84.7881 9.58241C85.4278 9.10486 86.197 8.73923 87.0956 8.48553C87.9943 8.23183 88.9462 8.10498 89.9515 8.10498ZM89.5631 18.3127C90.279 18.3127 90.9111 18.156 91.4594 17.8426C92.023 17.5143 92.419 17.0517 92.6474 16.4547V15.0668H89.7002C88.0552 15.0668 87.2327 15.5966 87.2327 16.6562C87.2327 17.1636 87.4383 17.5665 87.8496 17.865C88.2608 18.1635 88.832 18.3127 89.5631 18.3127Z" fill="#0B0B0B" fill-opacity="0.5"/>
<path d="M99.1685 3.58313H102.024V20.1931H99.1685V3.58313Z" fill="#0B0B0B" fill-opacity="0.5"/>
<path d="M112.17 10.5226C113.221 10.5226 114.165 10.7241 115.003 11.127C115.841 11.515 116.495 12.0746 116.968 12.8059C117.44 13.5372 117.676 14.3803 117.676 15.3355C117.676 16.3503 117.417 17.2457 116.899 18.0217C116.381 18.7828 115.681 19.3723 114.797 19.7901C113.914 20.208 112.924 20.4169 111.827 20.4169C109.634 20.4169 107.928 19.7454 106.709 18.4022C105.506 17.0591 104.904 15.134 104.904 12.6268C104.904 10.8658 105.232 9.36602 105.887 8.12736C106.542 6.87378 107.456 5.92613 108.629 5.28442C109.817 4.62778 111.187 4.29946 112.741 4.29946C113.563 4.29946 114.333 4.389 115.048 4.56809C115.78 4.73225 116.412 4.97849 116.945 5.3068L115.848 7.50057C115.056 6.99317 114.043 6.73947 112.81 6.73947C111.271 6.73947 110.068 7.2021 109.2 8.12736C108.332 9.05262 107.897 10.3883 107.897 12.1343V12.1567C108.37 11.6195 108.971 11.2165 109.702 10.9479C110.433 10.6644 111.256 10.5226 112.17 10.5226ZM111.667 18.1336C112.596 18.1336 113.35 17.8948 113.929 17.4173C114.508 16.9248 114.797 16.2756 114.797 15.4698C114.797 14.649 114.508 13.9998 113.929 13.5222C113.35 13.0447 112.573 12.8059 111.599 12.8059C110.639 12.8059 109.855 13.0596 109.245 13.567C108.651 14.0744 108.354 14.7161 108.354 15.4921C108.354 16.2533 108.644 16.8875 109.223 17.3949C109.817 17.8874 110.631 18.1336 111.667 18.1336Z" fill="#0B0B0B" fill-opacity="0.5"/>
<path d="M126.494 10.5226C127.545 10.5226 128.489 10.7241 129.327 11.127C130.164 11.515 130.819 12.0746 131.292 12.8059C131.764 13.5372 132 14.3803 132 15.3355C132 16.3503 131.741 17.2457 131.223 18.0217C130.705 18.7828 130.005 19.3723 129.121 19.7901C128.238 20.208 127.248 20.4169 126.151 20.4169C123.958 20.4169 122.252 19.7454 121.033 18.4022C119.83 17.0591 119.228 15.134 119.228 12.6268C119.228 10.8658 119.556 9.36602 120.211 8.12736C120.866 6.87378 121.78 5.92613 122.952 5.28442C124.14 4.62778 125.511 4.29946 127.065 4.29946C127.887 4.29946 128.657 4.389 129.372 4.56809C130.104 4.73225 130.736 4.97849 131.269 5.3068L130.172 7.50057C129.38 6.99317 128.367 6.73947 127.133 6.73947C125.595 6.73947 124.392 7.2021 123.524 8.12736C122.655 9.05262 122.221 10.3883 122.221 12.1343V12.1567C122.694 11.6195 123.295 11.2165 124.026 10.9479C124.757 10.6644 125.58 10.5226 126.494 10.5226ZM125.991 18.1336C126.92 18.1336 127.674 17.8948 128.253 17.4173C128.832 16.9248 129.121 16.2756 129.121 15.4698C129.121 14.649 128.832 13.9998 128.253 13.5222C127.674 13.0447 126.897 12.8059 125.923 12.8059C124.963 12.8059 124.179 13.0596 123.569 13.567C122.975 14.0744 122.678 14.7161 122.678 15.4921C122.678 16.2533 122.968 16.8875 123.546 17.3949C124.14 17.8874 124.955 18.1336 125.991 18.1336Z" fill="#0B0B0B" fill-opacity="0.5"/>
</svg>
