<svg width="243" height="64" viewBox="0 0 243 64" fill="none" xmlns="http://www.w3.org/2000/svg">
<path d="M89.8289 26.1571H93.4755V36.3797C92.1591 37.4539 90.6258 38.2763 88.879 38.85C87.1323 39.4238 85.309 39.7107 83.4092 39.7107C80.7252 39.7107 78.3059 39.1369 76.1511 37.9894C73.9995 36.8164 72.3005 35.2194 71.0605 33.1953C69.8461 31.1489 69.2372 28.8506 69.2372 26.3038C69.2372 23.7569 69.8461 21.4619 71.0605 19.4122C72.3005 17.3658 73.9995 15.7657 76.1511 14.6181C78.3282 13.4706 80.7731 12.8969 83.4857 12.8969C85.615 12.8969 87.5371 13.2475 89.2616 13.9456C91.0083 14.6181 92.4906 15.619 93.7082 16.9419L91.3526 19.2624C89.2233 17.2415 86.6541 16.2279 83.6387 16.2279C81.6114 16.2279 79.7881 16.6646 78.1656 17.538C76.5687 18.3858 75.3159 19.5844 74.4043 21.1335C73.4926 22.6572 73.0368 24.3785 73.0368 26.3006C73.0368 28.2227 73.4926 29.9217 74.4043 31.4676C75.3159 32.9913 76.5687 34.1898 78.1656 35.0632C79.7881 35.9366 81.5986 36.3733 83.6004 36.3733C85.9815 36.3733 88.0598 35.8123 89.8321 34.6871V26.1476L89.8289 26.1571Z" fill="white"/>
<path d="M101.154 11.6282H104.801V39.4143H101.154V11.6282Z" fill="white"/>
<path d="M121.325 39.6406C119.323 39.6406 117.526 39.2039 115.929 38.3305C114.332 37.4571 113.079 36.2586 112.167 34.735C111.281 33.1858 110.838 31.439 110.838 29.4914C110.838 27.5438 111.281 25.8098 112.167 24.2861C113.079 22.7369 114.332 21.5384 115.929 20.6905C117.526 19.8171 119.323 19.3804 121.325 19.3804C123.327 19.3804 125.112 19.8171 126.684 20.6905C128.281 21.5384 129.52 22.7369 130.407 24.2861C131.318 25.8098 131.774 27.5438 131.774 29.4914C131.774 31.439 131.318 33.1858 130.407 34.735C129.52 36.2586 128.277 37.4571 126.684 38.3305C125.112 39.2039 123.327 39.6406 121.325 39.6406ZM121.325 36.4945C122.616 36.4945 123.77 36.2076 124.784 35.6339C125.823 35.0346 126.633 34.2122 127.216 33.1635C127.799 32.0893 128.089 30.8652 128.089 29.4946C128.089 28.1239 127.799 26.9095 127.216 25.8608C126.633 24.7866 125.823 23.9642 124.784 23.3904C123.77 22.8166 122.619 22.5298 121.325 22.5298C120.031 22.5298 118.868 22.8166 117.828 23.3904C116.815 23.9642 116.005 24.7897 115.396 25.8608C114.813 26.9095 114.523 28.1207 114.523 29.4946C114.523 30.8684 114.813 32.0925 115.396 33.1635C116.005 34.2122 116.815 35.0346 117.828 35.6339C118.868 36.2076 120.031 36.4945 121.325 36.4945Z" fill="white"/>
<path d="M148.429 19.3804C150.38 19.3804 152.127 19.8044 153.673 20.6522C155.219 21.5001 156.42 22.6859 157.281 24.2096C158.167 25.7332 158.61 27.4928 158.61 29.4914C158.61 31.49 158.167 33.2623 157.281 34.8082C156.42 36.3319 155.216 37.5177 153.673 38.3656C152.127 39.2135 150.38 39.6374 148.429 39.6374C146.934 39.6374 145.567 39.3505 144.327 38.7768C143.084 38.203 142.06 37.3647 141.248 36.2682V39.4143H137.751V11.6282H141.397V22.5648C142.207 21.5161 143.221 20.7287 144.438 20.206C145.653 19.6577 146.982 19.3836 148.429 19.3836V19.3804ZM148.126 36.4945C149.417 36.4945 150.571 36.2076 151.585 35.6338C152.624 35.0346 153.434 34.2122 154.017 33.1635C154.626 32.0892 154.929 30.8652 154.929 29.4946C154.929 28.1239 154.626 26.9094 154.017 25.8607C153.434 24.7865 152.624 23.9641 151.585 23.3904C150.571 22.8166 149.417 22.5297 148.126 22.5297C146.835 22.5297 145.707 22.8166 144.668 23.3904C143.629 23.9641 142.819 24.7897 142.236 25.8607C141.652 26.9094 141.362 28.1207 141.362 29.4946C141.362 30.8684 141.652 32.0924 142.236 33.1635C142.816 34.2122 143.629 35.0346 144.668 35.6338C145.707 36.2076 146.858 36.4945 148.126 36.4945Z" fill="white"/>
<path d="M171.737 19.3804C174.523 19.3804 176.649 20.053 178.118 21.4014C179.613 22.7497 180.359 24.7579 180.359 27.4322V39.4175H176.901V36.7973C176.292 37.7217 175.418 38.4325 174.28 38.933C173.165 39.4079 171.836 39.6438 170.29 39.6438C168.036 39.6438 166.225 39.1083 164.858 38.0341C163.516 36.9599 162.843 35.551 162.843 33.801C162.843 32.051 163.49 30.6549 164.781 29.6062C166.072 28.5319 168.125 27.9964 170.937 27.9964H176.713V27.2856C176.713 25.7364 176.257 24.5507 175.345 23.7283C174.433 22.9059 173.091 22.4915 171.319 22.4915C170.127 22.4915 168.964 22.6923 167.822 23.0908C166.681 23.4637 165.719 23.9769 164.934 24.6272L163.414 21.9305C164.453 21.1081 165.693 20.4833 167.137 20.0594C168.581 19.6099 170.114 19.3868 171.734 19.3868L171.737 19.3804ZM170.898 36.8674C172.291 36.8674 173.493 36.5678 174.507 35.9685C175.52 35.3438 176.253 34.4704 176.709 33.3484V30.5784H171.086C167.998 30.5784 166.452 31.6016 166.452 33.648C166.452 34.6457 166.844 35.433 167.631 36.0068C168.415 36.5806 169.505 36.8674 170.898 36.8674Z" fill="white"/>
<path d="M188.044 11.6282H191.691V39.4143H188.044V11.6282Z" fill="white"/>
<path d="M209.433 23.4987C211.183 23.4987 212.738 23.8238 214.106 24.4709C215.499 25.1212 216.589 26.0551 217.373 27.2792C218.157 28.4777 218.553 29.8643 218.553 31.4358C218.553 33.0072 218.135 34.5309 217.297 35.7804C216.487 37.0299 215.359 38.0022 213.915 38.7002C212.496 39.3728 210.899 39.7107 209.127 39.7107C205.554 39.7107 202.793 38.5759 200.846 36.3032C198.92 34.0304 197.958 30.811 197.958 26.6417C197.958 23.7218 198.477 21.2355 199.516 19.1891C200.581 17.1172 202.05 15.5553 203.925 14.5066C205.825 13.4324 208.03 12.8969 210.536 12.8969C211.827 12.8969 213.044 13.0339 214.182 13.308C215.32 13.5567 216.308 13.9328 217.147 14.4301L215.703 17.3499C214.437 16.5275 212.738 16.1131 210.612 16.1131C207.852 16.1131 205.684 16.961 204.113 18.66C202.545 20.3335 201.757 22.7783 201.757 26.001C201.757 26.3994 201.77 26.7118 201.795 26.9381C202.557 25.8161 203.593 24.965 204.91 24.3912C206.252 23.792 207.759 23.4923 209.433 23.4923V23.4987ZM208.977 36.6825C210.727 36.6825 212.142 36.2203 213.232 35.2959C214.323 34.3715 214.868 33.1379 214.868 31.5888C214.868 30.0396 214.31 28.8188 213.194 27.9199C212.104 26.9955 210.635 26.5333 208.786 26.5333C207.594 26.5333 206.532 26.7596 205.595 27.2059C204.683 27.6553 203.963 28.2673 203.431 29.0419C202.924 29.8165 202.669 30.6771 202.669 31.627C202.669 32.5769 202.908 33.3993 203.389 34.1739C203.896 34.923 204.62 35.535 205.557 36.0099C206.519 36.4594 207.661 36.6825 208.977 36.6825Z" fill="white"/>
<path d="M233.818 23.4987C235.568 23.4987 237.123 23.8238 238.491 24.4709C239.884 25.1212 240.974 26.0551 241.758 27.2792C242.542 28.4777 242.937 29.8643 242.937 31.4358C242.937 33.0072 242.52 34.5309 241.685 35.7804C240.872 37.0299 239.747 38.0022 238.303 38.7002C236.884 39.3728 235.287 39.7107 233.515 39.7107C229.942 39.7107 227.184 38.5759 225.234 36.3032C223.308 34.0304 222.346 30.811 222.346 26.6417C222.346 23.7218 222.865 21.2355 223.904 19.1891C224.966 17.1172 226.435 15.5553 228.313 14.5066C230.213 13.4324 232.415 12.8969 234.924 12.8969C236.215 12.8969 237.433 13.0339 238.571 13.308C239.712 13.5567 240.7 13.9328 241.535 14.4301L240.091 17.3499C238.826 16.5275 237.13 16.1131 235 16.1131C232.24 16.1131 230.076 16.961 228.504 18.66C226.933 20.3335 226.149 22.7783 226.149 26.001C226.149 26.3994 226.161 26.7118 226.187 26.9381C226.945 25.8161 227.985 24.965 229.301 24.3912C230.643 23.792 232.151 23.4923 233.821 23.4923L233.818 23.4987ZM233.362 36.6825C235.109 36.6825 236.527 36.2203 237.617 35.2959C238.708 34.3715 239.249 33.1379 239.249 31.5888C239.249 30.0396 238.692 28.8188 237.576 27.9199C236.486 26.9955 235.016 26.5333 233.168 26.5333C231.975 26.5333 230.914 26.7596 229.977 27.2059C229.065 27.6553 228.342 28.2673 227.809 29.0419C227.302 29.8165 227.047 30.6771 227.047 31.627C227.047 32.5769 227.29 33.3993 227.771 34.1739C228.278 34.923 228.998 35.535 229.935 36.0099C230.898 36.4594 232.039 36.6825 233.356 36.6825H233.362Z" fill="white"/>
<path d="M137.754 63.4933V44.4858H145.953C148.069 44.4858 149.714 44.9097 150.881 45.7608C152.047 46.6119 152.63 47.8168 152.63 49.3723C152.63 50.4051 152.391 51.2721 151.91 51.9798C151.429 52.6842 150.779 53.2197 149.956 53.5831C149.134 53.9465 148.232 54.125 147.253 54.125L147.715 53.4747C148.927 53.4747 149.972 53.6596 150.852 54.0326C151.728 54.4023 152.414 54.957 152.901 55.6901C153.389 56.4232 153.635 57.3317 153.635 58.4187C153.635 60.0316 153.042 61.2779 151.856 62.164C150.67 63.0502 148.882 63.4933 146.494 63.4933H137.751H137.754ZM139.762 61.8357H146.469C148.133 61.8357 149.411 61.552 150.297 60.9815C151.183 60.4109 151.626 59.5024 151.626 58.2529C151.626 57.0034 151.183 56.1204 150.297 55.5498C149.411 54.9793 148.133 54.6956 146.469 54.6956H139.546V53.038H145.819C147.339 53.038 148.522 52.748 149.363 52.1678C150.205 51.5877 150.626 50.7302 150.626 49.5891C150.626 48.4479 150.205 47.565 149.363 46.9976C148.522 46.427 147.339 46.1433 145.819 46.1433H139.762V61.8357Z" fill="white"/>
<path d="M162.082 63.6303C160.867 63.6303 159.809 63.404 158.904 62.9513C157.998 62.4987 157.297 61.8197 156.8 60.9145C156.303 60.0092 156.054 58.8776 156.054 57.5197V49.2384H157.982V57.303C157.982 58.8234 158.359 59.9678 159.108 60.7392C159.86 61.5074 160.912 61.8931 162.27 61.8931C163.264 61.8931 164.128 61.6891 164.861 61.281C165.594 60.873 166.155 60.2801 166.544 59.5024C166.933 58.7246 167.128 57.7907 167.128 56.7069V49.2416H169.056V63.4964H167.21V59.5853L167.51 60.2897C167.057 61.3384 166.356 62.1576 165.406 62.7473C164.456 63.337 163.347 63.6303 162.082 63.6303Z" fill="white"/>
<path d="M176.633 63.6303C175.457 63.6303 174.344 63.4646 173.292 63.1267C172.244 62.792 171.418 62.3712 170.822 61.8644L171.692 60.3439C172.272 60.7775 173.012 61.1536 173.917 61.4692C174.822 61.7847 175.772 61.9441 176.767 61.9441C178.125 61.9441 179.103 61.7305 179.699 61.3066C180.295 60.8826 180.595 60.3153 180.595 59.6108C180.595 59.0849 180.426 58.6737 180.091 58.374C179.757 58.0744 179.317 57.8481 178.775 57.6951C178.233 57.5421 177.624 57.4114 176.955 57.2998C176.285 57.1914 175.619 57.0639 174.959 56.9205C174.3 56.7771 173.697 56.5635 173.155 56.283C172.613 56.0025 172.173 55.6168 171.839 55.1291C171.504 54.6414 171.335 53.9879 171.335 53.1751C171.335 52.3623 171.552 51.6992 171.985 51.084C172.419 50.4688 173.056 49.9843 173.901 49.6305C174.743 49.2767 175.769 49.1014 176.983 49.1014C177.908 49.1014 178.829 49.2225 179.753 49.468C180.678 49.7134 181.437 50.0353 182.033 50.4306L181.191 51.9798C180.557 51.5463 179.878 51.2339 179.154 51.0426C178.431 50.8514 177.707 50.7589 176.983 50.7589C175.699 50.7589 174.752 50.982 174.147 51.4251C173.541 51.8682 173.238 52.4356 173.238 53.1209C173.238 53.6628 173.404 54.0899 173.742 54.3959C174.076 54.7051 174.519 54.9442 175.071 55.1163C175.622 55.2885 176.228 55.4287 176.891 55.5371C177.551 55.6455 178.211 55.7762 178.874 55.9323C179.534 56.0853 180.139 56.2957 180.694 56.5571C181.245 56.8185 181.688 57.1914 182.023 57.6696C182.358 58.1509 182.527 58.7788 182.527 59.5566C182.527 60.3886 182.297 61.109 181.835 61.7146C181.373 62.3202 180.703 62.792 179.827 63.1267C178.95 63.4614 177.886 63.6303 176.636 63.6303H176.633Z" fill="white"/>
<path d="M185.405 47.0773C185.007 47.0773 184.672 46.9402 184.401 46.6693C184.13 46.3983 183.993 46.0732 183.993 45.6907C183.993 45.3082 184.13 44.9894 184.401 44.728C184.672 44.4666 185.007 44.3328 185.405 44.3328C185.804 44.3328 186.138 44.4603 186.409 44.7121C186.68 44.9671 186.817 45.2827 186.817 45.662C186.817 46.0413 186.686 46.3951 186.422 46.6661C186.161 46.937 185.819 47.0741 185.405 47.0741V47.0773ZM184.427 63.4932V49.2384H186.355V63.4932H184.427Z" fill="white"/>
<path d="M190.1 63.4932V49.2384H191.946V53.1496L191.646 52.4164C192.099 51.3837 192.823 50.574 193.817 49.9875C194.812 49.401 195.997 49.1046 197.374 49.1046C198.531 49.1046 199.552 49.3277 200.428 49.7708C201.305 50.2138 201.993 50.8896 202.49 51.7949C202.988 52.7001 203.236 53.8413 203.236 55.2151V63.4964H201.308V55.4064C201.308 53.905 200.932 52.7671 200.183 51.9989C199.43 51.2307 198.378 50.845 197.021 50.845C196.007 50.845 195.124 51.049 194.375 51.457C193.623 51.865 193.046 52.4515 192.638 53.2229C192.23 53.9911 192.026 54.9187 192.026 56.0056V63.4996H190.097L190.1 63.4932Z" fill="white"/>
<path d="M212.882 63.6303C211.396 63.6303 210.093 63.3179 208.971 62.6932C207.849 62.0684 206.969 61.2078 206.338 60.1144C205.704 59.0211 205.388 57.7652 205.388 56.3531C205.388 54.941 205.691 53.6915 206.296 52.6077C206.902 51.5207 207.734 50.6665 208.795 50.0417C209.854 49.4169 211.046 49.1046 212.366 49.1046C213.685 49.1046 214.896 49.4074 215.936 50.013C216.975 50.6186 217.794 51.4697 218.393 52.5663C218.989 53.6628 219.289 54.9251 219.289 56.3531C219.289 56.4455 219.286 56.538 219.276 56.6368C219.267 56.7356 219.263 56.8408 219.263 56.9492H206.854V55.5116H218.231L217.472 56.0821C217.472 55.0494 217.249 54.1313 216.806 53.3249C216.363 52.5184 215.76 51.8905 215.002 51.4379C214.24 50.9852 213.363 50.7589 212.369 50.7589C211.374 50.7589 210.514 50.9852 209.736 51.4379C208.958 51.8905 208.352 52.5248 207.916 53.3376C207.482 54.1537 207.265 55.0844 207.265 56.1331V56.4328C207.265 57.5197 207.504 58.4728 207.986 59.2984C208.464 60.1208 209.137 60.7647 209.994 61.2269C210.855 61.6891 211.836 61.9186 212.939 61.9186C213.809 61.9186 214.619 61.7656 215.368 61.4564C216.12 61.1504 216.768 60.6786 217.309 60.0443L218.396 61.2938C217.762 62.0556 216.972 62.6326 216.022 63.031C215.072 63.4295 214.026 63.6271 212.885 63.6271L212.882 63.6303Z" fill="white"/>
<path d="M225.425 63.6303C224.249 63.6303 223.136 63.4646 222.084 63.1267C221.036 62.792 220.21 62.3712 219.614 61.8644L220.484 60.3439C221.064 60.7775 221.804 61.1536 222.709 61.4692C223.614 61.7847 224.564 61.9441 225.559 61.9441C226.917 61.9441 227.895 61.7305 228.491 61.3066C229.087 60.8826 229.387 60.3153 229.387 59.6108C229.387 59.0849 229.218 58.6737 228.883 58.374C228.549 58.0744 228.109 57.8481 227.567 57.6951C227.025 57.5421 226.416 57.4114 225.747 57.2998C225.078 57.1914 224.411 57.0639 223.751 56.9205C223.092 56.7771 222.489 56.5635 221.947 56.283C221.405 56.0025 220.966 55.6168 220.631 55.1291C220.296 54.6414 220.127 53.9879 220.127 53.1751C220.127 52.3623 220.344 51.6992 220.777 51.084C221.211 50.4688 221.849 49.9843 222.693 49.6305C223.535 49.2767 224.561 49.1014 225.776 49.1014C226.7 49.1014 227.621 49.2225 228.546 49.468C229.47 49.7134 230.229 50.0353 230.825 50.4306L229.983 51.9798C229.349 51.5463 228.67 51.2339 227.946 51.0426C227.223 50.8514 226.499 50.7589 225.776 50.7589C224.491 50.7589 223.544 50.982 222.939 51.4251C222.333 51.8682 222.03 52.4356 222.03 53.1209C222.03 53.6628 222.196 54.0899 222.534 54.3959C222.869 54.7051 223.312 54.9442 223.863 55.1163C224.414 55.2885 225.02 55.4287 225.683 55.5371C226.343 55.6455 227.003 55.7762 227.666 55.9323C228.326 56.0853 228.931 56.2957 229.486 56.5571C230.037 56.8185 230.48 57.1914 230.815 57.6696C231.15 58.1509 231.319 58.7788 231.319 59.5566C231.319 60.3886 231.089 61.109 230.627 61.7146C230.165 62.3202 229.495 62.792 228.619 63.1267C227.742 63.4614 226.678 63.6303 225.428 63.6303H225.425Z" fill="white"/>
<path d="M237.044 63.6303C235.868 63.6303 234.755 63.4646 233.703 63.1267C232.654 62.792 231.829 62.3712 231.233 61.8644L232.103 60.3439C232.683 60.7775 233.423 61.1536 234.328 61.4692C235.233 61.7847 236.183 61.9441 237.178 61.9441C238.536 61.9441 239.514 61.7305 240.11 61.3066C240.706 60.8826 241.006 60.3153 241.006 59.6108C241.006 59.0849 240.837 58.6737 240.502 58.374C240.168 58.0744 239.728 57.8481 239.186 57.6951C238.644 57.5421 238.035 57.4114 237.366 57.2998C236.696 57.1914 236.03 57.0639 235.37 56.9205C234.71 56.7771 234.108 56.5635 233.566 56.283C233.024 56.0025 232.584 55.6168 232.25 55.1291C231.915 54.6414 231.746 53.9879 231.746 53.1751C231.746 52.3623 231.963 51.6992 232.396 51.084C232.83 50.4688 233.467 49.9843 234.312 49.6305C235.154 49.2767 236.18 49.1014 237.394 49.1014C238.319 49.1014 239.24 49.2225 240.164 49.468C241.089 49.7134 241.847 50.0353 242.443 50.4306L241.602 51.9798C240.968 51.5463 240.289 51.2339 239.565 51.0426C238.842 50.8514 238.118 50.7589 237.394 50.7589C236.11 50.7589 235.163 50.982 234.557 51.4251C233.952 51.8682 233.649 52.4356 233.649 53.1209C233.649 53.6628 233.815 54.0899 234.153 54.3959C234.487 54.7051 234.93 54.9442 235.482 55.1163C236.033 55.2885 236.639 55.4287 237.302 55.5371C237.962 55.6455 238.622 55.7762 239.285 55.9323C239.944 56.0853 240.55 56.2957 241.105 56.5571C241.656 56.8185 242.099 57.1914 242.434 57.6696C242.769 58.1509 242.938 58.7788 242.938 59.5566C242.938 60.3886 242.708 61.109 242.246 61.7146C241.784 62.3202 241.114 62.792 240.238 63.1267C239.361 63.4614 238.296 63.6303 237.047 63.6303H237.044Z" fill="white"/>
<path d="M37.3997 19.1031C35.0951 19.1031 33.0614 20.2187 31.8278 21.9209C31.1011 22.9282 30.6452 24.1331 30.5783 25.4495C30.5751 25.5515 30.5687 25.6599 30.5687 25.7651C30.5687 28.0984 28.6339 29.9886 26.2496 29.9886H26.24C23.8589 29.9886 21.9209 28.0984 21.9209 25.7651C21.9209 25.6631 21.9177 25.5547 21.9113 25.4495C21.8507 24.1331 21.3949 22.9282 20.6618 21.9209C19.4409 20.2155 17.4041 19.1031 15.1027 19.1031C11.5294 19.1031 8.60001 21.7838 8.30038 25.1945C8.30038 25.1945 8.27807 25.4687 8.28126 25.5356C8.32588 26.1699 8.86139 26.6768 9.52441 26.6768C10.1874 26.6768 10.7548 26.1189 10.7771 25.4527C10.86 24.3594 11.37 23.384 12.1446 22.6827C12.9224 21.9815 13.9583 21.548 15.0963 21.548C17.3722 21.548 19.2369 23.2692 19.4027 25.4527L19.4218 25.7938C19.425 27.2186 19.8872 28.5319 20.6713 29.6125C21.9049 31.3179 23.945 32.4335 26.2432 32.4335H26.2528C28.551 32.4335 30.5911 31.3179 31.8246 29.6125C32.6088 28.5319 33.0678 27.2218 33.0742 25.7938L33.0933 25.4527C33.2591 23.2661 35.1238 21.548 37.3997 21.548C38.5377 21.548 39.5768 21.9783 40.3514 22.6827C41.126 23.384 41.636 24.3594 41.7189 25.4527C41.7476 26.1189 42.2799 26.6768 42.9716 26.6768C43.6633 26.6768 44.1701 26.1731 44.2147 25.5356C44.2243 25.4687 44.202 25.1945 44.202 25.1945C43.9024 21.7806 40.973 19.1031 37.3997 19.1031Z" fill="#131F44"/>
<path d="M26.0456 0C11.6601 0 0 11.4944 0 25.6727C0 39.851 11.6601 51.3422 26.0456 51.3422C40.4311 51.3422 52.0913 39.8478 52.0913 25.6727C52.0913 11.4976 40.4311 0 26.0456 0ZM41.7189 25.4591C41.636 24.3658 41.126 23.3904 40.3515 22.6891C39.5769 21.9879 38.5377 21.5543 37.3998 21.5543C35.1238 21.5543 33.2591 23.2724 33.0934 25.4591L33.0742 25.8002C33.071 27.225 32.6088 28.5383 31.8247 29.6189C30.5911 31.3242 28.5511 32.4399 26.2528 32.4399H26.2433C23.945 32.4399 21.905 31.3242 20.6714 29.6189C19.8873 28.5383 19.4282 27.2282 19.4219 25.8002L19.4027 25.4591C19.237 23.2788 17.3723 21.5543 15.0963 21.5543C13.9584 21.5543 12.9224 21.9847 12.1446 22.6891C11.3701 23.3904 10.8601 24.3658 10.7772 25.4591C10.7549 26.1253 10.2193 26.6831 9.52446 26.6831C8.82957 26.6831 8.32593 26.1763 8.28131 25.542C8.27812 25.4751 8.30043 25.2009 8.30043 25.2009C8.60007 21.787 11.5294 19.1095 15.1027 19.1095C17.4041 19.1095 19.441 20.2251 20.6618 21.9273C21.395 22.9346 21.8508 24.1395 21.9114 25.4559C21.9145 25.5579 21.9209 25.6663 21.9209 25.7715C21.9209 28.1048 23.859 29.995 26.2401 29.995H26.2496C28.6371 29.995 30.5688 28.1048 30.5688 25.7715C30.5688 25.6695 30.572 25.5611 30.5784 25.4559C30.6421 24.1395 31.0979 22.9346 31.8279 21.9273C33.0615 20.2219 35.0983 19.1095 37.3998 19.1095C40.973 19.1095 43.9024 21.7902 44.202 25.2009C44.202 25.2009 44.2244 25.4751 44.2148 25.542C44.1702 26.1795 43.6346 26.6831 42.9716 26.6831C42.3086 26.6831 41.7476 26.1253 41.7189 25.4591Z" fill="white"/>
</svg>
