<svg width="150" height="78" viewBox="0 0 150 78" fill="none" xmlns="http://www.w3.org/2000/svg">
<circle cx="75" cy="18" r="18" fill="#1F49B6"/>
<path d="M87.547 17.6678C87.3401 15.2746 85.3155 13.3954 82.8454 13.3954C81.2538 13.3954 79.8468 14.1773 78.9937 15.3724C78.4908 16.0786 78.1756 16.9237 78.1311 17.8475C78.1279 17.92 78.1247 17.9957 78.1247 18.0682C78.1247 19.7047 76.7878 21.029 75.1389 21.029C75.1357 21.029 75.1357 21.029 75.1357 21.029H75.1325C73.4868 21.029 72.1467 19.7047 72.1467 18.0682C72.1467 17.9957 72.1435 17.92 72.1403 17.8475C72.0989 16.9237 71.7838 16.0786 71.2777 15.3724C70.4341 14.1773 69.0271 13.3954 67.4355 13.3954C64.9654 13.3954 62.9409 15.2746 62.734 17.6678C62.734 17.6678 62.718 17.8601 62.7212 17.9074C62.7531 18.352 63.1223 18.7083 63.5807 18.7083C64.0613 18.7083 64.4306 18.3173 64.4465 17.8507C64.5038 17.0845 64.8571 16.4003 65.3919 15.9084C65.9299 15.4165 66.6461 15.1138 67.4324 15.1138C69.0049 15.1138 70.294 16.3214 70.4086 17.8507L70.4214 18.0903C70.4246 19.0898 70.7429 20.0105 71.284 20.7673C72.1371 21.9623 73.5473 22.7442 75.1357 22.7442C75.1389 22.7442 75.1389 22.7442 75.1389 22.7442H75.1421C76.7305 22.7442 78.1406 21.9623 78.9937 20.7673C79.5349 20.0105 79.8532 19.0898 79.8564 18.0903L79.8691 17.8507C79.9837 16.3183 81.2729 15.1138 82.8454 15.1138C83.6316 15.1138 84.351 15.4165 84.8858 15.9084C85.4206 16.4003 85.7739 17.0845 85.8312 17.8507C85.8503 18.3173 86.2196 18.7083 86.697 18.7083C87.1554 18.7083 87.5247 18.3552 87.5565 17.9074C87.5629 17.8601 87.547 17.6678 87.547 17.6678Z" fill="white"/>
<path d="M17.7292 64.894H21.8593V74.2623C20.6505 75.2248 19.2402 75.9635 17.6285 76.4784C16.0167 76.9933 14.3602 77.2507 12.6589 77.2507C10.2637 77.2507 8.10351 76.7358 6.17836 75.7061C4.25322 74.654 2.74221 73.2101 1.64532 71.3745C0.548442 69.5389 0 67.4683 0 65.1626C0 62.8569 0.548442 60.7863 1.64532 58.9507C2.74221 57.1151 4.25322 55.6824 6.17836 54.6527C8.12589 53.6006 10.3085 53.0745 12.7261 53.0745C14.696 53.0745 16.4868 53.3991 18.0986 54.0483C19.7103 54.6974 21.0646 55.6488 22.1615 56.9024L19.4081 59.5886C17.6173 57.7978 15.4571 56.9024 12.9276 56.9024C11.271 56.9024 9.7936 57.2494 8.49525 57.9433C7.21928 58.6373 6.21194 59.611 5.47322 60.8646C4.75689 62.1182 4.39873 63.5509 4.39873 65.1626C4.39873 66.7296 4.75689 68.1399 5.47322 69.3934C6.21194 70.647 7.21928 71.632 8.49525 72.3483C9.7936 73.0646 11.2598 73.4228 12.894 73.4228C14.7296 73.4228 16.3413 73.0199 17.7292 72.214V64.894Z" fill="#1F49B6"/>
<path d="M27.2137 52H31.411V76.9149H27.2137V52Z" fill="#1F49B6"/>
<path d="M44.9786 77.15C43.1654 77.15 41.5312 76.7582 40.0762 75.9747C38.6211 75.1912 37.4795 74.1056 36.6512 72.7177C35.8454 71.3074 35.4424 69.718 35.4424 67.9496C35.4424 66.1811 35.8454 64.603 36.6512 63.2151C37.4795 61.8272 38.6211 60.7415 40.0762 59.958C41.5312 59.1745 43.1654 58.7828 44.9786 58.7828C46.8142 58.7828 48.4595 59.1745 49.9146 59.958C51.3696 60.7415 52.5001 61.8272 53.306 63.2151C54.1342 64.603 54.5483 66.1811 54.5483 67.9496C54.5483 69.718 54.1342 71.3074 53.306 72.7177C52.5001 74.1056 51.3696 75.1912 49.9146 75.9747C48.4595 76.7582 46.8142 77.15 44.9786 77.15ZM44.9786 73.5571C46.5232 73.5571 47.7991 73.0423 48.8065 72.0125C49.8138 70.9828 50.3175 69.6285 50.3175 67.9496C50.3175 66.2707 49.8138 64.9164 48.8065 63.8866C47.7991 62.8569 46.5232 62.342 44.9786 62.342C43.434 62.342 42.158 62.8569 41.1507 63.8866C40.1657 64.9164 39.6733 66.2707 39.6733 67.9496C39.6733 69.6285 40.1657 70.9828 41.1507 72.0125C42.158 73.0423 43.434 73.5571 44.9786 73.5571Z" fill="#1F49B6"/>
<path d="M68.5011 58.7828C70.2471 58.7828 71.8029 59.1633 73.1684 59.9244C74.5563 60.6855 75.642 61.76 76.4255 63.1479C77.209 64.5358 77.6007 66.1364 77.6007 67.9496C77.6007 69.7628 77.209 71.3745 76.4255 72.7848C75.642 74.1727 74.5563 75.2472 73.1684 76.0083C71.8029 76.7694 70.2471 77.15 68.5011 77.15C67.2699 77.15 66.1394 76.9373 65.1097 76.512C64.1023 76.0867 63.2517 75.4487 62.5578 74.598V76.9149H58.562V52H62.7592V61.1668C63.4756 60.3833 64.315 59.7901 65.2776 59.3872C66.2625 58.9842 67.337 58.7828 68.5011 58.7828ZM68.031 73.5571C69.5756 73.5571 70.8403 73.0423 71.8253 72.0125C72.8326 70.9828 73.3363 69.6285 73.3363 67.9496C73.3363 66.2707 72.8326 64.9164 71.8253 63.8866C70.8403 62.8569 69.5756 62.342 68.031 62.342C67.0236 62.342 66.117 62.5771 65.3112 63.0472C64.5053 63.4949 63.8673 64.1441 63.3972 64.9947C62.9271 65.8454 62.6921 66.8303 62.6921 67.9496C62.6921 69.0688 62.9271 70.0538 63.3972 70.9044C63.8673 71.7551 64.5053 72.4155 65.3112 72.8856C66.117 73.3333 67.0236 73.5571 68.031 73.5571Z" fill="#1F49B6"/>
<path d="M88.2017 58.7828C90.8432 58.7828 92.8578 59.4208 94.2457 60.6967C95.656 61.9503 96.3612 63.8531 96.3612 66.405V76.9149H92.3989V74.7323C91.8841 75.5158 91.1454 76.1202 90.1828 76.5456C89.2426 76.9485 88.101 77.15 86.7578 77.15C85.4147 77.15 84.2395 76.9261 83.2321 76.4784C82.2248 76.0083 81.4413 75.3703 80.8817 74.5645C80.3444 73.7362 80.0758 72.8072 80.0758 71.7775C80.0758 70.1657 80.669 68.8786 81.8554 67.916C83.0642 66.931 84.9558 66.4386 87.5301 66.4386H92.1639V66.1699C92.1639 64.9164 91.7833 63.9538 91.0222 63.2822C90.2835 62.6107 89.1754 62.2749 87.698 62.2749C86.6907 62.2749 85.6945 62.4316 84.7096 62.745C83.747 63.0584 82.9299 63.4949 82.2584 64.0545L80.613 60.9989C81.5532 60.2826 82.6837 59.7341 84.0044 59.3536C85.3252 58.973 86.7243 58.7828 88.2017 58.7828ZM87.6309 74.0944C88.683 74.0944 89.612 73.8593 90.4178 73.3892C91.2461 72.8967 91.8281 72.2028 92.1639 71.3074V69.2255H87.8323C85.4147 69.2255 84.2059 70.0202 84.2059 71.6096C84.2059 72.3707 84.5081 72.9751 85.1125 73.4228C85.7169 73.8705 86.5564 74.0944 87.6309 74.0944Z" fill="#1F49B6"/>
<path d="M101.748 52H105.945V76.9149H101.748V52Z" fill="#1F49B6"/>
<path d="M120.856 62.4092C122.4 62.4092 123.788 62.7114 125.02 63.3158C126.251 63.8978 127.213 64.7373 127.907 65.8342C128.601 66.931 128.948 68.1958 128.948 69.6285C128.948 71.1507 128.568 72.4938 127.806 73.6579C127.045 74.7995 126.016 75.6837 124.717 76.3105C123.419 76.9373 121.964 77.2507 120.352 77.2507C117.129 77.2507 114.621 76.2434 112.831 74.2287C111.062 72.214 110.178 69.3263 110.178 65.5655C110.178 62.9241 110.659 60.6743 111.622 58.8163C112.584 56.936 113.928 55.5145 115.651 54.5519C117.397 53.567 119.412 53.0745 121.695 53.0745C122.904 53.0745 124.035 53.2088 125.087 53.4774C126.161 53.7237 127.09 54.093 127.874 54.5855L126.262 57.8762C125.098 57.1151 123.609 56.7345 121.796 56.7345C119.535 56.7345 117.767 57.4285 116.491 58.8163C115.215 60.2042 114.577 62.2077 114.577 64.8268V64.8604C115.271 64.0545 116.155 63.4501 117.229 63.0472C118.304 62.6219 119.513 62.4092 120.856 62.4092ZM120.117 73.8257C121.483 73.8257 122.591 73.4676 123.441 72.7512C124.292 72.0125 124.717 71.0388 124.717 69.83C124.717 68.5988 124.292 67.625 123.441 66.9087C122.591 66.1923 121.449 65.8342 120.016 65.8342C118.606 65.8342 117.453 66.2147 116.558 66.9758C115.685 67.7369 115.248 68.6995 115.248 69.8635C115.248 71.0052 115.674 71.9566 116.524 72.7177C117.397 73.4564 118.595 73.8257 120.117 73.8257Z" fill="#1F49B6"/>
<path d="M141.908 62.4092C143.452 62.4092 144.84 62.7114 146.071 63.3158C147.303 63.8978 148.265 64.7373 148.959 65.8342C149.653 66.931 150 68.1958 150 69.6285C150 71.1507 149.619 72.4938 148.858 73.6579C148.097 74.7995 147.068 75.6837 145.769 76.3105C144.471 76.9373 143.016 77.2507 141.404 77.2507C138.181 77.2507 135.673 76.2434 133.883 74.2287C132.114 72.214 131.23 69.3263 131.23 65.5655C131.23 62.9241 131.711 60.6743 132.674 58.8163C133.636 56.936 134.979 55.5145 136.703 54.5519C138.449 53.567 140.464 53.0745 142.747 53.0745C143.956 53.0745 145.086 53.2088 146.139 53.4774C147.213 53.7237 148.142 54.093 148.925 54.5855L147.314 57.8762C146.15 57.1151 144.661 56.7345 142.848 56.7345C140.587 56.7345 138.818 57.4285 137.543 58.8163C136.267 60.2042 135.629 62.2077 135.629 64.8268V64.8604C136.323 64.0545 137.207 63.4501 138.281 63.0472C139.356 62.6219 140.565 62.4092 141.908 62.4092ZM141.169 73.8257C142.534 73.8257 143.643 73.4676 144.493 72.7512C145.344 72.0125 145.769 71.0388 145.769 69.83C145.769 68.5988 145.344 67.625 144.493 66.9087C143.643 66.1923 142.501 65.8342 141.068 65.8342C139.658 65.8342 138.505 66.2147 137.61 66.9758C136.737 67.7369 136.3 68.6995 136.3 69.8635C136.3 71.0052 136.725 71.9566 137.576 72.7177C138.449 73.4564 139.647 73.8257 141.169 73.8257Z" fill="#1F49B6"/>
</svg>
