<svg width="32" height="32" viewBox="0 0 32 32" fill="none" xmlns="http://www.w3.org/2000/svg">
<g clip-path="url(#clip0_5667_1711)">
<path d="M15.3966 0H16.5871C16.692 0.0395487 17.1585 0.0473097 17.2971 0.0551729C17.4953 0.0665558 17.6932 0.083192 17.8906 0.105064C18.5722 0.183627 19.2482 0.304764 19.9148 0.467765C23.6061 1.39115 26.8465 3.60207 29.0525 6.70243C29.4674 7.27703 29.8405 7.88064 30.1689 8.50867C31.2197 10.5652 31.8311 12.6201 31.9663 14.9216C31.9737 15.0473 31.9709 15.2437 32 15.3605V16.6535C31.9468 16.9104 31.9559 17.3458 31.9283 17.6307C31.8614 18.2812 31.7578 18.9273 31.6182 19.566C30.7231 23.5153 28.364 26.9786 25.0165 29.2575C22.9639 30.6743 20.444 31.5878 17.9754 31.8881C17.7888 31.9108 17.1548 31.9432 17.0129 32H14.9752C14.8956 31.9687 14.7846 31.9601 14.6986 31.9532C14.1675 31.9108 13.6467 31.8392 13.1215 31.7481C11.4818 31.456 9.89844 30.9071 8.42976 30.1215C4.45165 27.9941 1.55923 24.2829 0.467563 19.9056C0.300546 19.2149 0.175573 18.5144 0.0933307 17.8085C0.0704803 17.595 0.048545 16.7518 0 16.6167V15.3944C0.0375416 15.2839 0.0323549 15.1036 0.0360562 14.9827C0.050046 14.526 0.101158 14.0789 0.167912 13.6265C0.424772 11.8439 0.985433 10.1186 1.82552 8.52548C3.92792 4.52302 7.63053 1.60114 12.0121 0.48687C12.7019 0.31611 13.4018 0.188982 14.1076 0.106242C14.3246 0.0809398 14.5423 0.0621561 14.7604 0.0499164C14.8864 0.0428407 15.296 0.0375915 15.3966 0Z" fill="#2776CA"/>
<path d="M15.4017 8.14434C15.4863 8.14102 15.571 8.13897 15.6557 8.13819C16.0235 8.13449 16.5962 8.06645 16.8744 8.33692C17.0561 8.51364 17.0026 8.87567 17.0021 9.1174L17.0024 10.2634C17.5618 10.3699 17.9374 10.4119 18.4581 10.7381C19.2308 11.2192 19.7789 11.9895 19.98 12.8773C20.1572 13.6834 19.3506 13.5088 18.8777 13.528C18.0251 13.5626 18.1345 13.4488 17.8301 12.7958C17.3675 11.8032 16.1133 11.7127 15.1585 11.8595C14.1701 12.0115 13.6547 12.7382 13.8386 13.7264C14.1002 15.0669 16.0276 14.9611 17.0651 15.1868C17.7916 15.3431 18.5415 15.5161 19.1751 15.9222C20.6342 16.8366 20.7294 19.1205 19.8181 20.4465C19.1851 21.3598 18.1492 21.8675 17.0641 22.07L17.0691 23.4924C17.0677 23.708 17.0226 23.9253 16.8587 24.08C16.8069 24.1291 16.7435 24.1645 16.6744 24.1827C16.5226 24.2229 15.9065 24.2057 15.7035 24.2046L15.6751 24.2049C14.9415 24.2102 14.9961 23.7025 14.9966 23.1756L14.9972 22.0657C14.3437 21.9911 13.5916 21.7277 13.0366 21.3825C12.2172 20.8582 11.7518 20.095 11.5196 19.1727C11.2382 18.1534 12.0414 18.3677 12.6316 18.3378C13.5612 18.291 13.4266 18.4902 13.6854 19.2552C13.8182 19.5416 14.0203 19.844 14.2854 20.0188C15.7229 20.9672 18.6134 20.4725 18.2356 18.2714C18.0207 17.019 16.0263 16.9526 15.0609 16.7659C14.1509 16.5858 12.881 16.2616 12.2966 15.5033C11.2346 14.125 11.5335 11.8752 13.0247 10.9091C13.728 10.4535 14.1638 10.3532 14.9354 10.1986L14.9319 9.20333C14.9315 9.06102 14.9236 8.7884 14.9413 8.65615C14.9542 8.56114 14.9866 8.46982 15.0364 8.38793C15.1362 8.22702 15.231 8.18174 15.4017 8.14434Z" fill="#FEFEFE"/>
<path d="M19.3916 4.68217C19.7138 4.67196 20.7433 5.14226 21.0784 5.29673C23.9546 6.64194 26.1833 9.06863 27.2795 12.0488C28.1844 14.4771 28.277 17.1334 27.5435 19.6189C27.401 20.1083 27.1955 20.7112 26.9793 21.1757C26.6099 21.9751 26.1616 22.7354 25.6407 23.4456C24.3422 25.1821 22.3992 26.6819 20.356 27.4218C20.1384 27.4994 19.7112 27.6945 19.5064 27.726C19.4361 27.7368 19.3645 27.7304 19.2983 27.7042C19.1739 27.6551 19.0971 27.5447 19.0503 27.4234C18.9744 27.2261 18.9791 26.3104 19.022 26.087C19.0417 25.9837 19.0823 25.8714 19.1508 25.79C19.3062 25.6053 20.2389 25.2504 20.5276 25.1084C22.4211 24.1761 24.1248 22.4225 24.9935 20.497C26.1509 17.9317 26.2964 15.2934 25.2936 12.6542C24.6049 10.8347 23.3915 9.26079 21.807 8.13196C21.0802 7.61524 20.2981 7.18697 19.4547 6.88923C19.2474 6.81606 18.9959 6.45308 19.007 6.23284C19.0231 5.9116 18.9703 5.4771 19.0103 5.17003C19.0204 5.0863 19.0453 5.00502 19.0837 4.92994C19.1584 4.7854 19.2449 4.72976 19.3916 4.68217Z" fill="#FEFEFE"/>
<path d="M12.4976 4.66602C13.1749 4.62278 12.9544 5.54417 12.9959 5.92024C13.0983 6.84824 12.3621 6.85204 11.6794 7.18654C9.7206 8.13052 8.12533 9.69073 7.13804 11.6281C6.58998 12.7175 6.217 13.9686 6.09403 15.1804C5.74236 18.6545 7.23388 22.0594 10.026 24.1563C10.5264 24.5278 11.1172 24.8809 11.6823 25.1478C11.9017 25.2514 12.4662 25.4606 12.6291 25.5666C12.7616 25.6541 12.8678 25.7761 12.9363 25.9195C12.9515 25.9519 12.997 26.071 12.9937 26.1066C12.9545 26.538 13.2075 27.7521 12.4489 27.6313C12.3 27.6076 11.8967 27.446 11.738 27.3883C11.4687 27.2967 11.0745 27.1293 10.8174 27.0058C7.94945 25.6402 5.73945 23.194 4.67125 20.2025C3.80855 17.8075 3.73575 15.1993 4.46353 12.7599C5.50915 9.21751 8.09054 6.37564 11.5305 5.01146C11.8441 4.88711 12.1788 4.77768 12.4976 4.66602Z" fill="#FEFEFE"/>
</g>
<defs>
<clipPath id="clip0_5667_1711">
<rect width="32" height="32" fill="white"/>
</clipPath>
</defs>
</svg>
