<svg width="32" height="32" viewBox="0 0 32 32" fill="none" xmlns="http://www.w3.org/2000/svg">
<g clip-path="url(#clip0_280_16737)">
<path d="M0 15.9999C0 17.0959 0.1105 18.166 0.320437 19.1999L16 20.1739L31.6796 19.1999C31.8896 18.166 32 17.0959 32 15.9999C32 14.904 31.8895 13.8339 31.6796 12.7999L16 11.826L0.320437 12.7999C0.1105 13.8339 0 14.904 0 15.9999Z" fill="#0052B4"/>
<path d="M31.6796 19.2H0.320374C1.80281 26.5031 8.25937 32 15.9999 32C23.7405 32 30.1971 26.5031 31.6796 19.2Z" fill="#F0F0F0"/>
<path d="M0.320374 12.8H31.6796C30.1971 5.49688 23.7406 0 15.9999 0C8.25925 0 1.80281 5.49688 0.320374 12.8Z" fill="black"/>
<path d="M22.9564 12.8H9.04343L11.8859 11.4629L10.3722 8.71006L13.4588 9.30037L13.8501 6.18231L15.9999 8.47569L18.1499 6.18231L18.5409 9.30037L21.6276 8.71006L20.1141 11.463L22.9564 12.8Z" fill="#FFDA44"/>
<path d="M0 16C0 24.8365 7.1635 32 16 32L3.19975 6.39941C1.19075 9.07373 0 12.3977 0 16Z" fill="#A2001D"/>
<path d="M16 32C24.8365 32 32 24.8365 32 16C32 12.3977 30.8092 9.07373 28.8003 6.39941L16 32Z" fill="#A2001D"/>
</g>
<defs>
<clipPath id="clip0_280_16737">
<rect width="32" height="32" fill="white"/>
</clipPath>
</defs>
</svg>
