<svg width="32" height="32" viewBox="0 0 32 32" fill="none" xmlns="http://www.w3.org/2000/svg">
<g clip-path="url(#clip0_280_16696)">
<path d="M0 16C0 7.1635 7.1635 0 16 0C24.8365 0 32 7.1635 32 16C31.3044 16 16 18.0869 16 18.0869L0 16Z" fill="#D80027"/>
<path d="M32 16C32 24.8365 24.8365 32 16 32C7.1635 32 0 24.8365 0 16" fill="black"/>
<path d="M13.8059 12.7258L15.1623 13.7102L14.6454 15.3044L16.0008 14.3184L17.3573 15.3028L16.8384 13.7091L18.1937 12.7232L16.5177 12.7242L15.9988 11.1305L15.4818 12.7247L13.8059 12.7258Z" fill="#FFDA44"/>
<path d="M19.9999 9.07182C18.7391 8.34389 17.3606 8.00032 15.9999 8.0027V10.0892C17.0056 10.0874 18.0245 10.3411 18.9564 10.8793C21.7801 12.5095 22.751 16.133 21.1207 18.9566C19.4905 21.7803 15.8671 22.7512 13.0434 21.1209C12.2208 20.646 11.5567 20.0011 11.0672 19.2569L9.32494 20.4072C9.98726 21.414 10.887 22.2857 11.9999 22.9282C15.8202 25.1338 20.7225 23.8203 22.9281 20C25.1337 16.1798 23.8202 11.2774 19.9999 9.07182Z" fill="#FFDA44"/>
<path d="M11.3869 14.6087C10.8337 15.6199 11.2051 16.8881 12.2162 17.4412L18.9943 21.145C18.5334 21.9875 18.7782 23.0131 19.6207 23.474L21.4517 24.4756C22.2942 24.9366 23.3512 24.6271 23.8121 23.7845L24.8137 21.9536L11.3869 14.6087Z" fill="#FFDA44"/>
</g>
<defs>
<clipPath id="clip0_280_16696">
<rect width="32" height="32" fill="white"/>
</clipPath>
</defs>
</svg>
