<svg width="32" height="32" viewBox="0 0 32 32" fill="none" xmlns="http://www.w3.org/2000/svg">
<g clip-path="url(#clip0_280_16655)">
<path d="M16 32C24.8366 32 32 24.8366 32 16C32 7.16344 24.8366 0 16 0C7.16344 0 0 7.16344 0 16C0 24.8366 7.16344 32 16 32Z" fill="#F0F0F0"/>
<path d="M23.7623 2.007C21.4633 0.729 18.8169 0 16 0C7.16413 0 0.001125 7.16238 0 15.9981L11.1304 10.4348L23.7623 2.007Z" fill="#0052B4"/>
<path d="M0 16.0018C0.001125 24.8376 7.16413 32 16 32C18.8169 32 21.4633 31.2711 23.7623 29.993L11.1304 21.5651L0 16.0018Z" fill="#0052B4"/>
<path d="M25.0956 2.83639C24.6659 2.53895 24.2206 2.26233 23.7617 2.00726L0 15.9981C0 15.9988 0 15.9994 0 16C0 16.0006 0 16.0013 0 16.0019L23.7618 29.9927C24.2206 29.7376 24.6659 29.461 25.0957 29.1636L2.73888 16L25.0956 2.83639Z" fill="#D80027"/>
<path d="M27.826 15.4033H25.9201C26.4157 14.8083 26.3851 13.9231 25.8268 13.3649C26.4182 12.7736 26.4182 11.8148 25.8268 11.2233L25.7912 11.2591C26.3825 10.6678 26.4182 9.67322 25.8268 9.08191L17.2608 17.6479C17.8522 18.2394 18.7942 18.2323 19.3855 17.6409L19.5504 17.4902L23.6521 17.1173V18.8815H25.0434V16.9908L27.1304 16.8012L27.826 15.4033Z" fill="#A2001D"/>
<path d="M17.3918 19.4783L16 18.7827L17.3918 18.087H26.4353V19.4783H17.3918Z" fill="#FFDA44"/>
</g>
<defs>
<clipPath id="clip0_280_16655">
<rect width="32" height="32" fill="white"/>
</clipPath>
</defs>
</svg>
