<svg width="32" height="32" viewBox="0 0 32 32" fill="none" xmlns="http://www.w3.org/2000/svg">
<g clip-path="url(#clip0_280_16747)">
<path d="M32 16C32 24.8365 24.8365 32 16 32C7.1635 32 0 24.8365 0 16C0 16.0037 16 0.0018125 16 0C24.8365 0 32 7.1635 32 16Z" fill="#0052B4"/>
<path d="M16.0003 0C15.9993 0 15.9983 6.7733e-05 15.9973 6.7733e-05L16.0003 0Z" fill="#F0F0F0"/>
<path d="M15.9572 16.0004H15.9998C15.9998 15.9858 15.9998 15.9718 15.9998 15.9572C15.9856 15.9716 15.9715 15.986 15.9572 16.0004Z" fill="#F0F0F0"/>
<path d="M16 8.34879C16 5.53348 16 3.68866 16 0.000976562H15.9973C7.162 0.00241406 0 7.16523 0 16.0009H8.34781V11.3002L13.0486 16.0009H15.9572C15.9716 15.9867 15.9858 15.9724 16.0001 15.9581C16.0001 14.8802 16.0001 13.9184 16.0001 13.0496L11.2992 8.34879H16Z" fill="#F0F0F0"/>
<path d="M8.09477 2.08691C5.59233 3.51185 3.51196 5.59223 2.08702 8.09466V16H6.26096V6.26091V6.26085H16.0001C16.0001 4.94441 16.0001 3.69029 16.0001 2.08691H8.09477Z" fill="#D80027"/>
<path d="M16.0001 14.0324L10.3155 8.34787H8.34795C8.34795 8.3478 8.34795 8.34787 8.34795 8.34787L16 15.9999H16.0001C16.0001 15.9999 16.0001 14.6434 16.0001 14.0324Z" fill="#D80027"/>
<path d="M9.64961 18.7826L10.5277 20.6187L12.5107 20.1604L11.6227 21.9918L13.2173 23.2563L11.2319 23.7038L11.2374 25.7391L9.64961 24.4658L8.06186 25.7391L8.06743 23.7038L6.08192 23.2563L7.67661 21.9918L6.78849 20.1604L8.77155 20.6187L9.64961 18.7826Z" fill="#F0F0F0"/>
<path d="M23.9552 22.2609L24.3943 23.1789L25.3858 22.9497L24.9417 23.8654L25.7391 24.4977L24.7463 24.7215L24.7491 25.7391L23.9552 25.1024L23.1613 25.7391L23.1641 24.7215L22.1714 24.4977L22.9687 23.8654L22.5247 22.9497L23.5161 23.1789L23.9552 22.2609Z" fill="#F0F0F0"/>
<path d="M19.8706 12.5218L20.3096 13.4399L21.3011 13.2107L20.8571 14.1264L21.6544 14.7587L20.6618 14.9824L20.6644 16L19.8706 15.3634L19.0768 16L19.0794 14.9824L18.0868 14.7587L18.8841 14.1264L18.4401 13.2107L19.4316 13.4399L19.8706 12.5218Z" fill="#F0F0F0"/>
<path d="M23.9552 6.95648L24.3943 7.87461L25.3858 7.64542L24.9418 8.56111L25.739 9.19336L24.7463 9.41717L24.7491 10.4348L23.9552 9.79811L23.1613 10.4348L23.1641 9.41717L22.1714 9.19336L22.9686 8.56111L22.5247 7.64542L23.5161 7.87461L23.9552 6.95648Z" fill="#F0F0F0"/>
<path d="M27.523 11.1304L27.962 12.0486L28.9535 11.8193L28.5095 12.735L29.3068 13.3673L28.3141 13.5911L28.3168 14.6087L27.523 13.9721L26.7291 14.6087L26.7318 13.5911L25.7391 13.3673L26.5365 12.735L26.0924 11.8193L27.0839 12.0486L27.523 11.1304Z" fill="#F0F0F0"/>
<path d="M24.9719 16L25.3172 17.0629H26.4348L25.5306 17.7198L25.8761 18.7826L24.9719 18.1257L24.0678 18.7826L24.4131 17.7198L23.5089 17.0629H24.6265L24.9719 16Z" fill="#F0F0F0"/>
</g>
<defs>
<clipPath id="clip0_280_16747">
<rect width="32" height="32" fill="white"/>
</clipPath>
</defs>
</svg>
