<svg width="32" height="32" viewBox="0 0 32 32" fill="none" xmlns="http://www.w3.org/2000/svg">
<g clip-path="url(#clip0_280_16649)">
<path d="M32 16C32 14.0429 31.648 12.1681 31.0048 10.4348L16 9.73914L0.995188 10.4348C0.352063 12.1681 0 14.0429 0 16C0 17.9571 0.352063 19.8319 0.995188 21.5652L16 22.2609L31.0048 21.5653C31.648 19.8319 32 17.9571 32 16Z" fill="#D80027"/>
<path d="M16 32C22.8794 32 28.7441 27.658 31.0048 21.5652H0.995148C3.25584 27.658 9.12052 32 16 32Z" fill="#6DA544"/>
<path d="M0.995148 10.4348H31.0048C28.7441 4.342 22.8794 0 16 0C9.12052 0 3.25584 4.342 0.995148 10.4348Z" fill="#338AF3"/>
<path d="M16.3478 20.5217C13.8506 20.5217 11.8261 18.4972 11.8261 15.9999C11.8261 13.5027 13.8506 11.4782 16.3478 11.4782C17.1265 11.4782 17.8591 11.6751 18.4988 12.0217C17.4953 11.0404 16.123 10.4347 14.6087 10.4347C11.5351 10.4347 9.04352 12.9263 9.04352 15.9999C9.04352 19.0734 11.5351 21.5651 14.6087 21.5651C16.1231 21.5651 17.4953 20.9594 18.4988 19.9781C17.8591 20.3248 17.1265 20.5217 16.3478 20.5217Z" fill="#F0F0F0"/>
<path d="M19.8262 12.8694L20.4251 14.5539L22.0397 13.7863L21.2722 15.4009L22.9566 15.9999L21.2722 16.5989L22.0397 18.2135L20.4251 17.4459L19.8262 19.1303L19.2273 17.4459L17.6126 18.2135L18.3802 16.5989L16.6957 15.9999L18.3802 15.4009L17.6126 13.7863L19.2273 14.5539L19.8262 12.8694Z" fill="#F0F0F0"/>
</g>
<defs>
<clipPath id="clip0_280_16649">
<rect width="32" height="32" fill="white"/>
</clipPath>
</defs>
</svg>
