<svg width="32" height="32" viewBox="0 0 32 32" fill="none" xmlns="http://www.w3.org/2000/svg">
<g clip-path="url(#clip0_280_16566)">
<path d="M0 16C0 7.1635 7.1635 0 16 0C24.8365 0 32 7.1635 32 16C31.3044 16 16 18.0869 16 18.0869L0 16Z" fill="#D80027"/>
<path d="M32 16C32 24.8365 24.8365 32 16 32C7.1635 32 0 24.8365 0 16" fill="#6DA544"/>
<path d="M16.0001 10.4348L17.2087 14.1547H21.1204L17.9559 16.4538L19.1645 20.1739L16.0001 17.8749L12.8357 20.1739L14.0445 16.4538L10.8799 14.1547H14.7914L16.0001 10.4348Z" fill="#FFDA44"/>
</g>
<defs>
<clipPath id="clip0_280_16566">
<rect width="32" height="32" fill="white"/>
</clipPath>
</defs>
</svg>
