<svg width="32" height="32" viewBox="0 0 32 32" fill="none" xmlns="http://www.w3.org/2000/svg">
<g clip-path="url(#clip0_280_16691)">
<path d="M16 32C24.8366 32 32 24.8366 32 16C32 7.16344 24.8366 0 16 0C7.16344 0 0 7.16344 0 16C0 24.8366 7.16344 32 16 32Z" fill="#F0F0F0"/>
<path d="M25.7422 3.30634C20.014 -1.10153 11.986 -1.10153 6.25772 3.30628L16 13.0485L25.7422 3.30634Z" fill="#D80027"/>
<path d="M15.9998 18.9515L6.25772 28.6936C11.986 33.1015 20.014 33.1015 25.7422 28.6936L16 18.9514L15.9998 18.9515Z" fill="#D80027"/>
<path d="M13.0486 15.9999L3.30636 6.25769C-1.10151 11.9859 -1.10151 20.0139 3.30636 25.7422L13.0486 15.9999Z" fill="#6DA544"/>
<path d="M18.9515 15.9999L28.6936 25.7422C33.1015 20.0139 33.1015 11.9859 28.6936 6.25769L18.9515 15.9999Z" fill="#6DA544"/>
<path d="M16 22.9565C19.8419 22.9565 22.9565 19.8419 22.9565 16C22.9565 12.158 19.8419 9.04346 16 9.04346C12.158 9.04346 9.04346 12.158 9.04346 16C9.04346 19.8419 12.158 22.9565 16 22.9565Z" fill="#F0F0F0"/>
<path d="M16 11.1304L16.6025 12.1739H17.8074L17.2049 13.2174L17.8074 14.2609H16.6025L16 15.3044L15.3976 14.2609H14.1927L14.7952 13.2174L14.1927 12.1739H15.3976L16 11.1304Z" fill="#D80027"/>
<path d="M12.9378 16L13.5403 17.0435H14.7451L14.1427 18.0869L14.7451 19.1304H13.5403L12.9378 20.1739L12.3353 19.1304H11.1305L11.7329 18.0869L11.1305 17.0435H12.3353L12.9378 16Z" fill="#D80027"/>
<path d="M19.0621 16L19.6645 17.0435H20.8694L20.267 18.0869L20.8694 19.1304H19.6645L19.0621 20.1739L18.4596 19.1304H17.2547L17.8572 18.0869L17.2547 17.0435H18.4596L19.0621 16Z" fill="#D80027"/>
</g>
<defs>
<clipPath id="clip0_280_16691">
<rect width="32" height="32" fill="white"/>
</clipPath>
</defs>
</svg>
