<svg width="32" height="32" viewBox="0 0 32 32" fill="none" xmlns="http://www.w3.org/2000/svg">
<g clip-path="url(#clip0_280_16507)">
<path d="M16 32C24.8366 32 32 24.8366 32 16C32 7.16344 24.8366 0 16 0C7.16344 0 0 7.16344 0 16C0 24.8366 7.16344 32 16 32Z" fill="#F0F0F0"/>
<path d="M28.5679 12.8695H23.3041C23.3041 11.909 22.5255 11.1304 21.565 11.1304L20.1737 13.913C20.1737 13.913 21.6578 18.0869 21.6114 18.0869H23.3505C24.311 18.0869 25.0896 17.3083 25.0896 16.3478C26.0501 16.3478 26.8287 15.5692 26.8287 14.6087H26.7708C27.7313 14.6086 28.5679 13.83 28.5679 12.8695Z" fill="#ACABB1"/>
<path d="M3.43176 12.8695H8.69552C8.69552 11.909 9.47416 11.1304 10.4346 11.1304L11.826 13.913C11.826 13.913 10.3419 18.0869 10.3883 18.0869H8.64917C7.68863 18.0869 6.91005 17.3083 6.91005 16.3478C5.94952 16.3478 5.17094 15.5692 5.17094 14.6087H5.22886C4.26832 14.6086 3.43176 13.83 3.43176 12.8695Z" fill="#ACABB1"/>
<path d="M21.5653 22.2609V22.9565H10.4348V22.2609H7.65225V25.0435H10.4348V25.7391H21.5653V25.0435H24.3479V22.2609H21.5653Z" fill="#FFDA44"/>
<path d="M10.4347 11.1303V18.0868C10.4347 22.3467 15.9999 23.652 15.9999 23.652C15.9999 23.652 21.5651 22.3467 21.5651 18.0868V11.1303L15.9999 10.4347L10.4347 11.1303Z" fill="#0052B4"/>
<path d="M21.5652 13.9133H10.4348V18.0873H21.5652V13.9133Z" fill="#D80027"/>
<path d="M18.7825 7.65219V8.69567L18.0868 9.04352L17.3912 8.34783V6.26086H14.6086V8.34783L13.913 9.04352L13.2173 8.69567V7.65219H10.4347V11.1304H21.5651V7.65219H18.7825Z" fill="#FFDA44"/>
</g>
<defs>
<clipPath id="clip0_280_16507">
<rect width="32" height="32" fill="white"/>
</clipPath>
</defs>
</svg>
