<svg width="32" height="32" viewBox="0 0 32 32" fill="none" xmlns="http://www.w3.org/2000/svg">
<g clip-path="url(#clip0_280_16701)">
<path d="M27.3135 27.3137C21.0652 33.5621 10.9345 33.5621 4.6861 27.3137C-1.56228 21.0654 -1.56228 10.9347 4.6861 4.68624C4.68835 4.68624 19.0647 0.438302 25.3132 6.68668C31.5616 12.9351 27.3179 27.3094 27.3135 27.3137Z" fill="#FFDA44"/>
<path d="M27.3136 27.3138C33.562 21.0654 33.562 10.9347 27.3136 4.6863C21.0653 -1.56213 10.9346 -1.56207 4.6862 4.6863L27.3136 27.3138Z" fill="#D80027"/>
<path d="M20.1821 20.1839C19.5249 20.442 18.7612 20.4146 18.0986 20.0428C16.928 19.3858 16.5101 17.8987 17.1673 16.7279L16.9678 16.616C18.9723 16.1327 20.4552 14.3133 20.4292 12.1663C20.4131 10.8315 19.8166 9.63732 18.8837 8.82019L17.4229 10.3168C17.9751 10.7569 18.3332 11.4321 18.3424 12.1916C18.3586 13.5341 17.2798 14.6396 15.9373 14.6558L15.9401 14.8843C14.5193 13.3902 12.2023 13.0156 10.356 14.1116C9.20815 14.7931 8.47227 15.9066 8.23096 17.1232L10.2575 17.6401C10.3625 16.9417 10.7681 16.2941 11.4213 15.9063C12.5757 15.2209 14.0725 15.6027 14.7578 16.7571L14.9545 16.6404C14.3709 18.6178 15.205 20.8117 17.0774 21.8627C18.2415 22.5161 19.5738 22.5966 20.748 22.1973L20.1821 20.1839ZM15.9541 16.0468L15.954 16.0468L15.9541 16.0468Z" fill="#FF9811"/>
<path d="M21.924 10.8363L20.7931 14.872L17.4 14.2454L15.2159 9.74323L9.31544 11.837L8.85013 10.5258L7.30638 10.3356L8.46957 13.6137L12.5301 12.5752L13.6841 15.827L10.8771 19.9695L15.6406 24.0324L14.7377 25.091L15.3449 26.5232L17.6023 23.8767L14.6726 20.8793L16.9118 18.2542L21.9029 18.6138L23.0398 12.4569L24.4079 12.7096L25.3448 11.4677L21.924 10.8363ZM15.9987 16.1088V16.109V16.1088Z" fill="#FFEACF"/>
</g>
<defs>
<clipPath id="clip0_280_16701">
<rect width="32" height="32" fill="white"/>
</clipPath>
</defs>
</svg>
