<svg width="32" height="32" viewBox="0 0 32 32" fill="none" xmlns="http://www.w3.org/2000/svg">
<g clip-path="url(#clip0_280_16666)">
<path d="M16 32C24.8366 32 32 24.8366 32 16C32 7.16344 24.8366 0 16 0C7.16344 0 0 7.16344 0 16C0 24.8366 7.16344 32 16 32Z" fill="#F0F0F0"/>
<path d="M32 16C32 24.8365 24.8365 32 16 32C7.1635 32 0 24.8365 0 16C0 7.16353 16 16 16 16C16 16 28.1101 16 32 16Z" fill="#D80027"/>
<path d="M0 16C0 7.1635 7.1635 0 16 0C16 6.08469 16 16 16 16C16 16 5.56519 16 0 16Z" fill="#0052B4"/>
<path d="M9.5244 5.56512L10.5605 8.75375H13.9131L11.2008 10.7244L12.2368 13.913L9.5244 11.9423L6.81202 13.913L7.84802 10.7244L5.13565 8.75375H8.48833L9.5244 5.56512Z" fill="#F0F0F0"/>
</g>
<defs>
<clipPath id="clip0_280_16666">
<rect width="32" height="32" fill="white"/>
</clipPath>
</defs>
</svg>
