<svg width="32" height="32" viewBox="0 0 32 32" fill="none" xmlns="http://www.w3.org/2000/svg">
<g clip-path="url(#clip0_280_16684)">
<path d="M16 32C24.8366 32 32 24.8366 32 16C32 7.16344 24.8366 0 16 0C7.16344 0 0 7.16344 0 16C0 24.8366 7.16344 32 16 32Z" fill="#F0F0F0"/>
<path d="M31.0048 10.4348H0.995188C0.352063 12.1681 0 14.0429 0 16C0 17.9571 0.352063 19.8319 0.995188 21.5652H31.0049C31.648 19.8319 32 17.9571 32 16C32 14.0429 31.648 12.1681 31.0048 10.4348Z" fill="#D80027"/>
<path d="M16 0C11.1505 0 6.80534 2.15775 3.87115 5.56519H28.1287C25.1946 2.15775 20.8494 0 16 0Z" fill="#0052B4"/>
<path d="M28.1288 26.4348H3.87115C6.80534 29.8422 11.1505 32 16 32C20.8494 32 25.1946 29.8422 28.1288 26.4348Z" fill="#0052B4"/>
</g>
<defs>
<clipPath id="clip0_280_16684">
<rect width="32" height="32" fill="white"/>
</clipPath>
</defs>
</svg>
