<svg width="32" height="32" viewBox="0 0 32 32" fill="none" xmlns="http://www.w3.org/2000/svg">
<g clip-path="url(#clip0_280_16635)">
<path d="M16 32C24.8366 32 32 24.8366 32 16C32 7.16344 24.8366 0 16 0C7.16344 0 0 7.16344 0 16C0 24.8366 7.16344 32 16 32Z" fill="#FFDA44"/>
<path d="M16 32C21.25 32 25.9093 29.4714 28.8268 25.5657H3.17316C6.09066 29.4714 10.75 32 16 32Z" fill="#0052B4"/>
<path d="M32 16C32 7.1635 24.8365 0 16 0C7.1635 0 0 7.1635 0 16C0 17.8921 0.329313 19.707 0.93225 21.3918H31.0677C31.6707 19.707 32 17.8921 32 16Z" fill="#0052B4"/>
<path d="M10.9517 10.2614L11.815 12.9184H14.609L12.3487 14.5608L13.212 17.2179L10.9517 15.5757L8.69134 17.2179L9.55478 14.5608L7.29446 12.9184H10.0883L10.9517 10.2614Z" fill="#F0F0F0"/>
<path d="M6.15351 7.47876L6.67151 9.07301H8.34795L6.99176 10.0584L7.50976 11.6527L6.15351 10.6673L4.79732 11.6527L5.31538 10.0584L3.95926 9.07301H5.63563L6.15351 7.47876Z" fill="#F0F0F0"/>
</g>
<defs>
<clipPath id="clip0_280_16635">
<rect width="32" height="32" fill="white"/>
</clipPath>
</defs>
</svg>
