<svg width="32" height="32" viewBox="0 0 32 32" fill="none" xmlns="http://www.w3.org/2000/svg">
<g clip-path="url(#clip0_280_16745)">
<path d="M0.995153 21.5652C3.25584 27.658 9.12053 32 16 32C22.8794 32 28.7441 27.658 31.0048 21.5652L16 20.174L0.995153 21.5652Z" fill="#FFDA44"/>
<path d="M16 0C9.12053 0 3.25584 4.342 0.995153 10.4348L16 11.8261L31.0048 10.4348C28.7441 4.342 22.8794 0 16 0Z" fill="black"/>
<path d="M0.995188 10.4349C0.352063 12.1682 0 14.0429 0 16.0001C0 17.9572 0.352063 19.8319 0.995188 21.5653H31.0049C31.648 19.8319 32 17.9572 32 16.0001C32 14.0429 31.648 12.1682 31.0048 10.4349H0.995188Z" fill="#D80027"/>
</g>
<defs>
<clipPath id="clip0_280_16745">
<rect width="32" height="32" fill="white"/>
</clipPath>
</defs>
</svg>
