<svg width="32" height="32" viewBox="0 0 32 32" fill="none" xmlns="http://www.w3.org/2000/svg">
<g clip-path="url(#clip0_280_16697)">
<path d="M16 32C24.8366 32 32 24.8366 32 16C32 7.16344 24.8366 0 16 0C7.16344 0 0 7.16344 0 16C0 24.8366 7.16344 32 16 32Z" fill="#F0F0F0"/>
<path d="M12.5218 13.9131H31.8646C30.8419 6.06262 24.1292 0 16 0C14.8053 0 13.6418 0.132062 12.5218 0.380312V13.9131H12.5218Z" fill="#D80027"/>
<path d="M8.34718 13.913V1.94543C3.95387 4.34256 0.808749 8.7395 0.134811 13.9131H8.34718V13.913Z" fill="#D80027"/>
<path d="M8.34712 18.087H0.134811C0.808749 23.2605 3.95387 27.6575 8.34718 30.0545L8.34712 18.087Z" fill="#D80027"/>
<path d="M12.5218 18.087V31.6197C13.6418 31.868 14.8053 32 16 32C24.1292 32 30.8419 25.9374 31.8646 18.087H12.5218V18.087Z" fill="#D80027"/>
</g>
<defs>
<clipPath id="clip0_280_16697">
<rect width="32" height="32" fill="white"/>
</clipPath>
</defs>
</svg>
