<svg width="32" height="32" viewBox="0 0 32 32" fill="none" xmlns="http://www.w3.org/2000/svg">
<g clip-path="url(#clip0_280_16485)">
<path d="M1.58763 9.04341C0.5705 11.1469 0 13.5067 0 15.9999C0 18.4931 0.5705 20.8529 1.58763 22.9564L16 24.3477L30.4124 22.9564C31.4295 20.8529 32 18.4931 32 15.9999C32 13.5067 31.4295 11.1469 30.4124 9.04341L16 7.6521L1.58763 9.04341Z" fill="#F0F0F0"/>
<path d="M1.58823 22.9564C4.1761 28.3084 9.65673 31.9999 16 31.9999C22.3434 31.9999 27.824 28.3084 30.4119 22.9564H1.58823Z" fill="#496E2D"/>
<path d="M1.58823 9.0435H30.4119C27.824 3.69156 22.3434 0 16 0C9.65666 0 4.1761 3.69156 1.58823 9.0435Z" fill="black"/>
<path d="M4.6861 4.6864C-1.56228 10.9348 -1.56228 21.0655 4.6861 27.3139C7.26816 24.7318 9.75147 22.2485 15.9998 16.0002L4.6861 4.6864Z" fill="#D80027"/>
<path d="M20.1739 16.0001C20.1739 13.6689 21.8122 11.7215 23.9999 11.2437C23.6637 11.1703 23.3148 11.1305 22.9564 11.1305C20.267 11.1305 18.0869 13.3106 18.0869 16.0001C18.0869 18.6895 20.267 20.8696 22.9564 20.8696C23.3147 20.8696 23.6636 20.8298 23.9999 20.7564C21.8122 20.2786 20.1739 18.3312 20.1739 16.0001Z" fill="#D80027"/>
<path d="M24.2046 12.8698L24.8954 14.9956H27.1305L25.3222 16.3093L26.013 18.435L24.2046 17.1213L22.3964 18.435L23.0872 16.3093L21.2788 14.9956H23.5139L24.2046 12.8698Z" fill="#D80027"/>
</g>
<defs>
<clipPath id="clip0_280_16485">
<rect width="32" height="32" fill="white"/>
</clipPath>
</defs>
</svg>
