<svg width="32" height="32" viewBox="0 0 32 32" fill="none" xmlns="http://www.w3.org/2000/svg">
<g clip-path="url(#clip0_280_16722)">
<path d="M0 16C0 17.9573 0.352062 19.832 0.99525 21.5654L16 22.9565L31.0047 21.5653C31.648 19.832 32 17.9572 32 16C32 14.0697 31.6581 12.2193 31.0316 10.506L16 9.04352L0.968375 10.506C0.341938 12.2193 0 14.0697 0 16Z" fill="#FFDA44"/>
<path d="M16 32.0001C22.8795 32.0001 28.7441 27.6581 31.0048 21.5652H0.995209C3.2559 27.6581 9.12058 32.0001 16 32.0001Z" fill="#D80027"/>
<path d="M16 0C9.12058 0 3.2559 4.342 0.995209 10.4348H31.0049C28.7441 4.342 22.8795 0 16 0Z" fill="#6DA544"/>
<path d="M16.0001 23.6522C20.2263 23.6522 23.6523 20.2262 23.6523 16C23.6523 11.7738 20.2263 8.34778 16.0001 8.34778C11.774 8.34778 8.34796 11.7738 8.34796 16C8.34796 20.2262 11.774 23.6522 16.0001 23.6522Z" fill="#0052B4"/>
<path d="M15.9985 10.0745L17.3799 14.3258H21.8572L18.2336 16.9534L19.6258 21.2174L15.9985 18.5773L12.3768 21.2125L13.7634 16.9534L10.1431 14.3258H14.6172L15.9985 10.0745Z" fill="#FFDA44"/>
<path d="M21.5079 17.0581L17.1257 15.6341L19.834 11.9066L18.7085 11.0887L16 14.8165L13.2918 11.0888L12.1662 11.9066L14.8745 15.6344L10.4924 17.0581L10.9223 18.3814L15.3045 16.9576V21.5652H16.6958V16.9575L21.0778 18.3814L21.5079 17.0581Z" fill="#FFDA44"/>
</g>
<defs>
<clipPath id="clip0_280_16722">
<rect width="32" height="32" fill="white"/>
</clipPath>
</defs>
</svg>
