<svg width="32" height="32" viewBox="0 0 32 32" fill="none" xmlns="http://www.w3.org/2000/svg">
<g clip-path="url(#clip0_280_16694)">
<path d="M16 32C24.8366 32 32 24.8366 32 16C32 7.16344 24.8366 0 16 0C7.16344 0 0 7.16344 0 16C0 24.8366 7.16344 32 16 32Z" fill="#FFDA44"/>
<path d="M6.98206 2.78262C9.54987 1.02725 12.6547 0 16 0C19.3452 0 22.4501 1.02725 25.0179 2.78262L16 3.47825L6.98206 2.78262Z" fill="#A2001D"/>
<path d="M15.9999 16L14.9787 14.9789L14.7076 15.4646L15.9999 16Z" fill="#0052B4"/>
<path d="M4.68618 4.68628C-1.5622 10.9347 -1.5622 21.0653 4.68618 27.3138C7.26824 24.7317 9.75155 22.2484 15.9999 16L4.68618 4.68628Z" fill="#496E2D"/>
<path d="M27.3138 4.68628C33.5621 10.9347 33.5621 21.0653 27.3138 27.3138C24.7317 24.7317 22.2484 22.2484 16 16L27.3138 4.68628Z" fill="#496E2D"/>
<path d="M15.9999 21.5652C19.0734 21.5652 21.5651 19.0736 21.5651 16C21.5651 12.9264 19.0734 10.4348 15.9999 10.4348C12.9263 10.4348 10.4347 12.9264 10.4347 16C10.4347 19.0736 12.9263 21.5652 15.9999 21.5652Z" fill="#A2001D"/>
<path d="M16 10.4348L17.2474 14.2741H21.2848L18.0187 16.6474L19.2661 20.4869L16 18.1141L12.7337 20.4869L13.9814 16.6474L10.7153 14.2741H14.7524L16 10.4348Z" fill="#FFDA44"/>
<path d="M15.9998 0C15.998 0 15.9964 0.000117288 15.9947 0.000117288H16.0048C16.0032 0.000117288 16.0015 0 15.9998 0Z" fill="#FFDA44"/>
<path d="M16.0053 0H15.9946C11.5788 0.0014375 7.5812 1.79163 4.68701 4.6855H27.3128C24.4186 1.79163 20.421 0.0014375 16.0053 0Z" fill="#A2001D"/>
<path d="M4.68713 27.3146C7.58251 30.2095 11.5821 32 15.9999 32C20.4178 32 24.4174 30.2095 27.3128 27.3146H4.68713Z" fill="#A2001D"/>
<path d="M16.0001 1.73914L16.2592 2.53626H17.0973L16.4192 3.02895L16.6783 3.82607L16.0001 3.33345L15.322 3.82607L15.5811 3.02895L14.9029 2.53626H15.741L16.0001 1.73914Z" fill="#FFDA44"/>
<path d="M12.1202 1.73914L12.3792 2.53626H13.2173L12.5393 3.02895L12.7983 3.82607L12.1202 3.33345L11.4422 3.82607L11.7012 3.02895L11.023 2.53626H11.8611L12.1202 1.73914Z" fill="#FFDA44"/>
<path d="M19.8796 1.73914L20.1387 2.53626H20.9768L20.2987 3.02895L20.5578 3.82607L19.8796 3.33345L19.2015 3.82607L19.4606 3.02895L18.7824 2.53626H19.6205L19.8796 1.73914Z" fill="#FFDA44"/>
<path d="M16.0001 28.174L16.2592 28.9711H17.0973L16.4192 29.4638L16.6783 30.2609L16.0001 29.7682L15.322 30.2609L15.5811 29.4638L14.9029 28.9711H15.741L16.0001 28.174Z" fill="#FFDA44"/>
<path d="M12.1202 28.174L12.3792 28.9711H13.2173L12.5393 29.4638L12.7983 30.2609L12.1202 29.7682L11.4422 30.2609L11.7012 29.4638L11.023 28.9711H11.8611L12.1202 28.174Z" fill="#FFDA44"/>
<path d="M19.8796 28.174L20.1387 28.9711H20.9768L20.2987 29.4638L20.5578 30.2609L19.8796 29.7682L19.2015 30.2609L19.4606 29.4638L18.7824 28.9711H19.6205L19.8796 28.174Z" fill="#FFDA44"/>
<path d="M4.87514 15.7357C5.28608 16.385 5.09296 17.2445 4.44364 17.6555C3.79439 18.0665 2.93489 17.8733 2.52389 17.224C1.77983 16.0485 2.21127 14.1287 2.21127 14.1287C2.21127 14.1287 4.13102 14.5602 4.87514 15.7357Z" fill="#FFDA44"/>
<path d="M4.07157 17.7634C4.45575 17.7634 4.7672 17.4519 4.7672 17.0678C4.7672 16.6836 4.45575 16.3721 4.07157 16.3721C3.68739 16.3721 3.37595 16.6836 3.37595 17.0678C3.37595 17.4519 3.68739 17.7634 4.07157 17.7634Z" fill="#A2001D"/>
</g>
<defs>
<clipPath id="clip0_280_16694">
<rect width="32" height="32" fill="white"/>
</clipPath>
</defs>
</svg>
