<svg width="32" height="32" viewBox="0 0 32 32" fill="none" xmlns="http://www.w3.org/2000/svg">
<g clip-path="url(#clip0_280_16612)">
<path d="M16 32C24.8366 32 32 24.8366 32 16C32 7.16344 24.8366 0 16 0C7.16344 0 0 7.16344 0 16C0 24.8366 7.16344 32 16 32Z" fill="#F0F0F0"/>
<path d="M16 11.826H31.4488C31.0476 10.3377 30.4379 8.9351 29.6516 7.6521H16V11.826Z" fill="#338AF3"/>
<path d="M6.04006 28.5218H25.9596C27.4198 27.3588 28.6721 25.9461 29.6514 24.3478H2.34825C3.32769 25.9461 4.57994 27.3588 6.04006 28.5218Z" fill="#338AF3"/>
<path d="M5.56506 3.87122C4.30719 4.9544 3.21975 6.22997 2.34825 7.65222H5.56506V3.87122Z" fill="#338AF3"/>
<path d="M16 16C16 14.3702 16 13.0063 16 11.826H9.73913V16H5.56519V11.826H0.551188C0.1925 13.1569 0 14.5558 0 16C0 17.4442 0.1925 18.843 0.551188 20.1739H31.4489C31.8075 18.843 32 17.4442 32 16H16Z" fill="#338AF3"/>
<path d="M16.0002 0C13.7784 0 11.6625 0.453312 9.73933 1.27175V7.65219H16.0002C16.0002 6.19519 16.0002 4.956 16.0002 3.47825H25.96C23.2268 1.3015 19.7658 0 16.0002 0Z" fill="#338AF3"/>
</g>
<defs>
<clipPath id="clip0_280_16612">
<rect width="32" height="32" fill="white"/>
</clipPath>
</defs>
</svg>
