<svg width="32" height="32" viewBox="0 0 32 32" fill="none" xmlns="http://www.w3.org/2000/svg">
<g clip-path="url(#clip0_280_16608)">
<path d="M16 32C24.8366 32 32 24.8366 32 16C32 7.16344 24.8366 0 16 0C7.16344 0 0 7.16344 0 16C0 24.8366 7.16344 32 16 32Z" fill="#F0F0F0"/>
<path d="M31.9999 16C31.9999 9.65658 28.3084 4.17559 22.9565 1.58759V30.4123C28.3084 27.8243 31.9999 22.3433 31.9999 16Z" fill="#338AF3"/>
<path d="M0 16C0 22.3433 3.69156 27.8243 9.0435 30.4123V1.58759C3.69156 4.17559 0 9.65658 0 16Z" fill="#338AF3"/>
<path d="M20.1811 18.7055L17.4758 16.0001L20.0509 13.4248L19.9343 12.0647L19.197 11.3273L16 14.5243L12.803 11.3273L12.0658 12.0647L11.9491 13.4248L14.5243 16.0001L11.8188 18.7055L13.2946 20.1811L16 17.4758L18.7054 20.1811L20.1811 18.7055Z" fill="#ACABB1"/>
<path d="M19.9351 12.0648L18.4594 13.5404C19.0889 14.1699 19.4783 15.0394 19.4783 15.9999C19.4783 17.9209 17.9209 19.4782 16 19.4782C14.0791 19.4782 12.5217 17.9209 12.5217 15.9999C12.5217 15.0394 12.9111 14.1699 13.5405 13.5404L12.0648 12.0648C11.0576 13.0718 10.4348 14.4631 10.4348 15.9999C10.4348 19.0736 12.9264 21.5651 15.9999 21.5651C19.0735 21.5651 21.5651 19.0735 21.5651 15.9999C21.5651 14.4631 20.9423 13.0718 19.9351 12.0648Z" fill="#6DA544"/>
</g>
<defs>
<clipPath id="clip0_280_16608">
<rect width="32" height="32" fill="white"/>
</clipPath>
</defs>
</svg>
