<svg width="32" height="32" viewBox="0 0 32 32" fill="none" xmlns="http://www.w3.org/2000/svg">
<g clip-path="url(#clip0_280_16610)">
<path d="M6.98215 29.2174C9.5499 30.9727 12.6549 32 16.0001 32C19.3453 32 22.4502 30.9727 25.018 29.2174L16.0001 27.826L6.98215 29.2174Z" fill="#D80027"/>
<path d="M25.018 2.78262C22.4502 1.02731 19.3453 0 16.0001 0C12.6549 0 9.5499 1.02731 6.98215 2.78262L16.0001 4.17394L25.018 2.78262Z" fill="#D80027"/>
<path d="M32 16C32 10.7057 28.8302 5.38878 25.0179 2.78265H6.98206C2.76687 5.66415 0 10.5088 0 16C0 21.4915 2.76687 26.3359 6.98206 29.2174H25.0179C29.2332 26.3359 32 21.4915 32 16Z" fill="#0052B4"/>
<path d="M15.0946 26.0998C14.876 25.9123 9.7392 21.4468 9.7392 16C9.7392 10.5532 14.8759 6.08765 15.0946 5.90021L16.0001 5.12408L16.9055 5.90015C17.1241 6.08765 22.2609 10.5531 22.2609 16C22.2609 21.4469 17.1242 25.9125 16.9055 26.0998L16.0001 26.876L15.0946 26.0998Z" fill="#D80027"/>
<path d="M20.8695 16C20.8695 11.1305 15.9999 6.95654 15.9999 6.95654C15.9999 6.95654 11.1304 11.1306 11.1304 16C11.1304 17.4897 11.5864 18.914 12.2191 20.174H19.7808C20.4134 18.914 20.8695 17.4897 20.8695 16Z" fill="#338AF3"/>
<path d="M20.8695 16C20.8695 17.4897 20.4134 18.914 19.7808 20.1739L15.9999 20.8696L12.2191 20.1739C11.5864 18.9141 11.1304 17.4897 11.1304 16H20.8695Z" fill="#0052B4"/>
<path d="M16.0001 25.0435C16.0001 25.0435 18.3456 23.0325 19.781 20.174H12.2192C13.6546 23.0325 16.0001 25.0435 16.0001 25.0435Z" fill="#FFDA44"/>
<path d="M12.8696 13.2173H19.1305L16.0001 16.3478L12.8696 13.2173Z" fill="#6DA544"/>
<path d="M17.0434 15.3044H14.9565V21.5653H17.0434V15.3044Z" fill="#A2001D"/>
</g>
<defs>
<clipPath id="clip0_280_16610">
<rect width="32" height="32" fill="white"/>
</clipPath>
</defs>
</svg>
