<svg width="32" height="32" viewBox="0 0 32 32" fill="none" xmlns="http://www.w3.org/2000/svg">
<g clip-path="url(#clip0_280_16682)">
<path d="M16 32C24.8366 32 32 24.8366 32 16C32 7.16344 24.8366 0 16 0C7.16344 0 0 7.16344 0 16C0 24.8366 7.16344 32 16 32Z" fill="#F0F0F0"/>
<path d="M16.0001 0C13.1713 0 10.5145 0.735125 8.20877 2.02325V29.9767C10.5146 31.2649 13.1713 32 16.0001 32C24.8366 32 32.0001 24.8365 32.0001 16C32.0001 7.1635 24.8366 0 16.0001 0Z" fill="#6DA544"/>
<path d="M8.25578 1.99689C7.24922 2.5547 6.30934 3.2177 5.45065 3.97145C5.53747 3.89532 5.62515 3.82007 5.71353 3.74582L17.9676 15.9999L5.71347 28.2541C5.62503 28.1798 5.5374 28.1046 5.45059 28.0284C6.30928 28.7822 7.24922 29.4451 8.25572 30.003L32 15.9999L8.25578 1.99689Z" fill="#F0F0F0"/>
<path d="M6.90432 2.83643C6.41638 3.1743 5.94775 3.53786 5.50119 3.92643L15.9999 16L5.50113 28.0737C5.94769 28.4622 6.41632 28.8259 6.90425 29.1637L29.2611 16L6.90432 2.83643Z" fill="#FFDA44"/>
<path d="M5.71344 3.74591C5.35775 4.04479 5.0145 4.3581 4.68625 4.68629L14.6087 16L4.68625 27.3138C5.0145 27.642 5.35769 27.9554 5.71344 28.2542L17.9676 16L5.71344 3.74591Z" fill="black"/>
<path d="M4.68616 4.68622C-1.56222 10.9346 -1.56222 21.0653 4.68616 27.3137C7.26822 24.7317 9.75154 22.2483 15.9999 16L4.68616 4.68622Z" fill="#D80027"/>
</g>
<defs>
<clipPath id="clip0_280_16682">
<rect width="32" height="32" fill="white"/>
</clipPath>
</defs>
</svg>
