<svg width="32" height="32" viewBox="0 0 32 32" fill="none" xmlns="http://www.w3.org/2000/svg">
<g clip-path="url(#clip0_280_16543)">
<path d="M16 32C24.8366 32 32 24.8366 32 16C32 7.16344 24.8366 0 16 0C7.16344 0 0 7.16344 0 16C0 24.8366 7.16344 32 16 32Z" fill="#D80027"/>
<path d="M17.6518 12.1043C17.2882 13.6167 16.6421 13.3283 16.325 14.6473C14.4574 14.1982 13.3071 12.3201 13.7562 10.4523C14.205 8.5846 16.0834 7.43435 17.9511 7.88342C17.3169 10.5214 17.9771 10.7516 17.6518 12.1043Z" fill="#F0F0F0"/>
<path d="M12.8054 13.225C14.1315 14.0381 13.6575 14.5635 14.8138 15.2727C13.8096 16.9103 11.668 17.4237 10.0304 16.4195C8.39284 15.4154 7.87927 13.2737 8.88352 11.6361C11.1964 13.0544 11.6192 12.4977 12.8054 13.225Z" fill="#F0F0F0"/>
<path d="M12.3736 18.1808C13.5568 17.1709 13.9099 17.784 14.9417 16.9034C16.1889 18.3644 16.0154 20.5599 14.5544 21.8071C13.0932 23.0543 10.8977 22.8806 9.65074 21.4197C11.7141 19.6583 11.3153 19.0839 12.3736 18.1808Z" fill="#F0F0F0"/>
<path d="M16.9534 20.1228C16.3584 18.6855 17.0506 18.539 16.5319 17.2857C18.3069 16.5511 20.3414 17.3945 21.076 19.1695C21.8105 20.9444 20.967 22.9788 19.1921 23.7135C18.1548 21.2066 17.4855 21.4085 16.9534 20.1228Z" fill="#F0F0F0"/>
<path d="M20.2155 16.3673C18.6647 16.489 18.7392 15.7853 17.387 15.8914C17.2368 13.9765 18.6677 12.302 20.5827 12.1517C22.4977 12.0018 24.1721 13.4325 24.3222 15.3477C21.6174 15.5597 21.6025 16.2587 20.2155 16.3673Z" fill="#F0F0F0"/>
</g>
<defs>
<clipPath id="clip0_280_16543">
<rect width="32" height="32" fill="white"/>
</clipPath>
</defs>
</svg>
