<svg width="32" height="32" viewBox="0 0 32 32" fill="none" xmlns="http://www.w3.org/2000/svg">
<g clip-path="url(#clip0_280_16659)">
<path d="M32 16C32 24.8365 24.8365 32 16 32C7.1635 32 0 24.8365 0 16C0 7.1635 16 0 16 0C16 0 32 7.1635 32 16Z" fill="#A2001D"/>
<path d="M0 16C0 7.1635 7.1635 0 16 0C24.8365 0 32 7.1635 32 16" fill="#0052B4"/>
<path d="M21.5651 20.1739L15.9999 19.4782L10.4348 20.1739V11.826H21.5651V20.1739Z" fill="#F0F0F0"/>
<path d="M16 19.4783C17.5368 19.4783 18.7826 18.2325 18.7826 16.6956C18.7826 15.1588 17.5368 13.913 16 13.913C14.4632 13.913 13.2173 15.1588 13.2173 16.6956C13.2173 18.2325 14.4632 19.4783 16 19.4783Z" fill="#0052B4"/>
<path d="M16.0001 18.087C16.7685 18.087 17.3914 17.4641 17.3914 16.6957C17.3914 15.9273 16.7685 15.3044 16.0001 15.3044C15.2317 15.3044 14.6088 15.9273 14.6088 16.6957C14.6088 17.4641 15.2317 18.087 16.0001 18.087Z" fill="#A2001D"/>
<path d="M13.9131 13.2173H18.087L16.0001 15.3043L13.9131 13.2173Z" fill="#6DA544"/>
<path d="M16.6956 14.6087H15.3043V18.7826H16.6956V14.6087Z" fill="#FFDA44"/>
<path d="M18.226 18.3652H13.7738L10.4348 20.174H21.5651L18.226 18.3652Z" fill="#6DA544"/>
</g>
<defs>
<clipPath id="clip0_280_16659">
<rect width="32" height="32" fill="white"/>
</clipPath>
</defs>
</svg>
