<svg width="32" height="32" viewBox="0 0 32 32" fill="none" xmlns="http://www.w3.org/2000/svg">
<g clip-path="url(#clip0_280_16598)">
<path d="M16 32C24.8366 32 32 24.8366 32 16C32 7.16344 24.8366 0 16 0C7.16344 0 0 7.16344 0 16C0 24.8366 7.16344 32 16 32Z" fill="#D80027"/>
<path d="M21.9243 10.7257L20.7935 14.7614L17.4003 14.1348L15.2162 9.63263L9.31576 11.7264L8.85045 10.4152L7.3067 10.225L8.46989 13.5031L12.5305 12.4646L13.6844 15.7164L10.8774 19.8591L15.641 23.9219L14.7381 24.9805L15.3452 26.4126L17.6026 23.7661L14.673 20.7688L16.9121 18.1436L21.9033 18.5033L23.0401 12.3464L24.4083 12.5991L25.3451 11.3572L21.9243 10.7257Z" fill="#F0F0F0"/>
</g>
<defs>
<clipPath id="clip0_280_16598">
<rect width="32" height="32" fill="white"/>
</clipPath>
</defs>
</svg>
