<svg width="32" height="32" viewBox="0 0 32 32" fill="none" xmlns="http://www.w3.org/2000/svg">
<g clip-path="url(#clip0_280_16746)">
<path d="M16 32C24.8366 32 32 24.8366 32 16C32 7.16344 24.8366 0 16 0C7.16344 0 0 7.16344 0 16C0 24.8366 7.16344 32 16 32Z" fill="#F0F0F0"/>
<path d="M21.1968 11.8261H19.1034C19.1207 12.0562 19.1305 12.2883 19.1305 12.5217C19.1305 14.0695 18.7436 15.5697 18.0692 16.6376C17.8611 16.9669 17.5115 17.4321 17.0435 17.7458V11.826H14.9566V17.7458C14.4886 17.4321 14.1389 16.967 13.9309 16.6376C13.2564 15.5697 12.8696 14.0695 12.8696 12.5217C12.8696 12.2883 12.8794 12.0561 12.8967 11.8261H10.8033C10.7899 12.055 10.7826 12.2869 10.7826 12.5217C10.7826 16.8127 13.0743 20.1739 15.9999 20.1739C18.9256 20.1739 21.2173 16.8127 21.2173 12.5217C21.2174 12.2869 21.2101 12.055 21.1968 11.8261Z" fill="#D80027"/>
<path d="M6.60873 7.65219H8.69567V9.0435H10.7826V7.65219H12.8695V9.0435H14.9565V7.65219H17.0434V9.0435H19.1304V7.65219H21.2173V9.0435H23.3042V7.65219H25.3912V9.0435H30.4122C27.8244 3.69156 22.3434 0 16 0C9.65673 0 4.17567 3.69156 1.58767 9.0435H6.60873V7.65219Z" fill="#6DA544"/>
<path d="M25.3914 22.9565V24.3478H23.3044V22.9565H21.2175V24.3478H19.1305V22.9565H17.0436V24.3478H14.9567V22.9565H12.8697V24.3478H10.7828V22.9565H8.69567V24.3478H6.60873V22.9565H1.58767C4.17567 28.3084 9.65667 32 16 32C22.3434 32 27.8244 28.3084 30.4124 22.9565H25.3914Z" fill="#D80027"/>
</g>
<defs>
<clipPath id="clip0_280_16746">
<rect width="32" height="32" fill="white"/>
</clipPath>
</defs>
</svg>
