<svg width="32" height="32" viewBox="0 0 32 32" fill="none" xmlns="http://www.w3.org/2000/svg">
<g clip-path="url(#clip0_280_16587)">
<path d="M16 32C24.8366 32 32 24.8366 32 16C32 7.16344 24.8366 0 16 0C7.16344 0 0 7.16344 0 16C0 24.8366 7.16344 32 16 32Z" fill="#D80027"/>
<path d="M23.8249 16L20.6277 17.5038L22.3303 20.6005L18.8582 19.9362L18.4185 23.4435L16 20.8641L13.5818 23.4435L13.1418 19.9362L9.67009 20.6004L11.3726 17.5037L8.17528 16L11.3726 14.4961L9.67009 11.3994L13.1417 12.0638L13.5819 8.55646L16 11.1359L18.4186 8.55646L18.8582 12.0638L22.3304 11.3994L20.6278 14.4963L23.8249 16Z" fill="#FFDA44"/>
<path d="M15.9999 20.8696C18.6893 20.8696 20.8695 18.6894 20.8695 16C20.8695 13.3106 18.6893 11.1304 15.9999 11.1304C13.3105 11.1304 11.1304 13.3106 11.1304 16C11.1304 18.6894 13.3105 20.8696 15.9999 20.8696Z" fill="#D80027"/>
<path d="M13.5653 16C13.448 16 13.3322 16.006 13.2179 16.0174C13.2221 16.6918 13.4661 17.3091 13.8691 17.7887C14.0841 17.2101 14.4051 16.6826 14.8099 16.2311C14.4232 16.0824 14.0038 16 13.5653 16Z" fill="#FFDA44"/>
<path d="M15.0641 18.6208C15.3566 18.7253 15.6716 18.7826 16.0001 18.7826C16.3286 18.7826 16.6435 18.7253 16.936 18.6208C16.7766 17.9951 16.4474 17.4364 16.0001 16.9974C15.5528 17.4364 15.2236 17.9951 15.0641 18.6208Z" fill="#FFDA44"/>
<path d="M18.4099 14.6092C17.9288 13.7775 17.0302 13.2174 16.0002 13.2174C14.9702 13.2174 14.0717 13.7775 13.5906 14.6092C14.4677 14.6136 15.2902 14.8521 16.0002 15.2639C16.7103 14.8521 17.5327 14.6136 18.4099 14.6092Z" fill="#FFDA44"/>
<path d="M17.1901 16.2312C17.5949 16.6826 17.9159 17.2102 18.1309 17.7888C18.5339 17.3092 18.7779 16.6919 18.7821 16.0175C18.6677 16.0061 18.5519 16.0001 18.4347 16.0001C17.9963 16.0001 17.5768 16.0824 17.1901 16.2312Z" fill="#FFDA44"/>
</g>
<defs>
<clipPath id="clip0_280_16587">
<rect width="32" height="32" fill="white"/>
</clipPath>
</defs>
</svg>
