<svg width="32" height="32" viewBox="0 0 32 32" fill="none" xmlns="http://www.w3.org/2000/svg">
<g clip-path="url(#clip0_280_16568)">
<path d="M0 16C0 18.7719 0.705188 21.379 1.94544 23.6522L16 25.0435L30.0546 23.6522C31.2948 21.379 32 18.7719 32 16C32 13.2282 31.2948 10.621 30.0546 8.34786L16 6.95654L1.94544 8.34786C0.705188 10.621 0 13.2282 0 16Z" fill="#D80027"/>
<path d="M1.94553 8.34781H30.0546C27.341 3.37431 22.0648 0 16.0001 0C9.9354 0 4.65921 3.37431 1.94553 8.34781Z" fill="#0052B4"/>
<path d="M16.0001 32C22.0648 32 27.341 28.6257 30.0546 23.6522H1.94553C4.65921 28.6257 9.9354 32 16.0001 32Z" fill="#0052B4"/>
<path d="M21.5651 19.1304V17.0435H20.1739V14.2609L18.7826 12.8695L17.3912 14.2609V11.4782L15.9999 10.0869L14.6086 11.4782V14.2609L13.2173 12.8695L11.826 14.2609V17.0435H10.4347V19.1304H9.04343V21.2174H22.9564V19.1304H21.5651Z" fill="#F0F0F0"/>
</g>
<defs>
<clipPath id="clip0_280_16568">
<rect width="32" height="32" fill="white"/>
</clipPath>
</defs>
</svg>
