<svg width="32" height="32" viewBox="0 0 32 32" fill="none" xmlns="http://www.w3.org/2000/svg">
<g clip-path="url(#clip0_280_16738)">
<path d="M16 32C24.8366 32 32 24.8366 32 16C32 7.16344 24.8366 0 16 0C7.16344 0 0 7.16344 0 16C0 24.8366 7.16344 32 16 32Z" fill="#F0F0F0"/>
<path d="M21.5652 16C21.5652 17.3913 19.0736 20.8696 16 20.8696C12.9264 20.8696 10.4348 17.3913 10.4348 16C10.4348 12.9264 12.9264 10.4348 16 10.4348C19.0736 10.4348 21.5652 12.9264 21.5652 16Z" fill="#D80027"/>
<path d="M21.5652 16C21.5652 19.0736 19.0736 21.5652 16 21.5652C12.9264 21.5652 10.4348 19.0736 10.4348 16" fill="#0052B4"/>
<path d="M23.3784 19.4434L21.9027 20.9191L22.8865 21.9029L24.3622 20.4272L23.3784 19.4434Z" fill="black"/>
<path d="M20.9185 21.903L19.4429 23.3787L20.4267 24.3625L21.9023 22.8868L20.9185 21.903Z" fill="black"/>
<path d="M26.33 22.3942L24.8543 23.8699L25.8381 24.8537L27.3138 23.378L26.33 22.3942Z" fill="black"/>
<path d="M23.8704 24.854L22.3947 26.3297L23.3785 27.3135L24.8542 25.8378L23.8704 24.854Z" fill="black"/>
<path d="M24.8541 20.9189L23.3784 22.3945L24.3622 23.3783L25.8379 21.9027L24.8541 20.9189Z" fill="black"/>
<path d="M22.3949 23.3786L20.9192 24.8542L21.903 25.838L23.3787 24.3624L22.3949 23.3786Z" fill="black"/>
<path d="M20.9195 7.14542L24.8547 11.0806L25.8385 10.0968L21.9033 6.16163L20.9195 7.14542Z" fill="black"/>
<path d="M19.4437 8.62174L20.9194 10.0974L21.9032 9.11366L20.4275 7.63798L19.4437 8.62174Z" fill="black"/>
<path d="M21.903 11.081L23.3786 12.5566L24.3624 11.5729L22.8867 10.0972L21.903 11.081Z" fill="black"/>
<path d="M22.394 5.6702L23.8697 7.14587L24.8535 6.16208L23.3778 4.6864L22.394 5.6702Z" fill="black"/>
<path d="M24.8545 8.1298L26.3302 9.60547L27.314 8.62167L25.8383 7.146L24.8545 8.1298Z" fill="black"/>
<path d="M9.6054 26.33L5.67026 22.3949L4.68646 23.3787L8.6216 27.3138L9.6054 26.33Z" fill="black"/>
<path d="M11.0807 24.8538L9.60507 23.3782L8.62132 24.3619L10.097 25.8376L11.0807 24.8538Z" fill="black"/>
<path d="M8.62149 22.3946L7.14581 20.9189L6.16202 21.9027L7.63769 23.3784L8.62149 22.3946Z" fill="black"/>
<path d="M12.5566 23.3784L8.62146 19.4432L7.63766 20.427L11.5728 24.3622L12.5566 23.3784Z" fill="black"/>
<path d="M5.67023 9.60507L9.60538 5.66992L8.62158 4.68612L4.68644 8.62127L5.67023 9.60507Z" fill="black"/>
<path d="M7.1453 11.0805L11.0804 7.14539L10.0966 6.16159L6.1615 10.0967L7.1453 11.0805Z" fill="black"/>
<path d="M8.62168 12.5568L12.5568 8.6217L11.5731 7.63795L7.63793 11.5731L8.62168 12.5568Z" fill="black"/>
</g>
<defs>
<clipPath id="clip0_280_16738">
<rect width="32" height="32" fill="white"/>
</clipPath>
</defs>
</svg>
