<svg width="32" height="32" viewBox="0 0 32 32" fill="none" xmlns="http://www.w3.org/2000/svg">
<g clip-path="url(#clip0_280_16681)">
<path d="M16 32C24.8366 32 32 24.8366 32 16C32 7.16344 24.8366 0 16 0C7.16344 0 0 7.16344 0 16C0 24.8366 7.16344 32 16 32Z" fill="#F0F0F0"/>
<path d="M3.65717 5.8183H28.3427C27.4309 4.71424 26.3734 3.73518 25.2004 2.90924H6.79948C5.62642 3.73505 4.56898 4.71418 3.65717 5.8183Z" fill="#F0F0F0"/>
<path d="M0 15.9999C0 16.4903 0.0233125 16.9752 0.0665 17.4545H31.9335C31.9767 16.9752 32 16.4903 32 15.9999C32 15.5095 31.9767 15.0246 31.9335 14.5454H0.0665C0.0233125 15.0246 0 15.5095 0 15.9999Z" fill="#F0F0F0"/>
<path d="M1.74469 23.2727H30.2552C30.7263 22.351 31.1106 21.3778 31.3974 20.3636H0.602444C0.889256 21.3778 1.27363 22.3511 1.74469 23.2727Z" fill="#F0F0F0"/>
<path d="M6.79948 29.091H25.2003C26.3734 28.2651 27.4309 27.286 28.3426 26.1819H3.65717C4.56898 27.2859 5.62642 28.2651 6.79948 29.091Z" fill="#F0F0F0"/>
<path d="M0.602594 11.6364H31.3977C31.1108 10.6221 30.7265 9.64886 30.2554 8.72729H1.74491C1.27384 9.64886 0.889469 10.6221 0.602594 11.6364Z" fill="#F0F0F0"/>
<path d="M7.65225 2.90906H25.2005C22.598 1.07669 19.4249 0 16.0001 0C13.9131 0 10.2548 1.07669 7.65225 2.90906Z" fill="#D80027"/>
<path d="M15.3046 8.72736H30.2555C29.7234 7.68655 29.0808 6.71161 28.343 5.8183H15.3046V8.72736Z" fill="#D80027"/>
<path d="M15.3046 14.5455H31.9337C31.8437 13.5467 31.6628 12.5739 31.3978 11.6365H15.3046V14.5455Z" fill="#D80027"/>
<path d="M0.60223 20.3637H31.3972C31.6624 19.4263 31.8432 18.4535 31.9332 17.4546H0.0662298C0.15623 18.4535 0.337105 19.4262 0.60223 20.3637Z" fill="#D80027"/>
<path d="M3.65721 26.1817H28.3427C29.0805 25.2883 29.7231 24.3134 30.2552 23.2726H1.74471C2.27677 24.3135 2.9194 25.2884 3.65721 26.1817Z" fill="#D80027"/>
<path d="M16.0001 32C19.4249 32 22.598 30.9233 25.2005 29.0909H6.79964C9.40214 30.9233 12.5753 32 16.0001 32Z" fill="#D80027"/>
<path d="M0.602167 11.6364C0.337042 12.5739 0.15623 13.5466 0.0662298 14.5454H15.9997V0C8.67598 0 2.50167 4.92075 0.602167 11.6364Z" fill="#0052B4"/>
<path d="M9.5243 4.17395L10.5602 7.36239H13.9131L11.2007 9.33314L12.2366 12.5218L9.5243 10.5511L6.81187 12.5218L7.84799 9.33314L5.13562 7.36239H8.4883L9.5243 4.17395Z" fill="#F0F0F0"/>
</g>
<defs>
<clipPath id="clip0_280_16681">
<rect width="32" height="32" fill="white"/>
</clipPath>
</defs>
</svg>
