<svg width="32" height="32" viewBox="0 0 32 32" fill="none" xmlns="http://www.w3.org/2000/svg">
<g clip-path="url(#clip0_280_16656)">
<path d="M22.9564 1.58763C20.8529 0.5705 18.493 0 15.9999 0C13.5068 0 11.1469 0.5705 9.0434 1.58763L7.65209 16L9.0434 30.4124C11.1469 31.4295 13.5068 32 15.9999 32C18.493 32 20.8529 31.4295 22.9564 30.4124L24.3477 16L22.9564 1.58763Z" fill="#FFDA44"/>
<path d="M9.0435 1.5882C3.69163 4.17613 0 9.6567 0 16C0 22.3433 3.69163 27.8239 9.0435 30.4118V1.5882Z" fill="#0052B4"/>
<path d="M22.9566 1.5882V30.4118C28.3084 27.8239 32.0001 22.3433 32.0001 16C32.0001 9.6567 28.3084 4.17613 22.9566 1.5882Z" fill="#D80027"/>
<path d="M21.5651 12.5887H17.7391C17.7391 11.6282 16.9604 10.8495 15.9999 10.8495C15.0394 10.8495 14.2608 11.6282 14.2608 12.5887H10.4347C10.4347 13.5344 11.2586 14.3009 12.2041 14.3009H12.1471C12.1471 15.2467 12.9137 16.0134 13.8595 16.0134C13.8595 16.8507 14.4609 17.5464 15.2551 17.6952L13.9057 20.7416C14.5523 21.0044 15.2589 21.1504 15.9999 21.1504C16.7409 21.1504 17.4476 21.0044 18.0941 20.7416L16.7447 17.6952C17.539 17.5464 18.1404 16.8507 18.1404 16.0134C19.0861 16.0134 19.8527 15.2467 19.8527 14.3009H19.7957C20.7414 14.3009 21.5651 13.5343 21.5651 12.5887Z" fill="#FF9811"/>
<path d="M16.0002 14.9565L13.7393 16V18.087L16.0002 19.4783L18.261 18.087V16L16.0002 14.9565Z" fill="#0052B4"/>
<path d="M18.261 13.913H13.7393V16H18.261V13.913Z" fill="#D80027"/>
</g>
<defs>
<clipPath id="clip0_280_16656">
<rect width="32" height="32" fill="white"/>
</clipPath>
</defs>
</svg>
