<svg width="32" height="32" viewBox="0 0 32 32" fill="none" xmlns="http://www.w3.org/2000/svg">
<g clip-path="url(#clip0_280_16668)">
<path d="M16 32C24.8366 32 32 24.8366 32 16C32 7.16344 24.8366 0 16 0C7.16344 0 0 7.16344 0 16C0 24.8366 7.16344 32 16 32Z" fill="#FFDA44"/>
<path d="M32 16C32 10.5087 29.2332 5.66409 25.0179 2.78265H6.98206C2.76687 5.66409 0 10.5087 0 16C0 21.4915 2.76687 26.336 6.98206 29.2174H25.0179C29.2332 26.336 32 21.4915 32 16Z" fill="#A2001D"/>
<path d="M12.5219 11.826H19.4784V9.04347L18.0871 9.7391L16.0001 7.65216L13.9132 9.7391L12.5219 9.04347V11.826Z" fill="#FFDA44"/>
<path d="M22.2609 15.9999H18.784C18.9204 15.7641 18.9996 15.4911 18.9996 15.1991C18.9996 14.3124 18.2808 13.5938 17.3942 13.5938C16.7817 13.5938 16.2497 13.937 15.979 14.4414C15.7083 13.9369 15.1763 13.5938 14.5637 13.5938C13.6772 13.5938 12.9584 14.3124 12.9584 15.1991C12.9584 15.4912 13.0377 15.7641 13.174 15.9999H9.73904C9.73904 17.0639 10.6657 17.9263 11.7296 17.9263H11.6655C11.6655 18.799 12.2459 19.5359 13.0417 19.7726L11.4782 21.3362L12.9539 22.8119L15.0472 20.7186C15.1292 20.7487 15.214 20.7727 15.3017 20.7892L14.0368 23.6451C14.6429 23.8916 15.3054 24.0284 16 24.0284C16.6947 24.0284 17.3571 23.8916 17.9633 23.6451L16.6984 20.7892C16.786 20.7727 16.8709 20.7487 16.9528 20.7186L19.0461 22.8119L20.5217 21.3362L18.9581 19.7726C19.7539 19.5358 20.3344 18.7991 20.3344 17.9264H20.2702C21.3342 17.9263 22.2609 17.0639 22.2609 15.9999Z" fill="#FFDA44"/>
<path d="M16.0001 17.0435L13.7392 18.087V20.174L16.0001 21.5652L18.2609 20.174V18.087L16.0001 17.0435Z" fill="#6DA544"/>
<path d="M18.2609 16H13.7392V18.7826H18.2609V16Z" fill="#0052B4"/>
</g>
<defs>
<clipPath id="clip0_280_16668">
<rect width="32" height="32" fill="white"/>
</clipPath>
</defs>
</svg>
