<svg width="32" height="32" viewBox="0 0 32 32" fill="none" xmlns="http://www.w3.org/2000/svg">
<g clip-path="url(#clip0_280_16741)">
<path d="M16 32C24.8366 32 32 24.8366 32 16C32 7.16344 24.8366 0 16 0C7.16344 0 0 7.16344 0 16C0 24.8366 7.16344 32 16 32Z" fill="#496E2D"/>
<path d="M18.7827 15.3328C18.39 15.3328 18.0171 15.4111 17.6709 15.5357C17.8605 15.113 17.9877 14.6426 17.9877 14.1403C17.9877 12.1527 16.0002 10.662 16.0002 10.662C16.0002 10.662 14.0126 12.1527 14.0126 14.1403C14.0126 14.6425 14.1398 15.113 14.3295 15.5357C13.9832 15.4112 13.6103 15.3328 13.2176 15.3328C11.23 15.3328 9.73935 17.3204 9.73935 17.3204C9.73935 17.3204 11.23 19.308 13.2176 19.308C14.3829 19.308 15.3768 18.625 16.0002 18.0596C16.6237 18.6249 17.6175 19.308 18.7829 19.308C20.7704 19.308 22.2611 17.3204 22.2611 17.3204C22.2611 17.3204 20.7703 15.3328 18.7827 15.3328Z" fill="#F0F0F0"/>
<path d="M15.9998 6.26086L16.4104 7.52436H17.7389L16.6643 8.30536L17.0745 9.56886L15.9998 8.78786L14.9251 9.56886L15.3354 8.30536L14.2607 7.52436H15.5893L15.9998 6.26086Z" fill="#FFDA44"/>
<path d="M10.948 8.47083L11.7379 9.18195L12.6583 8.65057L12.2261 9.62151L13.0159 10.3328L11.9589 10.2216L11.5266 11.1926L11.3055 10.153L10.2486 10.0419L11.1689 9.51039L10.948 8.47083Z" fill="#FFDA44"/>
<path d="M7.24953 12.1692L8.28915 12.3902L8.82059 11.4697L8.93171 12.5267L9.97121 12.7478L9.00034 13.1801L9.11146 14.237L8.40015 13.4473L7.42928 13.8795L7.96071 12.959L7.24953 12.1692Z" fill="#FFDA44"/>
<path d="M21.052 8.47083L20.2622 9.18195L19.3418 8.65057L19.7739 9.62151L18.9842 10.3328L20.0412 10.2216L20.4734 11.1926L20.6946 10.153L21.7515 10.0419L20.8311 9.51039L21.052 8.47083Z" fill="#FFDA44"/>
<path d="M24.7503 12.1692L23.7107 12.3902L23.1793 11.4697L23.0681 12.5267L22.0286 12.7478L22.9995 13.1801L22.8884 14.237L23.5997 13.4473L24.5706 13.8795L24.0391 12.959L24.7503 12.1692Z" fill="#FFDA44"/>
<path d="M16.0001 24.8732C17.5789 24.8732 19.0342 24.3465 20.2015 23.4601H11.7987C12.9661 24.3464 14.4213 24.8732 16.0001 24.8732Z" fill="#F0F0F0"/>
<path d="M9.62288 20.6992C9.84369 21.2046 10.1237 21.6779 10.4526 22.1123H21.5474C21.8763 21.678 22.1563 21.2046 22.3771 20.6992H9.62288Z" fill="#F0F0F0"/>
</g>
<defs>
<clipPath id="clip0_280_16741">
<rect width="32" height="32" fill="white"/>
</clipPath>
</defs>
</svg>
