<svg width="32" height="32" viewBox="0 0 32 32" fill="none" xmlns="http://www.w3.org/2000/svg">
<g clip-path="url(#clip0_280_16537)">
<path d="M16 32C24.8366 32 32 24.8366 32 16C32 7.16344 24.8366 0 16 0C7.16344 0 0 7.16344 0 16C0 24.8366 7.16344 32 16 32Z" fill="#338AF3"/>
<path d="M15.4956 26.0743C15.0643 26.0535 14.7074 25.7731 14.5676 25.3926C14.3207 25.7146 13.8963 25.8768 13.4782 25.769C13.0594 25.6611 12.7666 25.3147 12.7061 24.9126C12.3986 25.1783 11.9506 25.2506 11.5631 25.0608C11.1749 24.8701 10.9579 24.4715 10.9802 24.0659C10.6261 24.2648 10.1726 24.2454 9.831 23.981C9.49012 23.7166 9.35725 23.2833 9.46018 22.8902C9.07337 23.014 8.63375 22.9041 8.35199 22.5765C8.07025 22.2495 8.02706 21.798 8.20662 21.4342C7.80312 21.4773 7.39412 21.2811 7.18399 20.9041C6.97318 20.5271 7.02193 20.0756 7.27162 19.7548C6.86743 19.7159 6.50568 19.4411 6.37631 19.0293C6.24624 18.6175 6.38537 18.1848 6.69493 17.9211C6.30674 17.8013 6.00899 17.4591 5.96518 17.03C5.92137 16.6008 6.14399 16.2063 6.49943 16.0101C6.14393 15.8153 5.91993 15.421 5.96237 14.9924C5.96237 14.9924 5.96237 14.9924 5.96306 14.9924C6.00549 14.5625 6.30324 14.2196 6.69068 14.0985C6.38112 13.8355 6.24062 13.4035 6.36931 12.9916C6.49799 12.5791 6.85899 12.3036 7.26324 12.2633C7.01349 11.9433 6.96343 11.4917 7.17281 11.1141C7.38218 10.737 7.79124 10.5401 8.19543 10.5826C8.01456 10.2188 8.05699 9.76727 8.33806 9.43896C8.61843 9.11133 9.05806 9.00071 9.44556 9.12314C9.34118 8.73077 9.47337 8.29671 9.81425 8.03171C10.1544 7.76658 10.608 7.74639 10.9621 7.94396C10.9391 7.53846 11.1554 7.13977 11.5429 6.94846C11.9297 6.75783 12.3784 6.82883 12.6866 7.09452C12.7457 6.69252 13.0386 6.34471 13.4566 6.23608C13.874 6.12758 14.2984 6.28827 14.546 6.60964C14.6858 6.22914 15.042 5.94808 15.4733 5.92652C15.9039 5.90433 16.2865 6.14633 16.4646 6.51027C16.6775 6.16521 17.0824 5.96071 17.5088 6.02539C17.9359 6.08939 18.2636 6.40377 18.3652 6.79689C18.6434 6.50046 19.0817 6.38296 19.4866 6.53177C19.8921 6.68133 20.1495 7.05558 20.169 7.46183C20.5008 7.22814 20.9544 7.20096 21.321 7.42914C21.6876 7.65664 21.8636 8.07471 21.801 8.47608C22.1732 8.31402 22.6226 8.37871 22.9356 8.67502C23.2487 8.97208 23.3377 9.41658 23.1958 9.79708C23.593 9.71289 24.0202 9.86595 24.2678 10.22C24.5154 10.5734 24.5134 11.027 24.2984 11.3713C24.704 11.3685 25.0915 11.6051 25.2633 12.0009C25.4344 12.3974 25.3405 12.842 25.0602 13.1362C25.4588 13.2155 25.7906 13.5251 25.8782 13.948C25.9652 14.371 25.7836 14.7863 25.4504 15.018C25.8233 15.176 26.0862 15.5453 26.0869 15.9766C26.0869 15.9814 26.0869 15.9856 26.0869 15.9905C26.0869 15.9933 26.0869 15.9968 26.0869 15.9996C26.0869 16.4308 25.8254 16.801 25.4525 16.9603C25.7864 17.1906 25.9694 17.6058 25.8824 18.0288C25.7962 18.4517 25.4651 18.762 25.0664 18.8427C25.3475 19.1363 25.4428 19.5801 25.2724 19.9773C25.1019 20.3738 24.7144 20.6111 24.3082 20.609C24.5238 20.9533 24.5273 21.4069 24.2804 21.761C24.0334 22.1151 23.607 22.2695 23.2097 22.186C23.3524 22.5658 23.264 23.0111 22.9517 23.3088C22.6386 23.606 22.1899 23.6713 21.8177 23.5106C21.8811 23.9113 21.7057 24.3301 21.3398 24.559C20.9739 24.7878 20.5203 24.7613 20.1878 24.5283C20.169 24.9346 19.913 25.3096 19.5082 25.4598C19.5082 25.4598 19.5082 25.4598 19.5075 25.4598C19.1026 25.6094 18.6644 25.4926 18.3854 25.197C18.2852 25.5907 17.9583 25.9058 17.5312 25.9712C17.1047 26.0359 16.6992 25.8328 16.4856 25.4877C16.3159 25.8376 15.9569 26.0755 15.5479 26.0755C15.5304 26.0758 15.5131 26.0751 15.4956 26.0743Z" fill="#F3F3F3"/>
<path d="M16 22.9565C19.8419 22.9565 22.9565 19.8419 22.9565 16C22.9565 12.158 19.8419 9.04346 16 9.04346C12.158 9.04346 9.04346 12.158 9.04346 16C9.04346 19.8419 12.158 22.9565 16 22.9565Z" fill="#338AF3"/>
<path d="M17.5227 13.6386C17.8645 13.3851 18.087 12.9799 18.087 12.5216V11.826C18.087 11.0576 17.4641 10.4347 16.6957 10.4347H15.3044C14.536 10.4347 13.9131 11.0576 13.9131 11.826V12.5216C13.9131 12.9799 14.1356 13.3851 14.4774 13.6386L13.2175 26.4346C13.2175 26.4346 13.9131 27.1304 16.0001 27.1304C18.0871 27.1304 18.7827 26.4346 18.7827 26.4346L17.5227 13.6386Z" fill="#BDBCC1"/>
<path d="M15.9998 10.4347L17.2084 14.1546H21.12L17.9556 16.4538L19.1641 20.1738L15.9998 17.8748L12.8353 20.1738L14.0441 16.4538L10.8796 14.1546H14.7911L15.9998 10.4347Z" fill="#F0F0F0"/>
</g>
<defs>
<clipPath id="clip0_280_16537">
<rect width="32" height="32" fill="white"/>
</clipPath>
</defs>
</svg>
