<svg width="32" height="32" viewBox="0 0 32 32" fill="none" xmlns="http://www.w3.org/2000/svg">
<g clip-path="url(#clip0_280_16554)">
<path d="M32 16C32 24.8365 24.8365 32 16 32C7.1635 32 0 24.8365 0 16C0 16.0038 16 0.00175 16 0C24.8365 0 32 7.1635 32 16Z" fill="#0052B4"/>
<path d="M15.9571 15.9999H16.0004C16.0004 15.9856 16.0004 15.9716 16.0004 15.9573C15.986 15.9715 15.9716 15.9857 15.9571 15.9999Z" fill="#F0F0F0"/>
<path d="M16 8.34781C16 5.5325 16 3.68781 16 0H15.9973C7.16194 0.0015 0 7.16431 0 16H8.34781V11.2993L13.0485 16H15.9572C15.9715 15.9858 15.9858 15.9715 16.0001 15.9572C16.0001 14.8793 16.0001 13.9174 16.0001 13.0486L11.2992 8.34781H16Z" fill="#F0F0F0"/>
<path d="M8.09483 2.08698C5.59239 3.51191 3.51196 5.59229 2.08708 8.09473V16H6.26102V6.26104V6.26091H16.0001C16.0001 4.94448 16.0001 3.69035 16.0001 2.08698H8.09483Z" fill="#D80027"/>
<path d="M16.0002 14.0325L10.3155 8.3479H8.34796V8.34803L16 16H16.0002C16.0002 16 16.0002 14.6433 16.0002 14.0325Z" fill="#D80027"/>
<path d="M18.0871 8.34784V16C18.0871 19.7275 22.9566 20.8696 22.9566 20.8696C22.9566 20.8696 27.8262 19.7275 27.8262 16V8.34784H18.0871Z" fill="#338AF3"/>
<path d="M18.0871 16C18.0871 19.7275 22.9566 20.8696 22.9566 20.8696C22.9566 20.8696 27.8262 19.7275 27.8262 16H18.0871Z" fill="#A2001D"/>
<path d="M25.0434 11.8262H23.652V10.4348H22.2607V11.8262H20.8694V13.2174H22.2607V17.3913H23.652V13.2174H25.0434V11.8262Z" fill="black"/>
</g>
<defs>
<clipPath id="clip0_280_16554">
<rect width="32" height="32" fill="white"/>
</clipPath>
</defs>
</svg>
