<svg width="32" height="32" viewBox="0 0 32 32" fill="none" xmlns="http://www.w3.org/2000/svg">
<g clip-path="url(#clip0_280_16605)">
<path d="M16 32C24.8366 32 32 24.8366 32 16C32 7.16344 24.8366 0 16 0C7.16344 0 0 7.16344 0 16C0 24.8366 7.16344 32 16 32Z" fill="#F0F0F0"/>
<path d="M0.551308 20.174C1.47706 23.6089 3.51737 26.586 6.26099 28.6941V20.174H0.551308Z" fill="#D80027"/>
<path d="M14.6088 31.9391C15.0675 31.9786 15.5313 32 16.0001 32C23.3926 32 29.6129 26.9862 31.4489 20.174H14.6088V31.9391Z" fill="#D80027"/>
<path d="M31.4489 11.8261C29.6129 5.01381 23.3926 0 16.0001 0C15.5313 0 15.0675 0.021375 14.6088 0.060875V11.8261H31.4489Z" fill="#D80027"/>
<path d="M6.26099 3.30591C3.51737 5.41403 1.47706 8.3911 0.551308 11.826H6.26099V3.30591Z" fill="#D80027"/>
<path d="M31.8646 13.9131H12.5218H12.5218V0.38031C11.0431 0.708185 9.64131 1.23962 8.34781 1.94544V13.9129V13.913H0.135438C0.046375 14.5962 0 15.2927 0 16C0 16.7073 0.046375 17.4038 0.135438 18.0869H8.34775H8.34781V30.0545C9.64131 30.7602 11.0431 31.2918 12.5218 31.6196V18.0871V18.087H31.8646C31.9535 17.4038 32 16.7073 32 16C32 15.2927 31.9535 14.5962 31.8646 13.9131Z" fill="#0052B4"/>
</g>
<defs>
<clipPath id="clip0_280_16605">
<rect width="32" height="32" fill="white"/>
</clipPath>
</defs>
</svg>
