<svg width="32" height="32" viewBox="0 0 32 32" fill="none" xmlns="http://www.w3.org/2000/svg">
<g clip-path="url(#clip0_280_16708)">
<path d="M16 32C24.8366 32 32 24.8366 32 16C32 7.16344 24.8366 0 16 0C7.16344 0 0 7.16344 0 16C0 24.8366 7.16344 32 16 32Z" fill="#F0F0F0"/>
<path d="M31.9064 17.7397L31.9056 17.7386L31.9055 17.7397H31.9064Z" fill="#0052B4"/>
<path d="M31.9056 17.7388C31.9056 17.7387 31.9057 17.7386 31.9057 17.7383L14.3591 0.0828857C13.5676 0.163573 12.793 0.301948 12.0398 0.493761C5.11862 2.25595 0 15.9997 0 15.9997C0 15.9997 22.3999 30.9894 24.9553 29.2599C25.4666 28.9139 25.9569 28.5391 26.4236 28.1379L16.0247 17.7388H31.9056Z" fill="#0052B4"/>
<path d="M27.8261 16L12.2653 0.43927C5.2305 2.12158 0 8.44946 0 16C0 24.8365 7.1635 32 16 32C19.3518 32 22.4623 30.9686 25.0331 29.2069L11.8261 16H27.8261Z" fill="#D80027"/>
<path d="M15.217 23.6246L13.263 22.7054L14.3035 20.813L12.1816 21.2189L11.9128 19.0753L10.4348 20.6519L8.9569 19.0753L8.68796 21.2189L6.56615 20.8129L7.60671 22.7054L5.65259 23.6246L7.60671 24.5436L6.56615 26.4361L8.68809 26.0303L8.95684 28.1738L10.4348 26.5972L11.9128 28.1738L12.1816 26.0303L14.3035 26.4362L13.2629 24.5438L15.217 23.6246Z" fill="#F0F0F0"/>
<path d="M13.913 8.87393L12.4918 8.2055L13.2486 6.82906L11.7053 7.12431L11.5097 5.56519L10.4348 6.71187L9.35983 5.56519L9.1642 7.12431L7.62089 6.82906L8.37776 8.2055L6.95645 8.87393L10.4348 9.56968L13.913 8.87393Z" fill="#F0F0F0"/>
<path d="M14.6088 8.87408C14.6088 11.1793 12.7401 13.048 10.4349 13.048C8.12971 13.048 6.26096 11.1793 6.26096 8.87408" fill="#F0F0F0"/>
</g>
<defs>
<clipPath id="clip0_280_16708">
<rect width="32" height="32" fill="white"/>
</clipPath>
</defs>
</svg>
