<svg width="32" height="32" viewBox="0 0 32 32" fill="none" xmlns="http://www.w3.org/2000/svg">
<g clip-path="url(#clip0_280_16625)">
<path d="M16 32C24.8366 32 32 24.8366 32 16C32 7.16344 24.8366 0 16 0C7.16344 0 0 7.16344 0 16C0 24.8366 7.16344 32 16 32Z" fill="#F0F0F0"/>
<path d="M1.94542 8.34781H30.0545C27.3409 3.37431 22.0647 0 16 0C9.93529 0 4.65911 3.37431 1.94542 8.34781Z" fill="#D80027"/>
<path d="M16 32C22.0647 32 27.3409 28.6257 30.0545 23.6522H1.94542C4.65911 28.6257 9.9353 32 16 32Z" fill="#D80027"/>
<path d="M21.5651 16.0001C21.5651 19.0737 19.0734 20.8696 15.9999 20.8696C12.9263 20.8696 10.4347 19.0737 10.4347 16.0001C10.4347 12.9264 12.9263 10.4349 15.9999 10.4349C19.0734 10.4349 21.5651 12.9264 21.5651 16.0001Z" fill="#FFDA44"/>
<path d="M21.5651 16C21.5651 19.0736 19.0734 21.5652 15.9999 21.5652C12.9263 21.5652 10.4347 19.0736 10.4347 16" fill="#0052B4"/>
<path d="M13.9131 14.6086H12.5218V17.3913H13.9131V14.6086Z" fill="#D80027"/>
<path d="M19.4784 14.6086H18.0871V17.3913H19.4784V14.6086Z" fill="#D80027"/>
<path d="M16.6958 12.5217H15.3045V17.3913H16.6958V12.5217Z" fill="#D80027"/>
</g>
<defs>
<clipPath id="clip0_280_16625">
<rect width="32" height="32" fill="white"/>
</clipPath>
</defs>
</svg>
