<svg width="32" height="32" viewBox="0 0 32 32" fill="none" xmlns="http://www.w3.org/2000/svg">
<g clip-path="url(#clip0_280_16523)">
<path d="M32 16C32 24.8365 24.8365 32 16 32C7.1635 32 0 24.8365 0 16C0 16.0038 16 0.00175 16 0C24.8365 0 32 7.1635 32 16Z" fill="#0052B4"/>
<path d="M15.9571 15.9998H16.0004C16.0004 15.9855 16.0004 15.9715 16.0004 15.9572C15.986 15.9714 15.9716 15.9856 15.9571 15.9998Z" fill="#F0F0F0"/>
<path d="M16 8.34781C16 5.5325 16 3.68781 16 0H15.9973C7.16194 0.0015 0 7.16431 0 16H8.34781V11.2993L13.0485 16H15.9572C15.9715 15.9858 15.9858 15.9715 16.0001 15.9572C16.0001 14.8793 16.0001 13.9174 16.0001 13.0486L11.2992 8.34781H16Z" fill="#F0F0F0"/>
<path d="M8.09483 2.08704C5.59239 3.51197 3.51196 5.59235 2.08708 8.09479V16.0001H6.26102V6.2611V6.26097H16.0001C16.0001 4.94454 16.0001 3.69041 16.0001 2.08704H8.09483Z" fill="#D80027"/>
<path d="M16.0002 14.0326L10.3155 8.34802H8.34796V8.34815L16 16.0001H16.0002C16.0002 16.0001 16.0002 14.6435 16.0002 14.0326Z" fill="#D80027"/>
<path d="M25.0436 9.73924L22.9566 10.4349L20.8697 9.73924L20.1741 8.00011L20.8697 6.26099H25.0436L24.3479 8.00011L25.0436 9.73924Z" fill="#ACABB1"/>
<path d="M18.0871 9.73901V17.3911C18.0871 21.1186 22.9566 22.2608 22.9566 22.2608C22.9566 22.2608 27.8262 21.1186 27.8262 17.3911V9.73901H18.0871Z" fill="#338AF3"/>
<path d="M18.5261 19.2041C19.7231 21.5021 22.9567 22.2608 22.9567 22.2608C22.9567 22.2608 26.1904 21.5021 27.3874 19.2041L22.9567 11.826L18.5261 19.2041Z" fill="#6DA544"/>
<path d="M27.8262 17.3138L22.9566 9.73901L18.0871 17.3139V17.3911C18.0871 18.081 18.2542 18.6821 18.526 19.204L22.9566 12.3118L27.3873 19.204C27.6591 18.682 27.8262 18.081 27.8262 17.3911V17.3138Z" fill="#FFDA44"/>
</g>
<defs>
<clipPath id="clip0_280_16523">
<rect width="32" height="32" fill="white"/>
</clipPath>
</defs>
</svg>
