<svg width="32" height="32" viewBox="0 0 32 32" fill="none" xmlns="http://www.w3.org/2000/svg">
<g clip-path="url(#clip0_280_16637)">
<path d="M21.5651 0.995125C19.8317 0.352063 17.9571 8.31859e-09 15.9999 8.31859e-09C14.0428 -6.24917e-05 12.1681 0.352063 10.4347 0.995125L9.04343 15.9999L10.4347 31.0047C12.168 31.648 14.0427 32 15.9999 32C17.957 32 19.8318 31.648 21.5651 31.0047L22.9564 16L21.5651 0.995125Z" fill="#FFDA44"/>
<path d="M32.0001 16.0001C32.0001 9.12068 27.6581 3.25586 21.5652 0.995239V31.005C27.6581 28.7441 32 22.8796 32.0001 16.0001Z" fill="#D80027"/>
<path d="M0 15.9998C0 22.8794 4.342 28.7439 10.4347 31.0047L10.4347 0.995117C4.342 3.25574 0 9.12037 0 15.9998Z" fill="#0052B4"/>
</g>
<defs>
<clipPath id="clip0_280_16637">
<rect width="32" height="32" fill="white"/>
</clipPath>
</defs>
</svg>
