<svg width="32" height="32" viewBox="0 0 32 32" fill="none" xmlns="http://www.w3.org/2000/svg">
<g clip-path="url(#clip0_280_16504)">
<path d="M1.58763 9.04366C0.5705 11.1472 0 13.507 0 16.0002C0 18.4933 0.5705 20.8532 1.58763 22.9567L16 24.348L30.4124 22.9567C31.4295 20.8532 32 18.4933 32 16.0002C32 13.507 31.4295 11.1472 30.4124 9.04366L16 7.65234L1.58763 9.04366Z" fill="#F0F0F0"/>
<path d="M1.58827 22.9565C4.17615 28.3085 9.65671 32 16.0001 32C22.3435 32 27.824 28.3085 30.4119 22.9565H1.58827Z" fill="black"/>
<path d="M1.58827 9.0435H30.4119C27.824 3.69156 22.3435 0 16.0001 0C9.65671 0 4.17615 3.69156 1.58827 9.0435Z" fill="#D80027"/>
<path d="M4.68618 4.68628C-1.5622 10.9347 -1.5622 21.0653 4.68618 27.3138C7.26824 24.7317 9.75155 22.2484 15.9999 16L4.68618 4.68628Z" fill="#496E2D"/>
</g>
<defs>
<clipPath id="clip0_280_16504">
<rect width="32" height="32" fill="white"/>
</clipPath>
</defs>
</svg>
