<svg width="32" height="32" viewBox="0 0 32 32" fill="none" xmlns="http://www.w3.org/2000/svg">
<g clip-path="url(#clip0_280_16501)">
<path d="M16 32C24.8366 32 32 24.8366 32 16C32 7.16344 24.8366 0 16 0C7.16344 0 0 7.16344 0 16C0 24.8366 7.16344 32 16 32Z" fill="#FFDA44"/>
<path d="M12.5221 13.9131H31.8648C30.8421 6.06263 24.1294 0 16.0003 0C14.8056 0 13.6419 0.132063 12.522 0.380313V13.9131H12.5221Z" fill="#0052B4"/>
<path d="M8.34736 13.9131V1.94556C3.95399 4.34268 0.808924 8.73962 0.134987 13.9132H8.34736V13.9131Z" fill="#0052B4"/>
<path d="M8.3473 18.087H0.134987C0.808924 23.2606 3.95399 27.6575 8.34736 30.0546L8.3473 18.087Z" fill="#0052B4"/>
<path d="M12.522 18.0871V31.6198C13.6419 31.868 14.8056 32.0001 16.0003 32.0001C24.1294 32.0001 30.8421 25.9375 31.8648 18.087H12.522V18.0871Z" fill="#0052B4"/>
</g>
<defs>
<clipPath id="clip0_280_16501">
<rect width="32" height="32" fill="white"/>
</clipPath>
</defs>
</svg>
