<svg width="32" height="32" viewBox="0 0 32 32" fill="none" xmlns="http://www.w3.org/2000/svg">
<g clip-path="url(#clip0_280_16686)">
<path d="M16 32C24.8366 32 32 24.8366 32 16C32 7.16344 24.8366 0 16 0C7.16344 0 0 7.16344 0 16C0 24.8366 7.16344 32 16 32Z" fill="#FFDA44"/>
<path d="M9.73926 10.4348H31.0049C28.7443 4.342 22.8795 0 16.0001 0C11.5818 0 7.5822 1.79119 4.68695 4.68681L9.73926 10.4348Z" fill="#6DA544"/>
<path d="M9.73926 21.5651H31.0049C28.7443 27.6579 22.8795 31.9999 16.0001 31.9999C11.5818 31.9999 7.5822 30.2087 4.68695 27.3131L9.73926 21.5651Z" fill="#6DA544"/>
<path d="M4.68616 4.68616C-1.56222 10.9345 -1.56222 21.0652 4.68616 27.3137C7.26822 24.7316 9.75154 22.2483 15.9999 15.9999L4.68616 4.68616Z" fill="#D80027"/>
<path d="M20.317 13.2173L21.0077 15.343H23.2428L21.4345 16.6568L22.1252 18.7825L20.317 17.4687L18.5087 18.7825L19.1994 16.6568L17.3912 15.343H19.6263L20.317 13.2173Z" fill="black"/>
<path d="M27.2738 13.2173L27.9645 15.343H30.1996L28.3914 16.6568L29.082 18.7825L27.2738 17.4687L25.4655 18.7825L26.1562 16.6568L24.348 15.343H26.5831L27.2738 13.2173Z" fill="black"/>
</g>
<defs>
<clipPath id="clip0_280_16686">
<rect width="32" height="32" fill="white"/>
</clipPath>
</defs>
</svg>
