<svg width="32" height="32" viewBox="0 0 32 32" fill="none" xmlns="http://www.w3.org/2000/svg">
<g clip-path="url(#clip0_280_16624)">
<path d="M16 32C24.8366 32 32 24.8366 32 16C32 7.16344 24.8366 0 16 0C7.16344 0 0 7.16344 0 16C0 24.8366 7.16344 32 16 32Z" fill="#FFDA44"/>
<path d="M16 0C12.0827 0 8.4948 1.40856 5.71342 3.74587L22.9565 16L5.71342 28.2541C8.4948 30.5914 12.0827 32 16 32C24.8365 32 32 24.8365 32 16C32 7.1635 24.8365 0 16 0Z" fill="#D80027"/>
<path d="M4.68617 4.68628C-1.5622 10.9347 -1.5622 21.0653 4.68617 27.3138C7.26824 24.7317 9.75155 22.2484 15.9999 16L4.68617 4.68628Z" fill="black"/>
<path d="M4.43621 12.3347L6.87121 14.6392L9.81546 13.0352L8.3764 16.0633L10.8115 18.3679L7.48684 17.9349L6.04759 20.963L5.43215 17.6672L2.10752 17.2341L5.05165 15.6303L4.43621 12.3347Z" fill="#F0F0F0"/>
</g>
<defs>
<clipPath id="clip0_280_16624">
<rect width="32" height="32" fill="white"/>
</clipPath>
</defs>
</svg>
