<svg width="32" height="32" viewBox="0 0 32 32" fill="none" xmlns="http://www.w3.org/2000/svg">
<g clip-path="url(#clip0_280_16539)">
<path d="M8.66345 1.77673C7.23108 2.51605 5.88652 3.48511 4.68577 4.68586C3.48495 5.88667 2.51589 7.23123 1.77664 8.66361L12.0646 19.9354L23.3364 30.2234C24.7688 29.484 26.1134 28.515 27.3141 27.3143C28.515 26.1135 29.484 24.7689 30.2233 23.3365L19.9353 12.0647L8.66345 1.77673Z" fill="#F0F0F0"/>
<path d="M27.3143 27.3141C27.9855 26.6429 28.5841 25.9267 29.1111 25.1755L6.82454 2.88892C6.07335 3.41585 5.35716 4.01448 4.68597 4.68567C4.01479 5.35685 3.41616 6.07304 2.88916 6.82429L25.1757 29.1108C25.9268 28.5839 26.6431 27.9853 27.3143 27.3141Z" fill="black"/>
<path d="M4.68582 27.3141C9.73376 32.3621 17.3148 33.3311 23.3364 30.2232L1.77676 8.66345C-1.33105 14.6851 -0.361866 22.2662 4.68582 27.3141Z" fill="#D80027"/>
<path d="M27.3142 4.6857C22.2663 -0.362172 14.6852 -1.33117 8.66362 1.77652L30.2233 23.3364C33.3312 17.3148 32.3622 9.73358 27.3142 4.6857Z" fill="#D80027"/>
</g>
<defs>
<clipPath id="clip0_280_16539">
<rect width="32" height="32" fill="white"/>
</clipPath>
</defs>
</svg>
