<svg width="32" height="32" viewBox="0 0 32 32" fill="none" xmlns="http://www.w3.org/2000/svg">
<g clip-path="url(#clip0_5667_1710)">
<path d="M15.3976 0H16.5867L16.6039 0.00248698C16.8872 0.0414088 17.1942 0.0422464 17.4816 0.0678022C24.623 0.702688 30.5553 6.17767 31.765 13.2416C31.8366 13.6551 31.8928 14.0711 31.9336 14.4887C31.9553 14.7334 31.9622 15.0881 32 15.3199V16.6961L31.9972 16.7134C31.9581 16.9669 31.9547 17.3108 31.9292 17.5759C31.8719 18.1333 31.7869 18.6875 31.6742 19.2364C30.8769 23.0755 28.7023 26.4902 25.5609 28.8367C23.6103 30.2842 21.3567 31.2703 18.9697 31.7205C18.5073 31.8042 18.1148 31.8688 17.6498 31.9147C17.493 31.9302 16.8756 31.9706 16.7739 32H15.2538C15.1335 31.9684 14.5593 31.9339 14.3888 31.9172C13.914 31.8705 13.5218 31.8072 13.0504 31.7223C10.6645 31.2759 8.41123 30.2934 6.46056 28.8491C3.30306 26.5023 1.11926 23.0761 0.325213 19.223C0.210219 18.6806 0.132039 18.1133 0.0687836 17.5616C0.0370164 17.2845 0.0459203 16.9667 0.00285848 16.6881L0 16.6706V15.3791C0.0372808 15.2221 0.0420163 14.7078 0.0627422 14.5106C0.107158 14.0879 0.162223 13.6894 0.233186 13.2697C0.640384 10.8614 1.71855 8.32069 3.21153 6.37603C3.76172 5.65231 4.36742 4.97253 5.02314 4.34284C7.20236 2.30148 9.90733 0.907844 12.8345 0.318291C13.3726 0.208392 13.9535 0.130393 14.4999 0.0700108C14.7834 0.0386842 15.1008 0.0408397 15.3804 0.00248309L15.3976 0Z" fill="#26A27B"/>
<path d="M8.60406 7.82052C9.17885 7.80984 9.78438 7.81928 10.361 7.81927L13.7254 7.8192L23.3378 7.82036L23.3372 11.431L17.9222 11.4301L17.9228 13.7903C19.6697 13.8583 23.875 14.2269 25.24 15.3135C25.4166 15.454 25.587 15.6464 25.6083 15.8808C25.6236 16.0485 25.5448 16.1986 25.4377 16.3217C25.1664 16.6335 24.7416 16.8193 24.3642 16.9689C23.7173 17.2257 23.0375 17.3908 22.3559 17.5257C21.3483 17.7213 20.3303 17.8585 19.3069 17.9366C18.845 17.9749 18.3841 17.9966 17.9219 18.0305L17.9225 20.223L17.922 25.6102L14.0098 25.6097L14.0089 18.0314C12.2667 17.9672 7.92027 17.5664 6.62878 16.4742C6.46585 16.3364 6.31281 16.1518 6.29996 15.9299C6.28964 15.7521 6.37763 15.5961 6.49383 15.4682C7.60481 14.2455 12.3765 13.8636 14.0101 13.7905L14.0085 11.4315L8.59478 11.4317L8.59388 8.81859C8.59383 8.68936 8.5852 7.89477 8.60406 7.82052Z" fill="#FEFEFE"/>
<path d="M17.9227 14.0712C19.5283 14.1579 22.9117 14.391 24.2625 15.2025C24.4845 15.3359 24.6398 15.4855 24.703 15.7439C24.6833 15.8329 24.6495 15.9101 24.5939 15.9829C24.0358 16.7145 21.4977 17.0504 20.597 17.1725C20.5458 17.179 20.4945 17.1854 20.4433 17.1914C18.933 17.357 17.4142 17.4339 15.895 17.4217C13.797 17.4194 11.6864 17.3092 9.62505 16.8997C9.00883 16.7773 7.97905 16.5462 7.48696 16.1526C7.3591 16.0504 7.22966 15.9095 7.21574 15.7389C7.20581 15.6171 7.27877 15.5046 7.35814 15.4186C8.22864 14.4754 12.4277 14.1514 13.7328 14.0871L14.0091 14.0719C14.0213 14.9443 14.0084 15.84 14.0115 16.7147C15.3137 16.7892 16.6191 16.7895 17.9214 16.7158C17.9306 15.8392 17.9225 14.9488 17.9227 14.0712Z" fill="#26A27B"/>
</g>
<defs>
<clipPath id="clip0_5667_1710">
<rect width="32" height="32" fill="white"/>
</clipPath>
</defs>
</svg>
