<svg width="32" height="32" viewBox="0 0 32 32" fill="none" xmlns="http://www.w3.org/2000/svg">
<g clip-path="url(#clip0_280_16488)">
<path d="M31.9999 15.9999C31.9999 15.2926 31.9534 14.5961 31.8644 13.913H13.9128C10.644 10.6443 4.68592 4.68666 4.68617 4.68616C-1.5622 10.9345 -1.5622 21.0651 4.68617 27.3136L13.913 18.0869H31.8644C31.9534 17.4037 31.9999 16.7072 31.9999 15.9999Z" fill="black"/>
<path d="M31.995 16.364C31.9943 16.3947 31.9936 16.4256 31.9928 16.4563C31.9935 16.4255 31.9942 16.3947 31.995 16.364Z" fill="#F0F0F0"/>
<path d="M31.9796 16.8013C31.9782 16.8317 31.9761 16.862 31.9745 16.8923C31.9761 16.862 31.9781 16.8317 31.9796 16.8013Z" fill="#F0F0F0"/>
<path d="M31.9583 17.1498C31.9551 17.1945 31.952 17.2392 31.9484 17.2838C31.952 17.2392 31.955 17.1945 31.9583 17.1498Z" fill="#F0F0F0"/>
<path d="M31.9051 14.2562C31.9109 14.3095 31.9167 14.3627 31.922 14.416C31.9167 14.3626 31.9108 14.3095 31.9051 14.2562Z" fill="#F0F0F0"/>
<path d="M31.9744 15.1073C31.9761 15.1377 31.9781 15.1679 31.9795 15.1984C31.978 15.1679 31.9761 15.1376 31.9744 15.1073Z" fill="#F0F0F0"/>
<path d="M31.9926 15.5436C31.9935 15.5743 31.9941 15.6052 31.9949 15.6359C31.9942 15.605 31.9935 15.5743 31.9926 15.5436Z" fill="#F0F0F0"/>
<path d="M31.9484 14.7155C31.952 14.7601 31.9551 14.8048 31.9583 14.8495C31.955 14.8048 31.952 14.7601 31.9484 14.7155Z" fill="#F0F0F0"/>
<path d="M31.8644 13.9131C31.8716 13.9679 31.878 14.023 31.8845 14.078C30.9349 6.14786 24.1858 0.00012207 15.9999 0.00012207C11.5815 0.00012207 7.58145 1.79106 4.68602 4.68661L13.9125 13.9132H31.8644V13.9131Z" fill="#D80027"/>
<path d="M31.8644 18.087H13.9125L4.68602 27.3135C7.58145 30.209 11.5815 32 15.9999 32C24.1858 32 30.935 25.8523 31.8845 17.9221C31.878 17.9771 31.8715 18.0322 31.8644 18.087Z" fill="#6DA544"/>
<path d="M31.922 17.5834C31.9167 17.6367 31.9109 17.6899 31.905 17.7432C31.9109 17.6899 31.9168 17.6368 31.922 17.5834Z" fill="#F0F0F0"/>
<path d="M31.9584 14.85C31.9645 14.9355 31.9699 15.0213 31.9746 15.1072C31.9699 15.0213 31.9645 14.9355 31.9584 14.85Z" fill="black"/>
<path d="M31.8847 14.0779C31.8918 14.1369 31.8986 14.1961 31.9049 14.2553C31.8985 14.1961 31.8917 14.137 31.8847 14.0779Z" fill="black"/>
<path d="M31.922 14.4167C31.9317 14.5161 31.9405 14.6156 31.9484 14.7156C31.9406 14.6156 31.9318 14.516 31.922 14.4167Z" fill="black"/>
<path d="M31.9999 16C31.9999 16.1217 31.998 16.2429 31.9953 16.3638C31.998 16.2428 31.9999 16.1216 31.9999 16Z" fill="black"/>
<path d="M31.9747 16.8925C31.97 16.9784 31.9645 17.0641 31.9585 17.1497C31.9645 17.0641 31.9699 16.9784 31.9747 16.8925Z" fill="black"/>
<path d="M31.9484 17.2845C31.9405 17.3844 31.9317 17.484 31.922 17.5832C31.9318 17.484 31.9406 17.3844 31.9484 17.2845Z" fill="black"/>
<path d="M31.9049 17.7438C31.8986 17.803 31.8918 17.8621 31.8847 17.9212C31.8917 17.8621 31.8985 17.803 31.9049 17.7438Z" fill="black"/>
<path d="M31.9953 15.6362C31.998 15.7572 31.9999 15.8785 31.9999 16C31.9999 15.8785 31.998 15.7572 31.9953 15.6362Z" fill="black"/>
<path d="M31.9799 15.1987C31.9855 15.3132 31.9898 15.4282 31.993 15.5433C31.9898 15.4281 31.9856 15.3132 31.9799 15.1987Z" fill="black"/>
<path d="M31.9928 16.4567C31.9896 16.5718 31.9854 16.6867 31.9798 16.8012C31.9855 16.6867 31.9896 16.5718 31.9928 16.4567Z" fill="black"/>
<path d="M31.9848 15.2987H13.3252L3.74036 5.71533C3.43055 6.04208 3.09474 6.49833 2.88705 6.82327L12.0532 15.9943L2.87936 25.1683C3.06099 25.4914 3.45668 25.9697 3.73449 26.2809L13.3253 16.69H31.9871C31.997 16.4593 32.0001 16.2275 32.0001 15.9944C32.0001 15.682 31.9914 15.4517 31.9848 15.2987Z" fill="#FFDA44"/>
<path d="M3.88683 19.4107V18.0705C5.2242 18.0705 6.31213 16.9825 6.31213 15.6452C6.31213 14.699 5.54232 13.9293 4.5962 13.9293C3.95164 13.9293 3.4272 14.4537 3.4272 15.0984C3.4272 15.5105 3.76251 15.8459 4.17476 15.8459C4.40776 15.8459 4.59732 15.6562 4.59732 15.4232H5.93745C5.93745 16.3953 5.1467 17.186 4.17482 17.186C3.02364 17.1861 2.0872 16.2495 2.0872 15.0985C2.0872 13.7149 3.21283 12.5894 4.59626 12.5894C6.28138 12.5894 7.65238 13.9604 7.65238 15.6454C7.65232 17.7215 5.96313 19.4107 3.88683 19.4107Z" fill="#FFDA44"/>
</g>
<defs>
<clipPath id="clip0_280_16488">
<rect width="32" height="32" fill="white"/>
</clipPath>
</defs>
</svg>
