<svg width="32" height="32" viewBox="0 0 32 32" fill="none" xmlns="http://www.w3.org/2000/svg">
<g clip-path="url(#clip0_280_16518)">
<path d="M32 16C32 24.8365 24.8365 32 16 32C7.1635 32 0 24.8365 0 16C5.49563 10.5044 10.1565 5.8435 16 0C24.8365 0 32 7.1635 32 16Z" fill="#D80027"/>
<path d="M16 16C16 7.1635 16 6.12175 16 0C7.1635 0 0 7.1635 0 16H16Z" fill="#0052B4"/>
<path d="M12.8159 10.4347L13.0749 11.2319H13.9131L13.2349 11.7244L13.494 12.5216L12.8159 12.0289L12.1378 12.5216L12.3968 11.7244L11.7187 11.2319H12.5568L12.8159 10.4347Z" fill="#F0F0F0"/>
<path d="M8.606 4.17395L9.03769 5.50264H10.4347L9.30444 6.32358L9.73625 7.6522L8.606 6.83101L7.47581 7.6522L7.90756 6.32358L6.77737 5.50264H8.17425L8.606 4.17395Z" fill="#F0F0F0"/>
<path d="M12.78 5.56519L13.2117 6.89393H14.6087L13.4785 7.71487L13.9102 9.0435L12.78 8.22231L11.6499 9.0435L12.0816 7.71487L10.9514 6.89393H12.3483L12.78 5.56519Z" fill="#F0F0F0"/>
<path d="M9.48072 11.1305L9.91247 12.4592H11.3093L10.1792 13.2801L10.6109 14.6087L9.48072 13.7876L8.35054 14.6087L8.78229 13.2801L7.6521 12.4592H9.04904L9.48072 11.1305Z" fill="#F0F0F0"/>
<path d="M5.82347 7.65222L6.25522 8.98091H7.65215L6.5219 9.80185L6.95365 11.1305L5.82347 10.3093L4.69334 11.1305L5.12503 9.80185L3.9949 8.98091H5.39178L5.82347 7.65222Z" fill="#F0F0F0"/>
</g>
<defs>
<clipPath id="clip0_280_16518">
<rect width="32" height="32" fill="white"/>
</clipPath>
</defs>
</svg>
