<svg width="32" height="32" viewBox="0 0 32 32" fill="none" xmlns="http://www.w3.org/2000/svg">
<g clip-path="url(#clip0_280_16700)">
<path d="M16 32C24.8366 32 32 24.8366 32 16C32 7.16344 24.8366 0 16 0C7.16344 0 0 7.16344 0 16C0 24.8366 7.16344 32 16 32Z" fill="#F0F0F0"/>
<path d="M4.6861 27.3137C-1.56228 21.0652 -1.56228 10.9346 4.6861 4.68616C4.68566 4.68684 13.9129 15.9999 13.9129 15.9999L4.6861 27.3137Z" fill="black"/>
<path d="M13.9131 16.0002L2.1221 8.03223C1.75654 8.66766 1.43417 9.33091 1.15717 10.0174L7.12648 16.0002L1.15735 21.9834C1.4341 22.6694 1.75617 23.3322 2.12148 23.9672L13.9131 16.0002Z" fill="#FFDA44"/>
<path d="M31.8646 13.9131H13.9126L4.68612 4.68652C3.69187 5.68077 2.82805 6.80521 2.12205 8.03215L10.0745 16L2.12143 23.9669C2.82743 25.1942 3.69162 26.319 4.68612 27.3135L13.9126 18.087H31.8646C31.9535 17.4038 32 16.7073 32 16C32 15.2927 31.9535 14.5962 31.8646 13.9131Z" fill="#6DA544"/>
<path d="M6.25876 28.6922C8.95682 30.7661 12.3341 31.9999 16.0001 31.9999C23.3926 31.9999 29.6129 26.9861 31.4489 20.1738H14.7772L6.25876 28.6922Z" fill="#0052B4"/>
<path d="M31.4489 11.8261C29.6129 5.01381 23.3926 0 16.0001 0C12.3341 0 8.95682 1.23381 6.25876 3.30769L14.7771 11.8261H31.4489Z" fill="#D80027"/>
</g>
<defs>
<clipPath id="clip0_280_16700">
<rect width="32" height="32" fill="white"/>
</clipPath>
</defs>
</svg>
